<?xml version="1.0" encoding="UTF-8"?>
<!DOCTYPE svg PUBLIC "-//W3C//DTD SVG 1.1//EN" "http://www.w3.org/Graphics/SVG/1.1/DTD/svg11.dtd">
<!-- Creator: CorelDRAW 2020 (64-Bit) -->
<svg xmlns="http://www.w3.org/2000/svg" xml:space="preserve" width="120mm" height="45mm" version="1.1" style="shape-rendering:geometricPrecision; text-rendering:geometricPrecision; image-rendering:optimizeQuality; fill-rule:evenodd; clip-rule:evenodd"
viewBox="0 0 12000 4500"
 xmlns:xlink="http://www.w3.org/1999/xlink"
 xmlns:xodm="http://www.corel.com/coreldraw/odm/2003">
 <defs>
  <style type="text/css">
   <![CDATA[
    .str0 {stroke:#C91A57;stroke-width:7.62;stroke-miterlimit:10}
    .fil8 {fill:#ED6F1E}
    .fil9 {fill:#E74923}
    .fil10 {fill:#E53624}
    .fil12 {fill:#E5175B}
    .fil11 {fill:#E41D36}
    .fil7 {fill:#EE9C0E}
    .fil13 {fill:#DD1681}
    .fil6 {fill:#EDE10A}
    .fil5 {fill:#D1C709}
    .fil4 {fill:#9CB424}
    .fil14 {fill:#A43C8C}
    .fil3 {fill:#79B632}
    .fil2 {fill:#2AA83E}
    .fil15 {fill:#5C3085}
    .fil16 {fill:#727271;fill-rule:nonzero}
    .fil1 {fill:#ED6F1E;fill-rule:nonzero}
    .fil0 {fill:#E51A4B;fill-rule:nonzero}
   ]]>
  </style>
 </defs>
 <g id="Layer_x0020_1">
  <metadata id="CorelCorpID_0Corel-Layer"/>
  <g id="_2680397248096">
   <path class="fil0 str0" d="M1030.38 2579.74l-204.72 0c-53.03,0 -98.51,-17.56 -136.44,-52.58 -37.83,-35.13 -56.83,-78.45 -56.83,-130.1l0 -1653.57 397.99 0 0 1836.25z"/>
   <path class="fil1" d="M7856.62 733.8l172.57 0c50.3,0 93.42,16.66 129.37,49.86 35.89,33.3 53.9,74.38 53.9,123.37l0 281.92 0 980.13 0 99.61 0 2.04c0,155.43 94.3,241.39 222.46,284.66l-495.9 0c-53.2,-96.21 -82.4,-218.76 -82.4,-373.3l0 -13.01 0 -980.13 0 -455.15z"/>
   <path class="fil1" d="M3303.77 915.98c-3.07,-137.33 -64.4,-179.63 -245.71,-184.11l-163.45 2.48 0 1856.41 409.16 0c0,-563.06 0,-1114.1 0,-1674.78z"/>
   <polygon class="fil1" points="4540.04,2590.76 3724.52,1612.55 4488.17,734.35 4076.79,734.35 3283.22,1642.57 4035.73,2590.76 "/>
   <path class="fil1" d="M5800.75 2555.39l0 -681.63c0,-492.73 296.63,-660.41 722.75,-684.81l0 280.63c-195.03,22.44 -366.91,105.69 -366.91,315.54l0 2.05 0 768.22 -355.84 0z"/>
   <path class="fil0" d="M2141.63 1090.42l553.02 0 0 -346.94 -1516.55 0 0 346.94 555.88 0c0,657.53 5.93,837.53 5.93,1489.89l204.72 0c53.03,0 98.52,-17.57 136.44,-52.58 37.84,-35.13 56.82,-78.44 56.82,-130.1 0,-590.34 3.74,-713.02 3.74,-1307.21z"/>
   <g>
    <path class="fil2" d="M9961.62 654.97l51.65 0c39.63,0 72.03,32.4 72.03,72.04l0 0.03c0,39.61 -32.4,72.02 -72.03,72.02l-51.65 0c-39.63,0 -72.04,-32.41 -72.04,-72.02l0 -0.03c0,-39.64 32.41,-72.04 72.04,-72.04z"/>
    <path class="fil3" d="M9949.31 883.11l228.44 0c39.63,0 72.04,32.4 72.04,72.04l0 0.01c0,39.63 -32.41,72.04 -72.04,72.04l-228.44 0c-39.63,0 -72.03,-32.41 -72.03,-72.04l0 -0.01c0,-39.64 32.4,-72.04 72.03,-72.04z"/>
    <path class="fil4" d="M10002.4 1111.25l466.46 0c39.63,0 72.03,32.4 72.03,72.02l0 0.03c0,39.62 -32.4,72.02 -72.03,72.02l-466.46 0c-39.63,0 -72.02,-32.4 -72.02,-72.02l0 -0.03c0,-39.62 32.39,-72.02 72.02,-72.02z"/>
    <path class="fil5" d="M10104.05 1339.37l668.63 0c39.62,0 72.01,32.41 72.01,72.04l0 0.02c0,39.63 -32.39,72.03 -72.01,72.03l-668.63 0c-39.66,0 -72.05,-32.4 -72.05,-72.03l0 -0.02c0,-39.63 32.39,-72.04 72.05,-72.04z"/>
    <path class="fil6" d="M10178.82 1567.51l618.44 0c39.63,0 72.05,32.41 72.05,72.04l0 0.02c0,39.63 -32.42,72.03 -72.05,72.03l-618.44 0c-39.62,0 -72.02,-32.4 -72.02,-72.03l0 -0.02c0,-39.63 32.4,-72.04 72.02,-72.04z"/>
    <path class="fil7" d="M10242.23 1795.64l753.66 0c39.63,0 72.02,32.4 72.02,72.04l0 0.03c0,39.61 -32.39,72.02 -72.02,72.02l-753.66 0c-39.63,0 -72.02,-32.41 -72.02,-72.02l0 -0.03c0,-39.64 32.39,-72.04 72.02,-72.04z"/>
    <path class="fil8" d="M10276.11 2023.78l894.55 0c39.63,0 72.05,32.4 72.05,72.04l0 0.01c0,39.63 -32.42,72.04 -72.05,72.04l-894.55 0c-39.63,0 -72.04,-32.41 -72.04,-72.04l0 -0.01c0,-39.64 32.41,-72.04 72.04,-72.04z"/>
    <path class="fil9" d="M10289.68 2251.92l825.39 0c39.63,0 72.02,32.4 72.02,72.02l0 0.03c0,39.62 -32.39,72.02 -72.02,72.02l-825.39 0c-39.64,0 -72.03,-32.4 -72.03,-72.02l0 -0.03c0,-39.62 32.39,-72.02 72.03,-72.02z"/>
    <path class="fil10" d="M10344.24 2480.04l945.59 0c39.64,0 72.04,32.41 72.04,72.04l0 0.02c0,39.63 -32.4,72.03 -72.04,72.03l-945.59 0c-39.62,0 -72.04,-32.4 -72.04,-72.03l0 -0.02c0,-39.63 32.42,-72.04 72.04,-72.04z"/>
    <path class="fil11" d="M10362.28 2708.18l768.69 0c39.64,0 72.02,32.41 72.02,72.04l0 0.02c0,39.63 -32.38,72.03 -72.02,72.03l-768.69 0c-39.61,0 -72.02,-32.4 -72.02,-72.03l0 -0.02c0,-39.63 32.41,-72.04 72.02,-72.04z"/>
    <path class="fil12" d="M10418.89 2936.31l521.39 0c39.63,0 72.03,32.4 72.03,72.04l0 0.03c0,39.61 -32.4,72.02 -72.03,72.02l-521.39 0c-39.63,0 -72.04,-32.41 -72.04,-72.02l0 -0.03c0,-39.64 32.41,-72.04 72.04,-72.04z"/>
    <path class="fil13" d="M10491.36 3164.45l560.15 0c39.61,0 72.02,32.4 72.02,72.04l0 0.01c0,39.63 -32.41,72.04 -72.02,72.04l-560.15 0c-39.65,0 -72.04,-32.41 -72.04,-72.04l0 -0.01c0,-39.64 32.39,-72.04 72.04,-72.04z"/>
    <path class="fil14" d="M10601.28 3392.59l296.44 0c39.64,0 72.03,32.4 72.03,72.02l0 0.03c0,39.62 -32.39,72.02 -72.03,72.02l-296.44 0c-39.61,0 -72.02,-32.4 -72.02,-72.02l0 -0.03c0,-39.62 32.41,-72.02 72.02,-72.02z"/>
    <path class="fil15" d="M10745.29 3620.71l99.65 0c39.63,0 72.04,32.41 72.04,72.04l0 0.02c0,39.63 -32.41,72.03 -72.04,72.03l-99.65 0c-39.63,0 -72.03,-32.4 -72.03,-72.03l0 -0.02c0,-39.63 32.4,-72.04 72.03,-72.04z"/>
   </g>
   <path class="fil1" d="M4793.57 1872.57c88.73,-40.31 209.33,-50.5 324.59,-66.49 62.83,-12.44 108.24,-31.19 136.15,-56.3 52.49,-54.72 54.85,-166.87 -10.48,-235.29 -31.43,-29.53 -76.76,-46.63 -136.15,-50.75 -97.67,-7.16 -174.52,14.39 -230.38,64.71 -55.8,50.22 -83.79,122.98 -83.79,218.18l0 113 0.06 12.94zm-340.42 -37.86l0 -52.83c0,-167.61 8.67,-303.98 133.59,-432.21 103.88,-106.61 260.46,-162.05 441.08,-161.85 48,0.07 92.07,1.52 132.23,4.45 125.66,9.2 235.62,50.38 329.88,123.56 94.26,73.15 141.38,186.24 141.38,339.19 0,241.07 -126.55,337.75 -344.29,379.77 -122.17,23.41 -393.75,12.79 -464.92,84.5 68.13,226.28 420.43,198.2 588.01,155.19l11.96 267.79c-215.87,62.19 -519.65,36.33 -712.34,-76.13 -69.79,-39.07 -130.01,-98.77 -180.62,-178.93 -50.6,-80.17 -75.96,-188.22 -75.96,-324.23l0 -128.27z"/>
   <path class="fil1" d="M7313.22 1898.81c-88.74,40.3 -209.33,50.49 -324.59,66.48 -62.83,12.45 -108.24,31.19 -136.15,56.3 -52.49,54.73 -54.85,166.88 10.48,235.3 31.43,29.53 76.76,46.63 136.15,50.75 97.66,7.15 174.52,-14.39 230.37,-64.71 55.81,-50.22 83.8,-122.98 83.8,-218.18l0 -113.01 -0.06 -12.93zm340.42 37.85l0 52.84c0,167.61 -8.67,303.98 -133.59,432.21 -103.89,106.61 -260.46,162.05 -441.08,161.84 -48,-0.06 -92.07,-1.51 -132.23,-4.45 -125.66,-9.19 -235.62,-50.37 -329.88,-123.55 -94.26,-73.15 -141.38,-186.24 -141.38,-339.19 0,-241.07 126.55,-337.75 344.29,-379.77 122.17,-23.41 393.74,-12.79 464.92,-84.5 -68.14,-226.28 -420.44,-198.2 -588.02,-155.19l-11.95 -267.79c215.87,-62.2 519.64,-36.34 712.34,76.12 69.79,39.07 130.01,98.78 180.62,178.94 50.59,80.17 75.96,188.22 75.96,324.22l0 128.27z"/>
   <path class="fil1" d="M9260.91 1898.81c-88.73,40.3 -209.33,50.49 -324.59,66.48 -62.83,12.45 -108.23,31.19 -136.15,56.3 -52.49,54.73 -54.85,166.88 10.48,235.3 31.43,29.53 76.76,46.63 136.15,50.75 97.67,7.15 174.52,-14.39 230.38,-64.71 55.8,-50.22 83.79,-122.98 83.79,-218.18l0 -113.01 -0.06 -12.93zm340.42 37.85l0 52.84c0,167.61 -8.67,303.98 -133.59,432.21 -103.88,106.61 -260.46,162.05 -441.08,161.84 -48,-0.06 -92.07,-1.51 -132.23,-4.45 -125.66,-9.19 -235.62,-50.37 -329.88,-123.55 -94.26,-73.15 -141.38,-186.24 -141.38,-339.19 0,-241.07 126.55,-337.75 344.29,-379.77 122.17,-23.41 393.75,-12.79 464.92,-84.5 -68.13,-226.28 -420.43,-198.2 -588.01,-155.19l-11.96 -267.79c215.87,-62.2 519.65,-36.34 712.35,76.12 69.78,39.07 130,98.78 180.61,178.94 50.6,80.17 75.96,188.22 75.96,324.22l0 128.27z"/>
   <g>
    <path class="fil16" d="M1020.24 3416.22c34.78,26.31 52.18,64.31 52.18,114.45 0,30.84 -5.71,57.58 -17.1,80.52 -10.81,21.93 -27.34,39.62 -49.26,53.06 -44,26.89 -95.59,40.34 -154.63,40.34 -34.49,0 -65.05,-4.39 -91.2,-13.15 -27.2,-9.21 -50.14,-22.52 -68.99,-40.2 -19.44,-18.27 -33.91,-39.16 -43.27,-62.84 -4.53,-10.82 -8.03,-23.24 -10.23,-37.27l-0.43 -1.76 73.37 0 0.44 1.32c3.36,13.15 8.32,24.7 14.9,34.63 25.15,38.01 68.7,57.01 130.82,57.01 27.48,0 52.76,-4.1 75.85,-12.42 44.57,-16.08 66.94,-44.88 66.94,-86.53 0,-30.85 -9.36,-53.2 -28.21,-66.95l-0.44 0c-18.56,-12.86 -48.23,-23.96 -89.16,-33.47l-73.96 -17.53c-48.52,-11.12 -82.86,-23.54 -102.89,-37.27 -34.49,-23.39 -51.74,-58.47 -51.74,-104.94 0,-50.58 16.96,-92.22 50.87,-124.82 17.83,-16.23 38.29,-28.35 61.67,-36.41 11.99,-3.93 25,-7.01 39.03,-8.9 13.88,-2.05 28.65,-3.07 43.99,-3.07 57.45,0 106.25,14.17 146.46,42.68 20.02,14.17 34.93,32.59 45.01,55.09 1.03,1.47 1.75,3.08 2.05,4.82 0.59,1.18 1.03,2.06 1.31,2.93l2.19 6.43c0.59,2.63 1.03,5.13 1.18,7.75 0.58,5.11 -0.29,10.52 -2.93,16.23 -2.05,3.5 -4.68,6.71 -8.18,9.93 -3.36,3.08 -8.33,5.84 -14.91,8.04 -8.91,3.21 -16.23,3.95 -21.92,2.34 -5.71,-1.46 -10.23,-3.8 -13.6,-7.01 -4.08,-3.37 -7.16,-8.04 -9.49,-13.75l-0.44 -0.44 0 -0.43c-3.95,-9.93 -8.49,-18.71 -13.59,-26.02 -22.96,-29.67 -61.25,-44.58 -115.19,-44.58 -43.4,0 -74.68,9.5 -93.83,28.65 -19.14,19.14 -28.65,41.66 -28.65,67.38 0,27.91 11.27,48.53 33.77,61.69 14.91,8.03 48.23,18.26 99.83,30.82l77.17 17.99c36.98,8.92 65.47,20.76 85.21,35.66zm302.99 -155.37c27.91,0 54.37,5.85 79.07,17.4 24.69,11.54 46.19,27.33 64.6,47.5 18.41,20.16 33.03,43.7 43.7,70.6 10.68,27.04 16.09,55.82 16.09,86.38 0,30.54 -5.41,59.34 -16.09,86.37 -10.67,26.9 -25.29,50.43 -43.7,70.6 -18.41,20.16 -39.91,35.95 -64.6,47.49 -24.7,11.55 -51.16,17.4 -79.07,17.4 -28.21,0 -54.82,-5.85 -79.52,-17.4 -24.7,-11.54 -46.18,-27.33 -64.6,-47.49 -18.41,-20.17 -32.88,-43.7 -43.55,-70.6 -10.53,-27.03 -15.79,-55.83 -15.79,-86.37 0,-30.56 5.26,-59.34 15.79,-86.38 10.67,-26.9 25.14,-50.44 43.55,-70.6 18.42,-20.17 39.9,-35.96 64.6,-47.5 24.7,-11.55 51.31,-17.4 79.52,-17.4zm-0.15 377.97c17.83,0 34.79,-4.09 50.87,-12.28 15.92,-8.03 29.82,-19.29 41.66,-33.32 11.83,-14.18 21.18,-30.84 28.06,-49.84 6.87,-19.01 10.23,-39.17 10.23,-60.65 0,-21.5 -3.36,-41.66 -10.23,-60.67 -6.88,-19 -16.23,-35.66 -28.06,-49.84 -11.84,-14.02 -25.74,-25.29 -41.66,-33.32 -16.08,-8.19 -33.04,-12.28 -50.87,-12.28 -18.27,0 -35.36,4.09 -51.44,12.28 -15.94,8.03 -29.82,19.3 -41.66,33.32 -11.84,14.18 -21.2,30.84 -28.06,49.84 -6.87,19.01 -10.23,39.17 -10.23,60.67 0,21.48 3.36,41.64 10.23,60.65 6.86,19 16.22,35.66 28.06,49.84 11.84,14.03 25.72,25.29 41.66,33.32 16.08,8.19 33.17,12.28 51.44,12.28zm319.81 60.51l0.87 -352.53 -39.03 0c-1.31,0 -2.91,-0.15 -4.67,-0.45 -3.5,-0.57 -7.17,-1.89 -10.82,-3.79 -10.38,-6.14 -15.64,-16.22 -15.64,-30.7 0,-14.61 5.13,-24.85 15.36,-30.98 3.8,-1.91 7.3,-3.22 10.81,-3.8 1.61,-0.3 3.22,-0.44 4.68,-0.44l38.44 0 0.87 -62.99c0,-27.04 5.85,-49.11 17.4,-65.92 1.89,-2.49 4.67,-5.85 8.19,-9.8 3.5,-4.1 8.03,-7.88 13.44,-11.55 5.54,-3.8 11.97,-7.01 19.29,-9.64 7.3,-2.78 15.79,-4.09 25.57,-4.09 5.41,0 10.23,0.15 14.33,0.29 4.09,0.15 8.78,0.73 13.88,1.47 2.93,0.28 6.73,0.72 11.56,1.3 4.82,0.74 9.49,1.46 13.73,2.2l0 1.76 0 7.6 0 23.52 0 33.04c-4.83,-0.3 -9.21,-0.74 -12.86,-1.32l-11.1 0c-13.45,0 -22.81,1.47 -28.37,4.23 -10.51,5.41 -15.77,15.94 -15.77,31.28l0 58.62 78.04 0 0 70.16 -78.04 0 0 352.53 -70.16 0zm300.06 -587.57c13.31,0 22.8,4.26 28.79,12.88 2.35,3.06 3.81,6.28 4.53,9.64 0.73,3.22 1.03,5.55 1.03,7.02l0 0.87 0 134.47 78.05 0 0 70.16 -78.05 0 0 251.39c0,15.49 5.26,25.72 15.78,30.83 5.84,3.22 15.2,4.69 28.36,4.69 1.74,0 3.35,0 5.11,-0.15 1.76,-0.15 3.65,-0.15 5.99,-0.15 3.65,0 8.04,-0.44 12.86,-1.31l0 32.89 0 23.67 0 7.61 0 2.19c-4.23,0.43 -8.91,0.87 -13.73,1.46 -4.82,0.58 -8.62,0.87 -11.55,1.17 -5.11,0.72 -9.8,1.3 -13.88,1.46 -4.1,0.15 -8.93,0.28 -14.33,0.28 -9.78,0 -18.27,-1.31 -25.72,-4.09 -7.46,-2.62 -13.89,-5.84 -19.44,-9.64 -5.55,-3.65 -10.23,-7.45 -13.73,-11.55 -3.52,-3.94 -6.3,-7.3 -8.34,-9.78 -11.69,-16.81 -17.53,-38.88 -17.53,-65.92l0.87 -255.05 -39.03 0c-1.31,0 -2.92,-0.3 -4.68,-0.89 -3.5,-0.58 -7.16,-1.89 -10.81,-3.8 -10.38,-5.54 -15.64,-15.64 -15.64,-30.69 0,-14.32 5.12,-24.41 15.35,-30.54 3.8,-1.91 7.3,-3.22 10.82,-3.8 1.61,-0.3 3.21,-0.44 4.67,-0.44l38.45 0 0.87 -134.47 0 -0.87c0.28,-1.47 0.73,-3.8 1.45,-7.02 0.74,-3.36 2.2,-6.58 4.54,-9.64 5.85,-8.62 15.49,-12.88 28.94,-12.88zm688.26 165.75l-110.06 403.12c-2.78,8.32 -6.86,14.31 -11.99,18.11 -5.1,3.96 -13.44,5.85 -25.28,5.85 -11.69,0 -20.75,-2.33 -27.18,-7.02 -6.43,-4.82 -10.68,-10.38 -13.01,-16.94l-81.41 -296.12 -80.82 296.12c-2.34,6.56 -6.73,12.12 -13.16,16.94 -6.43,4.69 -15.49,7.02 -27.19,7.02 -11.69,0 -20.16,-1.89 -25.42,-5.85 -5.27,-3.8 -9.21,-9.79 -11.85,-18.11l-0.44 0 -109.91 -403.12 67.53 0 81.41 328.72 71.46 -290.12 0 -0.89c0,-0.28 0.15,-0.43 0.31,-0.43 0.15,0 0.15,-0.16 0.15,-0.44 0.87,-2.49 2.04,-5.99 3.5,-10.23 1.32,-4.39 3.8,-8.34 7.31,-12.27 3.35,-3.81 8.04,-7.17 14.03,-10.1 5.98,-2.78 13.88,-4.24 23.53,-4.24 9.21,0 16.66,1.46 22.5,4.24 5.85,2.93 10.54,6.43 14.19,10.53 3.5,4.09 6.14,8.47 7.88,12.86 1.76,4.39 3.08,8.04 3.8,10.97l-0.43 0 71.61 290.12 80.83 -328.72 68.11 0zm380.75 237.95c-0.29,13.16 -1.46,26.46 -3.52,40.19 -1.74,11.7 -4.52,24.26 -8.62,37.42 -3.94,13.3 -9.65,25.44 -17.1,36.25 -6.58,10.23 -13.73,19.01 -21.33,26.02 -7.75,7.15 -15.51,13.3 -23.39,18.27 -7.89,4.96 -15.49,9.06 -23.09,12.42 -7.61,3.22 -14.47,6.13 -20.77,8.76 -6.86,2.78 -14.46,4.98 -22.94,6.43 -8.47,1.33 -16.96,2.35 -25.71,2.78 -8.63,0.45 -17.4,0.59 -26.33,0.59 -8.75,0 -17.24,0 -25.28,0 -38.43,0 -70.29,-11.84 -95.44,-35.52 -24.85,-23.39 -37.27,-52.91 -37.27,-88.71 0,-38.74 12.29,-68.85 36.83,-90.33 23.98,-21.33 55.84,-34.49 95.6,-39.32l112.1 -14.18c16.66,-2.33 27.47,-9.21 32.6,-20.61 2.91,-5.41 4.37,-14.32 4.37,-26.89 0,-6 -0.59,-11.54 -1.74,-16.81 -3.37,-15.64 -11.41,-27.48 -23.98,-35.52 -17.4,-10.81 -41.79,-16.22 -73.22,-16.22 -7.75,0 -14.91,0.45 -21.49,1.47 -6.43,1.02 -13.16,2.19 -20.02,3.65 -4.82,1.17 -10.82,2.48 -17.55,4.09 -6.86,1.61 -13.58,3.21 -20.16,4.97 -7.45,1.91 -15.2,3.95 -23.09,5.99l0 -62.55c7.89,-2.04 15.64,-3.95 23.09,-5.56 6.58,-1.46 13.3,-2.91 20.16,-4.52 6.73,-1.61 12.73,-2.78 17.55,-3.67l0.43 0c13.6,-2.33 27.78,-3.5 42.38,-3.5 49.42,0 89.6,9.36 120.59,28.22 30.85,18.85 46.34,48.08 46.34,87.69l0 0.43 0 138.27zm-70.6 -31.86c0,0 -1.17,0.28 -3.65,1.17 -2.34,0.87 -5.27,1.89 -8.77,3.07 -3.37,1.17 -7.02,2.19 -10.67,3.36 -3.66,1.17 -6.88,2.04 -9.36,2.63 -5.41,1.46 -12.42,2.78 -20.76,4.09 -8.47,1.17 -15.92,2.34 -22.5,3.21l-42.23 5.56c-12.88,1.61 -23.7,3.52 -32.6,5.56 -8.78,1.89 -16.51,4.82 -23.09,8.47 -21.94,11.99 -32.89,31.58 -32.89,58.76 0,19.87 7.6,35.96 22.66,47.93 14.75,11.71 32.29,17.55 52.61,17.55 25.14,0 49.11,-5.71 72.2,-17.09 39.03,-19.44 58.62,-50.72 58.62,-93.84l0.43 -50.43zm139.01 215.73l0 -276.24c0,-31.13 5.69,-57 17.25,-77.9 11.53,-20.91 26.45,-37.57 44.57,-50.13 17.98,-12.57 37.99,-21.5 59.93,-26.91 21.92,-5.4 43.4,-8.17 64.16,-8.17l0 71.9c-12.57,0 -25.43,1.32 -38.88,4.1 -13.29,2.63 -25.58,7.45 -36.69,14.32 -11.1,6.87 -20.31,16.07 -27.62,27.78 -7.17,11.84 -10.82,26.59 -10.82,44.57l0 0.44 0 276.24 -71.9 0zm630.82 -217.05c0,6.29 -0.3,12.42 -0.89,18.42 -0.58,5.99 -1.31,11.83 -2.19,17.54l-1.31 0 0 0.44 -327.11 0c3.36,17.24 9.06,33.17 17.1,47.79 8.05,14.61 17.69,27.34 28.95,38.15 11.25,10.67 23.82,19.14 37.85,25.14 14.03,5.99 28.64,9.06 44.14,9.06 18.85,0 36.54,-4.39 53.05,-13.3 16.52,-8.77 30.84,-20.9 42.83,-36.4l55.25 41.96c-18.85,22.79 -41.22,40.77 -66.94,53.93 -25.87,13 -53.93,19.58 -84.19,19.58 -28.21,0 -54.82,-5.85 -79.52,-17.4 -24.69,-11.54 -46.18,-27.33 -64.6,-47.49 -18.41,-20.17 -32.88,-43.7 -43.41,-70.6 -10.67,-27.03 -15.93,-55.83 -15.93,-86.37 0,-30.56 5.26,-59.34 15.93,-86.38 10.53,-26.9 25,-50.44 43.41,-70.6 18.42,-20.17 39.91,-35.96 64.6,-47.5 24.7,-11.55 51.31,-17.4 79.52,-17.4 27.91,0 54.37,5.7 78.92,17.25 24.71,11.55 46.34,27.48 64.75,47.5 18.41,20.18 32.88,43.7 43.7,70.6 10.68,26.89 16.09,55.69 16.09,86.08zm-203.46 -155.66c-15.5,0 -30.11,2.93 -44.14,8.93 -14.03,5.98 -26.6,14.31 -37.85,24.98 -11.26,10.82 -20.9,23.39 -28.95,37.86 -8.04,14.62 -13.74,30.41 -17.1,47.5l255.63 0c-3.36,-17.09 -9.06,-32.88 -16.94,-47.5 -7.76,-14.47 -17.4,-27.04 -28.65,-37.86 -11.26,-10.67 -23.98,-19 -37.86,-24.98 -14.03,-6 -28.8,-8.93 -44.14,-8.93zm477.81 372.71l0 -583.18 336.15 0 0 64.9 -265.12 0 0 186.8 238.53 0 0 61.38 -238.53 0 0 206.96 271.12 0 0 63.14 -342.15 0zm750.52 -203.46c0,27.78 -3.21,51.61 -9.64,71.77 -6.43,20.17 -14.19,37.42 -23.55,51.6 -9.19,14.32 -18.98,26.01 -29.22,35.22 -10.38,9.21 -19.3,16.37 -27.04,21.78 -15.64,10.95 -31.86,18.42 -48.67,22.35 -16.96,3.96 -33.47,6 -49.7,6 -57.3,0 -102.02,-21.92 -133.88,-65.92 -32.3,-43.99 -48.38,-98.94 -48.38,-165.02 0,-70.14 16.38,-123.2 49.26,-158.86 32.45,-35.95 74.83,-53.94 127.01,-53.94 25.73,0 49.11,5.26 70.16,15.93 21.48,10.81 39.9,26.32 55.25,46.34l0 -206.08 68.4 0 0 378.83zm-183.43 142.95c25,0 45.59,-7.02 61.53,-21.2 15.93,-14.02 28.5,-32.74 37.71,-55.83 4.82,-12.27 8.47,-25.72 11.1,-40.33 2.5,-14.77 3.8,-29.82 3.8,-45.16 0,-54.24 -11.83,-93.11 -35.51,-116.79 -23.68,-23.68 -51.15,-35.52 -82.58,-35.52 -35.95,0 -63.28,14.47 -82.13,43.27 -18.57,29.37 -27.78,65.62 -27.78,109.04 0,49.24 9.21,89.14 27.78,119.25 9.49,15.2 21.48,26.17 35.95,33.04 14.61,6.86 31.28,10.23 50.13,10.23zm408.96 65.77c-20.62,0 -40.34,-3.94 -59.34,-11.84 -19.01,-7.74 -35.67,-18.55 -50.14,-32 -14.46,-13.59 -25.87,-29.53 -34.49,-47.8 -8.62,-18.27 -12.86,-37.71 -12.86,-58.32l0 -277.12 71.9 0 0 277.42c0,12.27 2.34,23.83 6.88,34.64 4.52,10.95 10.8,20.31 18.86,28.35 7.88,8.04 17.24,14.32 27.91,19.14 10.66,4.69 22.22,7.02 34.49,7.02 12.28,0 23.53,-2.33 33.91,-7.02 10.38,-4.82 19.29,-11.1 26.6,-19.14 7.16,-8.04 12.86,-17.4 17.1,-28.35 4.09,-10.81 6.14,-22.37 6.14,-34.64l0 -0.44 0 -276.98 71.91 0 0 276.68c0,20.9 -4.39,40.49 -13.3,58.76 -8.77,18.27 -20.61,34.21 -35.38,47.8 -14.6,13.45 -31.56,24.26 -50.7,32 -19.16,7.9 -39.03,11.84 -59.49,11.84zm471.07 -87.11c1.46,-1.32 2.77,-2.62 3.65,-3.8 1.03,-1.17 2.2,-2.49 3.22,-3.8l0 79.37c-23.68,10.23 -50.87,15.34 -81.71,15.34 -54.8,0 -98.51,-20.03 -130.96,-60.06 -32.3,-40.21 -48.52,-90.49 -48.52,-150.41 0,-73.23 17.68,-130.52 53.2,-172.03 35.66,-40.78 81.12,-61.24 136.51,-61.24 27.19,0 51.02,3.5 71.48,10.67l0 76.89c-15.05,-16.23 -38.88,-24.42 -71.48,-24.42 -45.16,0 -77.17,21.92 -96.31,65.63 -12.58,28.64 -18.86,63.87 -18.86,105.53 0,42.1 9.06,77.46 27.04,105.96 17.4,28.65 45.16,42.97 83.46,42.97 29.38,0 52.47,-8.91 69.28,-26.6zm396.39 -102.02c-0.29,13.16 -1.46,26.46 -3.52,40.19 -1.74,11.7 -4.52,24.26 -8.62,37.42 -3.94,13.3 -9.65,25.44 -17.1,36.25 -6.58,10.23 -13.73,19.01 -21.33,26.02 -7.75,7.15 -15.5,13.3 -23.39,18.27 -7.89,4.96 -15.49,9.06 -23.09,12.42 -7.6,3.22 -14.47,6.13 -20.76,8.76 -6.87,2.78 -14.47,4.98 -22.94,6.43 -8.48,1.33 -16.96,2.35 -25.72,2.78 -8.63,0.45 -17.4,0.59 -26.32,0.59 -8.76,0 -17.25,0 -25.29,0 -38.43,0 -70.29,-11.84 -95.44,-35.52 -24.85,-23.39 -37.27,-52.91 -37.27,-88.71 0,-38.74 12.29,-68.85 36.84,-90.33 23.97,-21.33 55.84,-34.49 95.59,-39.32l112.1 -14.18c16.66,-2.33 27.48,-9.21 32.6,-20.61 2.91,-5.41 4.37,-14.32 4.37,-26.89 0,-6 -0.59,-11.54 -1.74,-16.81 -3.37,-15.64 -11.4,-27.48 -23.98,-35.52 -17.4,-10.81 -41.79,-16.22 -73.22,-16.22 -7.75,0 -14.9,0.45 -21.48,1.47 -6.43,1.02 -13.16,2.19 -20.03,3.65 -4.82,1.17 -10.82,2.48 -17.55,4.09 -6.86,1.61 -13.58,3.21 -20.16,4.97 -7.45,1.91 -15.2,3.95 -23.09,5.99l0 -62.55c7.89,-2.04 15.64,-3.95 23.09,-5.56 6.58,-1.46 13.3,-2.91 20.16,-4.52 6.73,-1.61 12.73,-2.78 17.55,-3.67l0.44 0c13.59,-2.33 27.77,-3.5 42.38,-3.5 49.41,0 89.59,9.36 120.59,28.22 30.84,18.85 46.33,48.08 46.33,87.69l0 0.43 0 138.27zm-70.6 -31.86c0,0 -1.17,0.28 -3.65,1.17 -2.34,0.87 -5.27,1.89 -8.77,3.07 -3.37,1.17 -7.02,2.19 -10.67,3.36 -3.66,1.17 -6.88,2.04 -9.36,2.63 -5.4,1.46 -12.42,2.78 -20.76,4.09 -8.47,1.17 -15.92,2.34 -22.5,3.21l-42.23 5.56c-12.88,1.61 -23.69,3.52 -32.6,5.56 -8.78,1.89 -16.51,4.82 -23.09,8.47 -21.94,11.99 -32.89,31.58 -32.89,58.76 0,19.87 7.6,35.96 22.66,47.93 14.75,11.71 32.3,17.55 52.61,17.55 25.15,0 49.11,-5.71 72.2,-17.09 39.03,-19.44 58.62,-50.72 58.62,-93.84l0.43 -50.43zm233.57 -371.84c13.31,0 22.8,4.26 28.8,12.88 2.34,3.06 3.8,6.28 4.52,9.64 0.73,3.22 1.03,5.55 1.03,7.02l0 0.87 0 134.47 78.05 0 0 70.16 -78.05 0 0 251.39c0,15.49 5.26,25.72 15.78,30.83 5.84,3.22 15.2,4.69 28.36,4.69 1.75,0 3.35,0 5.11,-0.15 1.76,-0.15 3.65,-0.15 5.99,-0.15 3.66,0 8.04,-0.44 12.86,-1.31l0 32.89 0 23.67 0 7.61 0 2.19c-4.23,0.43 -8.9,0.87 -13.73,1.46 -4.82,0.58 -8.62,0.87 -11.55,1.17 -5.11,0.72 -9.79,1.3 -13.88,1.46 -4.1,0.15 -8.92,0.28 -14.33,0.28 -9.78,0 -18.27,-1.31 -25.72,-4.09 -7.45,-2.62 -13.88,-5.84 -19.44,-9.64 -5.55,-3.65 -10.23,-7.45 -13.73,-11.55 -3.52,-3.94 -6.3,-7.3 -8.34,-9.78 -11.69,-16.81 -17.53,-38.88 -17.53,-65.92l0.87 -255.05 -39.03 0c-1.31,0 -2.92,-0.3 -4.67,-0.89 -3.5,-0.58 -7.17,-1.89 -10.82,-3.8 -10.38,-5.54 -15.64,-15.64 -15.64,-30.69 0,-14.32 5.12,-24.41 15.35,-30.54 3.81,-1.91 7.31,-3.22 10.82,-3.8 1.61,-0.3 3.22,-0.44 4.67,-0.44l38.45 0 0.87 -134.47 0 -0.87c0.28,-1.47 0.73,-3.8 1.46,-7.02 0.73,-3.36 2.19,-6.58 4.53,-9.64 5.85,-8.62 15.49,-12.88 28.94,-12.88zm169.7 164.88l72.78 0 0 422.69 -72.78 0 0 -422.69zm77.16 -118.68c0,5.69 -1.03,10.95 -3.22,15.92 -2.04,4.83 -4.96,9.06 -8.76,12.73 -3.66,3.8 -8.03,6.71 -13.01,8.76 -4.97,2.19 -10.23,3.21 -15.94,3.21 -5.69,0 -10.95,-1.02 -15.92,-3.21 -4.82,-2.05 -9.06,-4.96 -12.73,-8.76 -3.78,-3.67 -6.71,-7.9 -8.75,-12.73 -2.2,-4.97 -3.22,-10.23 -3.22,-15.92 0,-5.71 1.02,-10.97 3.22,-15.94 2.04,-4.96 4.97,-9.34 8.75,-13.01 3.67,-3.8 7.91,-6.72 12.73,-8.76 4.97,-2.19 10.23,-3.21 15.92,-3.21 11.27,0 21.05,3.93 28.95,11.97 8.04,7.9 11.98,17.7 11.98,28.95zm257.1 102.89c27.91,0 54.37,5.85 79.07,17.4 24.69,11.54 46.19,27.33 64.6,47.5 18.41,20.16 33.03,43.7 43.7,70.6 10.68,27.04 16.09,55.82 16.09,86.38 0,30.54 -5.41,59.34 -16.09,86.37 -10.67,26.9 -25.29,50.43 -43.7,70.6 -18.41,20.16 -39.91,35.95 -64.6,47.49 -24.7,11.55 -51.16,17.4 -79.07,17.4 -28.21,0 -54.82,-5.85 -79.52,-17.4 -24.69,-11.54 -46.18,-27.33 -64.6,-47.49 -18.41,-20.17 -32.88,-43.7 -43.55,-70.6 -10.53,-27.03 -15.79,-55.83 -15.79,-86.37 0,-30.56 5.26,-59.34 15.79,-86.38 10.67,-26.9 25.14,-50.44 43.55,-70.6 18.42,-20.17 39.91,-35.96 64.6,-47.5 24.7,-11.55 51.31,-17.4 79.52,-17.4zm-0.15 377.97c17.83,0 34.79,-4.09 50.87,-12.28 15.92,-8.03 29.82,-19.29 41.66,-33.32 11.84,-14.18 21.18,-30.84 28.06,-49.84 6.87,-19.01 10.23,-39.17 10.23,-60.65 0,-21.5 -3.36,-41.66 -10.23,-60.67 -6.88,-19 -16.22,-35.66 -28.06,-49.84 -11.84,-14.02 -25.74,-25.29 -41.66,-33.32 -16.08,-8.19 -33.04,-12.28 -50.87,-12.28 -18.27,0 -35.36,4.09 -51.44,12.28 -15.94,8.03 -29.82,19.3 -41.66,33.32 -11.84,14.18 -21.2,30.84 -28.06,49.84 -6.87,19.01 -10.23,39.17 -10.23,60.67 0,21.48 3.36,41.64 10.23,60.65 6.86,19 16.22,35.66 28.06,49.84 11.84,14.03 25.72,25.29 41.66,33.32 16.08,8.19 33.17,12.28 51.44,12.28zm429.87 -379.73c21.33,0 41.79,4.11 61.23,12.28 19.29,8.05 36.54,19.3 51.59,33.33 14.92,14.17 26.91,30.7 35.67,49.4 8.92,18.7 13.31,38.73 13.31,60.21l0 285.02 -73.68 0 0 -285.02c0,-12.86 -2.32,-24.83 -7.16,-35.95 -4.67,-11.1 -11.25,-20.89 -19.44,-29.08 -8.32,-8.34 -18.12,-14.9 -29.09,-19.73 -11.1,-4.82 -22.94,-7.31 -35.95,-7.31 -12.86,0 -24.54,2.49 -35.22,7.31 -10.67,4.83 -19.73,11.39 -27.48,19.73 -7.74,8.19 -13.73,17.98 -18.12,29.08 -4.24,11.12 -6.43,23.09 -6.43,35.95l0 0.45 0 284.57 -73.67 0 0 -284.57c0,-21.49 4.53,-41.66 13.74,-60.51 9.06,-18.85 21.2,-35.38 36.4,-49.55 15.06,-14.03 32.59,-25.28 52.31,-33.33 19.89,-8.17 40.49,-12.28 61.99,-12.28zm452.07 440.24l0 -582.29 171.73 0c26.31,0 49.55,3.5 69.87,10.66 20.6,7.45 38.73,18.27 54.52,32.59 15.78,14.33 27.48,31.58 35.22,51.89 7.75,20.46 11.55,43.85 11.55,70.16 0,22.65 -3.37,43.7 -10.23,63.44 -6.87,19.44 -17.55,37.56 -31.87,54.37 -13.44,16.51 -30.99,28.93 -52.76,37.27 -21.48,8.62 -46.91,12.86 -76,12.86l-99.24 0 0 249.05 -72.79 0zm72.79 -309.56l72.49 0c36.53,0 66.35,-7.89 89.16,-23.53 23.24,-15.64 34.78,-43.57 34.78,-83.47 0,-45.01 -16.66,-75.56 -50.14,-91.49 -18.11,-8.62 -42.68,-12.86 -73.8,-12.86l-72.49 0 0 211.35zm327.11 309.56l0 -276.24c0,-31.13 5.7,-57 17.25,-77.9 11.54,-20.91 26.45,-37.57 44.57,-50.13 17.98,-12.57 37.99,-21.5 59.93,-26.91 21.92,-5.4 43.4,-8.17 64.16,-8.17l0 71.9c-12.57,0 -25.43,1.32 -38.88,4.1 -13.29,2.63 -25.58,7.45 -36.68,14.32 -11.11,6.87 -20.32,16.07 -27.63,27.78 -7.17,11.84 -10.82,26.59 -10.82,44.57l0 0.44 0 276.24 -71.9 0zm428.38 -438.48c27.92,0 54.37,5.85 79.07,17.4 24.7,11.54 46.2,27.33 64.6,47.5 18.42,20.16 33.03,43.7 43.7,70.6 10.68,27.04 16.09,55.82 16.09,86.38 0,30.54 -5.41,59.34 -16.09,86.37 -10.67,26.9 -25.28,50.43 -43.7,70.6 -18.4,20.16 -39.9,35.95 -64.6,47.49 -24.7,11.55 -51.15,17.4 -79.07,17.4 -28.21,0 -54.82,-5.85 -79.51,-17.4 -24.7,-11.54 -46.18,-27.33 -64.6,-47.49 -18.42,-20.17 -32.89,-43.7 -43.55,-70.6 -10.54,-27.03 -15.79,-55.83 -15.79,-86.37 0,-30.56 5.25,-59.34 15.79,-86.38 10.66,-26.9 25.13,-50.44 43.55,-70.6 18.42,-20.17 39.9,-35.96 64.6,-47.5 24.69,-11.55 51.3,-17.4 79.51,-17.4zm-0.15 377.97c17.84,0 34.8,-4.09 50.87,-12.28 15.93,-8.03 29.82,-19.29 41.66,-33.32 11.84,-14.18 21.18,-30.84 28.06,-49.84 6.87,-19.01 10.23,-39.17 10.23,-60.65 0,-21.5 -3.36,-41.66 -10.23,-60.67 -6.88,-19 -16.22,-35.66 -28.06,-49.84 -11.84,-14.02 -25.73,-25.29 -41.66,-33.32 -16.07,-8.19 -33.03,-12.28 -50.87,-12.28 -18.26,0 -35.36,4.09 -51.44,12.28 -15.93,8.03 -29.82,19.3 -41.65,33.32 -11.84,14.18 -21.2,30.84 -28.07,49.84 -6.86,19.01 -10.23,39.17 -10.23,60.67 0,21.48 3.37,41.64 10.23,60.65 6.87,19 16.23,35.66 28.07,49.84 11.83,14.03 25.72,25.29 41.65,33.32 16.08,8.19 33.18,12.28 51.44,12.28zm223.79 144.98c4.52,1.03 8.32,1.61 11.4,1.48 2.91,-0.15 5.54,-0.74 7.74,-1.61 2.04,-0.74 3.8,-1.76 5.25,-2.93 1.48,-1.17 2.65,-2.19 3.52,-2.93 2.48,-3.21 4.67,-8.32 6.58,-15.19 1.89,-7.01 2.78,-16.66 2.78,-28.95l0 -456.89 71.9 0 0 464.49c0,30.56 -4.97,53.79 -15.05,69.43 -16.95,25.73 -48.68,38.59 -95.01,38.59 -1.61,0 -3.5,0 -5.26,0 -1.89,0 -3.8,-0.3 -5.84,-0.87 -3.95,0 -9.95,-0.3 -17.98,-0.89l29.97 -63.73zm111.8 -626.28c0,11.39 -3.94,21.19 -11.84,29.09 -7.74,8.04 -17.38,11.97 -28.78,11.97 -11.41,0 -21.05,-3.93 -28.95,-11.97 -7.89,-7.9 -11.84,-17.7 -11.84,-29.09 0,-5.4 1.17,-10.53 3.21,-15.5 2.2,-4.96 5.13,-9.34 8.63,-13.01 3.51,-3.8 7.9,-6.72 12.87,-8.76 4.96,-2.19 10.37,-3.21 16.08,-3.21 5.69,0 10.95,1.02 16.07,3.21 4.97,2.04 9.21,4.96 12.71,8.76 3.67,3.67 6.43,8.05 8.62,13.01 2.2,4.97 3.22,10.1 3.22,15.5z"/>
    <path class="fil16" d="M9002.34 3482.28c0,6.29 -0.31,12.42 -0.89,18.42 -0.59,5.99 -1.31,11.83 -2.19,17.54l-1.31 0 0 0.44 -327.11 0c3.36,17.24 9.06,33.17 17.09,47.79 8.06,14.61 17.7,27.34 28.95,38.15 11.25,10.67 23.83,19.14 37.86,25.14 14.03,5.99 28.63,9.06 44.14,9.06 18.85,0 36.53,-4.39 53.04,-13.3 16.53,-8.77 30.85,-20.9 42.84,-36.4l55.25 41.96c-18.85,22.79 -41.22,40.77 -66.94,53.93 -25.87,13 -53.94,19.58 -84.19,19.58 -28.22,0 -54.82,-5.85 -79.52,-17.4 -24.7,-11.54 -46.18,-27.33 -64.6,-47.49 -18.42,-20.17 -32.88,-43.7 -43.41,-70.6 -10.67,-27.03 -15.93,-55.83 -15.93,-86.37 0,-30.56 5.26,-59.34 15.93,-86.38 10.53,-26.9 24.99,-50.44 43.41,-70.6 18.42,-20.17 39.9,-35.96 64.6,-47.5 24.7,-11.55 51.3,-17.4 79.52,-17.4 27.91,0 54.37,5.7 78.91,17.25 24.72,11.55 46.35,27.48 64.75,47.5 18.42,20.18 32.89,43.7 43.71,70.6 10.68,26.89 16.09,55.69 16.09,86.08zm-203.46 -155.66c-15.51,0 -30.11,2.93 -44.14,8.93 -14.03,5.98 -26.61,14.31 -37.86,24.98 -11.25,10.82 -20.89,23.39 -28.95,37.86 -8.03,14.62 -13.73,30.41 -17.09,47.5l255.63 0c-3.37,-17.09 -9.06,-32.88 -16.95,-47.5 -7.75,-14.47 -17.39,-27.04 -28.65,-37.86 -11.25,-10.67 -23.97,-19 -37.85,-24.98 -14.04,-6 -28.8,-8.93 -44.14,-8.93zm504.11 290.86c1.46,-1.32 2.77,-2.62 3.65,-3.8 1.02,-1.17 2.2,-2.49 3.22,-3.8l0 79.37c-23.68,10.23 -50.87,15.34 -81.71,15.34 -54.81,0 -98.51,-20.03 -130.96,-60.06 -32.3,-40.21 -48.52,-90.49 -48.52,-150.41 0,-73.23 17.68,-130.52 53.19,-172.03 35.67,-40.78 81.13,-61.24 136.52,-61.24 27.19,0 51.02,3.5 71.48,10.67l0 76.89c-15.06,-16.23 -38.88,-24.42 -71.48,-24.42 -45.16,0 -77.18,21.92 -96.32,65.63 -12.57,28.64 -18.85,63.87 -18.85,105.53 0,42.1 9.06,77.46 27.04,105.96 17.4,28.65 45.16,42.97 83.46,42.97 29.38,0 52.47,-8.91 69.28,-26.6zm159.46 -505.72c13.31,0 22.8,4.26 28.8,12.88 2.34,3.06 3.8,6.28 4.52,9.64 0.73,3.22 1.03,5.55 1.03,7.02l0 0.87 0 134.47 78.05 0 0 70.16 -78.05 0 0 251.39c0,15.49 5.26,25.72 15.78,30.83 5.84,3.22 15.2,4.69 28.36,4.69 1.74,0 3.35,0 5.11,-0.15 1.76,-0.15 3.65,-0.15 5.99,-0.15 3.65,0 8.04,-0.44 12.86,-1.31l0 32.89 0 23.67 0 7.61 0 2.19c-4.23,0.43 -8.91,0.87 -13.73,1.46 -4.82,0.58 -8.62,0.87 -11.55,1.17 -5.11,0.72 -9.8,1.3 -13.88,1.46 -4.1,0.15 -8.93,0.28 -14.33,0.28 -9.78,0 -18.27,-1.31 -25.72,-4.09 -7.45,-2.62 -13.88,-5.84 -19.44,-9.64 -5.55,-3.65 -10.23,-7.45 -13.73,-11.55 -3.52,-3.94 -6.3,-7.3 -8.34,-9.78 -11.69,-16.81 -17.53,-38.88 -17.53,-65.92l0.87 -255.05 -39.03 0c-1.31,0 -2.92,-0.3 -4.67,-0.89 -3.5,-0.58 -7.17,-1.89 -10.82,-3.8 -10.38,-5.54 -15.64,-15.64 -15.64,-30.69 0,-14.32 5.12,-24.41 15.35,-30.54 3.8,-1.91 7.3,-3.22 10.82,-3.8 1.61,-0.3 3.21,-0.44 4.67,-0.44l38.45 0 0.87 -134.47 0 -0.87c0.28,-1.47 0.73,-3.8 1.45,-7.02 0.74,-3.36 2.2,-6.58 4.54,-9.64 5.85,-8.62 15.49,-12.88 28.94,-12.88z"/>
   </g>
  </g>
 </g>
</svg>
