<?xml version="1.0" encoding="UTF-8"?>
<!DOCTYPE svg PUBLIC "-//W3C//DTD SVG 1.1//EN" "http://www.w3.org/Graphics/SVG/1.1/DTD/svg11.dtd">
<!-- Creator: CorelDRAW 2021 (64-Bit) -->
<svg xmlns="http://www.w3.org/2000/svg" xml:space="preserve" width="7.65in" height="2.2in" version="1.1" style="shape-rendering:geometricPrecision; text-rendering:geometricPrecision; image-rendering:optimizeQuality; fill-rule:evenodd; clip-rule:evenodd"
viewBox="0 0 7650 2200"
 xmlns:xlink="http://www.w3.org/1999/xlink"
 xmlns:xodm="http://www.corel.com/coreldraw/odm/2003">
 <defs>
  <style type="text/css">
   <![CDATA[
    .str0 {stroke:#C91A57;stroke-width:3;stroke-miterlimit:2.61313}
    .fil7 {fill:#B92384}
    .fil3 {fill:#C91A57}
    .fil4 {fill:#DC2B1C}
    .fil6 {fill:#EA5D08}
    .fil8 {fill:#EF7F1A}
    .fil5 {fill:#F49C04}
    .fil9 {fill:#F6D46B}
    .fil2 {fill:#1C1B17;fill-rule:nonzero}
    .fil0 {fill:#C91A57;fill-rule:nonzero}
    .fil1 {fill:#F28F07;fill-rule:nonzero}
   ]]>
  </style>
 </defs>
 <g id="Layer_x0020_1">
  <metadata id="CorelCorpID_0Corel-Layer"/>
  <path class="fil0 str0" d="M84.82 43.35l140.91 0c36.5,0 67.81,12.41 93.92,37.17 26.04,24.83 39.11,55.46 39.11,91.97l0 1174.57 -273.94 0 0 -1303.71z"/>
  <path class="fil1" d="M6230.41 846.64c-33.68,16.83 -80.54,32.43 -140.56,46.85l-82.91 18.03c-43.24,12.06 -74.5,27.66 -93.71,46.85 -16.83,26.48 -25.22,52.89 -25.22,79.3 0,36.02 10.81,64.86 32.44,86.49 21.63,19.26 52.83,28.83 93.71,28.83 67.23,0 120.13,-19.2 158.57,-57.67 38.41,-38.39 57.68,-91.27 57.68,-158.57l0 -90.11zm57.67 443.33c-50.47,26.45 -103.96,42.62 -160.38,48.64 -56.49,5.98 -106.32,9 -149.59,9 -86.5,0 -162.19,-23.42 -227.07,-70.28 -64.88,-46.83 -97.31,-124.34 -97.31,-232.47 0,-100.91 29.41,-173 88.3,-216.26 58.87,-43.22 133.93,-72.07 225.27,-86.48 12,0 26.41,-1.8 43.25,-5.42 16.8,-3.59 36.04,-6.58 57.67,-9 105.72,-14.41 158.58,-45.63 158.58,-93.72 0,-36.04 -18.64,-59.46 -55.85,-70.26 -37.3,-10.83 -71.52,-16.24 -102.73,-16.24 -28.67,0 -54.69,3.52 -78.09,10.47l0 -205.52c21.38,-2.11 43.8,-3.18 67.3,-3.18 134.52,0 235.45,22.85 302.72,68.47 69.68,48.1 104.54,115.35 104.54,201.84l0 327.97c0,96.15 -17.46,171.22 -52.28,225.28 -34.83,54.05 -76.29,93.14 -124.32,117.15z"/>
  <path class="fil1" d="M5253.51 42.09l133.61 0c34.63,0 64.31,11.78 89.06,35.25 24.7,23.54 37.09,52.58 37.09,87.21l0 1185.93 -259.76 0 0 -1308.4z"/>
  <path class="fil1" d="M4764.83 843.74c-33.87,16.93 -81,32.62 -141.37,47.11l-83.38 18.14c-43.5,12.13 -74.94,27.81 -94.26,47.11 -16.93,26.63 -25.37,53.21 -25.37,79.77 0,36.24 10.88,65.23 32.63,86.99 21.75,19.37 53.15,29 94.26,29 67.62,0 120.82,-19.32 159.5,-58.01 38.64,-38.61 58.01,-91.8 58.01,-159.5l0 -90.63zm58.01 445.89c-50.76,26.61 -104.57,42.87 -161.31,48.93 -56.82,6.02 -106.94,9.06 -150.46,9.06 -86.99,0 -163.12,-23.56 -228.38,-70.68 -65.25,-47.11 -97.88,-125.07 -97.88,-233.82 0,-101.51 29.58,-174 88.82,-217.53 59.2,-43.47 134.71,-72.47 226.56,-86.97 12.07,0 26.56,-1.81 43.5,-5.45 16.89,-3.61 36.24,-6.63 58.01,-9.07 106.33,-14.48 159.5,-45.88 159.5,-94.26 0,-36.24 -18.74,-59.8 -56.18,-70.67 -37.51,-10.9 -71.92,-16.32 -103.31,-16.32 -28.83,0 -55,3.54 -78.55,10.51l0 -206.69c21.51,-2.12 44.06,-3.2 67.69,-3.2 135.3,0 236.82,22.98 304.48,68.87 70.09,48.37 105.14,116 105.14,203l0 329.88c0,96.7 -17.56,172.21 -52.58,226.59 -35.04,54.35 -76.74,93.67 -125.05,117.81z"/>
  <path class="fil1" d="M2955.6 753.18l378.49 0c-4.98,-66.79 -22.26,-116.24 -51.94,-148.43 -32.19,-34.61 -77.94,-51.94 -137.32,-51.94 -54.42,0 -98.95,17.33 -133.58,51.94 -34.67,34.69 -53.24,84.16 -55.64,148.43zm445.28 289.46l185.55 0c-27.25,103.91 -79.22,183.11 -155.85,237.48 -76.71,56.94 -173.21,85.35 -289.46,85.35 -141.01,0 -251.12,-45.74 -330.25,-137.3 -79.2,-89.05 -118.74,-216.43 -118.74,-382.22 0,-158.3 38.31,-282.03 115.02,-371.09 79.17,-91.48 189.27,-137.29 330.27,-137.29 148.44,0 263.47,44.54 345.13,133.57 79.13,91.57 118.72,218.96 118.72,382.22 0,9.92 0,18.57 0,25.99 0,7.43 0,12.42 0,14.84 0,12.41 -1.26,21.05 -3.69,25.98l-641.97 0c2.4,76.71 20.97,133.59 55.64,170.68 32.14,39.61 80.39,59.39 144.74,59.39 42.04,0 77.92,-8.62 107.61,-25.98 7.41,-2.42 14.2,-6.78 20.41,-13 6.14,-6.11 12.97,-12.96 20.39,-20.41 2.44,-7.41 11.72,-17.25 27.85,-29.67 16.06,-12.34 38.96,-18.55 68.64,-18.55z"/>
  <path class="fil1" d="M2774.52 1354.86l-561.34 -691.54 525.63 -620.83 -347.12 0 -468.12 589.09 0 -460.69c-2.11,-97.08 -44.33,-126.99 -169.13,-130.15l-112.5 1.75 0 1312.37 281.63 0 0 -396 103.17 -124.94 400.65 520.95 347.13 0z"/>
  <path class="fil1" d="M3740.8 1349.58l0 -447.75c0,-106.05 19.43,-194.17 58.74,-265.35 39.32,-71.18 90.1,-127.93 151.84,-170.76 61.24,-42.81 129.43,-73.17 204.11,-91.6 74.66,-18.42 147.85,-27.87 218.54,-27.87l0 244.93c-42.81,0 -86.62,4.48 -132.42,13.93 -45.3,8.96 -87.12,25.39 -124.96,48.79 -37.83,23.4 -69.2,54.76 -94.09,94.59 -24.39,40.33 -36.84,90.6 -36.84,151.84l0 1.5 0 447.75 -244.93 0z"/>
  <path class="fil2" d="M378.33 1876.39c0,4.87 -0.24,9.61 -0.68,14.26 -0.46,4.64 -1.02,9.17 -1.7,13.58l-1.02 0 0 0.34 -253.26 0c2.6,13.35 7.02,25.68 13.24,37 6.22,11.31 13.69,21.17 22.4,29.54 8.72,8.26 18.45,14.83 29.31,19.46 10.86,4.64 22.17,7.02 34.17,7.02 14.59,0 28.3,-3.4 41.08,-10.29 12.78,-6.8 23.87,-16.19 33.15,-28.19l42.77 32.49c-14.59,17.64 -31.92,31.56 -51.83,41.75 -20.03,10.08 -41.76,15.17 -65.18,15.17 -21.85,0 -42.44,-4.52 -61.56,-13.46 -19.12,-8.94 -35.76,-21.16 -50.01,-36.78 -14.26,-15.61 -25.46,-33.83 -33.61,-54.65 -8.25,-20.94 -12.33,-43.23 -12.33,-66.89 0,-23.64 4.08,-45.93 12.33,-66.87 8.16,-20.83 19.35,-39.05 33.61,-54.66 14.25,-15.61 30.89,-27.84 50.01,-36.78 19.13,-8.94 39.72,-13.46 61.56,-13.46 21.61,0 42.09,4.41 61.11,13.35 19.12,8.94 35.87,21.28 50.13,36.78 14.25,15.62 25.46,33.84 33.83,54.66 8.25,20.82 12.45,43.11 12.45,66.65zm-157.52 -120.52c-12,0 -23.31,2.26 -34.17,6.91 -10.87,4.63 -20.59,11.09 -29.31,19.35 -8.71,8.37 -16.17,18.09 -22.4,29.3 -6.22,11.32 -10.64,23.55 -13.24,36.78l197.92 0c-2.6,-13.23 -7.02,-25.46 -13.13,-36.78 -6,-11.2 -13.47,-20.93 -22.18,-29.3 -8.72,-8.26 -18.56,-14.72 -29.31,-19.35 -10.86,-4.64 -22.29,-6.91 -34.18,-6.91zm521.9 -51.6c16.63,0 32.48,3.17 47.64,9.39 15.17,6.34 28.52,14.94 40.28,25.81 11.77,10.75 21.05,23.53 28.06,38.02 6.9,14.59 10.42,30.22 10.42,46.85l0 220.09 -57.72 0 0 -219.98c0,-9.96 -1.69,-19.24 -5.09,-27.84 -3.5,-8.72 -8.25,-16.19 -14.37,-22.63 -6,-6.34 -13.24,-11.43 -21.51,-15.17 -8.37,-3.74 -17.42,-5.66 -27.38,-5.66 -10.08,0 -19.13,1.92 -27.5,5.66 -8.26,3.74 -15.5,8.82 -21.73,15.17 -6.22,6.44 -10.98,13.91 -14.49,22.63 -3.39,8.59 -5.09,17.87 -5.09,27.84l0 219.98 -57.04 0 0 -219.98c0,-9.96 -1.81,-19.24 -5.31,-27.84 -3.52,-8.72 -8.38,-16.19 -14.49,-22.63 -6,-6.34 -13.36,-11.43 -21.73,-15.17 -8.37,-3.74 -17.43,-5.66 -27.16,-5.66 -10.08,0 -19.23,1.92 -27.61,5.66 -8.37,3.74 -15.73,8.82 -21.73,15.17 -6.11,6.44 -10.97,13.91 -14.48,22.63 -3.5,8.59 -5.31,17.87 -5.31,27.84l0 219.98 -57.04 0 0 -220.09c0,-16.63 3.52,-32.26 10.42,-46.85 7.01,-14.49 16.29,-27.27 27.94,-38.02 11.54,-10.87 24.91,-19.47 40.07,-25.81 15.15,-6.22 31,-9.39 47.63,-9.39 19.46,0 37.57,4.3 54.54,12.79 16.87,8.48 31.12,20.03 42.67,34.63 11.43,-14.61 25.69,-26.15 42.54,-34.63 16.98,-8.49 35.08,-12.79 54.55,-12.79zm179.24 162.5c0,-21.5 2.5,-40.06 7.48,-55.68 4.98,-15.72 11.09,-29.08 18.44,-40.17 7.23,-11.09 14.83,-20.03 22.86,-27.04 7.92,-6.91 14.93,-12.56 20.82,-16.75 11.99,-8.38 24.56,-14.15 37.68,-17.44 13.12,-3.17 26.02,-4.74 38.7,-4.74 43.91,0 78.53,16.97 103.76,51.04 25.01,34.05 37.46,76.72 37.46,127.98 0,54.42 -12.67,95.39 -38.13,123.11 -25.01,27.61 -57.94,41.42 -98.91,41.42 -19.69,0 -37.68,-4.08 -54.09,-12.34 -16.3,-7.69 -30.78,-19.57 -43.12,-35.53l0 159.21 -52.96 0 0 -293.08zm142.93 -110.9c-19.47,0 -35.42,5.55 -47.98,16.53 -12.45,11.09 -22.19,25.46 -28.97,43.11 -3.85,9.51 -6.67,19.91 -8.71,31.46 -1.92,11.43 -2.94,23.09 -2.94,34.74 0,42.22 9.17,72.31 27.5,90.42 18.22,18.33 39.5,27.5 64.05,27.5 28.17,0 49.22,-11.2 63.37,-33.5 14.37,-21.83 21.61,-49.91 21.61,-84.42 0,-38.36 -7.24,-69.26 -21.61,-92.33 -7.02,-11.78 -16.19,-20.26 -27.5,-25.57 -11.32,-5.32 -24.22,-7.93 -38.81,-7.93zm245.33 89.39l0 199.16 -56.35 0 0 -199.16 0 -90.07 0 -140.78c0.23,-4.42 1.46,-8.38 3.62,-12 1.81,-3.05 4.64,-5.88 8.37,-8.37 3.74,-2.6 9.28,-3.84 16.41,-3.84 6.8,0 12.22,1.24 15.96,3.84 3.74,2.49 6.56,5.32 8.37,8.37 2.15,3.62 3.4,7.58 3.62,12l0 230.85zm202.12 -140.31c21.61,0 42.09,4.52 61.22,13.46 19.13,8.94 35.76,21.17 50.01,36.78 14.26,15.61 25.58,33.83 33.85,54.66 8.25,20.93 12.44,43.22 12.44,66.87 0,23.65 -4.19,45.94 -12.44,66.89 -8.26,20.82 -19.59,39.04 -33.85,54.65 -14.26,15.62 -30.89,27.83 -50.01,36.78 -19.13,8.94 -39.61,13.46 -61.22,13.46 -21.85,0 -42.44,-4.52 -61.57,-13.46 -19.13,-8.94 -35.76,-21.16 -50.01,-36.78 -14.26,-15.61 -25.47,-33.83 -33.73,-54.65 -8.15,-20.94 -12.22,-43.23 -12.22,-66.89 0,-23.64 4.08,-45.93 12.22,-66.87 8.26,-20.83 19.46,-39.05 33.73,-54.66 14.25,-15.61 30.89,-27.84 50.01,-36.78 19.13,-8.94 39.72,-13.46 61.57,-13.46zm-0.12 292.63c13.81,0 26.93,-3.16 39.38,-9.5 12.33,-6.22 23.09,-14.93 32.24,-25.8 9.17,-10.98 16.41,-23.89 21.74,-38.59 5.31,-14.71 7.91,-30.32 7.91,-46.96 0,-16.63 -2.6,-32.24 -7.91,-46.95 -5.33,-14.72 -12.57,-27.61 -21.74,-38.59 -9.16,-10.87 -19.91,-19.57 -32.24,-25.8 -12.45,-6.34 -25.57,-9.51 -39.38,-9.51 -14.15,0 -27.39,3.17 -39.83,9.51 -12.33,6.22 -23.08,14.93 -32.24,25.8 -9.18,10.98 -16.41,23.87 -21.73,38.59 -5.32,14.71 -7.93,30.32 -7.93,46.95 0,16.64 2.6,32.26 7.93,46.96 5.32,14.71 12.55,27.61 21.73,38.59 9.17,10.86 19.91,19.57 32.24,25.8 12.44,6.34 25.69,9.5 39.83,9.5zm251.56 167.03c-7.93,0 -14.03,-0.46 -18.21,-1.36 -2.26,-0.45 -4.64,-0.91 -7.14,-1.36 -2.59,-0.45 -5.43,-1.13 -8.49,-2.04l-3.96 -0.56 35.08 -49 1.37 0c4.19,0 8.15,-0.33 11.76,-1.01 3.62,-0.68 6.92,-1.93 9.85,-3.62 2.6,-1.59 4.64,-3.18 6.12,-4.87 1.48,-1.7 2.94,-3.62 4.41,-5.78l0.34 -0.68c0.46,-0.68 1.58,-3.17 3.4,-7.57 1.7,-4.42 3.74,-9.4 5.88,-14.94 2.26,-5.54 4.3,-10.86 6.34,-16.07 2.04,-5.2 3.5,-9.06 4.63,-11.44l-115.65 -327.82 60.99 0 86.8 254.83 86.22 -254.83 60.65 0c-21.85,60.99 -41.42,115.3 -58.61,163.06 -7.36,20.37 -14.6,40.28 -21.73,59.97 -7.24,19.69 -13.58,37.24 -19.13,52.51 -5.55,15.39 -10.07,27.95 -13.59,37.46 -3.5,9.62 -5.31,14.59 -5.31,14.81 -0.24,0.69 -1.14,3.07 -2.84,7.25 -1.58,4.19 -3.73,9.39 -6.22,15.38 -2.6,6.12 -5.43,12.68 -8.49,19.82 -3.05,7.01 -6.22,13.91 -9.27,20.48 -3.17,6.68 -6,12.56 -8.6,17.53 -2.72,5.1 -4.87,8.84 -6.68,10.98 -7.24,9.28 -16.63,16.41 -27.95,21.39 -11.43,4.98 -25.46,7.46 -41.98,7.46zm525.19 -262.54c-0.23,10.19 -1.13,20.49 -2.72,31.12 -1.36,9.06 -3.5,18.79 -6.68,28.97 -3.05,10.3 -7.46,19.69 -13.23,28.06 -5.1,7.92 -10.64,14.71 -16.53,20.15 -6,5.54 -11.99,10.3 -18.11,14.15 -6.11,3.85 -11.99,7.02 -17.89,9.62 -5.88,2.49 -11.19,4.75 -16.06,6.79 -5.32,2.16 -11.2,3.85 -17.77,4.98 -6.56,1.02 -13.13,1.81 -19.93,2.15 -6.67,0.34 -13.46,0.46 -20.37,0.46 -6.79,0 -13.35,0 -19.57,0 -29.76,0 -54.43,-9.17 -73.89,-27.5 -19.24,-18.11 -28.86,-40.97 -28.86,-68.69 0,-29.99 9.52,-53.29 28.53,-69.93 18.56,-16.52 43.22,-26.7 74,-30.44l86.8 -10.97c12.89,-1.81 21.26,-7.14 25.22,-15.96 2.26,-4.19 3.4,-11.09 3.4,-20.83 0,-4.63 -0.46,-8.93 -1.36,-13.01 -2.6,-12.11 -8.83,-21.27 -18.56,-27.5 -13.46,-8.38 -32.37,-12.56 -56.69,-12.56 -6,0 -11.54,0.34 -16.64,1.13 -4.98,0.79 -10.19,1.7 -15.49,2.83 -3.74,0.91 -8.38,1.92 -13.59,3.18 -5.32,1.24 -10.52,2.48 -15.61,3.84 -5.78,1.46 -11.78,3.05 -17.89,4.64l0 -48.44c6.11,-1.58 12.11,-3.05 17.89,-4.3 5.09,-1.13 10.29,-2.26 15.61,-3.5 5.2,-1.24 9.85,-2.15 13.59,-2.83l0.33 0c10.52,-1.81 21.51,-2.72 32.82,-2.72 38.25,0 69.37,7.24 93.36,21.83 23.87,14.6 35.87,37.23 35.87,67.89l0 0.35 0 107.04zm-54.66 -24.67c0,0 -0.9,0.23 -2.83,0.91 -1.81,0.67 -4.07,1.46 -6.8,2.37 -2.6,0.91 -5.43,1.7 -8.25,2.6 -2.83,0.91 -5.32,1.59 -7.24,2.04 -4.19,1.14 -9.62,2.16 -16.07,3.18 -6.56,0.9 -12.34,1.8 -17.43,2.48l-32.7 4.3c-9.96,1.24 -18.34,2.72 -25.23,4.3 -6.8,1.46 -12.8,3.73 -17.89,6.56 -16.97,9.28 -25.46,24.44 -25.46,45.49 0,15.39 5.89,27.83 17.54,37.12 11.43,9.06 25.01,13.58 40.74,13.58 19.46,0 38.02,-4.42 55.91,-13.24 30.21,-15.05 45.37,-39.26 45.37,-72.65l0.34 -39.04zm107.62 -283.81l52.96 0 0 159.56c12.34,-15.73 26.71,-27.72 43.12,-35.88 16.3,-8.25 34.28,-12.33 53.97,-12.33 40.63,0 73.56,13.92 98.68,41.76 25.24,27.84 37.8,68.92 37.8,123.01 0,51.6 -12.33,94.15 -37.11,127.76 -25.24,34.06 -59.87,51.03 -103.77,51.03 -12.68,0 -25.58,-1.58 -38.7,-4.64 -13.14,-3.06 -25.69,-8.82 -37.69,-17.31 -5.88,-4.18 -12.9,-9.73 -20.81,-16.86 -7.92,-7.13 -15.5,-16.18 -22.75,-27.28 -7.13,-10.97 -13.23,-24.32 -18.21,-39.94 -4.98,-15.61 -7.48,-34.06 -7.48,-55.57l0 -293.31zm208.67 370.49c14.38,-22.75 21.51,-53.53 21.51,-92.33 0,-34.3 -7.13,-62.35 -21.51,-84.42 -14.25,-22.3 -35.3,-33.5 -63.14,-33.5 -24.21,0 -45.48,9.17 -63.81,27.5 -18.22,18.11 -27.39,48.21 -27.39,90.43 0,11.87 1.02,23.53 2.94,34.96 2.04,11.31 4.86,21.73 8.6,31.24 7.13,17.87 16.75,32.36 29.08,43.22 12.34,10.98 28.29,16.41 47.64,16.41 14.49,0 27.38,-2.6 38.7,-7.92 11.2,-5.32 20.37,-13.81 27.38,-25.57zm125.84 -246.91l56.35 0 0 327.26 -56.35 0 0 -327.26zm59.75 -91.89c0,4.41 -0.8,8.48 -2.48,12.33 -1.58,3.74 -3.84,7.02 -6.8,9.85 -2.83,2.94 -6.22,5.2 -10.07,6.78 -3.84,1.7 -7.92,2.5 -12.33,2.5 -4.42,0 -8.5,-0.8 -12.34,-2.5 -3.73,-1.58 -7.01,-3.84 -9.85,-6.78 -2.94,-2.83 -5.2,-6.11 -6.78,-9.85 -1.7,-3.85 -2.5,-7.92 -2.5,-12.33 0,-4.42 0.8,-8.5 2.5,-12.34 1.58,-3.84 3.84,-7.23 6.78,-10.07 2.84,-2.94 6.12,-5.2 9.85,-6.79 3.85,-1.7 7.92,-2.5 12.34,-2.5 8.71,0 16.29,3.06 22.4,9.28 6.22,6.11 9.28,13.69 9.28,22.41zm106.04 219.98l0 199.16 -56.35 0 0 -199.16 0 -90.07 0 -140.78c0.22,-4.42 1.46,-8.38 3.62,-12 1.8,-3.05 4.64,-5.88 8.37,-8.37 3.74,-2.6 9.28,-3.84 16.41,-3.84 6.8,0 12.22,1.24 15.96,3.84 3.74,2.49 6.57,5.32 8.37,8.37 2.16,3.62 3.4,7.58 3.62,12l0 230.85zm52.73 -128.09l56.36 0 0 327.26 -56.36 0 0 -327.26zm59.75 -91.89c0,4.41 -0.79,8.48 -2.48,12.33 -1.58,3.74 -3.85,7.02 -6.79,9.85 -2.83,2.94 -6.22,5.2 -10.07,6.78 -3.86,1.7 -7.93,2.5 -12.34,2.5 -4.41,0 -8.48,-0.8 -12.33,-2.5 -3.74,-1.58 -7.02,-3.84 -9.84,-6.78 -2.94,-2.83 -5.2,-6.11 -6.79,-9.85 -1.7,-3.85 -2.5,-7.92 -2.5,-12.33 0,-4.42 0.8,-8.5 2.5,-12.34 1.58,-3.84 3.84,-7.23 6.79,-10.07 2.82,-2.94 6.11,-5.2 9.84,-6.79 3.85,-1.7 7.93,-2.5 12.33,-2.5 8.72,0 16.3,3.06 22.41,9.28 6.22,6.11 9.27,13.69 9.27,22.41zm122.9 -35.76c10.3,0 17.66,3.28 22.29,9.95 1.82,2.38 2.94,4.86 3.52,7.48 0.56,2.48 0.79,4.3 0.79,5.43l0 0.68 0 104.11 60.43 0 0 54.31 -60.43 0 0 194.64c0,11.99 4.08,19.91 12.22,23.87 4.52,2.49 11.77,3.62 21.95,3.62 1.36,0 2.6,0 3.96,-0.11 1.36,-0.11 2.82,-0.11 4.64,-0.11 2.82,0 6.22,-0.34 9.96,-1.02l0 25.46 0 18.33 0 5.88 0 1.7c-3.29,0.34 -6.91,0.68 -10.64,1.13 -3.74,0.46 -6.68,0.68 -8.94,0.91 -3.96,0.56 -7.58,1.02 -10.75,1.13 -3.17,0.12 -6.91,0.22 -11.09,0.22 -7.58,0 -14.15,-1.02 -19.93,-3.17 -5.77,-2.04 -10.75,-4.52 -15.04,-7.46 -4.3,-2.84 -7.93,-5.78 -10.64,-8.94 -2.72,-3.06 -4.87,-5.66 -6.46,-7.58 -9.05,-13.02 -13.57,-30.1 -13.57,-51.03l0.67 -197.47 -30.2 0c-1.02,0 -2.26,-0.22 -3.62,-0.68 -2.72,-0.44 -5.56,-1.46 -8.38,-2.94 -8.03,-4.3 -12.11,-12.11 -12.11,-23.76 0,-11.09 3.96,-18.9 11.89,-23.65 2.94,-1.48 5.66,-2.5 8.38,-2.94 1.24,-0.24 2.48,-0.34 3.61,-0.34l29.77 0 0.67 -104.11 0 -0.68c0.23,-1.12 0.57,-2.94 1.13,-5.43 0.56,-2.61 1.7,-5.1 3.5,-7.48 4.54,-6.67 12,-9.95 22.41,-9.95zm180.83 575.08c-7.93,0 -14.04,-0.46 -18.22,-1.36 -2.26,-0.45 -4.63,-0.91 -7.13,-1.36 -2.6,-0.45 -5.43,-1.13 -8.49,-2.04l-3.96 -0.56 35.08 -49 1.36 0c4.19,0 8.15,-0.33 11.77,-1.01 3.62,-0.68 6.91,-1.93 9.85,-3.62 2.6,-1.59 4.64,-3.18 6.12,-4.87 1.46,-1.7 2.93,-3.62 4.41,-5.78l0.34 -0.68c0.46,-0.68 1.58,-3.17 3.4,-7.57 1.7,-4.42 3.73,-9.4 5.88,-14.94 2.26,-5.54 4.3,-10.86 6.34,-16.07 2.03,-5.2 3.5,-9.06 4.63,-11.44l-115.65 -327.82 60.99 0 86.79 254.83 86.22 -254.83 60.67 0c-21.85,60.99 -41.42,115.3 -58.63,163.06 -7.35,20.37 -14.59,40.28 -21.72,59.97 -7.26,19.69 -13.58,37.24 -19.13,52.51 -5.54,15.39 -10.07,27.95 -13.58,37.46 -3.5,9.62 -5.32,14.59 -5.32,14.81 -0.22,0.69 -1.13,3.07 -2.83,7.25 -1.58,4.19 -3.74,9.39 -6.22,15.38 -2.6,6.12 -5.44,12.68 -8.48,19.82 -3.06,7.01 -6.22,13.91 -9.28,20.48 -3.16,6.68 -6,12.56 -8.6,17.53 -2.71,5.1 -4.86,8.84 -6.67,10.98 -7.24,9.28 -16.63,16.41 -27.95,21.39 -11.43,4.98 -25.46,7.46 -41.98,7.46zm926.8 -120.18c-14.6,-23.42 -27.85,-44.81 -39.73,-63.93 -5.09,-8.26 -10.17,-16.41 -15.27,-24.44 -5.09,-8.04 -9.73,-15.51 -13.81,-22.19 -4.07,-6.79 -7.58,-12.45 -10.64,-17.2 -2.93,-4.76 -4.86,-7.92 -5.76,-9.5 -5.77,-9.06 -12.57,-13.93 -20.48,-14.71 -8.04,-0.8 -15.96,1.46 -23.89,6.79 -4.41,3.06 -8.03,6.44 -10.85,10.29 -2.72,3.74 -4.87,7.81 -6.22,12.22 -1.48,4.42 -2.38,9.17 -2.83,14.26 -0.46,5.09 -0.68,10.53 -0.68,16.19l0 92.22 0 0.34 -0.68 -0.34 -52.96 0 0 -199.27 0 -231.08c0.23,-4.41 1.37,-8.37 3.29,-12 1.81,-3.05 4.52,-5.77 8.15,-8.26 3.62,-2.37 8.83,-3.61 15.39,-3.61 6.67,0 11.77,1.24 15.39,3.61 3.62,2.5 6.34,5.22 8.15,8.26 1.92,3.63 3.06,7.59 3.28,12l0 239.22 138.29 -136.25 71.29 0 -124.03 122.67 135.91 204.7 -71.28 0zm108.51 -327.26l56.36 0 0 327.26 -56.36 0 0 -327.26zm59.75 -91.89c0,4.41 -0.79,8.48 -2.49,12.33 -1.58,3.74 -3.84,7.02 -6.78,9.85 -2.84,2.94 -6.22,5.2 -10.07,6.78 -3.85,1.7 -7.92,2.5 -12.34,2.5 -4.41,0 -8.49,-0.8 -12.33,-2.5 -3.74,-1.58 -7.02,-3.84 -9.85,-6.78 -2.94,-2.83 -5.2,-6.11 -6.79,-9.85 -1.7,-3.85 -2.49,-7.92 -2.49,-12.33 0,-4.42 0.8,-8.5 2.49,-12.34 1.58,-3.84 3.85,-7.23 6.79,-10.07 2.83,-2.94 6.11,-5.2 9.85,-6.79 3.84,-1.7 7.92,-2.5 12.33,-2.5 8.72,0 16.3,3.06 22.41,9.28 6.22,6.11 9.27,13.69 9.27,22.41zm106.03 219.98l0 199.16 -56.35 0 0 -199.16 0 -90.07 0 -140.78c0.23,-4.42 1.48,-8.38 3.63,-12 1.81,-3.05 4.63,-5.88 8.37,-8.37 3.74,-2.6 9.27,-3.84 16.41,-3.84 6.79,0 12.22,1.24 15.95,3.84 3.74,2.49 6.56,5.32 8.38,8.37 2.15,3.62 3.39,7.58 3.61,12l0 230.85zm109.09 0l0 199.16 -56.35 0 0 -199.16 0 -90.07 0 -140.78c0.24,-4.42 1.48,-8.38 3.62,-12 1.81,-3.05 4.64,-5.88 8.38,-8.37 3.72,-2.6 9.27,-3.84 16.4,-3.84 6.8,0 12.22,1.24 15.96,3.84 3.74,2.49 6.56,5.32 8.37,8.37 2.15,3.62 3.4,7.58 3.62,12l0 230.85zm720.72 -128.09l56.36 0 0 327.26 -56.36 0 0 -327.26zm59.75 -91.89c0,4.41 -0.79,8.48 -2.49,12.33 -1.58,3.74 -3.84,7.02 -6.78,9.85 -2.84,2.94 -6.22,5.2 -10.07,6.78 -3.85,1.7 -7.92,2.5 -12.34,2.5 -4.41,0 -8.49,-0.8 -12.33,-2.5 -3.74,-1.58 -7.02,-3.84 -9.85,-6.78 -2.94,-2.83 -5.2,-6.11 -6.78,-9.85 -1.7,-3.85 -2.5,-7.92 -2.5,-12.33 0,-4.42 0.8,-8.5 2.5,-12.34 1.58,-3.84 3.84,-7.23 6.78,-10.07 2.83,-2.94 6.11,-5.2 9.85,-6.79 3.84,-1.7 7.92,-2.5 12.33,-2.5 8.72,0 16.3,3.06 22.41,9.28 6.22,6.11 9.27,13.69 9.27,22.41zm272.95 137.49c3.96,8.82 6.67,19.01 7.92,30.44l-55 0c-1.13,-3.5 -2.37,-6.68 -3.85,-9.5 -1.46,-2.83 -3.05,-5.44 -4.75,-7.93 -11.09,-14.6 -30.45,-21.95 -58.05,-21.95 -22.3,0 -38.14,4.64 -47.42,13.91 -4.64,4.87 -8.15,9.96 -10.41,15.18 -2.38,5.19 -3.52,10.97 -3.52,17.42 0,12.56 5.22,21.96 15.51,28.19 7.8,4.19 25.46,9.61 53.3,16.3l42.66 10.18c21.39,5.09 38.02,12.11 49.89,20.93 20.94,15.95 31.47,38.93 31.47,69.02 0,37.24 -13.36,63.83 -40.06,80.01 -25.57,15.73 -55.23,23.54 -88.94,23.54 -19.91,0 -37.57,-2.72 -52.96,-8.04 -16.18,-5.53 -29.64,-13.46 -40.73,-23.87 -11.44,-10.19 -20.04,-22.63 -25.81,-37.22 -3.51,-9.28 -6,-19.7 -7.24,-31.12l53.98 0c1.58,8.83 4.52,16.52 8.93,23.2 12.34,18.78 34.52,28.17 66.31,28.17 14.37,0 27.61,-2.15 39.72,-6.34 11.32,-4.19 19.46,-9.61 24.67,-16.18 5.2,-6.68 7.81,-15.06 7.81,-25.24 0,-15.27 -4.19,-25.8 -12.56,-31.57 -10.19,-6.67 -25.8,-12.44 -46.95,-17.53l-41.3 -9.62c-27.61,-6.45 -47.19,-13.69 -58.85,-21.61 -21.16,-14.13 -31.8,-35.64 -31.8,-64.38 0,-30.11 10.19,-54.77 30.44,-74.02 9.73,-9.5 21.95,-16.75 36.78,-21.83 13.93,-4.64 29.99,-7.02 48.09,-7.02 33.39,0 61.91,8.26 85.56,24.79 12.11,8.83 21.16,20.02 27.16,33.72zm286.07 0c3.96,8.82 6.68,19.01 7.92,30.44l-54.99 0c-1.14,-3.5 -2.38,-6.68 -3.84,-9.5 -1.48,-2.83 -3.06,-5.44 -4.76,-7.93 -11.09,-14.6 -30.44,-21.95 -58.05,-21.95 -22.29,0 -38.14,4.64 -47.42,13.91 -4.64,4.87 -8.15,9.96 -10.41,15.18 -2.38,5.19 -3.5,10.97 -3.5,17.42 0,12.56 5.2,21.96 15.49,28.19 7.82,4.19 25.47,9.61 53.31,16.3l42.66 10.18c21.39,5.09 38.02,12.11 49.91,20.93 20.93,15.95 31.46,38.93 31.46,69.02 0,37.24 -13.35,63.83 -40.06,80.01 -25.57,15.73 -55.22,23.54 -88.95,23.54 -19.91,0 -37.57,-2.72 -52.95,-8.04 -16.19,-5.53 -29.65,-13.46 -40.74,-23.87 -11.43,-10.19 -20.03,-22.63 -25.8,-37.22 -3.52,-9.28 -6,-19.7 -7.25,-31.12l53.98 0c1.58,8.83 4.52,16.52 8.94,23.2 12.33,18.78 34.5,28.17 66.31,28.17 14.37,0 27.6,-2.15 39.72,-6.34 11.31,-4.19 19.46,-9.61 24.67,-16.18 5.19,-6.68 7.8,-15.06 7.8,-25.24 0,-15.27 -4.19,-25.8 -12.56,-31.57 -10.19,-6.67 -25.8,-12.44 -46.96,-17.53l-41.3 -9.62c-27.61,-6.45 -47.19,-13.69 -58.85,-21.61 -21.15,-14.13 -31.8,-35.64 -31.8,-64.38 0,-30.11 10.19,-54.77 30.45,-74.02 9.73,-9.5 21.94,-16.75 36.77,-21.83 13.92,-4.64 29.99,-7.02 48.1,-7.02 33.38,0 61.9,8.26 85.55,24.79 12.11,8.83 21.16,20.02 27.16,33.72zm62.81 -45.61l56.35 0 0 327.26 -56.35 0 0 -327.26zm59.75 -91.89c0,4.41 -0.8,8.48 -2.5,12.33 -1.58,3.74 -3.85,7.02 -6.79,9.85 -2.83,2.94 -6.22,5.2 -10.07,6.78 -3.85,1.7 -7.93,2.5 -12.34,2.5 -4.41,0 -8.48,-0.8 -12.33,-2.5 -3.74,-1.58 -7.01,-3.84 -9.84,-6.78 -2.94,-2.83 -5.2,-6.11 -6.79,-9.85 -1.7,-3.85 -2.5,-7.92 -2.5,-12.33 0,-4.42 0.8,-8.5 2.5,-12.34 1.58,-3.84 3.84,-7.23 6.79,-10.07 2.83,-2.94 6.11,-5.2 9.84,-6.79 3.85,-1.7 7.93,-2.5 12.33,-2.5 8.72,0 16.3,3.06 22.41,9.28 6.22,6.11 9.28,13.69 9.28,22.41zm199.06 79.67c21.61,0 42.09,4.52 61.22,13.46 19.13,8.94 35.76,21.17 50.01,36.78 14.26,15.61 25.58,33.83 33.85,54.66 8.25,20.93 12.45,43.22 12.45,66.87 0,23.65 -4.2,45.94 -12.45,66.89 -8.26,20.82 -19.58,39.04 -33.85,54.65 -14.25,15.62 -30.89,27.83 -50.01,36.78 -19.13,8.94 -39.6,13.46 -61.22,13.46 -21.85,0 -42.44,-4.52 -61.57,-13.46 -19.13,-8.94 -35.76,-21.16 -50.01,-36.78 -14.26,-15.61 -25.47,-33.83 -33.73,-54.65 -8.15,-20.94 -12.22,-43.23 -12.22,-66.89 0,-23.64 4.08,-45.93 12.22,-66.87 8.26,-20.83 19.47,-39.05 33.73,-54.66 14.25,-15.61 30.88,-27.84 50.01,-36.78 19.13,-8.94 39.72,-13.46 61.57,-13.46zm-0.11 292.63c13.8,0 26.93,-3.16 39.38,-9.5 12.33,-6.22 23.09,-14.93 32.24,-25.8 9.18,-10.98 16.41,-23.89 21.74,-38.59 5.31,-14.71 7.91,-30.32 7.91,-46.96 0,-16.63 -2.6,-32.24 -7.91,-46.95 -5.33,-14.72 -12.56,-27.61 -21.74,-38.59 -9.15,-10.87 -19.91,-19.57 -32.24,-25.8 -12.44,-6.34 -25.57,-9.51 -39.38,-9.51 -14.15,0 -27.39,3.17 -39.84,9.51 -12.33,6.22 -23.08,14.93 -32.24,25.8 -9.18,10.98 -16.41,23.87 -21.73,38.59 -5.32,14.71 -7.92,30.32 -7.92,46.95 0,16.64 2.6,32.26 7.92,46.96 5.32,14.71 12.55,27.61 21.73,38.59 9.17,10.86 19.91,19.57 32.24,25.8 12.45,6.34 25.69,9.5 39.84,9.5zm332.81 -293.99c16.52,0 32.36,3.18 47.41,9.51 14.94,6.22 28.3,14.93 39.94,25.8 11.54,10.98 20.83,23.77 27.61,38.26 6.9,14.48 10.3,29.99 10.3,46.62l0 220.66 -57.03 0 0 -220.66c0,-9.96 -1.81,-19.24 -5.56,-27.83 -3.62,-8.6 -8.71,-16.19 -15.04,-22.53 -6.46,-6.44 -14.04,-11.54 -22.53,-15.27 -8.6,-3.74 -17.77,-5.66 -27.83,-5.66 -9.96,0 -19.01,1.92 -27.28,5.66 -8.26,3.74 -15.27,8.83 -21.27,15.27 -6,6.34 -10.64,13.93 -14.04,22.53 -3.27,8.59 -4.97,17.87 -4.97,27.83l0 0.34 0 220.32 -57.04 0 0 -220.32c0,-16.63 3.52,-32.25 10.64,-46.85 7.02,-14.6 16.41,-27.39 28.18,-38.37 11.66,-10.87 25.23,-19.57 40.52,-25.8 15.39,-6.33 31.34,-9.51 47.98,-9.51z"/>
  <path class="fil2" d="M3956.83 1760.39c3.91,8.7 6.59,18.74 7.82,30.01l-54.24 0c-1.11,-3.46 -2.33,-6.58 -3.79,-9.38 -1.46,-2.78 -3.02,-5.35 -4.69,-7.8 -10.94,-14.4 -30.02,-21.66 -57.25,-21.66 -21.98,0 -37.61,4.58 -46.76,13.73 -4.57,4.8 -8.03,9.81 -10.27,14.95 -2.34,5.13 -3.46,10.82 -3.46,17.19 0,12.39 5.14,21.65 15.3,27.8 7.7,4.12 25.12,9.48 52.56,16.07l42.08 10.04c21.09,5.02 37.49,11.95 49.22,20.65 20.65,15.74 31.02,38.39 31.02,68.08 0,36.71 -13.17,62.94 -39.51,78.9 -25.21,15.52 -54.45,23.22 -87.71,23.22 -19.64,0 -37.06,-2.68 -52.23,-7.93 -15.95,-5.47 -29.24,-13.28 -40.17,-23.54 -11.28,-10.05 -19.76,-22.32 -25.44,-36.72 -3.46,-9.15 -5.92,-19.42 -7.15,-30.69l53.24 0c1.55,8.71 4.46,16.29 8.8,22.88 12.17,18.52 34.04,27.78 65.4,27.78 14.18,0 27.23,-2.11 39.18,-6.24 11.15,-4.13 19.19,-9.48 24.32,-15.95 5.14,-6.59 7.7,-14.85 7.7,-24.89 0,-15.06 -4.12,-25.45 -12.39,-31.14 -10.05,-6.59 -25.44,-12.28 -46.31,-17.29l-40.73 -9.5c-27.23,-6.35 -46.54,-13.5 -58.03,-21.3 -20.87,-13.96 -31.36,-35.15 -31.36,-63.51 0,-29.68 10.04,-54 30.03,-72.98 9.59,-9.37 21.64,-16.52 36.27,-21.54 13.72,-4.58 29.57,-6.91 47.42,-6.91 32.93,0 61.05,8.15 84.38,24.44 11.94,8.71 20.86,19.76 26.77,33.26zm1175.03 -57.7c16.41,0 32.03,3.12 46.98,9.26 14.95,6.24 28.12,14.73 39.72,25.45 11.62,10.6 20.76,23.2 27.68,37.5 6.81,14.39 10.28,29.79 10.28,46.2l0 217.06 -56.93 0 0 -216.95c0,-9.82 -1.67,-18.97 -5.02,-27.45 -3.45,-8.59 -8.14,-15.96 -14.17,-22.31 -5.91,-6.26 -13.05,-11.27 -21.21,-14.95 -8.25,-3.69 -17.18,-5.59 -27,-5.59 -9.94,0 -18.86,1.9 -27.13,5.59 -8.15,3.69 -15.28,8.7 -21.42,14.95 -6.14,6.35 -10.83,13.72 -14.28,22.31 -3.35,8.48 -5.02,17.63 -5.02,27.45l0 216.95 -56.24 0 0 -216.95c0,-9.82 -1.78,-18.97 -5.25,-27.45 -3.46,-8.59 -8.26,-15.96 -14.28,-22.31 -5.91,-6.26 -13.17,-11.27 -21.43,-14.95 -8.25,-3.69 -17.18,-5.59 -26.78,-5.59 -9.93,0 -18.97,1.9 -27.23,5.59 -8.26,3.69 -15.51,8.7 -21.42,14.95 -6.02,6.35 -10.82,13.72 -14.29,22.31 -3.46,8.48 -5.24,17.63 -5.24,27.45l0 216.95 -56.25 0 0 -217.06c0,-16.41 3.46,-31.81 10.27,-46.2 6.91,-14.3 16.07,-26.9 27.56,-37.5 11.39,-10.72 24.56,-19.2 39.51,-25.45 14.95,-6.14 30.57,-9.26 46.98,-9.26 19.19,0 37.06,4.24 53.79,12.61 16.62,8.37 30.69,19.75 42.07,34.15 11.28,-14.4 25.33,-25.78 41.96,-34.15 16.75,-8.37 34.6,-12.61 53.8,-12.61z"/>
  <path class="fil0" d="M1123.65 294.2l380.65 0 0 -245.26 -1043.86 0 0 245.26 382.62 0c0,464.84 4.08,592.09 4.08,1053.26l140.91 0c36.5,0 67.81,-12.41 93.92,-37.17 26.05,-24.83 39.11,-55.45 39.11,-91.97 0,-417.33 2.57,-504.06 2.57,-924.12z"/>
  <path class="fil3" d="M6967.65 1315.83l465.02 -0.01c50.56,-0.12 98.65,9.28 124.04,-18.62 23,-34.65 9.51,-51.33 -11.99,-74.42 -14.75,-7.57 -663.35,-12.64 -689.78,6.11 -26.76,18.99 -21.87,63.49 2.43,78.82 24.26,15.3 78.7,8.11 110.27,8.11z"/>
  <path class="fil4" d="M6803.07 999.64c56.66,17.12 444.33,8.58 557.43,8.84 73.45,0.16 134.65,15.87 124.27,-67.78 -41.6,-45.91 -94.88,-29.38 -172.37,-29.35l-416.94 0.03c-76.43,-0.23 -132.51,9.19 -92.4,88.26z"/>
  <path class="fil3" d="M6805.08 1081.03l-3.73 64.75c59.16,31.7 451.57,15.94 543.13,15.93 30.22,0 66.56,6.05 88.3,-12.26 27.41,-23.09 19.69,-58.93 -5.1,-75.84 -28.15,-19.19 -159.95,-9.52 -203.46,-9.52 -98.52,0 -358.77,-18.54 -419.13,16.93z"/>
  <path class="fil3" d="M6850.26 1437.78c40.06,47.23 88.22,30.93 165.48,30.93l288.64 -0.02c80.27,0.2 168.33,24.14 151.23,-70.98 -21.8,-21.15 -20.52,-25.26 -63.04,-25.26l-456.99 0.09c-59.6,0 -91.07,1.98 -85.32,65.24z"/>
  <path class="fil4" d="M6839.38 854.11c50.54,-0.06 486,5.89 508.95,-5.79 21.28,-10.82 30.5,-49.31 10.28,-74.04 -23.82,-29.14 -205.87,-17.09 -254.65,-17.04l-240.53 0.07c-44.56,-0.01 -82.96,-1.48 -93.92,33.82 -16.02,51.67 26.22,62.98 69.87,62.97z"/>
  <path class="fil5" d="M7200.69 541.24c16.92,-26.31 14.51,-21.81 13.6,-59.03 -7.09,-49.47 -153.08,-31.98 -238.63,-31.98 -76.71,0 -201.81,-7.28 -272.61,3.27 -27.72,24.33 -53.26,72.35 3.93,91.02 25.62,8.37 460.17,6.12 493.7,-3.28z"/>
  <path class="fil6" d="M6728.19 627.22l-2.58 50.43c34.62,30.78 47.35,23.74 105.74,23.62 68.91,-0.15 362.07,7.21 384.85,-8.44 28.19,-31.9 25.81,-79.7 -23.99,-87.91l-320.76 -0.99c-64.89,-0.24 -106.8,-11.73 -143.25,23.29z"/>
  <path class="fil7" d="M6948.86 1767.71c58.28,16.37 209.94,8.74 283.36,8.74 29.89,0 119.64,3.59 142.47,-3.57 35.22,-11.05 44.15,-58.95 14,-82.67 -26.59,-20.91 -405.7,-12.44 -418.56,-9 -40.02,10.67 -41.66,59.23 -21.27,86.49z"/>
  <path class="fil7" d="M6983.69 1622.77c37.43,0 300.52,5.27 324.83,-4.74 25.4,-10.48 33.25,-53.66 14.13,-78.09 -20.02,-25.58 -158.16,-14.52 -202.66,-14.52 -75.41,0 -285.16,-28.17 -227.3,75.23 15.37,27.5 52.71,22.12 90.99,22.11z"/>
  <path class="fil5" d="M6719.11 394.59l232.5 0c87.03,0 93.88,-97.74 -8.02,-97.74l-224.48 0c-53.44,0 -114.77,-8.67 -112.97,50.44 1.72,56.19 61.75,47.3 112.97,47.3z"/>
  <path class="fil7" d="M7031.96 1925.46c55.02,6.97 112.61,3.05 168.2,3.26 53.15,0.21 119.57,6.06 101.74,-63.28 -11.72,-45.54 -79.54,-33.27 -133.82,-33.25 -34.61,0.01 -232.52,-17.91 -136.13,93.27z"/>
  <path class="fil8" d="M6586.59 158.6l-16.39 29.14 14.83 38.38c38.33,33.59 156.88,14.21 208.58,14.19 0,-13.48 -2.76,-9.53 12.06,-7.14 -1.99,-12.83 -5.31,-11.22 6.69,-8.19l4.2 -54.57c-13.3,-4.9 -6.91,11.54 -12.89,-11.83 -44.24,-20.15 -176.72,-17.51 -217.07,0.02z"/>
  <path class="fil7" d="M7262.85 2008.01c-40.39,-33.27 -171.33,-39.53 -156.28,36.73 11.15,56.49 116.32,48.1 158.41,17.57l-2.13 -54.3z"/>
  <path class="fil8" d="M6586.59 158.6c-17.68,2.17 -21.69,7.46 -23.51,28.19 -2.58,29.19 9.05,31.17 21.95,39.34l-14.83 -38.38 16.39 -29.14c40.35,-17.54 172.83,-20.17 217.07,-0.02 5.98,23.38 -0.41,6.94 12.89,11.83l-4.2 54.57c-12,-3.04 -8.68,-4.64 -6.69,8.19 -14.81,-2.39 -12.06,-6.34 -12.06,7.14 16.5,3.4 14.5,8.1 12.06,-7.14 13.21,2.67 10.48,4.94 6.69,-8.19 9.09,-9.41 7.89,19.85 14.28,-22.64 1.74,-11.51 1.89,-3.05 -0.11,-14.39 -6.54,-37.18 2.39,-2.54 -9.98,-17.54l-12.89 -11.83c-13.44,-30.57 -41.05,-21.35 -92.57,-21.72 -38.55,-0.28 -73.82,-1.44 -112.25,4.11l-12.26 17.63z"/>
  <path class="fil9" d="M7200.69 541.24c5.91,-6.48 14.95,-14.48 18.52,-23.35 5.08,-12.63 4.7,-4.7 3.28,-17.95 -1.73,-16.25 -1.91,-9.65 -8.2,-17.73 0.91,37.22 3.31,32.72 -13.6,59.03z"/>
 </g>
</svg>
