<svg xmlns="http://www.w3.org/2000/svg" width="206.238" height="99.791" viewBox="0 0 206.238 99.791"><defs><style>.a{fill:#00ab9f;}.b{fill:#0068b4;}.c{fill:#6cc1b3;}</style></defs><g transform="translate(-2.014 -0.016)"><g transform="translate(2.014 0.016)"><g transform="translate(0 0)"><path class="a" d="M186.5,105.578c8.7,9.736,19.357,16.952,32.644,16.207-6.758-3.035-19.357-7.96-26.859-25.485-1.947,3.093-3.837,6.185-5.784,9.278" transform="translate(-70.139 -41.085)"/><path class="a" d="M159.618,13.4c-26,16.608-33.789,42.952-51.313,65.516A86.581,86.581,0,0,1,93.014,94.666,48.775,48.775,0,0,1,80.3,101.824a46.968,46.968,0,0,0,34.705-11.053c17.238-14.2,22.507-33.159,37.053-49.023,8.7-9.507,19.414-17.009,31.956-18.154a27.418,27.418,0,0,1,23.251,9.392c13.229,14.2,11.11,40.661-1.6,55.609a43.129,43.129,0,0,1-18.9,12.714c10.767-.344,25.313-3.665,34.3-16.952a54.74,54.74,0,0,0,8.3-44.67C220.954,8.3,187.279-4.239,159.618,13.4" transform="translate(-24.759 -2.225)"/><path class="b" d="M31.425,80.472a21.96,21.96,0,0,0,6.7-.515C19.055,75.2,10.923,47.2,21.632,29.5A31.3,31.3,0,0,1,49.064,14.956c14.661.115,24,8.018,32.243,19.071a82.666,82.666,0,0,1,8.419-10.079c-12.714-17.811-30.066-28-52.8-22.621a45.779,45.779,0,0,0-32.3,29.265c-7.445,21.075,2.863,48.221,26.8,49.882" transform="translate(8.595 0.113)"/><path class="c" d="M185.273,131.9a50.438,50.438,0,0,0,21.476,13.172,44.786,44.786,0,0,0,9.507,1.718,53.48,53.48,0,0,0,13.172-.8h.286a46.081,46.081,0,0,0,5.441-1.718,30.273,30.273,0,0,1-2.863,1.833c-1.145.573-2.348,1.088-3.608,1.6a31.717,31.717,0,0,1-14.546,2.577c-9.85-.63-19.529-6.357-29.436-17.353a10.324,10.324,0,0,1,.573-1.031" transform="translate(-69.37 -56.297)"/><path class="a" d="M246.707,115.2c-14.6,29.895-51.943,22.106-68.609,2.176-1.833,2.921-3.436,5.383-5.5,8.19,6.071,8.648,20.56,18.383,35.049,20.1,21.361,2.463,35.908-9.908,39.058-30.467" transform="translate(-64.2 -49.161)"/><path class="b" d="M84.9,31.9a35.236,35.236,0,0,1,15.234,8.476,58.792,58.792,0,0,1,11.225,15.978l1.489-2.234c.687-1.088,1.374-2.119,2.062-3.15A66.1,66.1,0,0,0,105.4,40.09,29.778,29.778,0,0,0,84.9,31.9" transform="translate(-26.725 -13.566)"/><path class="b" d="M120.7,11.4C101,15.294,87.424,28.352,76.6,43.242,61.71,63.63,36.912,103.489,7.132,84.991-14.058,71.876-16.119,36.484,3.7,14.378c-35.163,24.4-22.221,85.331,18.956,87.279a33.77,33.77,0,0,0,17.009-3.723C65.547,84.7,81.582,38.889,103.8,21.537A62.533,62.533,0,0,1,120.7,11.4" transform="translate(16.681 -4.806)"/></g></g></g></svg>