<?xml version="1.0" encoding="UTF-8"?>
<!DOCTYPE svg PUBLIC "-//W3C//DTD SVG 1.1//EN" "http://www.w3.org/Graphics/SVG/1.1/DTD/svg11.dtd">
<!-- Creator: CorelDRAW 2020 (64-Bit) -->
<svg xmlns="http://www.w3.org/2000/svg" xml:space="preserve" width="70mm" height="70mm" version="1.1" style="shape-rendering:geometricPrecision; text-rendering:geometricPrecision; image-rendering:optimizeQuality; fill-rule:evenodd; clip-rule:evenodd"
viewBox="0 0 7000 7000"
 xmlns:xlink="http://www.w3.org/1999/xlink"
 xmlns:xodm="http://www.corel.com/coreldraw/odm/2003">
 <defs>
  <style type="text/css">
   <![CDATA[
    .fil2 {fill:#EA3C00}
    .fil1 {fill:#2B2A29;fill-rule:nonzero}
    .fil0 {fill:#EA3C00;fill-rule:nonzero}
    .fil3 {fill:#EA3C00;fill-rule:nonzero}
   ]]>
  </style>
 </defs>
 <g id="Layer_x0020_1">
  <metadata id="CorelCorpID_0Corel-Layer"/>
  <path class="fil0" d="M2684.15 4900.38l0 -1102.28 -351.22 0 -284.5 638.66 -284.49 -638.66 -349.47 0 0 1102.28 249.37 0 0 -820.12 330.16 820.12 108.87 0 330.16 -820.12 0 820.12 251.12 0zm751.66 21.07c334.37,0 577.7,-238.36 577.7,-571.08 0,-332.72 -243.33,-571.08 -577.7,-571.08 -332.72,0 -576.05,238.36 -576.05,571.08 0,332.72 243.33,571.08 576.05,571.08zm0 -208.57c-203.61,0 -334.38,-157.25 -334.38,-362.51 0,-206.92 130.77,-362.51 334.38,-362.51 203.6,0 336.03,155.59 336.03,362.51 0,205.26 -132.43,362.51 -336.03,362.51z"/>
  <path class="fil1" d="M4226.34 4851.36c0,31.43 24.74,53.96 56.22,53.96 26.98,0 51.71,-22.48 51.71,-53.96l0 -483.42c0,-4.49 0.97,-8.58 4.5,-17.98 16.71,-44.61 57.75,-157.95 132.66,-256.33 75.72,-99.46 175.37,-179.87 319.27,-179.87 29.24,0 53.97,-24.74 53.97,-53.97 0,-31.47 -24.73,-53.96 -53.97,-53.96 -211.35,0 -356.84,139.84 -440.69,269.81 -6.09,9.44 -11.24,17.99 -15.74,26.99l0 -242.84c0,-31.47 -24.73,-53.96 -51.71,-53.96 -31.48,0 -56.22,22.51 -56.22,53.96l0 991.57zm1101.92 53.96c186.62,0 351.49,-98.49 445.19,-249.57 16.45,-26.53 7.44,-59.5 -17.99,-76.45 -21.8,-14.53 -55.95,-8.82 -71.95,17.99 -73.91,123.81 -209.11,200.11 -355.25,200.11 -227.1,0 -415.97,-182.13 -427.21,-422.71l903.88 0c29.23,0 53.96,-20.24 53.96,-49.47l0 -6.74 0 -2.25c0,-288.68 -247.33,-512.65 -530.63,-512.65 -296.8,0 -535.13,247.33 -535.13,553.12 0,301.29 238.33,548.62 535.13,548.62zm0 -993.81c202.36,0 377.74,150.65 413.71,357.5l-834.17 0c40.47,-209.1 213.6,-357.5 420.46,-357.5z"/>
  <path class="fil1" d="M4543.71 5933.6l0 -51.17 -226.09 0c128.6,-101.64 224.02,-187.38 224.02,-281.41 0,-91.96 -78.13,-135.52 -154.88,-135.52 -65,0 -125.15,26.27 -160.41,72.6l35.26 36.65c26.97,-34.58 69.83,-58.08 125.15,-58.08 47.71,0 96.11,25.58 96.11,84.35 0,79.52 -89.89,156.26 -255.83,286.94l0 45.64 316.67 0zm264.12 8.29c125.84,0 176.32,-126.53 176.32,-238.54 0,-112.7 -50.48,-237.85 -176.32,-237.85 -126.53,0 -176.31,125.15 -176.31,237.85 0,112.01 49.78,238.54 176.31,238.54zm0 -51.16c-87.81,0 -117.54,-95.42 -117.54,-187.38 0,-91.96 29.73,-186.68 117.54,-186.68 87.82,0 117.55,94.72 117.55,186.68 0,91.96 -29.73,187.38 -117.55,187.38zm392.04 42.87l0 -461.18 -50.47 0 -115.47 118.92 34.57 35.27 73.99 -78.14 0 385.13 57.38 0zm239.93 7.6c129.3,0 187.38,-113.39 187.38,-237.85 0,-125.84 -49.09,-238.54 -178.39,-238.54 -100.26,0 -161.1,71.22 -161.1,150.73 0,98.19 68.45,147.28 151.42,147.28 58.77,0 109.94,-40.11 129.99,-71.91 0.69,6.22 0.69,12.44 0.69,18.67 0,87.11 -36.65,180.46 -129.99,180.46 -47.71,0 -75.36,-19.36 -98.87,-47.02l-29.04 42.87c29.04,33.19 69.14,55.31 127.91,55.31zm12.45 -228.17c-59.47,0 -106.48,-31.8 -106.48,-99.56 0,-43.56 35.26,-97.49 105.79,-97.49 80.2,0 110.62,71.21 115.46,128.6 -24.2,40.79 -69.14,68.45 -114.77,68.45z"/>
  <path class="fil0" d="M1665.37 5310.03l0 -256.27 -45.72 0 -79.92 192.88 -79.54 -192.88 -45.72 0 0 256.27 31.89 0 0 -210.94 86.84 210.94 13.06 0 87.22 -210.94 0 210.94 31.89 0zm73 -212.09c10.76,0 19.6,-8.45 19.6,-19.21 0,-10.76 -8.84,-19.6 -19.6,-19.6 -10.37,0 -19.21,8.84 -19.21,19.6 0,10.76 8.84,19.21 19.21,19.21zm14.61 212.09l0 -185.58 -28.82 0 0 185.58 28.82 0zm139.47 4.61c33.81,0 53.79,-13.83 68.01,-32.27l-19.21 -17.68c-12.3,16.53 -28.05,24.21 -47.27,24.21 -39.57,0 -64.16,-30.74 -64.16,-71.85 0,-41.11 24.59,-71.46 64.16,-71.46 19.22,0 34.97,7.3 47.27,24.2l19.21 -17.67c-14.22,-18.45 -34.2,-32.28 -68.01,-32.28 -55.33,0 -92.6,42.27 -92.6,97.21 0,55.33 37.27,97.59 92.6,97.59zm137.17 -4.61l0 -131.4c8.45,-14.99 32.66,-29.59 50.33,-29.59 4.61,0 8.07,0.39 11.53,1.16l0 -29.59c-25.36,0 -46.88,14.22 -61.86,33.81l0 -29.97 -28.82 0 0 185.58 28.82 0zm179.04 4.61c56.49,0 91.83,-43.8 91.83,-97.59 0,-53.79 -35.34,-97.21 -91.83,-97.21 -56.48,0 -91.83,43.42 -91.83,97.21 0,53.79 35.35,97.59 91.83,97.59zm0 -25.74c-39.57,0 -61.85,-33.81 -61.85,-71.85 0,-37.65 22.28,-71.46 61.85,-71.46 39.58,0 61.48,33.81 61.48,71.46 0,38.04 -21.9,71.85 -61.48,71.85zm197.5 25.74c48.03,0 73,-24.97 73,-56.09 0,-72.24 -114.88,-45.34 -114.88,-86.07 0,-16.52 15.75,-29.2 41.11,-29.2 23.82,0 44.18,9.99 55.33,23.44l13.44 -19.98c-14.98,-14.99 -37.26,-26.9 -68.77,-26.9 -44.19,0 -69.16,24.59 -69.16,53.41 0,68.78 114.88,41.11 114.88,86.07 0,18.44 -15.37,31.89 -43.8,31.89 -25.36,0 -48.79,-12.3 -61.09,-26.52l-14.99 20.75c18.83,19.98 44.57,29.2 74.93,29.2zm200.95 0c56.48,0 91.83,-43.8 91.83,-97.59 0,-53.79 -35.35,-97.21 -91.83,-97.21 -56.48,0 -91.83,43.42 -91.83,97.21 0,53.79 35.35,97.59 91.83,97.59zm0 -25.74c-39.58,0 -61.86,-33.81 -61.86,-71.85 0,-37.65 22.28,-71.46 61.86,-71.46 39.57,0 61.47,33.81 61.47,71.46 0,38.04 -21.9,71.85 -61.47,71.85zm175.59 21.13l0 -160.22 37.65 0 0 -25.36 -37.65 0 0 -14.21c0,-23.44 10.37,-36.51 29.2,-36.51 9.6,0 16.9,3.85 23.05,9.23l11.91 -18.83c-11.52,-10.76 -24.59,-14.22 -39.19,-14.22 -33.04,0 -53.79,22.29 -53.79,60.33l0 14.21 -30.74 0 0 25.36 30.74 0 0 160.22 28.82 0zm118.72 4.61c16.91,0 27.29,-4.99 34.59,-11.91l-8.46 -21.51c-3.84,4.22 -11.53,7.68 -19.59,7.68 -12.68,0 -18.83,-9.99 -18.83,-23.82l0 -115.27 37.65 0 0 -25.36 -37.65 0 0 -50.72 -28.82 0 0 50.72 -30.73 0 0 25.36 30.73 0 0 121.42c0,27.66 13.83,43.41 41.11,43.41zm283.18 0c75.69,0 127.18,-56.86 127.18,-132.55 0,-75.69 -51.49,-132.56 -127.18,-132.56 -76.08,0 -127.18,56.87 -127.18,132.56 0,75.69 51.1,132.55 127.18,132.55zm0 -28.43c-57.64,0 -94.14,-44.57 -94.14,-104.12 0,-59.94 36.5,-104.13 94.14,-104.13 57.25,0 94.13,44.19 94.13,104.13 0,59.55 -36.88,104.12 -94.13,104.12zm321.6 23.82l0 -160.22 37.65 0 0 -25.36 -37.65 0 0 -14.21c0,-23.44 10.37,-36.51 29.2,-36.51 7.3,0 12.29,1.93 16.52,4.62l7.3 -21.91c-7.3,-4.61 -17.29,-6.53 -28.05,-6.53 -32.28,0 -53.79,21.9 -53.79,60.33l0 14.21 -30.74 0 0 25.36 30.74 0 0 160.22 28.82 0zm86.45 -212.09c10.75,0 19.59,-8.45 19.59,-19.21 0,-10.76 -8.84,-19.6 -19.59,-19.6 -10.38,0 -19.22,8.84 -19.22,19.6 0,10.76 8.84,19.21 19.22,19.21zm14.6 212.09l0 -185.58 -28.82 0 0 185.58 28.82 0zm-209.79 0l0 -160.22 37.65 0 0 -25.36 -37.65 0 0 -14.21c0,-23.44 10.37,-36.51 29.2,-36.51 9.61,0 16.91,3.85 23.06,9.23l11.91 -18.83c-11.53,-10.76 -24.59,-14.22 -39.19,-14.22 -33.05,0 -53.8,22.29 -53.8,60.33l0 14.21 -30.73 0 0 25.36 30.73 0 0 160.22 28.82 0zm349.26 4.61c33.81,0 53.79,-13.83 68.01,-32.27l-19.21 -17.68c-12.3,16.53 -28.05,24.21 -47.26,24.21 -39.58,0 -64.17,-30.74 -64.17,-71.85 0,-41.11 24.59,-71.46 64.17,-71.46 19.21,0 34.96,7.3 47.26,24.2l19.21 -17.67c-14.22,-18.45 -34.2,-32.28 -68.01,-32.28 -55.33,0 -92.6,42.27 -92.6,97.21 0,55.33 37.27,97.59 92.6,97.59zm192.12 0c30.35,0 55.32,-9.99 73.76,-28.43l-13.83 -18.83c-14.6,14.99 -36.12,23.44 -57.25,23.44 -39.96,0 -64.55,-29.2 -66.85,-64.17l150.23 0 0 -7.3c0,-55.71 -33.04,-99.51 -89.14,-99.51 -53.02,0 -91.45,43.42 -91.45,97.21 0,58.02 39.58,97.59 94.53,97.59zm57.63 -109.12l-121.8 0c1.54,-28.43 21.13,-61.86 60.71,-61.86 42.26,0 60.7,34.2 61.09,61.86z"/>
  <path class="fil1" d="M4440.69 5349.78l-79.72 -120.45c40.3,-3.54 76.62,-32.77 76.62,-85.92 0,-54.47 -38.53,-89.01 -92.56,-89.01l-118.68 0 0 295.38 36.76 0 0 -117.35 58.89 0 75.29 117.35 43.4 0zm-100.08 -149.68l-77.5 0 0 -112.93 77.5 0c34.98,0 58.89,23.03 58.89,56.24 0,33.22 -23.91,56.69 -58.89,56.69zm236.92 155c34.98,0 63.77,-11.52 85.03,-32.77l-15.95 -21.7c-16.83,17.27 -41.62,27.01 -65.98,27.01 -46.06,0 -74.4,-33.65 -77.06,-73.96l173.16 0 0 -8.41c0,-64.21 -38.09,-114.7 -102.74,-114.7 -61.12,0 -105.4,50.05 -105.4,112.04 0,66.88 45.61,112.49 108.94,112.49zm66.43 -125.77l-140.39 0c1.77,-32.77 24.36,-71.3 69.97,-71.3 48.72,0 69.97,39.41 70.42,71.3zm119.57 120.45l0 -295.38 -33.22 0 0 295.38 33.22 0zm162.97 5.32c34.98,0 63.77,-11.52 85.02,-32.77l-15.94 -21.7c-16.83,17.27 -41.63,27.01 -65.99,27.01 -46.05,0 -74.39,-33.65 -77.05,-73.96l173.16 0 0 -8.41c0,-64.21 -38.09,-114.7 -102.75,-114.7 -61.11,0 -105.4,50.05 -105.4,112.04 0,66.88 45.62,112.49 108.95,112.49zm66.42 -125.77l-140.38 0c1.77,-32.77 24.36,-71.3 69.97,-71.3 48.71,0 69.97,39.41 70.41,71.3zm253.31 120.45l0 -147.02c0,-51.82 -37.64,-72.19 -82.81,-72.19 -34.99,0 -62.44,11.52 -85.47,35.43l15.5 23.03c19.04,-20.37 39.86,-29.67 65.54,-29.67 31,0 54.03,16.38 54.03,45.17l0 38.53c-17.27,-19.93 -41.63,-29.23 -70.86,-29.23 -36.31,0 -74.84,22.58 -74.84,70.41 0,46.5 38.53,70.86 74.84,70.86 28.79,0 53.15,-10.19 70.86,-29.67l0 24.35 33.21 0zm-92.11 -18.6c-31,0 -52.7,-19.48 -52.7,-46.5 0,-27.45 21.7,-46.94 52.7,-46.94 23.47,0 46.06,8.86 58.9,26.57l0 40.31c-12.84,17.71 -35.43,26.56 -58.9,26.56zm226.3 23.92c55.36,0 84.14,-28.79 84.14,-64.66 0,-83.26 -132.41,-52.25 -132.41,-99.2 0,-19.04 18.16,-33.65 47.38,-33.65 27.46,0 50.93,11.51 63.78,27.01l15.49 -23.03c-17.27,-17.27 -42.95,-31 -79.27,-31 -50.93,0 -79.71,28.34 -79.71,61.56 0,79.27 132.41,47.39 132.41,99.2 0,21.25 -17.71,36.76 -50.48,36.76 -29.23,0 -56.24,-14.18 -70.42,-30.56l-17.27 23.91c21.7,23.03 51.37,33.66 86.36,33.66zm234.71 0c34.99,0 63.77,-11.52 85.03,-32.77l-15.94 -21.7c-16.83,17.27 -41.63,27.01 -65.99,27.01 -46.05,0 -74.4,-33.65 -77.06,-73.96l173.16 0 0 -8.41c0,-64.21 -38.08,-114.7 -102.74,-114.7 -61.11,0 -105.4,50.05 -105.4,112.04 0,66.88 45.62,112.49 108.94,112.49zm66.43 -125.77l-140.39 0c1.78,-32.77 24.36,-71.3 69.98,-71.3 48.71,0 69.97,39.41 70.41,71.3z"/>
  <path class="fil2" d="M3422.59 1643.59l387.89 -88.27 0 1424.77c-43.9,2.08 -434.09,-49.05 -513.99,-58.36l-479.43 -56.96c-29.45,-1.03 -24.78,1.96 -28.99,7.19 32.82,0.99 702.92,252.41 793.5,285.46 64.8,23.65 132.19,45.89 195.97,71.97 45.1,18.45 61.3,2.5 104.82,-10.79 168.54,-51.48 354.45,-114.48 518.04,-160.24 7.94,-270.63 0.35,-553.52 0.35,-825.52 0,-91.35 7.52,-791.28 -5.34,-818.69 -91.68,-23.47 -188.25,-62.02 -278.87,-90.93 -90.12,-28.75 -180.26,-58.95 -268.84,-89.09 -35.64,-12.13 -28.48,-9.5 -63.43,3.68l-456.66 171.04c-30.77,0.31 -249.04,87.75 -298.06,104.88 -56.24,19.66 -262.6,99.5 -298.28,106.55l0.08 1220.96 368.35 -157.5 -0.11 -961 323 -79.15z"/>
  <g id="_2675314450912">
   <polygon class="fil3" points="1414.47,5795.08 1643.28,5795.08 1643.28,5566.29 1414.47,5566.29 "/>
   <polygon class="fil3" points="1679.09,5795.08 1907.9,5795.08 1907.9,5566.29 1679.09,5566.29 "/>
   <polygon class="fil3" points="1943.73,5795.08 2172.52,5795.08 2172.52,5566.29 1943.73,5566.29 "/>
   <polygon class="fil3" points="2208.35,5795.08 2437.15,5795.08 2437.15,5566.29 2208.35,5566.29 "/>
   <polygon class="fil3" points="2472.97,5795.08 2701.77,5795.08 2701.77,5566.29 2472.97,5566.29 "/>
   <polygon class="fil3" points="2737.6,5795.08 2966.41,5795.08 2966.41,5566.29 2737.6,5566.29 "/>
   <polygon class="fil3" points="3002.23,5795.08 3231.03,5795.08 3231.03,5566.29 3002.23,5566.29 "/>
   <polygon class="fil3" points="3266.86,5795.08 3495.65,5795.08 3495.65,5566.29 3266.86,5566.29 "/>
   <polygon class="fil3" points="3531.48,5795.08 3760.28,5795.08 3760.28,5566.29 3531.48,5566.29 "/>
   <polygon class="fil3" points="3796.1,5795.08 4024.9,5795.08 4024.9,5566.29 3796.1,5566.29 "/>
  </g>
 </g>
</svg>
