<?xml version="1.0" encoding="UTF-8"?>
<!DOCTYPE svg PUBLIC "-//W3C//DTD SVG 1.1//EN" "http://www.w3.org/Graphics/SVG/1.1/DTD/svg11.dtd">
<!-- Creator: CorelDRAW 2020 (64-Bit) -->
<svg xmlns="http://www.w3.org/2000/svg" xml:space="preserve" width="100mm" height="100mm" version="1.1" style="shape-rendering:geometricPrecision; text-rendering:geometricPrecision; image-rendering:optimizeQuality; fill-rule:evenodd; clip-rule:evenodd"
viewBox="0 0 10000 10000"
 xmlns:xlink="http://www.w3.org/1999/xlink"
 xmlns:xodm="http://www.corel.com/coreldraw/odm/2003">
 <defs>
  <style type="text/css">
   <![CDATA[
    .fil1 {fill:#FEFEFE}
    .fil0 {fill:#FEFEFE;fill-rule:nonzero}
   ]]>
  </style>
 </defs>
 <g id="Layer_x0020_1">
  <metadata id="CorelCorpID_0Corel-Layer"/>
  <path class="fil0" d="M3343.25 7367.61l0 -2075.37 -661.3 0 -535.64 1202.47 -535.65 -1202.47 -657.99 0 0 2075.37 469.52 0 0 -1544.11 621.62 1544.11 205 0 621.61 -1544.11 0 1544.11 472.83 0zm1415.23 39.68c629.55,0 1087.7,-448.79 1087.7,-1075.24 0,-626.44 -458.15,-1075.23 -1087.7,-1075.23 -626.45,0 -1084.59,448.79 -1084.59,1075.23 0,626.45 458.14,1075.24 1084.59,1075.24zm0 -392.7c-383.35,0 -629.57,-296.07 -629.57,-682.54 0,-389.58 246.22,-682.54 629.57,-682.54 383.34,0 632.67,292.96 632.67,682.54 0,386.47 -249.33,682.54 -632.67,682.54z"/>
  <path class="fil0" d="M6246.91 7275.33c0,59.17 46.57,101.6 105.84,101.6 50.79,0 97.36,-42.34 97.36,-101.6l0 -910.19c0,-8.47 1.83,-16.17 8.47,-33.86 31.47,-83.98 108.75,-297.38 249.77,-482.61 142.58,-187.27 330.21,-338.68 601.14,-338.68 55.04,0 101.61,-46.56 101.61,-101.6 0,-59.27 -46.57,-101.6 -101.61,-101.6 -397.94,0 -671.87,263.29 -829.74,508.01 -11.46,17.76 -21.17,33.87 -29.64,50.8l0 -457.21c0,-59.27 -46.57,-101.6 -97.36,-101.6 -59.27,0 -105.84,42.38 -105.84,101.6l0 1866.94zm2074.69 101.6c351.38,0 661.8,-185.45 838.22,-469.91 30.98,-49.94 14.02,-112.02 -33.86,-143.93 -41.06,-27.36 -105.35,-16.6 -135.47,33.86 -139.16,233.13 -393.72,376.78 -668.89,376.78 -427.57,0 -783.18,-342.91 -804.34,-795.88l1701.83 0c55.04,0 101.6,-38.11 101.6,-93.14l0 -12.7 0 -4.23c0,-543.53 -465.68,-965.23 -999.09,-965.23 -558.8,0 -1007.55,465.68 -1007.55,1041.43 0,567.28 448.75,1032.95 1007.55,1032.95zm0 -1871.17c381.01,0 711.22,283.64 778.95,673.12l-1570.59 0c76.2,-393.71 402.17,-673.12 791.64,-673.12z"/>
  <path class="fil0" d="M6844.45 9312.98l0 -96.34 -425.69 0c242.14,-191.36 421.79,-352.79 421.79,-529.84 0,-173.14 -147.11,-255.16 -291.61,-255.16 -122.38,0 -235.63,49.47 -302.03,136.7l66.4 68.99c50.77,-65.09 131.48,-109.35 235.63,-109.35 89.82,0 180.95,48.16 180.95,158.82 0,149.71 -169.24,294.21 -481.68,540.26l0 85.92 596.24 0zm497.3 15.62c236.93,0 331.96,-238.23 331.96,-449.13 0,-212.2 -95.03,-447.83 -331.96,-447.83 -238.24,0 -331.97,235.63 -331.97,447.83 0,210.9 93.73,449.13 331.97,449.13zm0 -96.34c-165.34,0 -221.31,-179.65 -221.31,-352.79 0,-173.14 55.97,-351.49 221.31,-351.49 165.33,0 221.31,178.35 221.31,351.49 0,173.14 -55.98,352.79 -221.31,352.79zm738.13 80.72l0 -868.32 -95.02 0 -217.41 223.91 65.09 66.4 139.29 -147.11 0 725.12 108.05 0zm451.74 14.32c243.45,0 352.8,-213.5 352.8,-447.83 0,-236.93 -92.43,-449.13 -335.87,-449.13 -188.77,0 -303.33,134.09 -303.33,283.8 0,184.86 128.88,277.29 285.1,277.29 110.66,0 206.99,-75.51 244.75,-135.39 1.3,11.71 1.3,23.43 1.3,35.15 0,164.03 -69,339.77 -244.75,339.77 -89.82,0 -141.9,-36.45 -186.16,-88.52l-54.68 80.71c54.68,62.49 130.19,104.15 240.84,104.15zm23.44 -429.6c-111.96,0 -200.48,-59.89 -200.48,-187.47 0,-82.01 66.39,-183.55 199.17,-183.55 151.01,0 208.29,134.09 217.41,242.14 -45.57,76.8 -130.18,128.88 -216.1,128.88z"/>
  <path class="fil0" d="M1425.07 8138.92l0 -482.52 -86.09 0 -150.47 363.16 -149.75 -363.16 -86.09 0 0 482.52 60.05 0 0 -397.15 163.49 397.15 24.6 0 164.22 -397.15 0 397.15 60.04 0zm137.45 -399.33c20.26,0 36.9,-15.91 36.9,-36.17 0,-20.25 -16.64,-36.89 -36.9,-36.89 -19.53,0 -36.17,16.64 -36.17,36.89 0,20.26 16.64,36.17 36.17,36.17zm27.49 399.33l0 -349.41 -54.25 0 0 349.41 54.25 0zm262.61 8.69c63.66,0 101.28,-26.05 128.04,-60.77l-36.17 -33.28c-23.15,31.11 -52.81,45.57 -88.98,45.57 -74.51,0 -120.81,-57.87 -120.81,-135.27 0,-77.41 46.3,-134.56 120.81,-134.56 36.17,0 65.83,13.74 88.98,45.57l36.17 -33.27c-26.76,-34.73 -64.38,-60.77 -128.04,-60.77 -104.18,0 -174.35,79.58 -174.35,183.03 0,104.17 70.17,183.75 174.35,183.75zm258.26 -8.69l0 -247.41c15.91,-28.21 61.49,-55.7 94.77,-55.7 8.68,0 15.19,0.73 21.7,2.17l0 -55.7c-47.74,0 -88.26,26.76 -116.47,63.66l0 -56.43 -54.26 0 0 349.41 54.26 0zm337.11 8.69c106.35,0 172.9,-82.47 172.9,-183.75 0,-101.29 -66.55,-183.03 -172.9,-183.03 -106.34,0 -172.9,81.74 -172.9,183.03 0,101.28 66.56,183.75 172.9,183.75zm0 -48.48c-74.51,0 -116.47,-63.66 -116.47,-135.27 0,-70.9 41.96,-134.56 116.47,-134.56 74.52,0 115.75,63.66 115.75,134.56 0,71.61 -41.23,135.27 -115.75,135.27zm371.84 48.48c90.43,0 137.45,-47.03 137.45,-105.62 0,-136.01 -216.3,-85.37 -216.3,-162.05 0,-31.11 29.66,-54.98 77.41,-54.98 44.85,0 83.19,18.81 104.17,44.13l25.32 -37.62c-28.21,-28.22 -70.17,-50.64 -129.49,-50.64 -83.19,0 -130.22,46.29 -130.22,100.55 0,129.5 216.31,77.41 216.31,162.05 0,34.73 -28.95,60.04 -82.47,60.04 -47.75,0 -91.88,-23.14 -115.03,-49.91l-28.22 39.07c35.45,37.61 83.93,54.98 141.07,54.98zm378.35 0c106.35,0 172.9,-82.47 172.9,-183.75 0,-101.29 -66.55,-183.03 -172.9,-183.03 -106.34,0 -172.9,81.74 -172.9,183.03 0,101.28 66.56,183.75 172.9,183.75zm0 -48.48c-74.51,0 -116.46,-63.66 -116.46,-135.27 0,-70.9 41.95,-134.56 116.46,-134.56 74.52,0 115.75,63.66 115.75,134.56 0,71.61 -41.23,135.27 -115.75,135.27zm330.61 39.79l0 -301.66 70.9 0 0 -47.75 -70.9 0 0 -26.77c0,-44.12 19.53,-68.72 54.98,-68.72 18.08,0 31.83,7.23 43.41,17.36l22.42 -35.45c-21.7,-20.25 -46.29,-26.77 -73.78,-26.77 -62.22,0 -101.29,41.97 -101.29,113.58l0 26.77 -57.87 0 0 47.75 57.87 0 0 301.66 54.26 0zm223.54 8.69c31.83,0 51.36,-9.41 65.11,-22.43l-15.92 -40.51c-7.23,7.96 -21.7,14.46 -36.89,14.46 -23.87,0 -35.45,-18.8 -35.45,-44.85l0 -217.02 70.9 0 0 -47.75 -70.9 0 0 -95.49 -54.26 0 0 95.49 -57.87 0 0 47.75 57.87 0 0 228.6c0,52.08 26.05,81.75 77.41,81.75zm533.17 0c142.51,0 239.44,-107.07 239.44,-249.59 0,-142.51 -96.93,-249.58 -239.44,-249.58 -143.25,0 -239.46,107.07 -239.46,249.58 0,142.52 96.21,249.59 239.46,249.59zm0 -53.54c-108.52,0 -177.24,-83.91 -177.24,-196.05 0,-112.85 68.72,-196.04 177.24,-196.04 107.78,0 177.23,83.19 177.23,196.04 0,112.14 -69.45,196.05 -177.23,196.05zm605.5 44.85l0 -301.66 70.9 0 0 -47.75 -70.9 0 0 -26.77c0,-44.12 19.53,-68.72 54.98,-68.72 13.75,0 23.15,3.61 31.11,8.68l13.74 -41.24c-13.74,-8.68 -32.55,-12.3 -52.8,-12.3 -60.77,0 -101.29,41.24 -101.29,113.58l0 26.77 -57.87 0 0 47.75 57.87 0 0 301.66 54.26 0zm162.77 -399.33c20.26,0 36.9,-15.91 36.9,-36.17 0,-20.25 -16.64,-36.89 -36.9,-36.89 -19.53,0 -36.17,16.64 -36.17,36.89 0,20.26 16.64,36.17 36.17,36.17zm27.49 399.33l0 -349.41 -54.25 0 0 349.41 54.25 0zm-394.99 0l0 -301.66 70.9 0 0 -47.75 -70.9 0 0 -26.77c0,-44.12 19.53,-68.72 54.98,-68.72 18.09,0 31.83,7.23 43.41,17.36l22.43 -35.45c-21.71,-20.25 -46.3,-26.77 -73.79,-26.77 -62.22,0 -101.29,41.97 -101.29,113.58l0 26.77 -57.86 0 0 47.75 57.86 0 0 301.66 54.26 0zm657.6 8.69c63.66,0 101.28,-26.05 128.04,-60.77l-36.17 -33.28c-23.15,31.11 -52.81,45.57 -88.98,45.57 -74.51,0 -120.81,-57.87 -120.81,-135.27 0,-77.41 46.3,-134.56 120.81,-134.56 36.17,0 65.83,13.74 88.98,45.57l36.17 -33.27c-26.76,-34.73 -64.38,-60.77 -128.04,-60.77 -104.18,0 -174.35,79.58 -174.35,183.03 0,104.17 70.17,183.75 174.35,183.75zm361.71 0c57.15,0 104.17,-18.81 138.9,-53.54l-26.05 -35.45c-27.49,28.22 -68,44.13 -107.78,44.13 -75.24,0 -121.54,-54.98 -125.88,-120.81l282.86 0 0 -13.75c0,-104.89 -62.21,-187.36 -167.84,-187.36 -99.83,0 -172.18,81.74 -172.18,183.03 0,109.23 74.52,183.75 177.97,183.75zm108.51 -205.46l-229.32 0c2.89,-53.53 39.79,-116.47 114.3,-116.47 79.58,0 114.3,64.38 115.02,116.47z"/>
  <path class="fil0" d="M6650.48 8213.77l-150.09 -226.8c75.88,-6.67 144.25,-61.7 144.25,-161.76 0,-102.56 -72.54,-167.59 -174.26,-167.59l-223.47 0 0 556.15 69.21 0 0 -220.96 110.9 0 141.74 220.96 81.72 0zm-188.44 -281.83l-145.92 0 0 -212.62 145.92 0c65.87,0 110.89,43.35 110.89,105.89 0,62.54 -45.02,106.73 -110.89,106.73zm446.09 291.84c65.86,0 120.06,-21.69 160.09,-61.71l-30.02 -40.85c-31.69,32.51 -78.38,50.85 -124.24,50.85 -86.72,0 -140.08,-63.36 -145.09,-139.24l326.03 0 0 -15.84c0,-120.9 -71.71,-215.96 -193.45,-215.96 -115.06,0 -198.44,94.22 -198.44,210.95 0,125.91 85.88,211.8 205.12,211.8zm125.06 -236.81l-264.32 0c3.34,-61.7 45.87,-134.24 131.75,-134.24 91.72,0 131.74,74.21 132.57,134.24zm225.14 226.8l0 -556.15 -62.54 0 0 556.15 62.54 0zm306.84 10.01c65.86,0 120.06,-21.69 160.08,-61.71l-30.02 -40.85c-31.68,32.51 -78.37,50.85 -124.23,50.85 -86.72,0 -140.08,-63.36 -145.09,-139.24l326.03 0 0 -15.84c0,-120.9 -71.71,-215.96 -193.45,-215.96 -115.06,0 -198.44,94.22 -198.44,210.95 0,125.91 85.88,211.8 205.12,211.8zm125.06 -236.81l-264.32 0c3.34,-61.7 45.87,-134.24 131.75,-134.24 91.72,0 131.74,74.21 132.57,134.24zm476.94 226.8l0 -276.83c0,-97.55 -70.87,-135.91 -155.92,-135.91 -65.87,0 -117.57,21.68 -160.93,66.71l29.18 43.36c35.86,-38.36 75.05,-55.87 123.41,-55.87 58.37,0 101.72,30.85 101.72,85.05l0 72.54c-32.51,-37.52 -78.38,-55.03 -133.4,-55.03 -68.38,0 -140.92,42.52 -140.92,132.57 0,87.55 72.54,133.42 140.92,133.42 54.19,0 100.05,-19.18 133.4,-55.87l0 45.86 62.54 0zm-173.43 -35.02c-58.36,0 -99.23,-36.69 -99.23,-87.55 0,-51.7 40.87,-88.39 99.23,-88.39 44.19,0 86.71,16.68 110.89,50.03l0 75.88c-24.18,33.35 -66.7,50.03 -110.89,50.03zm426.08 45.03c104.22,0 158.42,-54.2 158.42,-121.74 0,-156.76 -249.31,-98.39 -249.31,-186.77 0,-35.86 34.19,-63.37 89.22,-63.37 51.69,0 95.89,21.67 120.07,50.86l29.18 -43.36c-32.52,-32.52 -80.88,-58.37 -149.25,-58.37 -95.89,0 -150.08,53.36 -150.08,115.9 0,149.25 249.3,89.22 249.3,186.77 0,40.03 -33.35,69.21 -95.05,69.21 -55.03,0 -105.89,-26.68 -132.58,-57.53l-32.51 45.03c40.85,43.35 96.72,63.37 162.59,63.37zm441.92 0c65.87,0 120.07,-21.69 160.09,-61.71l-30.02 -40.85c-31.68,32.51 -78.37,50.85 -124.23,50.85 -86.72,0 -140.08,-63.36 -145.09,-139.24l326.03 0 0 -15.84c0,-120.9 -71.71,-215.96 -193.45,-215.96 -115.07,0 -198.45,94.22 -198.45,210.95 0,125.91 85.89,211.8 205.12,211.8zm125.07 -236.81l-264.32 0c3.34,-61.7 45.86,-134.24 131.75,-134.24 91.72,0 131.74,74.21 132.57,134.24z"/>
  <path class="fil1" d="M4733.58 1235.7l730.34 -166.21 -0.01 2682.59c-82.66,3.92 -817.31,-92.36 -967.75,-109.89l-902.68 -107.24c-55.44,-1.94 -46.65,3.68 -54.58,13.54 61.79,1.86 1323.48,475.23 1494.02,537.46 122.01,44.52 248.89,86.41 368.97,135.51 84.91,34.73 115.43,4.7 197.36,-20.32 317.32,-96.92 667.35,-215.55 975.38,-301.7 14.94,-509.54 0.66,-1042.17 0.66,-1554.3 0,-172 14.16,-1489.83 -10.06,-1541.44 -172.61,-44.2 -354.44,-116.77 -525.06,-171.2 -169.69,-54.14 -339.41,-111 -506.17,-167.75 -67.11,-22.84 -53.63,-17.89 -119.44,6.94l-859.8 322.04c-57.94,0.57 -468.9,165.21 -561.18,197.47 -105.9,37.01 -494.45,187.33 -561.61,200.6l0.15 2298.85 693.53 -296.55 -0.2 -1809.39 608.13 -149.01z"/>
  <g id="_3124567936576">
   <polygon class="fil0" points="952.68,9052.18 1383.47,9052.18 1383.47,8621.4 952.68,8621.4 "/>
   <polygon class="fil0" points="1450.91,9052.18 1881.7,9052.18 1881.7,8621.4 1450.91,8621.4 "/>
   <polygon class="fil0" points="1949.16,9052.18 2379.94,9052.18 2379.94,8621.4 1949.16,8621.4 "/>
   <polygon class="fil0" points="2447.39,9052.18 2878.19,9052.18 2878.19,8621.4 2447.39,8621.4 "/>
   <polygon class="fil0" points="2945.63,9052.18 3376.43,9052.18 3376.43,8621.4 2945.63,8621.4 "/>
   <polygon class="fil0" points="3443.88,9052.18 3874.69,9052.18 3874.69,8621.4 3443.88,8621.4 "/>
   <polygon class="fil0" points="3942.14,9052.18 4372.92,9052.18 4372.92,8621.4 3942.14,8621.4 "/>
   <polygon class="fil0" points="4440.37,9052.18 4871.15,9052.18 4871.15,8621.4 4440.37,8621.4 "/>
   <polygon class="fil0" points="4938.6,9052.18 5369.4,9052.18 5369.4,8621.4 4938.6,8621.4 "/>
   <polygon class="fil0" points="5436.84,9052.18 5867.63,9052.18 5867.63,8621.4 5436.84,8621.4 "/>
  </g>
 </g>
</svg>
