<?xml version="1.0" encoding="UTF-8"?>
<!DOCTYPE svg PUBLIC "-//W3C//DTD SVG 1.1//EN" "http://www.w3.org/Graphics/SVG/1.1/DTD/svg11.dtd">
<!-- Creator: CorelDRAW 2021 (64-Bit) -->
<svg xmlns="http://www.w3.org/2000/svg" xml:space="preserve" width="8.5in" height="1.55in" version="1.1" style="shape-rendering:geometricPrecision; text-rendering:geometricPrecision; image-rendering:optimizeQuality; fill-rule:evenodd; clip-rule:evenodd"
viewBox="0 0 8500 1550"
 xmlns:xlink="http://www.w3.org/1999/xlink"
 xmlns:xodm="http://www.corel.com/coreldraw/odm/2003">
 <defs>
  <style type="text/css">
   <![CDATA[
    .fil0 {fill:#1C1B17}
    .fil1 {fill:#1C1B17;fill-rule:nonzero}
   ]]>
  </style>
 </defs>
 <g id="Layer_x0020_1">
  <metadata id="CorelCorpID_0Corel-Layer"/>
  <g id="_2617244151952">
   <path class="fil0" d="M285.06 1179.63c-43.41,-27.07 -174.85,23.41 -265.56,-11.17 38.62,69.61 89.74,82.69 177.62,50.76 1.17,-0.42 -3.44,-14 -2.25,-14.44 1.85,-0.67 10.4,11.29 12.32,10.65 4.91,-1.63 -5.59,-13.52 -0.12,-15.87 2.22,-0.95 20.23,7.87 22.53,6.82 3.36,-1.51 6.8,-3.11 10.31,-4.76 0.76,-1.15 -6.51,-6.89 24.04,-26.98 2.92,-1.91 4.3,13.5 7.54,11.87 4.45,-2.21 8.98,-4.51 13.58,-6.87zm-45.24 8.09c-30.06,-13.7 -131.43,15.71 -194.26,-1.8 27.74,43.02 81.57,34.18 194.26,1.8z"/>
   <path class="fil0" d="M1727.13 422.74c134.63,6.59 160.73,156.75 104.69,178.2 -5.56,-11.43 -5.43,-21.54 -3.87,-31.61 2.25,-14.48 -13.69,-22.92 -29.7,-8.31 4.27,-22.71 12.46,-38.97 5.21,-56.87 -5.63,-13.92 -25.74,-27.93 -38.48,-52.83 41.65,40.19 59.35,50.38 47.17,93.88 18.46,-11.36 23.81,6.96 26.72,20.67 23.14,-38.59 -9.02,-117.32 -111.74,-143.12z"/>
   <path class="fil0" d="M1762.02 453.63c-9.24,-4.38 -25.13,7.91 -27.76,14.91 -2.64,7.01 7.25,32.57 -4.19,35.48 -11.46,2.92 -37.32,-1.09 -43.63,6.67 -6.31,7.76 6.17,44.03 6.17,44.03 0,0 -6.3,-30.81 4.91,-40.48 11.22,-9.67 48.07,10.25 48.89,-3.28 -2.65,-11.38 -7.15,-26.45 -3.72,-37.89 2.5,-8.33 10.81,-13.71 19.34,-19.44z"/>
   <path class="fil0" d="M1669.17 522.38c0,0 0.07,13.9 -10.47,28.79 -16.7,23.61 -60,27.39 -83.43,15.47 -40.53,-20.63 -34.22,-36.69 -53.84,-52.22 -10.42,-8.24 -24.69,-14.05 -35.76,-17.69 -18.49,-6.04 -17.78,-12.95 -1.27,-27.24 11.74,-10.16 39.83,-22.94 80.89,-2.8 -49.28,-3.11 -76.56,2.57 -81.68,18.65 5.59,-2.54 39.02,2.42 52.46,21.82 23.46,33.9 29.69,48.57 68.58,51.24 40.34,2.79 64.52,-36.02 64.52,-36.02z"/>
   <path class="fil1" d="M1509.65 412.04c-48.76,-22.57 -105.32,-58.07 -114.04,-112.75 -2.86,-17.97 1.09,-10.73 10.63,0.38 13.55,15.78 30.66,27.35 40.09,33.67l-23.79 -26.74c-10.17,-14.54 -18.93,-26.11 -27.88,-49.13 -7.5,-12.42 -9.63,10.22 -9.52,13.87 0.96,35.02 12.68,65.32 33.56,91.56 22.96,28.89 57.03,52.85 100.11,72.78l-9.17 -23.64z"/>
   <path class="fil0" d="M1570.37 381.87c0,0 4.43,-3.47 11.45,-4.94 7.01,-1.47 12.68,6.61 18.76,19.19 6.06,12.56 -9.74,-13.85 -18.24,-14.45 -8.5,-0.6 -11.96,0.2 -11.96,0.2z"/>
   <path class="fil0" d="M1590.4 387.21c0.14,0.55 -1.56,9.02 -9,7.94 -4.88,-0.7 -9.02,-7.87 -5.13,-11.43l3.54 -3.23 6.09 0.54c0,0 4.35,5.65 4.5,6.18z"/>
   <path class="fil0" d="M695.48 422.74c-134.63,6.59 -160.73,156.75 -104.7,178.2 5.57,-11.43 5.44,-21.54 3.88,-31.61 -2.25,-14.48 13.68,-22.92 29.69,-8.31 -4.26,-22.71 -12.45,-38.97 -5.19,-56.87 5.63,-13.92 25.73,-27.93 38.48,-52.83 -41.65,40.19 -59.36,50.38 -47.16,93.88 -18.46,-11.36 -23.81,6.96 -26.73,20.67 -23.13,-38.59 9.03,-117.32 111.74,-143.12z"/>
   <path class="fil0" d="M660.61 453.63c9.24,-4.38 25.14,7.91 27.77,14.91 2.63,7.01 -7.26,32.57 4.18,35.48 11.46,2.92 37.33,-1.09 43.65,6.67 6.3,7.76 -6.18,44.03 -6.18,44.03 0,0 6.29,-30.81 -4.91,-40.48 -11.22,-9.67 -48.07,10.25 -48.88,-3.28 2.64,-11.38 7.16,-26.45 3.72,-37.89 -2.5,-8.33 -10.83,-13.71 -19.35,-19.44z"/>
   <path class="fil0" d="M753.44 522.38c0,0 -0.07,13.9 10.48,28.79 16.69,23.61 59.99,27.39 83.42,15.47 40.54,-20.63 34.21,-36.69 53.84,-52.22 10.42,-8.24 24.69,-14.05 35.77,-17.69 18.48,-6.04 17.77,-12.95 1.26,-27.24 -11.73,-10.16 -39.84,-22.94 -80.89,-2.8 49.29,-3.11 76.56,2.57 81.69,18.65 -5.59,-2.54 -39,2.42 -52.44,21.82 -23.48,33.9 -29.7,48.57 -68.59,51.24 -40.34,2.79 -64.53,-36.02 -64.53,-36.02z"/>
   <path class="fil1" d="M912.97 412.04c48.76,-22.57 105.33,-58.07 114.04,-112.75 2.87,-17.97 -1.07,-10.73 -10.62,0.38 -13.56,15.78 -30.67,27.35 -40.11,33.67l23.8 -26.74c10.19,-14.54 18.94,-26.11 27.89,-49.13 7.5,-12.42 9.62,10.22 9.52,13.87 -0.97,35.02 -12.68,65.32 -33.55,91.56 -22.97,28.89 -57.04,52.85 -100.12,72.78l9.16 -23.64z"/>
   <path class="fil0" d="M852.25 381.87c0,0 -4.44,-3.47 -11.45,-4.94 -7,-1.47 -12.67,6.61 -18.75,19.19 -6.06,12.56 9.74,-13.85 18.25,-14.45 8.5,-0.6 11.96,0.2 11.96,0.2z"/>
   <path class="fil0" d="M832.22 387.21c-0.16,0.55 1.55,9.02 9,7.94 4.87,-0.7 9.02,-7.87 5.12,-11.43l-3.53 -3.23 -6.09 0.54c0,0 -4.35,5.65 -4.5,6.18z"/>
   <path class="fil0" d="M1077.17 136.15l5.05 0 47.02 56.59c-26.41,3.94 -46.8,26.55 -46.8,53.61l0 0c0,23.95 15.98,44.4 37.96,51.52 0.35,0.13 5.13,0.22 5.48,0.33l-38.53 45.43 -10.19 0 0 -207.47zm48.99 0l168.91 0 -46.44 55.97 -22.7 0 0 -0.36 -0.74 0 -29.16 0 -0.72 0 0 0.36 -22.71 0 -46.44 -55.97zm212.85 0l5.06 0 0 207.47 -10.2 0 -38.52 -45.43c0.35,-0.11 5.13,-0.2 5.47,-0.33 21.99,-7.11 37.97,-27.57 37.97,-51.52l0 0c0,-27.06 -20.4,-49.67 -46.8,-53.61l47.02 -56.59zm-49.07 207.47l-64 0 0 -13.23 0 -12.79 0 -94.41 50.99 0c15.1,0 27.47,9.52 27.47,23.16l0 0c0,13.63 -12.37,24.79 -27.47,24.79l-48.31 0 13.1 15.5 48.23 56.99zm-94.63 0l-64.02 0 48.23 -56.99 13.11 -15.5 -48.33 0c-15.11,0 -27.47,-11.15 -27.47,-24.79l0 0c0,-13.64 12.36,-23.16 27.47,-23.16l51 0 0 94.41 0 12.79 0 13.23z"/>
   <path class="fil1" d="M1288.42 76.24c1.33,-19.96 24.31,-53.93 49.36,-56.63 9.64,-7.7 50.64,-0.37 63.06,11.01 20.82,16.13 33.28,54.89 43.93,87.51 11.67,35.79 27,79.31 54.24,115.81 31.04,23.94 52.24,-17.46 65.04,35.46 2.88,7.04 1.03,19.93 5.26,22.39 4.24,2.46 14.55,-5.5 25.68,-4.5 29.32,-9.74 34.9,10.87 39.69,18.6 3.22,5.21 -0.95,15.38 4.77,18.69 12.6,7.27 34.41,5.2 47.22,4.61 12.22,-0.59 41.5,2.27 54.99,27.42 7.2,13.41 8.43,29.55 4.03,42.97 -3.89,11.83 -31.36,31.66 -45.55,35.51 -10.35,4.35 7.66,5.85 12.32,4.11 5.87,-2.2 13.91,-5.96 20.63,-8.9 20.84,-9.09 44.42,2.58 67.74,0.82 63.67,3.24 151.24,8.69 230.26,37.63 78.14,28.62 159.48,81.18 209.28,181.57 6.29,12.67 20.11,45.88 22.73,83.36 -15.31,-24.88 -34.17,-41.67 -58.31,-57.39 23.79,21.12 49.75,61.7 63.07,93.46 10.94,25.99 15.97,68.57 0.48,99.08 -2.36,41.24 14.48,60.08 21.72,100.57 0,0.03 -7.78,17.66 -5.49,41.4 2.78,28.65 18.8,65.07 16.97,75.24 35.78,-52.44 39.84,-52.05 19.44,-112.49 -2.96,-8.76 -32.06,-38.88 -28.02,-109.42 1.09,-19.09 2.19,-38.2 2.28,-57.84l0 -0.05 0.01 -5.1 0 -0.05c-0.12,-29.95 -3.87,-55.16 -10.92,-79.61 -7.03,-24.39 -17.22,-47.76 -30.35,-74.19 -53.16,-107.17 -133.37,-163.72 -216.94,-194.34 -82.7,-30.3 -167.92,-34.85 -233.23,-38.2 -26.74,-1.35 -32.81,-34.55 -42.2,-52.01 -21.05,-39.19 -48.48,-49.8 -70.41,-48.78 -17.74,0.83 -33.82,0.68 -43.72,-15.35 -5.83,-10.52 -11.02,-20.99 -29.76,-24.12 -14.71,-2.45 -30.14,7.17 -36.13,-8.76 -4.39,-11.73 -9.54,-25.48 -27.89,-33.94 -8.61,-3.96 -16.43,-5.89 -23.76,-7.7 -8.92,-2.18 -16.91,-4.13 -21.78,-9.7 -26.87,-30.65 -38.93,-67.57 -49.85,-101.05 -11.91,-36.49 -22.63,-69.26 -49.48,-90.06 -9.92,-7.68 -21.7,-12.9 -34.12,-15.48 -14.34,-2.95 -29.56,-2.32 -43.77,2.26 -14.36,4.63 -27.69,13.24 -38.04,26.19 -8.17,10.23 -14.43,23.17 -17.77,38.92l-1.8 13.16c-1.18,8.55 0.43,9.94 7.12,5 11.24,-8.34 18.7,-2.63 27.87,-10.41 8.55,6.93 8.33,24.5 20.11,18.55 3.84,-1.94 -5.64,-8.05 0.11,-19.06 11.37,-21.75 36.54,-18.63 42.11,-2.27 8.54,25.13 11.19,83.56 17.91,124.68 4.12,25.08 7.83,47.8 11.78,62.93l0 0.06 0.03 0.07c16,61.04 60.13,69.79 92.75,99.33 18.53,16.75 10.7,38.46 15.06,59.37 3.31,16.02 28.65,40.15 67.74,44.52 2.98,-1.16 -31.93,-20.04 -45.26,-35.77 -9.71,-11.46 -11.04,-25.87 -10.82,-30.72l0 -0.05c0.85,-17.86 -0.9,-29.47 -16.56,-43.64 -21.56,-19.51 -65.49,-44.33 -79.14,-66.72 -29.11,-47.69 -25.31,-120.01 -35.08,-174.41 -5.44,-30.24 -12.9,-53.84 -27.43,-60.19 -31.86,-13.93 -53.41,25.44 -73.19,16.62z"/>
   <path class="fil1" d="M2268.11 866.38c-14.04,32.02 -24.88,88.72 -18.19,114.83 6.58,25.67 16.64,49.75 27.65,75.87l-0.01 0.01 0.04 0.11 0.05 0.06c4.91,11.7 6.75,24.94 7.19,37.84 0.17,5.05 1.26,12.63 -12.39,14.52 -0.09,2.96 12.61,6.26 13.19,9.15 2.06,10.33 7.53,20.09 9.77,28.68l1.47 5.53c4.11,14.89 -12.08,15.5 -16.02,15.37l-59.28 -4.93c-1.1,4.41 -32.41,9.2 -26.41,-12.09 2.61,-9.31 12.23,-20.17 25.87,-14.96 1.55,-7.13 -34.45,-12.63 -35.05,23.15 -0.11,6.74 -21.02,5.96 -21.01,-1.1 3.86,-25.75 10.84,-32.59 26.03,-26.33 1.22,-2.24 -5.5,-8.87 -4.59,-10.99 1.78,-4.23 11.06,-4.39 12.26,-9.18 -27.29,-23.71 6.58,-27.65 3.55,-35.09 -15.22,-37.24 -28.5,-61.28 -54,-86.52 -11.74,-11.59 -26.48,-25.3 -35.94,-41.2 -6.94,-11.67 -12.15,-26.39 -17.02,-58.61 -11.92,-37.12 -46.51,-147.54 -86.51,-160.37 4.85,5.68 10.94,15.37 17.05,26.75 2.93,5.45 5.86,11.3 8.67,17.29 12.15,25.92 21.91,54.44 18.49,64.87 -2.54,7.78 -6.87,18.7 -5.86,25.94 0.37,2.81 -6.36,11.72 -4.02,9.92 17.09,-13.1 36.54,11.45 36.34,24.75 3.83,56.58 8.07,41.35 62.39,98.81 12,12.68 17.74,27.32 25.74,41.41 8.22,14.41 10.95,35.53 8.65,54.6 -0.48,4.05 -1.19,7.92 -2.09,11.53 -0.89,3.52 -1.98,6.89 -3.3,10 -0.72,1.69 -1.43,3.18 -2.1,4.41l-2.21 4.07 -0.02 -0.02c-6.64,12.2 -11.43,21 -11.74,29.35 -0.58,15.93 9.23,22.76 37.42,23.77l91.22 3.27c23.02,0.81 30.41,-3.88 30.95,-18.56 0.19,-4.97 -1.14,-9.8 -2.93,-16.26 -0.83,-3.02 -1.15,-4.06 -1.46,-5.25 -1.99,-7.56 -8.03,-18.38 -7.67,-30.11 1.01,-32.8 -8.06,-59.82 -18.65,-86.98 -15.46,-39.69 -30.95,-73.62 -15.52,-157.31z"/>
   <path class="fil1" d="M2014.69 930.91c-10.04,34.46 -26.97,83.12 -13.79,108.41 7.08,14.39 19.51,19.02 14.29,35.89l-0.02 -0.01c-5.28,10.91 -38.39,56.63 -23.87,65.69l-0.01 0.02c2.24,1.39 4.77,2.13 7.61,2.18 44.53,0.82 191.09,33.17 119.06,-54.83 -18.87,-30.24 9.91,-61.23 29.56,-82.54l-14.06 -15.24c-17.78,25.65 -45.8,63.49 -31.07,96.04 1.24,2.75 -9.29,3.48 -7.44,6.46 0.82,1.28 13.68,4.78 14.47,6.23 26.88,49.31 -43.5,33.97 -71.99,33.81 9.89,-9.35 8.9,-18.7 -0.11,-28.05 4.74,22.85 -17.93,32 -39.67,28.8 -8.35,-20.2 34.19,-34.59 40.49,-48.02 0,-0.01 -2.97,-21.91 -1.06,-22.46 37.68,-11.06 -3.26,-9.62 -8.5,-11.87 -42.13,-17.96 -3.7,-100.44 12.02,-124.62l-2.43 -1.55c-7.41,2.47 -15.5,6.6 -23.47,5.67z"/>
   <path class="fil1" d="M2082.96 915.3c-37.63,8.62 -92.43,19.2 -137.31,0.76 -45.33,-18.63 -67.83,-34.28 -126.81,-76.59 -1.41,-1.01 -17.65,-16.24 -19.11,-17.29l-8.26 16.19c66.59,46.63 99.91,65.79 148.3,85.68 49.9,20.51 107.69,16.98 150.86,7.09l-7.67 -15.83z"/>
   <path class="fil0" d="M2054.34 812.64c-10.74,109.54 -122.69,69.77 -205.98,29.17 45.66,40.3 175.75,84.73 220.46,8.18 0,0 -15.44,-38.29 -14.48,-37.35z"/>
   <path class="fil1" d="M2109.3 532.44c-67.22,-34.06 -132.19,-55.66 -207.2,-83.74 59.13,8.7 148.89,37.24 216.59,79.58 47.84,29.93 98.18,85.32 117.67,138.43 -32.48,-31.79 -57.7,-99.11 -127.06,-134.27z"/>
   <path class="fil1" d="M1661.71 595.74c-0.16,8.49 -21.86,85.78 -21.87,94.13 -0.17,80.88 6.76,155.85 28,231.83 1.94,6.99 9.42,33.83 14.41,59.91 7.04,36.87 7.42,65.28 -0.11,82.65 -18.27,14.33 -29.63,24.74 -31.04,37.28 -1.49,13.2 -2.85,19.42 4.09,22.79l0.86 -1.5 137.22 0c-1.14,2.62 -2.32,5.24 -3.5,7.84 9.15,-0.66 15.41,-2.5 16.6,-6.77 0.04,-0.11 5.07,-20.21 -6.23,-39.33 -10.27,-31.37 -11.15,-70.46 -6.7,-115.75 3.44,-35.22 3.96,-80.99 -1.47,-109.17 9.67,-6.3 23.53,-40.86 9.21,-104.94 -6.86,-30.68 0.22,-61.07 -1.1,-72.9 -9.87,23.15 -13.52,64.65 -8.06,102.36 2.85,19.63 2.98,33.07 -5.13,52.58 -15.39,22.53 -40.15,6.14 -38,-32.24 -14.11,53.32 21.39,57.73 32.24,58.7 5.39,27.9 1.9,114.62 -2.74,150.89 -0.82,9.82 -2.38,18.61 -3.12,27.37 -1.2,14.53 -15.45,19.8 -15.3,22.01 0.27,3.95 15.64,2.35 16.7,6.61 6.81,6.65 8.41,13.84 12.55,21.9 6.19,10.46 1.31,20.69 -3.06,25.2 -7.43,7.68 -53.66,3.19 -64.22,1.5 -43.68,-1 -27.71,-32 -14.74,-42.02 -10.63,2.87 -36.53,19.89 -19.56,39.5 -19.77,4.93 -24.96,1.51 -27.47,-5.19 7,-37.5 30.01,-26.98 36.24,-34.8 3.98,-5.01 5.74,-15.85 5.87,-29.98 0.13,-14.98 13.19,-17.78 9.47,-19.41 -10.42,-4.57 -11.17,-12.67 -11.61,-16.72 -2.41,-21.87 -6.62,-45.91 -11.46,-67.22 -2.19,-9.63 -4.48,-18.74 -6.72,-26.82 -2.31,-8.27 -4.58,-15.42 -6.68,-20.96l-0.05 -0.15 -0.02 -0.04c-13.32,-35.51 -22.78,-155.85 -17.91,-205.12l4.42 -93.99zm13.49 299.11l0 0 0 0z"/>
   <path class="fil1" d="M1611.1 605.77c-41.52,60.54 -80.67,129.18 -132.35,178.49 -25.57,24.41 -64.22,60.41 -69.41,83.47l-0.02 0.1 -0.05 0.05c-2.47,11.07 -2.11,27.59 -1.72,44.35 0.43,19.83 0.9,38.95 -0.33,44.93l-2.51 0.23 -0.06 0.09c-1.82,2.5 -3.39,5.09 -4.78,7.72 -1.34,2.58 -2.51,5.19 -3.48,7.75 -15.77,41.23 11.78,36.08 36.21,37.28 13.71,0.69 30.63,1.73 44.23,1.73 26.85,0 49.57,1.44 51.39,-9.35l0.01 -0.13 1.18 -2.89c4.41,-21.7 -8.72,-31.46 -15.9,-43.26 -2.88,-13.49 1.68,-38.7 6.56,-44.28l0.04 -0.05 0.03 -0.02 -0.01 0c0.75,-0.85 -0.17,-5.69 1.78,-7.54 19.75,-18.68 44.16,-42.26 65.76,-60.33 9.79,-8.15 24.98,-20.74 34.09,-22.5 8.99,-1.73 19.07,-2.61 31.63,2.25l8.06 -8.9c-17.25,-6.67 -31.83,-8.47 -45.71,-5.8 -13.77,2.67 -26.13,9.62 -39.15,20.52 -18.56,15.5 -37.73,39.79 -53.93,54.29 -3.03,2.7 -12.25,7.57 -14.78,9.98 -2.47,2.31 -5.59,0.28 -6.92,1.78l-0.05 0.04 -0.02 0.03 0 0c-5.37,6.19 3.08,21.55 2.07,34.19 -1.22,15.02 2.31,15.52 -6.79,33.17 11.83,5.74 23.39,11.97 20.01,28.66 -4.29,21.24 -56.87,10.63 -69.05,10.63 -18.53,6.88 -3.03,-13.44 -12.18,-19.42 -6.05,26.06 -21.92,14.2 -26.71,13.82 -16.54,-8.16 -1,-33 23.94,-36.89 -15.74,-13.09 -9.12,-25.17 0.6,-29.9 -15.65,-2.37 -15.64,-54.27 -1.21,-72.44 25.3,-31.9 37.68,-47.16 59.66,-68.13 7.26,-6.91 28.96,-35.93 37.5,-37.71 14.23,-2.96 15.17,27.63 18.57,9.78 2.76,-14.43 -3.53,-22.47 1.93,-36.7 13.94,-36.35 45.59,-77.5 64.54,-105.27l-2.7 -13.85z"/>
   <path class="fil0" d="M1567.31 562.96c0,0 38.34,14.26 42.39,47.4 4.05,33.15 37.82,88.29 37.82,88.29 10.32,-44.89 -29.59,-59.16 -27.35,-89.43 1.04,-14.18 -9.59,-30.53 -16.87,-37.16l-35.99 -9.1z"/>
   <path class="fil0" d="M1657.71 491.07c3.48,21.41 19.98,43.11 12.71,62.81 -19.85,53.66 -4,61.3 -8.48,91.14 -6.17,41.05 -7.44,59.73 27.49,32.39 18.91,-14.81 26.33,-42.88 70.83,-49.91 84.04,-13.25 90.61,-46.66 90.4,-46.84l-14.75 -12.61c-0.18,7.28 -3.63,-4.63 -5.6,0.67 -7.46,19.97 -25.96,27.59 -42.15,36 -36.52,19.03 -67.43,19.51 -112.61,64.15 -6.71,-27.12 -3.51,-58.77 4.91,-102.95 4.9,-25.77 -13.18,-44.03 -22.74,-74.84z"/>
   <path class="fil0" d="M1603.08 1050.69c-126.15,-96.97 -254.64,-44.97 -353.35,76.22 -4,4.93 -1.83,8.12 -5.77,13.28 102.16,-120.32 240.62,-185.28 360.09,-76.13 33.7,30.78 60.28,23.18 90.63,32.52 -42.82,-33.66 -60.53,-22.02 -91.61,-45.89z"/>
   <path class="fil0" d="M1695.58 1085.34c-29.46,-9.64 -53.48,44.89 -94.5,15.75 10.78,25.98 10.02,45.13 -0.02,69.64 -0.43,1.02 -14.38,-105.87 -105.37,-130.56 -91.44,-24.81 -175.78,20.22 -246.76,104.42 -3.44,4.07 -1.57,6.57 -4.96,10.85 75.51,-86.05 164.52,-132.41 258.83,-96.13 61.83,23.79 82.57,74.89 92.43,131.78 2.52,14.5 32.64,-33.34 17.28,-73.73 52.77,10.3 78.39,-30.47 83.07,-32.02z"/>
   <path class="fil0" d="M1250.36 1172.1c28.74,-38.59 95.73,-88.19 147.12,-97.44 44.8,-8.07 85.26,11 90.72,68.04 15.02,-8.19 23.11,4.79 39.53,-12.3 3.22,14.13 10.83,23.6 20.94,34.51 1.41,1.19 2.88,2.49 4.45,3.89l14.43 13.94c15.02,-26.17 16.3,-54.24 -13.44,-91.28 15.85,31.78 20.46,56.84 8.33,66.28 -15.06,-3.2 -25.69,-20.94 -33.31,-42.36 -9.48,16.39 -22.43,10.25 -34.69,15.03 -8.46,-55.53 -52.83,-71.44 -97.81,-63.31 -48.25,8.72 -125.68,60.67 -144.87,100.91 0,0 0.7,4.78 -1.39,4.11z"/>
   <path class="fil1" d="M1275.68 1171.02c1.15,0.67 54.38,-17.02 97.98,-17.07 33.77,-0.04 30.89,28.1 66.75,35.32 11.51,2.32 26.22,3.01 36.97,-2.33 17.35,-8.61 21.37,-28.51 -0.5,-35.71 -14.67,-4.83 -24.41,5.1 -24.65,20.63 -14.37,-1.88 -11.58,-39.88 24.33,-33.71 19.42,5.32 25.69,22.54 20.91,37.28 -8.38,7.85 -17.08,15.39 -26.09,22.56 -9.8,2.06 -21.22,1.12 -30.71,-0.84 -32.16,-6.65 -33.94,-29.8 -67.42,-32.4 -29.87,-2.33 -63.93,4.41 -82.5,8.8 -6.44,1.52 6.98,6.9 -7.49,-0.39l-7.58 -2.13z"/>
   <path class="fil0" d="M1265.54 1164.24c31.85,-25.17 66.33,-49.87 110.76,-51.01 22.07,-0.56 54.07,2.19 67.59,41.43 1.41,4.06 3.68,9.35 7.13,14.41 2.63,3.85 6.89,6.99 9.7,6.18 -12.09,6.5 -16.43,-1.5 -19.15,-8.25 -14.11,-34.87 -33.01,-46.25 -65.72,-45.83 -44.17,0.55 -80.02,22.96 -109.85,50.24l-0.47 -7.17z"/>
   <path class="fil0" d="M1399.9 1170.09c16.23,16.56 16.35,38.86 8.37,51.22 -13.91,21.5 -50,19.88 -51.28,-4.82 -3.62,-21.37 30.52,-33.98 34.86,-6.64 2.18,-12.29 -5.98,-22.03 -16.52,-24.32 -24.28,-5.28 -37.93,18.39 -29.33,39.02 11.72,28.14 47.62,25.77 62.84,11.56 16.96,-15.8 18.62,-45.42 -8.95,-66.01z"/>
   <path class="fil0" d="M1246 1215.93c-3.46,0.67 -7.34,-2.7 -7.46,-4.07 -3.57,-36.28 14.83,-130.5 50.31,-145.82 -19.2,-12.46 -30.56,-2.56 -40.96,9.31 -12.55,14.34 -19.23,73.12 -21.73,75.08 0,-4.25 9.62,-50.78 6.76,-84.66 -1.15,-13.61 -10.99,-29.2 -21.61,-37.41l0 -8.15c18.87,11.83 30.39,25.33 30.39,44.67 18.65,-12.83 32.96,-19.05 62.59,-2.15 -37.46,20.43 -70.5,117.23 -58.3,153.21z"/>
   <path class="fil0" d="M2200.42 1316.83c-158.11,105.56 -319.16,48.94 -442.88,-83 -5.04,-5.36 -2.29,-8.83 -7.23,-14.46 128.05,131 299.52,199.67 449.26,80.85 42.22,-33.52 72.94,-16.57 98.05,10.03 -40.2,-11.85 -58.27,-19.43 -97.2,6.57z"/>
   <path class="fil0" d="M2296.13 1309.48c-8.44,-34.31 -19.87,-70.58 -84.21,-50.68 13.5,-25.94 11.41,-28.37 16.19,-56.02 0.1,-0.6 -18.02,25.8 -54.79,56.84 -26.85,22.65 -63.3,49.94 -111.37,60.4 -96.48,21 -203.35,-16.09 -289.78,-90.87 -8.2,-7.1 -15.98,-14.4 -23.6,-21.78 0.75,-1.19 1.52,-2.39 2.28,-3.59 7.98,7.65 16.2,15.19 25.09,22.39 89.19,72.54 193.01,112.82 300.71,79.77 32.68,-10.04 63.54,-31.41 87.77,-54.51 33.2,-31.67 57.09,-65.13 84.7,-63.95 -12.69,30.1 -5.9,31.92 -17.09,55.81 66.16,-10.31 70.66,48.27 64.1,66.18z"/>
   <path class="fil0" d="M2220.8 1204.21c-7.12,-11.08 -30.35,9.79 -42.73,13.95 12.41,-25.95 -7.53,-31.74 -23.26,-35.41 -1.35,-0.3 -13.79,74.67 -118.55,99.46 -90.91,21.53 -191.88,-21.68 -272.33,-100.54 0.7,-1.26 1.41,-2.54 2.11,-3.81 83.69,76.86 182.45,122.35 284.4,88.3 71.22,-23.77 92.76,-71.3 102.3,-98.82 14.55,1.42 42.9,16.15 32.62,40.07 23.46,-19.78 49.77,-21.17 57.96,-18.3l-22.54 15.09z"/>
   <path class="fil0" d="M1779.25 1153.16c29.59,13.44 74.97,22.7 107.04,16.85 42.54,-7.76 69.9,-39.36 61.97,-71.16 11,0.13 39.26,5.02 35.18,43.56 -2.38,-15.44 -11.79,-33.75 -25.98,-33.49 7.36,27.72 -22.61,59.23 -73.46,67.53 -31.93,5.21 -75.82,-3.13 -105.34,-18.18 -0.76,-0.32 -1.27,-0.65 -1.64,-1.01 0.7,-1.37 1.41,-2.75 2.1,-4.14 0.05,0.01 0.1,0.02 0.13,0.03z"/>
   <path class="fil0" d="M1801.64 1210.39c15.46,9.43 38.68,22.55 56.96,28.71 46.07,15.5 106.39,4.67 130.95,0.06 9.78,-1.84 22.16,7.91 26.72,17.01 9.5,-1.75 24.47,-27.93 -0.76,-52.32 -7.61,2.01 -11.16,2.12 -11.7,3.53 5.46,2.03 9.85,3.8 13.44,7.71 8.54,9.28 8.18,21.98 -1.84,24.78 -16.39,-18.61 -37.53,-9.99 -58.3,-4.17 -26.97,7.59 -66.52,8.26 -97.95,-0.87 -19.56,-5.68 -40.5,-18.72 -58.11,-27.69 -3.15,2.02 -0.47,2.6 0.56,3.24z"/>
   <path class="fil0" d="M2015 1205.72c24.01,-5.89 31.63,-36.54 44.7,-44.36 -29.8,-28.87 -91.22,39.05 -148.7,41.36 -40.85,1.65 -90.1,-9.73 -138.39,-36.89 -0.94,1.75 -1.87,3.48 -2.81,5.22 78.06,45.72 171.88,52.44 244.8,3.54 8.83,-5.93 17.75,-11.03 27.71,-10.31 -15.28,16.59 -10.77,25.65 -39.53,42.83l12.23 -1.37z"/>
   <path class="fil0" d="M1960.53 1162.86c16.49,-11.52 20.48,-17.81 57.65,0.99l10.59 -7.14c-34.83,-17.16 -45.65,-20.17 -68.24,6.15z"/>
   <path class="fil0" d="M2137.44 1178.48c43.91,-27.38 176.89,23.68 268.65,-11.31 -39.07,70.43 -90.78,83.66 -179.69,51.36 -1.19,-0.43 3.48,-14.16 2.28,-14.61 -1.87,-0.68 -10.52,11.42 -12.46,10.78 -4.96,-1.65 5.65,-13.69 0.12,-16.07 -2.25,-0.95 -20.47,7.96 -22.8,6.9 -3.4,-1.52 -6.89,-3.15 -10.42,-4.81 -0.77,-1.16 6.57,-6.96 -24.32,-27.29 -2.95,-1.93 -4.35,13.66 -7.62,12.01 -4.5,-2.24 -9.09,-4.56 -13.74,-6.95zm45.76 8.19c30.42,-13.85 132.96,15.89 196.52,-1.82 -28.06,43.53 -82.51,34.58 -196.52,1.82z"/>
   <path class="fil0" d="M1979.23 1134.63c31.77,-23.46 127.97,20.29 194.37,-9.67 -29.31,73.6 -75.3,65.04 -194.37,9.67zm31.98 7.35c22,-11.87 97.32,13.28 143.32,-1.89 -20.31,37.28 -60.83,29.94 -143.32,1.89z"/>
   <path class="fil0" d="M1722.17 1246.05c-4.76,91.96 -24.13,155.59 -85.69,249.52 -10.49,16.04 -8.86,25.19 -11.43,52.3 -29.91,2.36 -61.72,-11.38 -58.02,-41.63 -20.22,10.3 -48.86,27.17 -72.47,12.48 1.13,-30.08 17.41,-47.97 39.08,-66.5 -6.34,-1.22 -11.53,-8.37 -16.67,-23.08 8.83,-2.56 30.34,-4.65 51.96,-14.59 32.57,-14.97 69.6,-42.61 87.89,-93.14 2.89,-2.86 5.77,-5.74 8.61,-8.66 -4.39,54.56 -52.42,96.4 -89.09,112.56 -19.48,8.59 -42.63,8.01 -47.75,10.35 3.94,9.79 12.11,13.11 21.56,12.78 -20.26,18.84 -40.82,36.57 -41.1,63.9 24.78,4.86 51.37,-11.07 74.79,-31.28 -21.96,51.02 11.43,52.72 29.65,57.85 -0.48,-19.45 4.67,-42.19 13.07,-54.49 59.77,-87.67 80.73,-155.59 85.81,-225.43 3.34,-4.27 6.58,-8.59 9.8,-12.94z"/>
   <path class="fil0" d="M1560.73 1475.48c64.7,-33.97 119.88,-88.2 134.4,-195.31 -3.83,4.5 -7.71,8.97 -11.67,13.36 -6.8,89.71 -63.09,139.91 -122.73,181.94z"/>
   <path class="fil0" d="M1801.39 1326.61c-4.22,21.17 6.1,39.03 17.77,44.95 20.29,10.34 46.13,-8.67 35.53,-28.99 -7.31,-18.82 -38.38,-12.14 -28.8,11.8 -7.35,-8.74 -5.89,-20.5 0.8,-27.5 15.42,-16.12 36.55,-3.93 39.85,16.74 4.51,28.18 -23.03,43.9 -40.9,40.04 -19.88,-4.29 -34.96,-27.09 -24.26,-57.03z"/>
   <path class="fil0" d="M1745.91 1211.56c14.91,15.8 38.91,45.02 51.5,80.57 5.56,15.7 6.59,32.69 5.5,50.65 -1.21,19.74 -5.62,36.94 -9.35,56.04 -2.64,13.49 -2.54,28.49 11.68,36.13 -15.9,-2.9 -19.32,-13.3 -19.53,-24.12 -0.36,-19.92 2.4,-40.61 3.32,-60.54 0.82,-18.04 0.98,-35.11 -1.65,-47.85 -8.27,-40.13 -23.72,-64.23 -42.74,-88.84 0.43,-0.68 0.86,-1.37 1.28,-2.04z"/>
   <path class="fil0" d="M1729.67 1235.67c5.45,10.2 11.14,23.59 12.29,36.51 1.62,18.29 -7.21,57.2 -17.02,71.3 -4.13,5.95 -0.54,-10.82 -0.62,-11.44 0.95,-2.85 1.83,-5.65 2.66,-8.41 10.5,-35.24 10.2,-63.51 1.6,-86.44l1.09 -1.52z"/>
   <path class="fil0" d="M1711.01 1344.28c12.05,9.89 19.66,14.12 32.14,11.37 -8.06,3.88 -16.34,11.54 -20.2,28.39 7.76,1.83 28.62,9.86 37.71,2.13 -1.24,16.99 4.97,34.83 14.62,46.18 9.65,11.34 22.01,18.06 31.57,16.45 -1.43,-0.63 -2.2,-6.02 -3.82,-6.13 -19.11,-1.39 -24.93,-9.26 -29.4,-24.26 -4.18,-13.96 -0.64,-34.81 4.65,-59.57 -15.74,23.66 -31.93,21.02 -41.19,15.93 5.43,-18.42 14.79,-16.91 23.68,-36.19 -12.3,1.52 -24.16,14.37 -36.9,4.56 4.42,-7.81 9.71,-24.76 6.59,-32.57 -6.48,22.34 -13.4,29.95 -19.44,33.7z"/>
   <path class="fil0" d="M1752.24 1259.54c9.68,22.05 18.56,53.87 7.41,81.01 -2.43,5.93 -13.82,19.76 -13.91,19.11 0.95,-2.83 2.81,-14.35 4.71,-17.12 12.67,-18.45 9.92,-55.76 0.04,-83.62l1.75 0.62z"/>
   <path class="fil0" d="M1793.65 1268.09c14.59,13.15 35.39,30.3 36.28,53.99 0.21,5.2 -7.07,22.61 -7.35,22.16 -0.26,-2.41 -2.76,-11.54 -2.29,-14.21 3.15,-17.77 -11.46,-44.45 -28.15,-61.8l1.5 -0.14z"/>
   <path class="fil0" d="M1771.81 1392.53c-31.29,-31.74 -55.24,31.33 -92.6,15.46 23.96,55.7 72.32,29.45 92.6,-15.46zm-12.18 4.58c-14.31,-10.87 -47.8,28.03 -70,19.59 31.89,26.96 60.45,3.06 70,-19.59z"/>
   <path class="fil0" d="M1802.57 1114.24c-0.88,2.57 26.97,0.85 24.37,26.57 -2.62,25.7 18.27,33.41 18.27,33.41l-40.89 -9.43 -26.13 -9.84c3.5,-6.9 6.85,-13.89 10.08,-20.95 7.31,-10.53 14.75,-21.09 14.31,-19.76z"/>
   <path class="fil0" d="M1240.41 1188.39c0.64,0.66 2.27,5.38 2.76,4.37 20.87,-43.93 62.2,-12.97 47.74,13.88 -7.84,14.57 -32.16,14.43 -34.17,-1.12 -2.34,-13.84 19.38,-20.15 22.19,-2.44 1.41,-7.96 -3.88,-14.26 -10.7,-15.76 -15.73,-3.41 -24.58,11.94 -19.01,25.3 7.59,18.22 34.39,17.99 44.52,6.24 20.52,-23.8 6.19,-53.3 -23.65,-54.41 -24.77,-0.94 -28.2,25.03 -29.67,23.94z"/>
   <path class="fil0" d="M1313.58 1254.96c-10.76,-5.03 -20.97,5.01 -6.21,7.9 23.34,4.54 39.28,-18.65 28.57,-36.45 -7.22,-11.98 -28.4,-13.14 -32.12,3.77 -2.35,13.84 21.09,17.78 23.92,0.07 1.41,7.95 -3.2,15.28 -13.8,17.11 -15.87,2.71 -25.94,-12.61 -20.39,-25.97 7.6,-18.22 34.41,-17.98 44.51,-6.24 20.51,23.79 7.39,54.74 -24.59,54.11 -50.13,-0.98 -12.14,-33.88 0.11,-14.3z"/>
   <path class="fil0" d="M1210.62 1210.74c48.1,0 87.11,25.24 87.11,56.35 0,2.17 -0.19,4.31 -0.55,6.39 -3.75,0.8 -7.51,1.54 -11.3,2.24 0.38,-1.87 0.57,-3.76 0.57,-5.69 0,-26.29 -36.24,-51.19 -75.43,-51.19 -39.2,0 -75.85,24.5 -75.85,50.79 0,2.09 0.24,4.17 0.67,6.19 -3.94,-0.72 -7.87,-1.5 -11.78,-2.33 -0.37,-2.09 -0.57,-4.24 -0.57,-6.41 0,-31.11 39.02,-56.35 87.13,-56.35z"/>
   <path class="fil1" d="M1134.19 76.24c-1.34,-19.96 -24.31,-53.93 -49.36,-56.63 -9.63,-7.7 -50.65,-0.37 -63.04,11.01 -20.83,16.13 -33.28,54.89 -43.93,87.51 -11.68,35.79 -27.01,79.31 -54.24,115.81 -31.04,23.94 -52.23,-17.46 -65.02,35.46 -2.89,7.04 -1.06,19.93 -5.27,22.39 -4.23,2.46 -14.56,-5.5 -25.69,-4.5 -29.3,-9.74 -34.89,10.87 -39.67,18.6 -3.23,5.21 0.94,15.38 -4.77,18.69 -12.6,7.27 -34.41,5.2 -47.22,4.61 -12.23,-0.59 -41.5,2.27 -54.99,27.42 -7.2,13.41 -8.43,29.55 -4.04,42.97 3.88,11.83 31.34,31.66 45.56,35.51 10.35,4.35 -7.67,5.85 -12.31,4.11 -5.89,-2.2 -13.92,-5.96 -20.65,-8.9 -20.83,-9.09 -44.41,2.58 -67.74,0.82 -63.66,3.24 -151.24,8.69 -230.25,37.63 -78.15,28.62 -159.49,81.18 -209.3,181.57 -6.28,12.67 -20.11,45.88 -22.74,83.36 15.33,-24.88 34.19,-41.67 58.32,-57.39 -23.8,21.12 -49.74,61.7 -63.08,93.46 -10.93,25.99 -15.96,68.57 -0.46,99.08 2.36,41.24 -14.48,60.08 -21.71,100.57 0,0.03 7.78,17.66 5.48,41.4 -2.78,28.65 -18.79,65.07 -16.96,75.24 -35.8,-52.44 -39.85,-52.05 -19.45,-112.49 2.97,-8.76 32.06,-38.88 28.02,-109.42 -1.08,-19.09 -2.18,-38.2 -2.29,-57.84l0 -0.05 0 -5.1 0 -0.05c0.12,-29.95 3.87,-55.16 10.92,-79.61 7.02,-24.39 17.23,-47.76 30.34,-74.19 53.18,-107.17 133.38,-163.72 216.96,-194.34 82.7,-30.3 167.9,-34.85 233.23,-38.2 26.73,-1.35 32.8,-34.55 42.18,-52.01 21.04,-39.19 48.48,-49.8 70.42,-48.78 17.74,0.83 33.83,0.68 43.73,-15.35 5.83,-10.52 11.01,-20.99 29.75,-24.12 14.71,-2.45 30.15,7.17 36.11,-8.76 4.4,-11.73 9.55,-25.48 27.9,-33.94 8.62,-3.96 16.44,-5.89 23.78,-7.7 8.92,-2.18 16.89,-4.13 21.78,-9.7 26.87,-30.65 38.93,-67.57 49.86,-101.05 11.91,-36.49 22.61,-69.26 49.48,-90.06 9.93,-7.68 21.71,-12.9 34.11,-15.48 14.35,-2.95 29.57,-2.32 43.78,2.26 14.37,4.63 27.69,13.24 38.02,26.19 8.19,10.23 14.44,23.17 17.79,38.92l1.79 13.16c1.19,8.55 -0.43,9.94 -7.12,5 -11.23,-8.34 -18.72,-2.63 -27.88,-10.41 -8.54,6.93 -8.31,24.5 -20.11,18.55 -3.82,-1.94 5.64,-8.05 -0.11,-19.06 -11.36,-21.75 -36.54,-18.63 -42.1,-2.27 -8.55,25.13 -11.19,83.56 -17.93,124.68 -4.11,25.08 -7.83,47.8 -11.78,62.93l0 0.06 -0.02 0.07c-16.01,61.04 -60.14,69.79 -92.77,99.33 -18.52,16.75 -10.7,38.46 -15.04,59.37 -3.31,16.02 -28.68,40.15 -67.74,44.52 -2.98,-1.16 31.93,-20.04 45.24,-35.77 9.73,-11.46 11.06,-25.87 10.82,-30.72l0 -0.05c-0.84,-17.86 0.9,-29.47 16.57,-43.64 21.56,-19.51 65.48,-44.33 79.14,-66.72 29.11,-47.69 25.3,-120.01 35.08,-174.41 5.43,-30.24 12.89,-53.84 27.43,-60.19 31.86,-13.93 53.4,25.44 73.18,16.62z"/>
   <path class="fil1" d="M154.5 866.38c14.04,32.02 24.87,88.72 18.19,114.83 -6.58,25.67 -16.65,49.75 -27.65,75.87l0.02 0.01 -0.05 0.11 -0.05 0.06c-4.91,11.7 -6.74,24.94 -7.18,37.84 -0.17,5.05 -1.26,12.63 12.39,14.52 0.09,2.96 -12.61,6.26 -13.2,9.15 -2.08,10.33 -7.52,20.09 -9.76,28.68l-1.48 5.53c-4.11,14.89 12.07,15.5 16.02,15.37l59.28 -4.93c1.1,4.41 32.41,9.2 26.42,-12.09 -2.63,-9.31 -12.22,-20.17 -25.87,-14.96 -1.54,-7.13 34.44,-12.63 35.05,23.15 0.11,6.74 21.02,5.96 21.01,-1.1 -3.85,-25.75 -10.83,-32.59 -26.04,-26.33 -1.21,-2.24 5.51,-8.87 4.61,-10.99 -1.78,-4.23 -11.06,-4.39 -12.26,-9.18 27.3,-23.71 -6.57,-27.65 -3.55,-35.09 15.22,-37.24 28.49,-61.28 54,-86.52 11.72,-11.59 26.48,-25.3 35.96,-41.2 6.93,-11.67 12.13,-26.39 17.01,-58.61 11.93,-37.12 46.52,-147.54 86.52,-160.37 -4.86,5.68 -10.94,15.37 -17.04,26.75 -2.93,5.45 -5.87,11.3 -8.67,17.29 -12.15,25.92 -21.93,54.44 -18.49,64.87 2.54,7.78 6.86,18.7 5.86,25.94 -0.38,2.81 6.34,11.72 4.02,9.92 -17.09,-13.1 -36.54,11.45 -36.35,24.75 -3.83,56.58 -8.07,41.35 -62.4,98.81 -11.98,12.68 -17.72,27.32 -25.73,41.41 -8.21,14.41 -10.95,35.53 -8.65,54.6 0.48,4.05 1.2,7.92 2.09,11.53 0.89,3.52 1.99,6.89 3.3,10 0.72,1.69 1.43,3.18 2.08,4.41l2.22 4.07 0.01 -0.02c6.65,12.2 11.44,21 11.75,29.35 0.59,15.93 -9.23,22.76 -37.42,23.77l-91.21 3.27c-23.03,0.81 -30.43,-3.88 -30.96,-18.56 -0.18,-4.97 1.15,-9.8 2.93,-16.26 0.83,-3.02 1.16,-4.06 1.47,-5.25 1.99,-7.56 8.02,-18.38 7.67,-30.11 -1,-32.8 8.07,-59.82 18.65,-86.98 15.46,-39.69 30.94,-73.62 15.51,-157.31z"/>
   <path class="fil1" d="M407.93 930.91c14.35,34.22 33.15,82.78 13.8,108.41 -7.09,14.39 -19.51,19.02 -14.3,35.89l0.02 -0.01c5.28,10.91 38.39,56.63 23.88,65.69l0.01 0.02c-2.23,1.39 -4.76,2.13 -7.62,2.18 -44.52,0.82 -191.09,33.17 -119.07,-54.83 18.87,-30.24 -9.89,-61.23 -29.55,-82.54l14.06 -15.24c17.79,25.65 45.8,63.49 31.08,96.04 -1.24,2.75 9.27,3.48 7.44,6.46 -0.81,1.28 -13.68,4.78 -14.46,6.23 -26.88,49.31 43.49,33.97 71.98,33.81 -9.87,-9.35 -8.9,-18.7 0.1,-28.05 -4.72,22.85 17.96,32 39.68,28.8 8.37,-20.2 -34.19,-34.59 -40.46,-48.02 0,-0.01 2.94,-21.91 1.04,-22.46 -37.66,-11.06 3.27,-9.62 8.52,-11.87 42.11,-17.96 3.7,-100.44 -12.02,-124.62l2.42 -1.55c7.42,2.47 15.5,6.6 23.47,5.67z"/>
   <path class="fil1" d="M335.28 922.89c37.63,8.63 96.82,11.61 141.69,-6.84 45.32,-18.63 67.83,-34.28 126.81,-76.59 1.41,-1.01 17.64,-16.24 19.1,-17.29l8.26 16.19c-66.59,46.63 -99.91,65.79 -148.28,85.68 -49.91,20.51 -107.7,16.98 -150.87,7.09l3.28 -8.23z"/>
   <path class="fil0" d="M368.28 812.64c8.88,108.04 113.19,62.24 205.96,29.17 -45.65,40.3 -175.74,84.73 -220.44,8.18 0,0 15.43,-38.29 14.48,-37.35z"/>
   <path class="fil1" d="M313.31 532.44c67.22,-34.06 132.19,-55.66 207.2,-83.74 -59.12,8.7 -148.87,37.24 -216.58,79.58 -47.85,29.93 -98.19,85.32 -117.67,138.43 32.48,-31.79 57.7,-99.11 127.05,-134.27z"/>
   <path class="fil1" d="M760.9 595.74c0.17,8.49 21.85,85.78 21.87,94.13 0.17,80.88 -6.75,155.85 -28,231.83 -1.94,6.99 -9.42,33.83 -14.41,59.91 -7.05,36.87 -7.42,65.28 0.11,82.65 18.27,14.33 29.64,24.74 31.05,37.28 1.56,13.86 2.98,20.03 -5.19,23.28 -0.39,-0.67 -0.77,-1.34 -1.17,-2l-137.21 0c1.13,2.58 2.3,5.15 3.45,7.72 -8.35,-0.75 -14.02,-2.61 -15.15,-6.66 -0.04,-0.11 -5.08,-20.21 6.24,-39.33 10.26,-31.37 11.15,-70.46 6.7,-115.75 -3.46,-35.22 -3.97,-80.99 1.47,-109.17 -9.68,-6.3 -23.54,-40.86 -9.22,-104.94 6.86,-30.68 -0.22,-61.07 1.11,-72.9 9.86,23.15 13.52,64.65 8.04,102.36 -2.85,19.63 -2.98,33.07 5.14,52.58 15.38,22.53 40.13,6.14 38,-32.24 14.11,53.32 -21.39,57.73 -32.21,58.7 -5.41,27.9 -1.91,114.62 2.72,150.89 0.82,9.82 2.39,18.61 3.12,27.37 1.21,14.53 15.45,19.8 15.3,22.01 -0.28,3.95 -15.65,2.35 -16.7,6.61 -6.81,6.65 -8.41,13.84 -12.54,21.9 -6.19,10.46 -1.31,20.69 3.05,25.2 7.41,7.68 53.67,3.19 64.23,1.5 43.68,-1 27.7,-32 14.72,-42.02 10.63,2.87 36.53,19.89 19.56,39.5 19.77,4.93 24.96,1.51 27.48,-5.19 -7.01,-37.5 -30.02,-26.98 -36.26,-34.8 -3.97,-5.01 -5.71,-15.85 -5.86,-29.98 -0.13,-14.98 -13.19,-17.78 -9.47,-19.41 10.42,-4.57 11.17,-12.67 11.61,-16.72 2.4,-21.87 6.62,-45.91 11.46,-67.22 2.17,-9.63 4.48,-18.74 6.74,-26.82 2.29,-8.27 4.56,-15.42 6.66,-20.96l0.05 -0.15 0.02 -0.04c13.32,-35.51 22.78,-155.85 17.91,-205.12l-4.43 -93.99zm-13.48 299.11l0.02 0 -0.02 0z"/>
   <path class="fil1" d="M811.52 605.77c41.52,60.54 80.66,129.18 132.33,178.49 25.58,24.41 64.22,60.41 69.41,83.47l0.02 0.1 0.05 0.05c2.46,11.07 2.1,27.59 1.72,44.35 -0.45,19.83 -0.89,38.95 0.34,44.93l2.5 0.23 0.05 0.09c1.81,2.5 3.39,5.09 4.77,7.72 1.35,2.58 2.51,5.19 3.49,7.75 15.77,41.23 -11.8,36.08 -36.22,37.28 -13.72,0.69 -30.64,1.73 -44.24,1.73 -26.85,0 -49.56,1.44 -51.37,-9.35l-0.02 -0.13 -1.17 -2.89c-4.41,-21.7 8.73,-31.46 15.9,-43.26 2.88,-13.49 -1.69,-38.7 -6.56,-44.28l-0.06 -0.05 -0.02 -0.02 0 0c-0.74,-0.85 0.17,-5.69 -1.79,-7.54 -19.74,-18.68 -44.16,-42.26 -65.76,-60.33 -9.78,-8.15 -24.97,-20.74 -34.09,-22.5 -8.99,-1.73 -19.07,-2.61 -31.62,2.25l-8.05 -8.9c17.24,-6.67 31.83,-8.47 45.7,-5.8 13.77,2.67 26.13,9.62 39.17,20.52 18.55,15.5 37.72,39.79 53.93,54.29 3.03,2.7 12.25,7.57 14.78,9.98 2.48,2.31 5.6,0.28 6.92,1.78l0.06 0.04 0.02 0.03 -0.01 0c5.37,6.19 -3.09,21.55 -2.06,34.19 1.21,15.02 -2.32,15.52 6.77,33.17 -11.83,5.74 -23.38,11.97 -20,28.66 4.28,21.24 56.87,10.63 69.05,10.63 18.54,6.88 3.03,-13.44 12.19,-19.42 6.03,26.06 21.91,14.2 26.7,13.82 16.53,-8.16 1.01,-33 -23.95,-36.89 15.74,-13.09 9.12,-25.17 -0.6,-29.9 15.64,-2.37 15.63,-54.27 1.21,-72.44 -25.3,-31.9 -37.7,-47.16 -59.66,-68.13 -7.25,-6.91 -28.96,-35.93 -37.5,-37.71 -14.24,-2.96 -15.17,27.63 -18.56,9.78 -2.76,-14.43 3.52,-22.47 -1.94,-36.7 -13.94,-36.35 -45.58,-77.5 -64.53,-105.27l2.71 -13.85z"/>
   <path class="fil0" d="M855.3 562.96c0,0 -38.34,14.26 -42.38,47.4 -4.06,33.15 -37.82,88.29 -37.82,88.29 -10.32,-44.89 29.57,-59.16 27.33,-89.43 -1.03,-14.18 9.6,-30.53 16.88,-37.16l35.98 -9.1z"/>
   <path class="fil0" d="M764.9 491.07c-3.47,21.41 -19.99,43.11 -12.7,62.81 19.84,53.66 3.99,61.3 8.47,91.14 6.16,41.05 7.45,59.73 -27.49,32.39 -18.92,-14.81 -26.32,-42.88 -70.83,-49.91 -84.04,-13.25 -90.61,-46.66 -90.4,-46.84l14.76 -12.61c0.16,7.28 3.63,-4.63 5.61,0.67 7.44,19.97 25.95,27.59 42.13,36 36.52,19.03 67.41,19.51 112.6,64.15 6.73,-27.12 3.51,-58.77 -4.91,-102.95 -4.89,-25.77 13.18,-44.03 22.74,-74.84z"/>
   <path class="fil0" d="M819.54 1050.69c126.14,-96.97 254.64,-44.97 353.35,76.22 4.01,4.93 1.83,8.12 5.76,13.28 -102.16,-120.32 -240.62,-185.28 -360.09,-76.13 -33.69,30.78 -60.28,23.18 -90.63,32.52 42.82,-33.66 60.53,-22.02 91.62,-45.89z"/>
   <path class="fil0" d="M727.04 1085.34c29.45,-9.64 53.48,44.89 94.49,15.75 -10.78,25.98 -10.01,45.13 0.03,69.64 0.42,1.02 14.37,-105.87 105.37,-130.56 91.44,-24.81 175.79,20.22 246.77,104.42 3.45,4.07 1.56,6.57 4.95,10.85 -75.52,-86.05 -164.52,-132.41 -258.83,-96.13 -61.83,23.79 -82.56,74.89 -92.43,131.78 -2.52,14.5 -32.63,-33.34 -17.27,-73.73 -52.78,10.3 -78.39,-30.47 -83.08,-32.02z"/>
   <path class="fil0" d="M1172.26 1172.1c-28.74,-38.59 -95.73,-88.19 -147.11,-97.44 -44.81,-8.07 -85.26,11 -90.71,68.04 -15.03,-8.19 -23.13,4.79 -39.55,-12.3 -2.77,12.28 -8.87,21.03 -17.06,30.28 -2.89,2.18 -6.08,4.87 -9.71,8.12l-13.54 13.08c-14.54,-25.95 -15.47,-53.8 13.94,-90.43 -15.84,31.78 -20.48,56.84 -8.32,66.28 15.03,-3.2 25.68,-20.94 33.31,-42.36 9.48,16.39 22.44,10.25 34.7,15.03 8.46,-55.53 52.81,-71.44 97.81,-63.31 48.23,8.72 125.68,60.67 144.86,100.91 0,0 -0.7,4.78 1.39,4.11z"/>
   <path class="fil1" d="M1146.95 1171.02c-1.15,0.67 -54.39,-17.02 -97.98,-17.07 -33.78,-0.04 -30.89,28.1 -66.76,35.32 -11.52,2.32 -26.21,3.01 -36.98,-2.33 -17.34,-8.61 -21.36,-28.51 0.51,-35.71 14.68,-4.83 24.41,5.1 24.65,20.63 14.37,-1.88 11.59,-39.88 -24.33,-33.71 -20.28,5.56 -26.22,24.11 -20.2,39.25 7.54,6.99 15.35,13.7 23.41,20.12 10.18,2.67 22.54,1.72 32.68,-0.37 32.15,-6.65 33.94,-29.8 67.41,-32.4 29.87,-2.33 63.94,4.41 82.5,8.8 6.44,1.52 -6.98,6.9 7.49,-0.39l7.59 -2.13z"/>
   <path class="fil0" d="M1157.06 1164.24c-31.86,-25.17 -66.31,-49.87 -110.76,-51.01 -22.05,-0.56 -54.06,2.19 -67.58,41.43 -1.41,4.06 -3.67,9.35 -7.14,14.41 -2.62,3.85 -6.88,6.99 -9.68,6.18 12.08,6.5 16.43,-1.5 19.15,-8.25 14.11,-34.87 33,-46.25 65.72,-45.83 44.17,0.55 80.02,22.96 109.83,50.24l0.46 -7.17z"/>
   <path class="fil0" d="M1022.7 1170.09c-16.22,16.56 -16.34,38.86 -8.36,51.22 13.89,21.5 50,19.88 51.28,-4.82 3.63,-21.37 -30.52,-33.98 -34.86,-6.64 -2.18,-12.29 5.98,-22.03 16.52,-24.32 24.29,-5.28 37.93,18.39 29.34,39.02 -11.73,28.14 -47.62,25.77 -62.85,11.56 -16.96,-15.8 -18.63,-45.42 8.94,-66.01z"/>
   <path class="fil0" d="M1176.62 1215.93c3.45,0.67 7.34,-2.7 7.47,-4.07 3.57,-36.28 -14.82,-130.5 -50.31,-145.82 19.2,-12.46 30.56,-2.56 40.96,9.31 12.56,14.34 19.23,73.12 21.74,75.08 0,-4.25 -9.64,-50.78 -6.76,-84.66 1.14,-13.61 10.99,-29.2 21.61,-37.41l0 -8.15c-18.88,11.83 -30.41,25.33 -30.41,44.67 -18.63,-12.83 -32.96,-19.05 -62.57,-2.15 37.45,20.43 70.49,117.23 58.29,153.21z"/>
   <path class="fil0" d="M222.21 1316.83c158.11,105.56 319.16,48.94 442.88,-83 5.04,-5.36 2.29,-8.83 7.23,-14.46 -128.06,131 -299.52,199.67 -449.26,80.85 -42.24,-33.52 -72.96,-16.57 -98.06,10.03 40.19,-11.85 58.26,-19.43 97.21,6.57z"/>
   <path class="fil0" d="M126.48 1309.48c8.44,-34.31 19.87,-70.58 84.22,-50.68 -13.5,-25.94 -11.41,-28.37 -16.2,-56.02 -0.11,-0.6 18.02,25.8 54.8,56.84 26.85,22.65 63.3,49.94 111.37,60.4 96.48,21 203.36,-16.09 289.78,-90.87 7.89,-6.83 15.39,-13.84 22.75,-20.93 -0.76,-1.2 -1.54,-2.41 -2.28,-3.61 -7.72,7.36 -15.68,14.61 -24.24,21.56 -89.19,72.54 -193,112.82 -300.7,79.77 -32.69,-10.04 -63.54,-31.41 -87.76,-54.51 -33.21,-31.67 -57.09,-65.13 -84.71,-63.95 12.68,30.1 5.89,31.92 17.09,55.81 -66.15,-10.31 -70.65,48.27 -64.11,66.18z"/>
   <path class="fil0" d="M201.82 1204.21c7.13,-11.08 30.36,9.79 42.74,13.95 -12.42,-25.95 7.53,-31.74 23.26,-35.41 1.35,-0.3 13.77,74.67 118.54,99.46 90.57,21.45 191.12,-21.35 271.44,-99.67 -0.73,-1.26 -1.44,-2.55 -2.15,-3.83 -83.48,76.35 -181.89,121.37 -283.46,87.46 -71.23,-23.77 -92.77,-71.3 -102.31,-98.82 -14.56,1.42 -42.91,16.15 -32.62,40.07 -23.46,-19.78 -49.77,-21.17 -57.96,-18.3l22.52 15.09z"/>
   <path class="fil0" d="M642.35 1153.62c-29.59,13.18 -74.33,22.18 -106.02,16.39 -42.54,-7.76 -69.91,-39.36 -61.97,-71.16 -11.01,0.13 -39.27,5.02 -35.19,43.56 2.38,-15.44 11.79,-33.75 25.98,-33.49 -7.37,27.72 22.61,59.23 73.46,67.53 31.93,5.21 75.83,-3.13 105.34,-18.18 0.23,-0.1 0.44,-0.2 0.63,-0.29 -0.74,-1.45 -1.5,-2.9 -2.23,-4.37z"/>
   <path class="fil0" d="M620.96 1210.39c-15.43,9.43 -38.67,22.55 -56.95,28.71 -46.09,15.5 -106.38,4.67 -130.95,0.06 -9.78,-1.84 -22.15,7.91 -26.72,17.01 -9.5,-1.75 -24.49,-27.93 0.74,-52.32 7.62,2.01 11.17,2.12 11.7,3.53 -5.45,2.03 -9.84,3.8 -13.44,7.71 -8.53,9.28 -8.17,21.98 1.85,24.78 16.38,-18.61 37.53,-9.99 58.3,-4.17 26.96,7.59 66.51,8.26 97.94,-0.87 19.57,-5.68 40.49,-18.72 58.11,-27.69 3.15,2.02 0.46,2.6 -0.57,3.24z"/>
   <path class="fil0" d="M407.61 1205.72c-24.02,-5.89 -31.63,-36.54 -44.69,-44.36 29.79,-28.87 91.21,39.05 148.7,41.36 40.53,1.65 89.35,-9.57 137.31,-36.3 0.93,1.76 1.87,3.51 2.81,5.24 -77.84,45.17 -171.14,51.59 -243.72,2.92 -8.85,-5.93 -17.76,-11.03 -27.71,-10.31 15.27,16.59 10.76,25.65 39.52,42.83l-12.23 -1.37z"/>
   <path class="fil0" d="M462.09 1162.86c-16.49,-11.52 -20.48,-17.81 -57.65,0.99l-10.6 -7.14c34.83,-17.16 45.65,-20.17 68.25,6.15z"/>
   <path class="fil0" d="M443.39 1134.63c-31.78,-23.46 -127.97,20.29 -194.37,-9.67 29.31,73.6 75.3,65.04 194.37,9.67zm-31.98 7.35c-22.02,-11.87 -97.33,13.28 -143.32,-1.89 20.3,37.28 60.83,29.94 143.32,1.89z"/>
   <path class="fil0" d="M700.55 1248.08c4.95,90.88 24.48,154.25 85.58,247.5 10.5,16.04 8.87,25.19 11.43,52.3 29.92,2.36 61.72,-11.38 58.02,-41.63 20.22,10.3 48.85,27.17 72.47,12.48 -1.13,-30.08 -17.4,-47.97 -39.08,-66.5 6.35,-1.22 11.52,-8.37 16.66,-23.08 -8.81,-2.56 -30.31,-4.65 -51.95,-14.59 -32.09,-14.75 -68.52,-41.83 -87.08,-90.99 -3.12,-3.05 -6.23,-6.14 -9.29,-9.25 5.17,53.79 52.65,94.99 88.96,111 19.49,8.59 42.62,8.01 47.74,10.35 -3.94,9.79 -12.11,13.11 -21.56,12.78 20.26,18.84 40.81,36.57 41.09,63.9 -24.77,4.86 -51.36,-11.07 -74.8,-31.28 21.97,51.02 -11.41,52.72 -29.64,57.85 0.48,-19.45 -4.67,-42.19 -13.06,-54.49 -59.22,-86.86 -80.35,-154.33 -85.68,-223.48 -3.32,-4.24 -6.6,-8.53 -9.83,-12.86z"/>
   <path class="fil0" d="M861.89 1475.48c-64.3,-33.78 -119.22,-87.54 -134.14,-193.38 3.79,4.43 7.63,8.81 11.54,13.13 7.38,88.63 63.35,138.47 122.6,180.24z"/>
   <path class="fil0" d="M621.23 1326.61c4.22,21.17 -6.11,39.03 -17.77,44.95 -20.3,10.34 -46.12,-8.67 -35.53,-28.99 7.32,-18.82 38.39,-12.14 28.8,11.8 7.35,-8.74 5.89,-20.5 -0.81,-27.5 -15.41,-16.12 -36.56,-3.93 -39.86,16.74 -4.51,28.18 23.05,43.9 40.9,40.04 19.89,-4.29 34.98,-27.09 24.27,-57.03z"/>
   <path class="fil0" d="M675.87 1212.45c-14.94,15.99 -38.28,44.78 -50.66,79.68 -5.56,15.7 -6.58,32.69 -5.49,50.65 1.2,19.74 5.62,36.94 9.34,56.04 2.65,13.49 2.54,28.49 -11.68,36.13 15.9,-2.9 19.31,-13.3 19.53,-24.12 0.37,-19.92 -2.39,-40.61 -3.31,-60.54 -0.82,-18.04 -0.97,-35.11 1.66,-47.85 8.16,-39.6 23.3,-63.59 41.99,-87.86 -0.46,-0.71 -0.93,-1.41 -1.38,-2.13z"/>
   <path class="fil0" d="M692.36 1236.8c-5.26,10.04 -10.59,22.91 -11.7,35.38 -1.61,18.29 7.22,57.2 17.02,71.3 4.14,5.95 0.55,-10.82 0.62,-11.44 -0.95,-2.85 -1.82,-5.65 -2.65,-8.41 -10.31,-34.58 -10.2,-62.44 -2.09,-85.13l-1.2 -1.69z"/>
   <path class="fil0" d="M711.61 1344.28c-12.04,9.89 -19.66,14.12 -32.15,11.37 8.07,3.88 16.35,11.54 20.2,28.39 -7.76,1.83 -28.62,9.86 -37.7,2.13 1.23,16.99 -4.97,34.83 -14.63,46.18 -9.65,11.34 -22,18.06 -31.56,16.45 1.43,-0.63 2.19,-6.02 3.81,-6.13 19.12,-1.39 24.93,-9.26 29.41,-24.26 4.17,-13.96 0.65,-34.81 -4.64,-59.57 15.74,23.66 31.93,21.02 41.19,15.93 -5.44,-18.42 -14.8,-16.91 -23.69,-36.19 12.3,1.52 24.16,14.37 36.9,4.56 -4.42,-7.81 -9.71,-24.76 -6.61,-32.57 6.51,22.34 13.42,29.95 19.47,33.7z"/>
   <path class="fil0" d="M670.39 1259.54c-9.69,22.05 -18.58,53.87 -7.43,81.01 2.43,5.93 13.84,19.76 13.92,19.11 -0.96,-2.83 -2.81,-14.35 -4.71,-17.12 -12.67,-18.45 -9.91,-55.76 -0.04,-83.62l-1.74 0.62z"/>
   <path class="fil0" d="M628.98 1268.09c-14.59,13.15 -35.39,30.3 -36.3,53.99 -0.2,5.2 7.08,22.61 7.36,22.16 0.26,-2.41 2.76,-11.54 2.29,-14.21 -3.15,-17.77 11.46,-44.45 28.14,-61.8l-1.49 -0.14z"/>
   <path class="fil0" d="M650.81 1392.53c31.29,-31.74 55.24,31.33 92.61,15.46 -23.96,55.7 -72.33,29.45 -92.61,-15.46zm12.16 4.58c14.31,-10.87 47.81,28.03 70.02,19.59 -31.89,26.96 -60.45,3.06 -70.02,-19.59z"/>
   <path class="fil0" d="M620.06 1114.24c0.86,2.57 -26.97,0.85 -24.37,26.57 2.61,25.7 -18.27,33.41 -18.27,33.41l40.88 -9.43 24.96 -9.39c-4.49,-8.89 -8.74,-17.91 -12.83,-27.03 -5.82,-8.32 -10.75,-15.23 -10.38,-14.14z"/>
   <path class="fil0" d="M1182.22 1188.39c-0.67,0.66 -2.28,5.38 -2.76,4.37 -20.88,-43.93 -62.2,-12.97 -47.76,13.88 7.85,14.57 32.16,14.43 34.18,-1.12 2.35,-13.84 -19.38,-20.15 -22.19,-2.44 -1.41,-7.96 3.88,-14.26 10.7,-15.76 15.74,-3.41 24.57,11.94 19.01,25.3 -7.6,18.22 -34.39,17.99 -44.52,6.24 -20.52,-23.8 -6.2,-53.3 23.66,-54.41 24.76,-0.94 28.2,25.03 29.68,23.94z"/>
   <path class="fil0" d="M1109.03 1254.96c10.76,-5.03 20.96,5.01 6.22,7.9 -23.35,4.54 -39.29,-18.65 -28.56,-36.45 7.2,-11.98 28.39,-13.14 32.11,3.77 2.36,13.84 -21.1,17.78 -23.91,0.07 -1.41,7.95 3.19,15.28 13.79,17.11 15.87,2.71 25.95,-12.61 20.39,-25.97 -7.59,-18.22 -34.41,-17.98 -44.52,-6.24 -20.5,23.79 -7.37,54.74 24.61,54.11 50.13,-0.98 12.13,-33.88 -0.12,-14.3z"/>
   <path class="fil1" d="M1210.61 1295.05l-0.05 0 0 -0.03c-57.73,0 -112.79,-11.49 -162.98,-32.27 -8.37,-3.47 -16.43,-7.11 -24.11,-10.87l0 -0.02c-40.62,-19.89 -77.59,-46.06 -109.63,-77.22 -9.43,-9.17 -15.11,-14.44 -19.8,-14.82l-0.02 0c-4.69,-0.37 -10.79,3.86 -21.65,13.59l-23.22 22.41 -0.08 0.08 -1.26 1.16c-1.34,1.23 -2.64,2.44 -3.61,3.39 -6.48,6.36 -8.77,12.43 9.65,30.59l0.02 0 0.03 0.03 0 0.02c12.8,12.63 26.3,24.6 40.43,35.84 14.12,11.24 28.85,21.74 44.14,31.45 78.63,49.91 172.01,78.86 272.13,78.86l0 -0.04 0.06 0 0 0.04c69.52,-0.01 135.8,-13.98 196.15,-39.22 9.92,-4.15 19.6,-8.56 29,-13.2 48.82,-24.16 93.19,-55.94 131.54,-93.75 18.43,-18.19 16.14,-24.26 9.66,-30.62l-0.02 0c-1.38,-1.36 -2.46,-2.35 -3.59,-3.39l-1.24 -1.16 -0.11 -0.08 -23.2 -22.41c-10.85,-9.73 -16.95,-13.96 -21.65,-13.59l-0.02 0c-4.68,0.38 -10.35,5.65 -19.76,14.78l0.02 0.02 -0.03 0.03 -0.05 0.04c-10.75,10.43 -22.02,20.3 -33.75,29.54 -11.69,9.19 -23.97,17.84 -36.79,25.89 -65.52,41.13 -143.09,64.94 -226.2,64.94zm-0.05 -12.48l0 -0.02 0.05 0c80.67,0 155.9,-23.07 219.41,-62.93 12.26,-7.71 24.19,-16.11 35.7,-25.16 11.43,-8.99 22.36,-18.56 32.71,-28.64l-0.01 -0.01 0.04 -0.04 0.05 -0.02c11.51,-11.19 18.64,-17.65 27.65,-18.38l0 0c9,-0.73 17.52,4.54 31.22,16.8l0.17 0.17 23.29 22.48 0 -0.01 1.25 1.16c1.47,1.36 2.93,2.7 3.88,3.64l-0.02 0.01c11.88,11.69 16.88,22.07 -9.63,48.2 -39.29,38.76 -84.77,71.32 -134.85,96.09 -9.83,4.86 -19.74,9.38 -29.7,13.55 -61.83,25.88 -129.8,40.19 -201.09,40.2l0 0.02 -0.06 0 0 -0.02c-102.67,0 -198.37,-29.66 -278.96,-80.81 -15.66,-9.95 -30.77,-20.72 -45.24,-32.23 -14.45,-11.5 -28.3,-23.78 -41.46,-36.75l-0.01 0 -0.04 -0.02 0 -0.02c-26.52,-26.14 -21.51,-36.52 -9.61,-48.21 1.37,-1.35 2.6,-2.48 3.85,-3.64l1.26 -1.16 0 0.01 23.28 -22.48 0.17 -0.17c13.7,-12.26 22.21,-17.53 31.2,-16.8l0 0c9.02,0.73 16.15,7.19 27.65,18.38 31.09,30.24 66.96,55.63 106.38,74.94l0.03 0c7.86,3.85 15.67,7.38 23.37,10.58 48.67,20.16 102.07,31.29 158.07,31.29z"/>
   <path class="fil1" d="M1210.61 1510.33l-0.06 0 0 -0.03c-65.93,-0.01 -129.52,-9.91 -189.32,-28.32 -29.17,-8.96 -57.51,-20 -84.83,-32.89 -140.24,-66.23 -252.49,-181.65 -314.26,-323.84l-3.78 -8.68 9.59 0 137.21 0 3.75 0 1.79 3.24 0.01 -0.01c12.19,21.4 25.85,41.8 40.87,61.04 15.06,19.26 31.48,37.43 49.16,54.32 90.78,86.84 214.08,140.25 349.88,140.25l0 -0.02 0.05 0 0 0.02c62.84,-0.01 123.04,-11.46 178.6,-32.39 18.17,-6.83 35.77,-14.65 52.67,-23.35 87.53,-44.97 160.17,-114.72 208.61,-199.91l1.81 -3.19 3.7 0 137.22 0 9.6 0 -3.78 8.68 -0.02 0.06c-13.8,31.74 -30.09,62.13 -48.61,90.89 -18.5,28.72 -39.31,55.94 -62.18,81.37 -117.33,130.55 -287.86,212.73 -477.67,212.74l0 0.03zm-0.06 -12.47l0 -0.02 0.06 0 0 0.02c186.05,0 353.18,-80.57 468.21,-208.55 22.32,-24.83 42.72,-51.52 60.94,-79.81 16.51,-25.63 31.18,-52.51 43.83,-80.44l-123.85 0c-49.6,85.8 -123.32,156.09 -211.96,201.63 -17.54,9.02 -35.59,17.04 -54.01,23.99 -56.9,21.43 -118.61,33.16 -183.11,33.17l0 0.03 -0.05 0 0 -0.03c-139.26,-0.01 -265.67,-54.74 -358.71,-143.76 -18.09,-17.29 -34.91,-35.89 -50.33,-55.63 -14.71,-18.83 -28.13,-38.7 -40.1,-59.39l-123.82 0c61.31,135.42 169.62,245.26 304.22,308.8 26.67,12.59 54.45,23.39 83.14,32.22 58.67,18.04 121,27.78 185.56,27.78z"/>
   <path class="fil0" d="M1801.17 1114.24c-0.88,2.57 26.96,0.85 24.37,26.57 -2.62,25.7 18.27,33.41 18.27,33.41l-40.89 -9.43 -29.59 -11.15c0,0 28.72,-41.98 27.85,-39.41z"/>
   <path class="fil1" d="M691.53 1174.6l40.31 -24.79 18.67 29.43 -6.82 4.2 -13.59 -21.42 -8.94 5.51 12.64 19.92 -6.78 4.19 -12.65 -19.94 -10.97 6.76 14.07 22.17 -6.79 4.18 -19.16 -30.2zm36.39 28.17l6.23 6.9c-2.21,2.27 -3.39,4.51 -3.57,6.73 -0.18,2.22 0.57,4.48 2.3,6.81 1.8,2.46 3.7,3.94 5.69,4.41 1.99,0.51 3.68,0.25 5.09,-0.77 0.92,-0.64 1.5,-1.46 1.74,-2.44 0.26,-0.99 0.13,-2.3 -0.36,-3.94 -0.34,-1.13 -1.3,-3.58 -2.84,-7.34 -1.99,-4.82 -2.83,-8.61 -2.56,-11.34 0.4,-3.84 2.13,-6.85 5.17,-9.02 1.96,-1.4 4.19,-2.16 6.71,-2.3 2.5,-0.12 4.96,0.53 7.39,1.94 2.4,1.42 4.68,3.58 6.82,6.49 3.52,4.76 5.09,9.09 4.76,13.01 -0.35,3.91 -2.25,7.2 -5.69,9.85l-5.98 -7.4c1.74,-1.74 2.64,-3.46 2.7,-5.16 0.09,-1.7 -0.67,-3.61 -2.27,-5.77 -1.64,-2.22 -3.38,-3.64 -5.24,-4.23 -1.19,-0.39 -2.28,-0.21 -3.28,0.49 -0.91,0.66 -1.41,1.59 -1.5,2.82 -0.11,1.55 0.76,4.5 2.63,8.87 1.84,4.36 2.94,7.77 3.32,10.22 0.34,2.47 0.08,4.79 -0.83,6.99 -0.92,2.18 -2.59,4.14 -5,5.89 -2.2,1.57 -4.72,2.45 -7.52,2.62 -2.82,0.15 -5.52,-0.51 -8.07,-2.06 -2.56,-1.53 -5.06,-3.94 -7.5,-7.22 -3.52,-4.79 -5.12,-9.27 -4.76,-13.44 0.35,-4.17 2.5,-8.07 6.43,-11.62zm23.76 55.35l30.25 -24.99 -9.07 -10.62 6.18 -5.1 24.28 28.49 -6.17 5.09 -9.05 -10.62 -30.25 25.01 -6.18 -7.26zm55.5 -8.13l12.19 12.43c2.76,2.79 4.62,5.13 5.63,7.02 1.35,2.53 1.96,5.23 1.82,8.08 -0.12,2.83 -0.92,5.67 -2.38,8.48 -1.47,2.8 -3.8,5.73 -7.02,8.78 -2.8,2.68 -5.57,4.65 -8.28,5.89 -3.3,1.52 -6.5,2.24 -9.57,2.12 -2.33,-0.06 -4.8,-0.79 -7.42,-2.17 -1.94,-1.03 -4.16,-2.81 -6.63,-5.33l-12.53 -12.78 34.19 -32.52zm0.88 12.3l-22.63 21.53 4.96 5.08c1.86,1.9 3.31,3.17 4.36,3.81 1.36,0.82 2.74,1.29 4.12,1.39 1.38,0.09 3.06,-0.37 5.04,-1.37 1.97,-1 4.3,-2.75 6.94,-5.27 2.65,-2.51 4.44,-4.67 5.41,-6.46 0.95,-1.82 1.44,-3.51 1.42,-5.08 -0.02,-1.59 -0.52,-3.16 -1.48,-4.69 -0.72,-1.15 -2.44,-3.11 -5.15,-5.89l-3 -3.06zm1.16 55.26l6.09 -6.67 6.77 6.01 -6.1 6.67 -6.76 -6.01zm59.15 -11.58l14.96 11.53c2.97,2.27 5.1,4.09 6.36,5.46 1.26,1.37 2.16,2.87 2.7,4.54 0.53,1.66 0.67,3.4 0.42,5.28 -0.24,1.86 -1,3.6 -2.27,5.19 -1.37,1.74 -3.1,2.96 -5.19,3.67 -2.09,0.71 -4.24,0.81 -6.42,0.3 1.75,2.4 2.63,4.88 2.59,7.37 -0.02,2.55 -0.87,4.86 -2.57,6.99 -1.32,1.67 -3.01,3.01 -5.06,3.99 -2.05,0.96 -4.14,1.41 -6.26,1.3 -2.12,-0.11 -4.28,-0.82 -6.48,-2.16 -1.35,-0.84 -4.45,-3.08 -9.3,-6.76l-12.76 -9.8 29.27 -36.9zm2.69 11.96l-6.76 8.53 4.96 3.8c2.95,2.28 4.81,3.64 5.59,4.11 1.41,0.85 2.78,1.19 4.09,1.02 1.31,-0.16 2.44,-0.84 3.4,-2.03 0.91,-1.14 1.32,-2.32 1.25,-3.52 -0.08,-1.21 -0.69,-2.36 -1.82,-3.48 -0.68,-0.66 -2.8,-2.36 -6.36,-5.1l-4.35 -3.34zm-11.63 14.67l-7.82 9.86 6.99 5.39c2.73,2.09 4.51,3.35 5.37,3.76 1.29,0.67 2.58,0.87 3.92,0.63 1.33,-0.22 2.51,-0.99 3.55,-2.3 0.88,-1.11 1.35,-2.26 1.41,-3.45 0.06,-1.19 -0.28,-2.36 -1.02,-3.51 -0.76,-1.13 -2.86,-3.04 -6.29,-5.68l-6.11 -4.7zm31.02 46.01l10.91 -16.52 0.39 -32.07 9.43 6.04 -0.85 21.54 19.43 -9.66 9.26 5.93 -29.67 13.41 -10.87 16.47 -8.03 -5.14zm72.28 20.24l3.51 -7.1 18.59 8.94 -8.31 16.76c-2.65,0.84 -6.02,1.1 -10.11,0.77 -4.07,-0.35 -7.87,-1.35 -11.4,-3.04 -4.45,-2.15 -7.9,-4.94 -10.31,-8.37 -2.4,-3.45 -3.59,-7.29 -3.56,-11.53 0.04,-4.23 1.05,-8.38 3.05,-12.41 2.16,-4.37 5.03,-7.83 8.58,-10.34 3.55,-2.51 7.56,-3.81 12.08,-3.9 3.42,-0.08 7.17,0.87 11.25,2.81 5.31,2.56 8.91,5.64 10.8,9.26 1.91,3.61 2.33,7.57 1.27,11.85l-9.34 -2.53c0.42,-2.37 0.09,-4.55 -0.99,-6.54 -1.07,-1.99 -2.83,-3.57 -5.32,-4.78 -3.77,-1.81 -7.35,-2.06 -10.73,-0.8 -3.41,1.3 -6.24,4.25 -8.53,8.89 -2.47,4.99 -3.2,9.27 -2.19,12.86 1.02,3.57 3.35,6.23 7,7.99 1.81,0.87 3.81,1.38 5.97,1.56 2.15,0.17 4.13,0.07 5.92,-0.29l2.65 -5.35 -9.88 -4.72zm28.24 6.16c1.73,-4.46 3.86,-7.94 6.4,-10.45 1.86,-1.83 4.02,-3.31 6.46,-4.42 2.43,-1.11 4.86,-1.7 7.27,-1.76 3.22,-0.11 6.63,0.52 10.24,1.89 6.54,2.46 11,6.43 13.36,11.92 2.36,5.47 2.16,11.77 -0.61,18.88 -2.76,7.05 -6.85,11.83 -12.3,14.35 -5.45,2.5 -11.44,2.52 -17.95,0.06 -6.61,-2.49 -11.07,-6.46 -13.43,-11.89 -2.36,-5.43 -2.17,-11.64 0.55,-18.58zm9.34 3.19c-1.93,4.95 -2.23,9.15 -0.91,12.57 1.34,3.43 3.78,5.81 7.35,7.17 3.57,1.35 6.99,1.19 10.27,-0.48 3.28,-1.67 5.91,-5.02 7.88,-10.09 1.96,-5 2.28,-9.17 1.04,-12.48 -1.28,-3.32 -3.76,-5.66 -7.44,-7.05 -3.7,-1.4 -7.16,-1.27 -10.41,0.36 -3.21,1.65 -5.81,4.96 -7.77,10zm46.76 39.91l-2.35 -49.66 9.96 2.99 1.21 36.6 21.41 -29.78 9.75 2.93 -30.18 39.85 -9.8 -2.94zm33.51 9.67l8.25 -46.09 34.71 6.02 -1.41 7.8 -25.24 -4.38 -1.82 10.21 23.48 4.09 -1.39 7.76 -23.49 -4.07 -2.26 12.52 26.16 4.54 -1.39 7.78 -35.61 -6.19zm46.37 7.53l4.96 -46.54 20.1 2.08c5.06,0.52 8.67,1.32 10.88,2.39 2.2,1.07 3.88,2.74 5.03,5.03 1.15,2.29 1.56,4.79 1.26,7.54 -0.37,3.51 -1.72,6.29 -4.04,8.34 -2.31,2.06 -5.6,3.17 -9.81,3.33 1.94,1.41 3.5,2.89 4.7,4.44 1.18,1.56 2.72,4.28 4.62,8.13l4.81 9.69 -11.42 -1.19 -5.8 -10.85c-2.08,-3.88 -3.52,-6.33 -4.31,-7.36 -0.8,-1.04 -1.69,-1.77 -2.65,-2.24 -0.98,-0.45 -2.56,-0.79 -4.75,-1.02l-1.94 -0.2 -2.06 19.43 -9.56 -0.99zm12.42 -25.88l7.05 0.74c4.58,0.47 7.47,0.57 8.65,0.31 1.18,-0.26 2.15,-0.83 2.89,-1.69 0.75,-0.86 1.19,-1.99 1.34,-3.39 0.18,-1.57 -0.11,-2.87 -0.87,-3.93 -0.74,-1.06 -1.87,-1.78 -3.39,-2.2 -0.76,-0.18 -3.08,-0.48 -6.96,-0.88l-7.44 -0.76 -1.26 11.8zm38.29 30.78l1.65 -46.78 9.34 0.34 18.33 31.9 1.11 -31.24 8.92 0.3 -1.66 46.78 -9.63 -0.34 -18.06 -31.16 -1.08 30.51 -8.92 -0.31zm50.4 0.83l-3.32 -46.71 14.32 -0.98 10.87 31.25 6.23 -32.43 14.36 -0.99 3.32 46.7 -8.9 0.6 -2.59 -36.75 -6.81 37.4 -9.22 0.64 -12 -36.11 2.61 36.76 -8.89 0.63zm58.04 -4.44l-8.25 -46.09 34.69 -6.02 1.4 7.79 -25.24 4.41 1.84 10.2 23.49 -4.07 1.39 7.76 -23.5 4.07 2.24 12.56 26.15 -4.55 1.4 7.76 -35.61 6.19zm46.29 -6.97l-12.3 -45.22 9.03 -2.38 27 25.24 -8.21 -30.19 8.61 -2.28 12.3 45.22 -9.31 2.46 -26.54 -24.61 8.03 29.49 -8.62 2.27zm59.22 -16.14l-12.85 -36.77 -13.33 4.52 -2.62 -7.48 35.71 -12.12 2.63 7.51 -13.31 4.5 12.85 36.76 -9.08 3.08zm36.38 -37.45c-2.04,-4.33 -3.11,-8.25 -3.19,-11.79 -0.04,-2.6 0.39,-5.14 1.26,-7.65 0.89,-2.48 2.15,-4.61 3.76,-6.37 2.15,-2.37 4.98,-4.33 8.5,-5.94 6.34,-2.91 12.33,-3.31 17.99,-1.18 5.64,2.12 10.1,6.64 13.38,13.54 3.24,6.86 3.88,13.07 1.93,18.69 -1.95,5.59 -6.09,9.85 -12.41,12.74 -6.41,2.95 -12.41,3.36 -18.02,1.26 -5.6,-2.11 -10,-6.55 -13.2,-13.3zm8.82 -4.4c2.28,4.81 5.15,7.93 8.56,9.37 3.43,1.44 6.87,1.37 10.35,-0.22 3.46,-1.59 5.73,-4.13 6.79,-7.62 1.05,-3.48 0.42,-7.67 -1.92,-12.59 -2.3,-4.86 -5.1,-8 -8.4,-9.39 -3.3,-1.41 -6.74,-1.27 -10.33,0.37 -3.58,1.64 -5.89,4.19 -6.95,7.62 -1.03,3.42 -0.41,7.58 1.9,12.46zm51.72 1.91l-23.76 -40.52 28.23 -16.05 4.02 6.86 -19.91 11.31 5.62 9.58 17.19 -9.76 4.03 6.85 -17.19 9.78 10.1 17.22 -8.33 4.72zm52.88 -31.78l-27.28 -38.33 7.87 -5.41 12.1 17.02 3.77 -27.98 10.57 -7.28 -4.03 25.03 32.1 12.76 -10.17 7 -23.5 -10.61 -1.82 10.81 8.24 11.59 -7.85 5.41zm40.96 -29.02l-30.56 -35.83 26.99 -22.31 5.18 6.06 -19.64 16.23 6.76 7.95 18.29 -15.1 5.15 6.03 -18.28 15.1 8.31 9.76 20.34 -16.81 5.15 6.05 -27.69 22.87zm36.01 -29.79l-34.2 -32.52 14.04 -14.33c3.52,-3.59 6.39,-5.91 8.59,-6.96 2.22,-1.06 4.6,-1.31 7.13,-0.81 2.54,0.52 4.81,1.73 6.83,3.67 2.57,2.43 3.96,5.21 4.18,8.28 0.21,3.06 -0.92,6.29 -3.39,9.65 2.32,-0.65 4.47,-0.95 6.44,-0.91 1.99,0.02 5.09,0.5 9.35,1.42l10.71 2.22 -7.98 8.14 -12.27 -2.17c-4.36,-0.78 -7.2,-1.18 -8.53,-1.2 -1.32,-0.01 -2.46,0.22 -3.44,0.7 -0.97,0.49 -2.2,1.49 -3.74,3.06l-1.35 1.38 14.28 13.57 -6.66 6.81zm-13.07 -25.58l4.93 -5.02c3.2,-3.26 5.06,-5.43 5.59,-6.51 0.5,-1.07 0.65,-2.17 0.41,-3.29 -0.24,-1.1 -0.86,-2.14 -1.88,-3.13 -1.15,-1.09 -2.38,-1.66 -3.68,-1.74 -1.3,-0.07 -2.59,0.38 -3.85,1.29 -0.61,0.48 -2.28,2.09 -4.98,4.85l-5.19 5.31 8.67 8.23zm75.69 -42.27l-6.72 7.88 -10.94 -3.7 -12.2 14.32 5.74 9.8 -6.54 7.67 -24.51 -44.05 6.53 -7.65 48.64 15.72zm-25.76 1.43l-17.73 -6.22 9.39 16 8.33 -9.78zm30.78 -8.08l-38.14 -27.29 5.63 -7.64 31.67 22.65 14.03 -19.01 6.48 4.65 -19.67 26.65zm47.59 -69.78l-5.53 8.73 -11.37 -2.18 -10.06 15.88 7.08 8.9 -5.4 8.51 -30.49 -40.27 5.37 -8.48 50.4 8.91zm-25.3 4.95l-18.45 -3.72 11.57 14.55 6.88 -10.83z"/>
   <path class="fil1" d="M959.76 1226.97l32.05 19.3c6.96,4.19 8.54,12.23 4.74,24.1l-1.22 3.2c-5.02,8.37 -12.58,12 -22.67,10.92l4.34 20.64 -0.58 0.97 -14.62 -8.81 -6.94 -36.45 0.27 -0.44 17.83 10.74c4.13,2.48 8.28,1.29 12.45,-3.55 2.54,-4.25 1.87,-8.1 -2.06,-11.57l-20.74 -12.48 -23.32 38.9 -1.53 0.39 -8.44 -5.1 -0.38 -1.52 29.29 -48.85 1.53 -0.39zm82.13 108.07l-32.99 -12.7c-3.29,-1.26 -5.56,-3.35 -6.8,-6.26 -1.24,-2.91 -1.25,-5.96 -0.04,-9.12l17.11 -44.65 11.09 4.27 -17.1 44.65 32.99 12.69 17.12 -44.65 11 4.23 -17.12 44.65c-1.17,3.11 -3.17,5.35 -5.95,6.76 -2.79,1.4 -5.89,1.44 -9.3,0.13zm100.19 -23.43l-23.22 -4.53 -9.11 46.94 -11.56 -2.24 9.1 -46.95 -23.13 -4.5 2.27 -11.68 57.93 11.27 -2.28 11.69zm17.1 -8.52l37.33 1.96c8.11,0.43 13.26,6.77 15.48,19.06l0.43 3.38c-0.51,9.76 -5.47,16.52 -14.89,20.3l13.49 16.2 -0.06 1.11 -17.05 -0.89 -23.2 -28.93 0.04 -0.5 20.79 1.08c4.8,0.26 7.91,-2.74 9.32,-8.98 0.26,-4.95 -2.15,-8.04 -7.25,-9.25l-24.14 -1.26 -2.37 45.31 -1.18 1.06 -9.83 -0.52 -1.05 -1.17 2.96 -56.91 1.19 -1.06zm121.7 57.36l-35.31 3.1c-6.27,0.55 -10.28,-1.75 -12.02,-6.9 -0.37,-1.2 -0.63,-2.51 -0.76,-3.93l-3.12 -35.78c-0.27,-3.1 0.6,-5.96 2.63,-8.54 2.02,-2.6 4.71,-4.04 8.08,-4.34l35.31 -3.09c3.3,-0.28 6.2,0.64 8.66,2.78 2.45,2.13 3.83,4.81 4.11,8.06l3.12 35.79c0.7,7.91 -2.88,12.2 -10.7,12.87zm-1.03 -11.86l-3.14 -35.77 -35.31 3.09 3.13 35.78 35.32 -3.1zm92.64 -10.65l-7.12 2.06 -48.97 -26.37 10.69 37.37 -11.32 3.26 -16.44 -57.42 7.04 -2.02 49.07 26.34 -10.7 -37.37 11.33 -3.25 16.43 57.41zm34.12 -13.8l-10.99 4.22 -21.36 -55.75 11 -4.23 21.35 55.76zm82.78 -43.13l-14.13 7.84 -27.41 -9.9 -6.15 28.55 -14.22 7.9 10.36 -39.85 -39.26 -12.4 14.19 -7.89 27.44 9.89 6.15 -28.53 14.13 -7.85 -10.22 39.88 39.12 12.37z"/>
   <path class="fil1" d="M1211.26 378.39c73.73,0 140.47,29.93 188.78,78.31 48.37,48.43 78.27,115.31 78.27,189.12 0,73.91 -29.88,140.81 -78.19,189.22 -48.31,48.4 -115.09,78.34 -188.86,78.34 -73.73,-0.07 -140.49,-30 -188.79,-78.42 -48.3,-48.39 -78.17,-115.26 -78.17,-189.13 0,-73.85 29.89,-140.72 78.19,-189.11 48.3,-48.39 115.06,-78.32 188.78,-78.32zm169.45 97.79c-43.34,-43.4 -103.24,-70.25 -169.45,-70.25 -66.13,0 -126,26.85 -169.33,70.27 -43.33,43.41 -70.14,103.39 -70.14,169.63 0,66.33 26.8,126.35 70.12,169.77 43.33,43.43 103.22,70.3 169.35,70.3 66.19,-0.06 126.08,-26.91 169.42,-70.33 43.34,-43.42 70.14,-103.43 70.14,-169.74 0,-66.28 -26.78,-126.26 -70.11,-169.65z"/>
   <path class="fil0" d="M963.76 614.51l157.69 -1c6.71,-4.88 7.75,-9.47 5.83,-16.47l-110.45 -105.85 -6.07 5.58 107.04 105.65 -155.64 3.39 1.62 8.71zm495.61 55.31l-158.22 0.46c-6.72,4.87 -7.75,9.47 -5.82,16.48l116.35 108.54 6.07 -5.56 -112.94 -108.37 156.17 -2.83 -1.62 -8.72zm-89.51 170.43l-115.06 -114.64c-8.18,-1.3 -12.17,1.22 -15.75,7.54l2.83 161.68 8.22 0.39 -0.54 -159.18 115.29 111.52 5 -7.31zm33.52 -351.28l-108.52 109.33c-1.31,8.22 1.2,12.21 7.53,15.79l155.48 -3.39 0.36 -8.24 -152.96 1.11 105.39 -109.6 -7.29 -5zm-346.72 -40.25l111.15 109.47c8.19,1.3 12.17,-1.22 15.73,-7.54l-3.85 -154.83 -7.76 1.38 1.11 150.55 -109.39 -105.57 -6.98 6.54zm183.09 -52.46l-0.13 155.64c4.87,6.71 9.47,7.76 16.44,5.8l107.94 -113.77 -6.11 -4.66 -107.2 108.95 -2.82 -152.15 -8.12 0.19zm-223.77 401.81l111.76 -112.57c1.3,-8.22 -1.21,-12.21 -7.53,-15.79l-155.49 3.39 -0.36 8.24 152.95 -1.11 -108.62 112.83 7.29 5zm166.37 95.58l0.63 -161.74c-4.87,-6.72 -9.47,-7.77 -16.46,-5.82l-110.49 115.46 5.56 6.1 110.31 -112.06 1.75 159.67 8.7 -1.62z"/>
   <g>
    <path class="fil0" d="M1178.22 898.1l0 -234.85 0 234.85zm65.39 -238.59l0 238.59 0 -238.59zm-33.67 -52.59c20.45,0 37.04,16.63 37.04,37.14 0,5.51 -1.22,10.75 -3.38,15.45 -5.84,12.8 -18.71,21.67 -33.67,21.67 -13.46,0 -25.25,-7.17 -31.73,-17.93 -3.39,-5.6 -5.33,-12.19 -5.33,-19.19 0,-20.51 16.59,-37.14 37.06,-37.14z"/>
   </g>
   <path class="fil1" d="M1164.48 898.09l0 -231.44c-1.42,-2.86 -2.57,-5.85 -3.44,-8.95 -1.22,-4.44 -1.89,-9.03 -1.89,-13.64 0,-14.02 5.69,-26.73 14.87,-35.95 9.19,-9.25 21.9,-14.96 35.93,-14.96 14.02,0 26.73,5.7 35.92,14.91 9.18,9.27 14.87,21.99 14.87,36 0,3.67 -0.41,7.3 -1.17,10.8 -0.54,2.46 -1.28,4.91 -2.2,7.3l0 235.93 -27.5 0 0 -207.22c-6.12,2.63 -12.86,4.08 -19.92,4.08 -6.29,0 -12.36,-1.18 -17.98,-3.33l0 206.47 -27.5 0zm61.98 -270.58c-4.25,-4.2 -10.07,-6.82 -16.5,-6.82 -6.43,0 -12.27,2.62 -16.48,6.84 -4.22,4.2 -6.83,10.06 -6.83,16.53 0,2.29 0.29,4.42 0.81,6.33 0.57,2.08 1.42,4.02 2.47,5.77 2.13,3.44 5.07,6.3 8.55,8.26 3.3,1.92 7.22,3 11.48,3 4.66,0 8.97,-1.35 12.56,-3.66 3.76,-2.43 6.79,-5.88 8.65,-9.95 0.65,-1.42 1.19,-3.02 1.56,-4.75 0.33,-1.57 0.52,-3.26 0.52,-5 0,-6.47 -2.59,-12.33 -6.8,-16.55z"/>
  </g>
  <g id="_2650059442896">
   <g id="_2617244158432">
    <path class="fil1" d="M5579.94 893.76c9.3,-0.92 15.58,-4.43 18.85,-10.49 3.26,-6.06 4.88,-12.83 4.88,-20.29l0 -194.42c0,-9.33 -3.02,-16.67 -9.07,-22.02 -6.05,-5.38 -14.42,-8.05 -25.14,-8.05 -9.77,0 -17.8,2.67 -24.08,8.05 -6.28,5.35 -9.43,12.7 -9.43,22.02l0 194.42c0,7 2.35,13.76 6.98,20.29 4.66,6.54 10.96,9.8 18.86,9.8l0 50.36c-13.98,0 -26.87,-2.1 -38.75,-6.29 -11.87,-4.21 -22.11,-9.8 -30.72,-16.8 -8.61,-6.99 -15.47,-15.04 -20.59,-24.13 -5.13,-9.09 -7.67,-18.78 -7.67,-29.03l0 -203.52c0,-11.67 2.78,-22.15 8.37,-31.48 5.58,-9.33 13.02,-17.24 22.33,-23.77 9.3,-6.54 20.37,-11.68 33.16,-15.4 12.81,-3.74 26.66,-5.59 41.54,-5.59 14.9,0 28.75,1.85 41.53,5.59 12.81,3.72 23.99,8.86 33.53,15.4 9.53,6.53 16.98,14.56 22.34,24.11 5.34,9.58 8.02,19.95 8.02,31.13l0 203.52c0,9.79 -2.33,19.23 -6.97,28.32 -4.67,9.1 -11.18,17.14 -19.55,24.13 -8.38,7.01 -18.37,12.7 -30.03,17.13 -11.65,4.44 -24.43,6.66 -38.39,6.66l0 -49.67zm327.5 73.43c0,22.85 -8.62,41.27 -25.84,55.26 -17.22,13.99 -40.48,20.99 -69.81,20.99 -27.46,0 -50.15,-6.87 -68.07,-20.63 -17.93,-13.76 -26.89,-32.3 -26.89,-55.62l0 -66.43c0,-11.66 2.56,-22.03 7.69,-31.13 5.12,-9.08 11.98,-16.89 20.59,-23.43 8.59,-6.52 18.38,-11.64 29.31,-15.39 10.94,-3.71 21.99,-5.82 33.17,-6.29l-0.7 0c6.51,-0.93 12.44,-4.54 17.81,-10.85 5.35,-6.29 8.03,-13.85 8.03,-22.73l0 -121.67c0,-9.35 -2.09,-16.68 -6.3,-22.05 -4.18,-5.36 -9.06,-8.04 -14.65,-8.04 -5.13,0 -9.67,2.68 -13.62,8.04 -3.95,5.37 -5.93,12.7 -5.93,22.05l0 53.85 -71.9 0 0 -58.77c0,-11.64 2.55,-22.14 7.67,-31.47 5.12,-9.32 11.87,-17.26 20.26,-23.78 8.37,-6.52 18.03,-11.66 28.96,-15.39 10.94,-3.73 22.46,-5.59 34.56,-5.59 12.09,0 23.74,1.87 34.91,5.59 11.16,3.72 20.93,8.87 29.31,15.39 8.38,6.52 15.13,14.58 20.26,24.14 5.1,9.55 7.66,19.92 7.66,31.11l0 130.8c0,8.39 -2.32,16.67 -6.97,24.83 -4.66,8.15 -13.03,15.95 -25.14,23.42 7.91,4.65 14.31,10.03 19.2,16.08 4.89,6.07 8.48,11.65 10.82,16.8 2.33,4.65 3.84,8.96 4.53,12.93 0.7,3.97 1.06,7.81 1.06,11.55l0 66.43zm-71.91 -11.17c-6.99,4.19 -15.6,6.28 -25.84,6.28 -8.37,0 -15.36,-1.85 -20.94,-5.59l0 6.29c0,9.34 2.1,16.57 6.29,21.69 4.18,5.13 9.78,7.7 16.76,7.7 15.82,0 23.74,-9.8 23.74,-29.39l0 -6.97zm-23.04 -43.37c4.65,0 8.96,-1.4 12.92,-4.2 3.94,-2.8 5.93,-7.46 5.93,-13.97 0,-5.15 -1.62,-9.46 -4.89,-12.96 -3.24,-3.5 -8.13,-5.24 -14.65,-5.24 -11.64,0 -17.69,5.83 -18.15,17.47 0,7.92 1.98,13.07 5.93,15.38 3.96,2.34 8.26,3.51 12.93,3.51zm208.7 -56.64c0,5.12 1.29,10.61 3.85,16.43 2.56,5.83 6.17,10.37 10.81,13.63 -3.26,-3.72 -5.24,-7.81 -5.93,-12.24 -0.69,-4.43 -1.05,-8.04 -1.05,-10.85l0 -18.17c0,-19.13 5.59,-33.81 16.76,-44.07 11.17,-10.26 29.79,-15.39 55.84,-15.39 25.14,0 45.04,5.83 59.7,17.5 14.66,11.65 21.99,27.05 21.99,46.16l0 27.97c0,18.65 -7.44,33.81 -22.34,45.47 -14.89,11.66 -34.9,17.48 -60.04,17.48l-58.65 0c-27.92,0 -50.38,-6.41 -67.37,-19.23 -16.98,-12.83 -25.47,-30.89 -25.47,-54.2l0 -202.82c0,-23.33 8.6,-41.37 25.82,-54.22 17.22,-12.81 39.8,-19.23 67.71,-19.23l57.96 0c25.13,0 45.15,5.83 60.04,17.5 14.9,11.65 22.34,26.81 22.34,45.45l0 27.97c0,19.13 -7.33,34.51 -21.99,46.16 -14.66,11.66 -34.56,17.5 -59.7,17.5 -26.05,0 -44.67,-5.15 -55.84,-15.39 -11.18,-10.26 -16.76,-24.96 -16.76,-44.06l0 -18.19c0,-2.31 0.48,-5.94 1.4,-10.83 0.93,-4.9 3.03,-9.21 6.28,-12.95 -4.65,3.27 -8.38,7.82 -11.17,13.64 -2.79,5.83 -4.19,11.32 -4.19,16.44l0 182.55zm92.86 0.7c0,-6.53 -0.82,-12.14 -2.45,-16.8 -1.63,-4.66 -4.3,-7 -8.03,-7 -3.73,0 -6.39,2.21 -8.01,6.65 -1.64,4.43 -2.45,10.14 -2.45,17.14l0 11.19c0,6.06 0.69,11.53 2.09,16.43 1.4,4.89 4.19,7.35 8.37,7.35 6.99,0 10.48,-7.92 10.48,-23.78l0 -11.19zm0 -194.44c0,-15.86 -3.48,-23.78 -10.48,-23.78 -4.18,0 -6.98,2.46 -8.37,7.35 -1.4,4.89 -2.09,10.38 -2.09,16.43l0 11.19c0,6.99 0.81,12.7 2.45,17.13 1.62,4.43 4.28,6.64 8.01,6.64 3.72,0 6.4,-2.33 8.03,-7 1.63,-4.66 2.45,-10.26 2.45,-16.78l0 -11.19zm337.98 362.98l-110.99 0c-16.77,0 -32.13,-2.09 -46.09,-6.3 -13.97,-4.19 -26.17,-10.84 -36.65,-19.92 -10.47,-9.1 -18.61,-20.41 -24.43,-33.92 -5.83,-13.53 -8.73,-29.85 -8.73,-48.96l0 -251.08c0,-11.66 3.14,-22.15 9.43,-31.48 6.29,-9.32 14.55,-17.25 24.78,-23.79 10.23,-6.52 21.89,-11.65 34.9,-15.37 13.03,-3.75 26.54,-5.6 40.5,-5.6l0 50.36c-9.31,0 -18.04,2.68 -26.19,8.04 -8.15,5.37 -12.21,12.7 -12.21,22.05l0 243.37c0,20.98 4.07,36.72 12.21,47.21 8.15,10.49 18.97,15.73 32.48,15.73l110.99 0 0 49.66zm120.04 -158.76c0,11.65 -2.91,22.26 -8.72,31.81 -5.81,9.56 -13.73,17.61 -23.73,24.14 -10.01,6.52 -21.53,11.66 -34.56,15.39 -13.04,3.74 -26.77,5.59 -41.2,5.59 -14.41,0 -28.15,-1.86 -41.18,-5.59 -13.04,-3.72 -24.46,-8.98 -34.22,-15.74 -9.76,-6.76 -17.57,-14.81 -23.38,-24.13 -5.83,-9.32 -8.74,-19.82 -8.74,-31.46l0 -47.56 82.39 0 0 43.35c0,8.86 2.33,15.98 6.98,21.34 4.65,5.36 10.69,8.04 18.14,8.04 7.44,0 13.63,-2.69 18.51,-8.04 4.89,-5.37 7.33,-12.48 7.33,-21.34l0 -42.65c0,-8.86 -2.56,-16.09 -7.68,-21.69 -5.11,-5.59 -11.87,-8.87 -20.24,-9.8 -14.43,0 -28.06,-1.87 -40.85,-5.59 -12.79,-3.73 -23.95,-8.85 -33.5,-15.39 -9.54,-6.52 -17.11,-14.56 -22.68,-24.13 -5.59,-9.56 -8.39,-19.92 -8.39,-31.12l0 -50.37c0,-11.65 2.91,-22.14 8.74,-31.46 5.81,-9.33 13.62,-17.38 23.38,-24.14 9.76,-6.76 21.18,-12.01 34.22,-15.74 13.02,-3.73 26.76,-5.59 41.18,-5.59 14.43,0 28.16,1.86 41.2,5.59 13.03,3.73 24.55,8.98 34.56,15.74 10,6.76 17.92,14.92 23.73,24.48 5.81,9.55 8.72,19.93 8.72,31.11l0 47.56 -82.38 0 0 -42.65c0,-9.32 -2.44,-16.78 -7.33,-22.39 -4.88,-5.59 -11.06,-8.38 -18.51,-8.38 -7.44,0 -13.49,2.79 -18.14,8.38 -4.66,5.61 -6.98,13.07 -6.98,22.39l0 40.57c0,9.32 2.2,16.66 6.63,22.02 4.43,5.35 10.58,8.5 18.49,9.45 14.43,0 28.16,1.85 41.2,5.58 13.03,3.73 24.55,8.98 34.56,15.74 10,6.76 17.92,14.8 23.73,24.13 5.81,9.33 8.72,19.81 8.72,31.47l0 51.06z"/>
    <path class="fil1" d="M6685.95 861.6c0,12.58 2.33,20.75 6.98,24.47 4.66,3.74 10,5.6 16.06,5.6 6.05,0 11.52,-2.1 16.4,-6.3 4.88,-4.2 7.33,-12.12 7.33,-23.78l0 -192.31c0,-11.68 -2.45,-19.59 -7.33,-23.8 -4.88,-4.19 -10.35,-6.29 -16.4,-6.29 -6.06,0 -11.4,1.96 -16.06,5.94 -4.65,3.96 -6.98,12.02 -6.98,24.15l0 53.85 -71.91 0 0 -58.77c0,-11.64 2.69,-22.14 8.03,-31.47 5.34,-9.32 12.44,-17.26 21.28,-23.78 8.85,-6.52 18.98,-11.66 30.37,-15.39 11.41,-3.73 23.17,-5.59 35.27,-5.59 12.56,0 24.56,1.87 35.96,5.59 11.4,3.72 21.52,8.87 30.37,15.39 8.84,6.52 15.93,14.58 21.28,24.14 5.37,9.55 8.04,19.92 8.04,31.11l0 201.43c0,11.18 -2.68,21.56 -8.04,31.12 -5.35,9.57 -12.44,17.6 -21.28,24.13 -8.84,6.53 -18.97,11.65 -30.37,15.39 -11.41,3.74 -23.4,5.6 -35.96,5.6 -12.1,0 -23.86,-1.76 -35.27,-5.26 -11.39,-3.48 -21.52,-8.61 -30.37,-15.38 -8.84,-6.76 -15.94,-14.8 -21.28,-24.13 -5.34,-9.32 -8.03,-19.82 -8.03,-31.46l0 -55.96 71.91 0 0 51.76zm318.44 -274.16c16.28,0 29.2,1.4 38.75,4.2 9.54,2.8 17.81,7.69 24.79,14.67 7.91,-7.93 17.32,-13.28 28.26,-16.08 10.94,-2.79 22.47,-4.19 34.56,-4.19 10.71,0 21.06,1.63 31.06,4.91 10.01,3.25 18.96,7.92 26.89,13.97 7.44,-6.53 16.86,-11.3 28.26,-14.33 11.41,-3.02 22.69,-4.54 33.85,-4.54 12.11,0 23.97,1.75 35.61,5.26 11.64,3.49 21.89,8.5 30.72,15.01 8.85,6.54 15.94,14.47 21.3,23.8 5.35,9.32 8.04,19.81 8.04,31.46l0 204.93c0,11.65 -3.03,22.15 -9.08,31.46 -6.06,9.33 -13.97,17.26 -23.75,23.79 -9.75,6.52 -21.17,11.54 -34.19,15.02 -13.03,3.5 -26.53,5.26 -40.5,5.26l0 -51.07c10.25,0 18.62,-2.43 25.15,-7.33 6.5,-4.9 9.77,-11.78 9.77,-20.64l0 -196.52c0,-9.32 -2.33,-16.55 -6.99,-21.69 -4.65,-5.13 -10,-7.69 -16.06,-7.69 -5.58,0 -10.69,2.33 -15.36,6.99 -4.64,4.67 -7.44,11.19 -8.37,19.59l0 276.25 -72.6 0 0 -275.56c-0.94,-8.86 -3.74,-15.61 -8.39,-20.28 -4.64,-4.66 -9.77,-6.99 -15.35,-6.99 -5.59,0 -10.7,2.33 -15.37,6.99 -4.65,4.67 -7.44,11.42 -8.37,20.28l0 275.56 -72.61 0 0 -269.28c0,-9.32 -2.67,-17.24 -8.03,-23.76 -5.35,-6.54 -13.38,-9.57 -24.09,-9.1l-63.52 0c-5.13,0 -9.78,2.68 -13.96,8.05 -4.2,5.37 -6.3,12.7 -6.3,22.04l0 16.08c4.67,-0.96 9.09,-1.41 13.27,-1.41 25.15,0 45.85,6.99 62.14,20.98 16.3,13.99 24.44,32.64 24.44,55.94l0 107.02c0,23.77 -8.14,42.54 -24.44,56.3 -16.3,13.75 -37,20.63 -62.14,20.63 -24.66,0 -45.02,-6.89 -61.08,-20.63 -16.06,-13.76 -24.08,-32.53 -24.08,-56.3l0 -202.13c0,-11.64 2.56,-22.14 7.68,-31.47 5.11,-9.32 11.86,-17.36 20.24,-24.13 8.38,-6.77 18.15,-12.02 29.33,-15.74 11.17,-3.74 22.82,-5.59 34.91,-5.59l65.63 0zm-58.65 176.95c0,-9.34 -1.04,-16.67 -3.14,-22.04 -2.09,-5.36 -5.71,-8.03 -10.83,-8.03 -4.65,0 -8.02,2.67 -10.11,8.03 -2.09,5.37 -3.16,12.7 -3.16,22.04l0 98.6c0,8.87 1.07,15.98 3.16,21.34 2.09,5.35 5.46,8.04 10.11,8.04 5.12,0 8.74,-2.69 10.83,-8.04 2.09,-5.36 3.14,-12.47 3.14,-21.34l0 -98.6zm439.91 -196.53c0,-9.32 -0.81,-16.55 -2.44,-21.68 -1.62,-5.12 -5.7,-7.69 -12.21,-7.69 -6.06,0 -9.89,2.57 -11.52,7.69 -1.63,5.13 -2.45,12.36 -2.45,21.68l0 9.8 -71.2 0 0 -14.69c0,-23.31 7.91,-41.85 23.73,-55.59 15.83,-13.76 36.3,-20.63 61.44,-20.63 24.66,0 45.15,6.86 61.44,20.63 16.29,13.75 24.44,32.28 24.44,55.59l0 376.97 -71.22 0 0 -372.07zm427.35 298.64c0,11.65 -3.02,22.26 -9.07,31.81 -6.06,9.56 -13.97,17.61 -23.74,24.14 -9.78,6.52 -21.19,11.66 -34.2,15.39 -13.02,3.74 -26.53,5.36 -40.5,4.89 -14.9,-0.46 -29.43,-2.21 -43.63,-5.23 -14.2,-3.03 -25.48,-9.21 -33.86,-18.54 -4.66,6.52 -10.95,12.13 -18.85,16.79 -7.91,4.66 -20.25,6.98 -37,6.98 -22.35,0 -40.15,-6.75 -53.41,-20.27 -13.27,-13.52 -19.91,-32.18 -19.91,-55.95l0 -72.74c0,-23.3 8.16,-41.85 24.44,-55.6 16.3,-13.76 38.64,-20.63 67.04,-20.63l9.07 0 0 -55.95c0,-13.05 2.9,-24.34 8.71,-33.91 5.83,-9.57 13.63,-17.5 23.39,-23.78 9.78,-6.29 21.07,-11.06 33.86,-14.33 12.8,-3.27 26.19,-4.9 40.15,-4.9 13.96,0 27.47,1.63 40.5,4.9 13.02,3.27 24.43,8.04 34.2,14.33 9.77,6.29 17.68,14.35 23.74,24.13 6.06,9.8 9.07,20.99 9.07,33.57l0 55.95 9.07 0c28.39,0 50.85,6.88 67.37,20.63 16.54,13.75 24.79,32.3 24.79,55.6l0 72.74c0,23.77 -6.76,42.54 -20.26,56.3 -13.48,13.75 -36.06,20.63 -67.7,20.63l-11.18 0 0 -51.06 11.18 0c5.11,0 9.06,-2.69 11.87,-8.04 2.78,-5.36 4.19,-12.47 4.19,-21.34l0 -64.34c0,-9.33 -1.41,-16.67 -4.19,-22.03 -2.8,-5.36 -8.15,-8.04 -16.07,-8.04l-9.07 0 0 97.91zm-73.32 -97.91l-68.41 0 0 87.43c0,24.23 11.4,36.35 34.22,36.35 11.62,0 20.25,-3.26 25.83,-9.79 5.58,-6.53 8.36,-15.15 8.36,-25.87l0 -88.13zm0 -51.06l0 -51.05c0,-11.19 -3.02,-19.12 -9.06,-23.79 -6.06,-4.64 -14.43,-6.98 -25.13,-6.98 -9.3,0 -17.34,2.21 -24.09,6.63 -6.75,4.43 -10.12,12.47 -10.12,24.13l0 51.05 68.41 0zm-154.96 173.44c6.04,0 9.99,-2.67 11.85,-8.02 1.86,-5.37 2.81,-13.42 2.81,-24.15l0 -90.21 -9.78 0c-7.91,0 -13.03,3.39 -15.36,10.14 -2.34,6.76 -3.49,13.4 -3.49,19.93l0 64.34c0,7.94 0.81,14.58 2.45,19.95 1.63,5.35 5.46,8.02 11.52,8.02zm413.26 -400.73l0 29.38c0,11.19 -2.57,21.08 -7.68,29.72 -5.11,8.62 -11.99,15.85 -20.59,21.67 -8.62,5.84 -18.5,10.16 -29.67,12.95 -11.18,2.8 -23.04,4.19 -35.6,4.19 -12.12,0 -23.75,-1.39 -34.9,-4.19 -11.17,-2.79 -21.07,-7.11 -29.69,-12.95 -8.6,-5.82 -15.46,-13.05 -20.6,-21.67 -5.12,-8.64 -7.67,-18.76 -7.67,-30.42l0 -28.67 71.21 0 0 24.49c0,9.32 2.21,15.95 6.62,19.91 4.42,3.98 9.44,5.94 15.02,5.94 6.04,0 11.16,-1.86 15.35,-5.59 4.19,-3.73 6.29,-10.25 6.29,-19.58l0 -25.17 71.91 0zm291.08 97.21c33.04,0 59.32,7 78.89,20.99 19.55,13.99 29.31,32.39 29.31,55.25l0 203.52c0,11.19 -2.66,21.56 -8.03,31.11 -5.34,9.56 -12.44,17.61 -21.28,24.14 -8.85,6.52 -18.97,11.66 -30.37,15.39 -11.39,3.74 -23.4,5.59 -35.96,5.59 -12.1,0 -23.85,-1.86 -35.26,-5.59 -11.4,-3.72 -21.53,-8.98 -30.37,-15.74 -8.83,-6.76 -15.93,-15.04 -21.29,-24.83 -5.35,-9.79 -8.01,-20.74 -8.01,-32.87l0 -195.83c0,-9.33 -2.33,-16.67 -7,-22.02 -4.65,-5.38 -10.01,-8.05 -16.04,-8.05 -5.59,0 -10.71,2.46 -15.36,7.35 -4.67,4.89 -7.44,11.77 -8.39,20.63l0 273.46 -71.9 0 0 -273.46c-0.94,-8.87 -3.85,-15.74 -8.73,-20.63 -4.89,-4.89 -9.89,-7.35 -15.01,-7.35 -6.05,0 -11.52,2.67 -16.41,8.05 -4.88,5.35 -7.33,12.7 -7.33,22.02l0 194.42c0,20.05 10.24,30.08 30.72,30.08l0 50.36c-34.44,0 -60.05,-6.89 -76.79,-20.63 -16.76,-13.76 -25.13,-32.3 -25.13,-55.6l0 -203.52c0,-11.67 2.67,-22.15 8.02,-31.48 5.36,-9.33 12.45,-17.24 21.3,-23.77 8.83,-6.54 18.97,-11.68 30.37,-15.4 11.41,-3.74 23.15,-5.59 35.26,-5.59 10.7,0 21.52,1.63 32.47,4.9 10.93,3.26 19.66,8.86 26.17,16.78 6.98,-7.92 16.29,-13.52 27.92,-16.78 11.64,-3.26 22.57,-4.9 32.82,-4.9 11.64,0 23.27,1.85 34.9,5.59 11.63,3.72 21.98,8.86 31.06,15.4 9.07,6.53 16.31,14.56 21.64,24.11 5.37,9.58 7.8,19.95 7.34,31.13l0 195.82c0,9.33 1.63,17.26 4.89,23.78 3.26,6.54 9.31,9.8 18.15,9.8 7.92,0 13.85,-3.15 17.81,-9.44 3.96,-6.29 5.93,-14.11 5.93,-23.43l0 -191.63c0,-9.33 -3.49,-16.67 -10.46,-22.02 -6.98,-5.38 -15.59,-8.05 -25.83,-8.05l0 -51.06zm192.06 -97.21l0 29.38c0,11.19 -2.56,21.08 -7.69,29.72 -5.11,8.62 -11.98,15.85 -20.58,21.67 -8.61,5.84 -18.51,10.16 -29.67,12.95 -11.19,2.8 -23.05,4.19 -35.61,4.19 -12.1,0 -23.74,-1.39 -34.91,-4.19 -11.17,-2.79 -21.06,-7.11 -29.67,-12.95 -8.61,-5.82 -15.48,-13.05 -20.59,-21.67 -5.12,-8.64 -7.67,-18.76 -7.67,-30.42l0 -28.67 71.21 0 0 24.49c0,9.32 2.2,15.95 6.62,19.91 4.42,3.98 9.43,5.94 15.02,5.94 6.06,0 11.17,-1.86 15.36,-5.59 4.18,-3.73 6.3,-10.25 6.3,-19.58l0 -25.17 71.89 0z"/>
   </g>
   <path class="fil1" d="M2929.14 854.1c0,5.01 1.25,10.38 3.76,16.07 2.49,5.69 6.02,10.15 10.57,13.32 -3.18,-3.63 -5.12,-7.63 -5.8,-11.96 -0.68,-4.33 -1.03,-7.86 -1.03,-10.6l0 -17.78c0,-18.69 5.46,-33.05 16.39,-43.08 10.91,-10.03 29.13,-15.04 54.6,-15.04 24.57,0 44.04,5.7 58.36,17.09 14.32,11.4 21.5,26.44 21.5,45.13l0 27.35c0,18.24 -7.28,33.05 -21.84,44.46 -14.56,11.39 -34.13,17.09 -58.7,17.09l-57.33 0c-27.31,0 -49.26,-6.27 -65.87,-18.8 -16.6,-12.54 -24.91,-30.21 -24.91,-52.99l0 -198.31c0,-22.8 8.41,-40.45 25.26,-53 16.83,-12.53 38.89,-18.81 66.2,-18.81l56.65 0c24.57,0 44.14,5.71 58.7,17.12 14.56,11.39 21.84,26.2 21.84,44.43l0 27.35c0,18.69 -7.17,33.74 -21.5,45.13 -14.32,11.4 -33.79,17.1 -58.36,17.1 -25.47,0 -43.69,-5.01 -54.6,-15.04 -10.93,-10.04 -16.39,-24.4 -16.39,-43.08l0 -17.78c0,-2.28 0.45,-5.8 1.36,-10.6 0.91,-4.78 2.96,-9 6.15,-12.64 -4.56,3.18 -8.19,7.63 -10.92,13.33 -2.74,5.7 -4.1,11.06 -4.1,16.07l0 178.47zm90.79 0.69c0,-6.39 -0.81,-11.86 -2.4,-16.41 -1.59,-4.57 -4.21,-6.84 -7.85,-6.84 -3.64,0 -6.24,2.15 -7.84,6.5 -1.58,4.33 -2.39,9.91 -2.39,16.76l0 10.94c0,5.93 0.68,11.27 2.05,16.06 1.37,4.79 4.09,7.19 8.19,7.19 6.83,0 10.26,-7.75 10.26,-23.25l0 -10.94zm0 -190.1c0,-15.5 -3.42,-23.26 -10.26,-23.26 -4.09,0 -6.81,2.4 -8.19,7.19 -1.37,4.78 -2.05,10.15 -2.05,16.07l0 10.94c0,6.83 0.81,12.42 2.39,16.76 1.6,4.33 4.2,6.49 7.84,6.49 3.65,0 6.27,-2.28 7.85,-6.84 1.59,-4.57 2.4,-10.03 2.4,-16.41l0 -10.94zm405.51 199.68c0,11.38 -2.94,21.74 -8.87,31.11 -5.91,9.34 -13.65,17.2 -23.2,23.59 -9.56,6.38 -20.71,11.39 -33.44,15.03 -12.74,3.65 -25.95,5.25 -39.6,4.79 -14.57,-0.46 -28.79,-2.15 -42.67,-5.13 -13.87,-2.96 -24.91,-9 -33.09,-18.12 -4.55,6.39 -10.7,11.85 -18.44,16.4 -7.73,4.58 -19.8,6.85 -36.17,6.85 -21.85,0 -39.26,-6.6 -52.21,-19.82 -12.98,-13.23 -19.47,-31.46 -19.47,-54.7l0 -71.13c0,-22.79 7.97,-40.92 23.89,-54.36 15.93,-13.44 37.77,-20.17 65.54,-20.17l8.87 0 0 -54.7c0,-12.76 2.83,-23.81 8.52,-33.18 5.69,-9.34 13.31,-17.08 22.88,-23.24 9.55,-6.16 20.6,-10.82 33.09,-14.02 12.52,-3.19 25.61,-4.78 39.26,-4.78 13.65,0 26.85,1.59 39.6,4.78 12.73,3.2 23.87,7.86 33.44,14.02 9.55,6.15 17.29,14.02 23.2,23.59 5.93,9.57 8.87,20.51 8.87,32.82l0 54.7 8.88 0c27.74,0 49.69,6.72 65.86,20.17 16.16,13.44 24.23,31.57 24.23,54.36l0 71.13c0,23.23 -6.6,41.59 -19.8,55.04 -13.19,13.44 -35.26,20.17 -66.19,20.17l-10.93 0 0 -49.91 10.93 0c5,0 8.86,-2.62 11.59,-7.87 2.74,-5.24 4.09,-12.19 4.09,-20.85l0 -62.91c0,-9.11 -1.35,-16.3 -4.09,-21.55 -2.73,-5.24 -7.96,-7.85 -15.69,-7.85l-8.88 0 0 95.73zm-71.67 -95.73l-66.9 0 0 85.47c0,23.7 11.16,35.55 33.46,35.55 11.36,0 19.8,-3.19 25.26,-9.57 5.45,-6.39 8.19,-14.81 8.19,-25.29l0 -86.15zm0 -49.92l0 -49.93c0,-10.94 -2.97,-18.69 -8.87,-23.24 -5.93,-4.56 -14.11,-6.84 -24.58,-6.84 -9.1,0 -16.95,2.18 -23.54,6.49 -6.61,4.33 -9.91,12.2 -9.91,23.59l0 49.93 66.9 0zm-151.52 169.57c5.91,0 9.78,-2.61 11.59,-7.85 1.82,-5.25 2.74,-13.11 2.74,-23.59l0 -88.2 -9.56 0c-7.74,0 -12.74,3.3 -15.02,9.91 -2.28,6.61 -3.41,13.1 -3.41,19.48l0 62.91c0,7.76 0.79,14.24 2.39,19.49 1.59,5.24 5.34,7.85 11.27,7.85zm451.81 50.61c-22.3,-1.83 -39.46,-5.81 -51.52,-11.96 -12.06,-6.17 -20.81,-13.13 -26.29,-20.87 -5.46,-7.75 -8.64,-15.5 -9.54,-23.25 -0.92,-7.76 -1.37,-13.67 -1.37,-17.77l0 -196.26c0,-22.8 8.53,-40.91 25.59,-54.35 17.06,-13.45 40.61,-20.19 70.64,-20.19l72.37 0c11.37,0 22.52,1.84 33.44,5.47 10.92,3.66 20.49,8.67 28.66,15.06 8.19,6.39 14.79,14.13 19.81,23.25 5,9.11 7.5,19.37 7.5,30.76l0 196.26c0,11.41 -2.15,21.65 -6.47,30.77 -4.34,9.11 -10.36,16.97 -18.11,23.59 -7.73,6.61 -16.71,11.62 -26.95,15.05 -10.25,3.41 -21.04,5.12 -32.43,5.12 -24.56,0 -44.83,-6.72 -60.73,-20.17 -15.95,-13.44 -23.92,-31.57 -23.92,-54.36l0 -103.94c0,-11.39 1.15,-21.64 3.43,-30.76 2.29,-9.11 6.15,-16.98 11.6,-23.61 5.46,-6.6 12.86,-11.61 22.18,-15.03 9.33,-3.42 21.05,-5.14 35.16,-5.14 3.17,0 7.28,0.69 12.28,2.06 5.01,1.37 9.56,3.65 13.65,6.84l0 -23.25c0,-9.11 -2.84,-16.07 -8.53,-20.86 -5.68,-4.77 -13.07,-7.41 -22.17,-7.85l-54.61 0c-11.37,-0.46 -19.57,2.15 -24.58,7.85 -5,5.71 -7.5,13.12 -7.5,22.23l0 187.35c0,6.83 0.68,13.23 2.04,19.15 1.37,5.93 6.83,9.12 16.38,9.57l0 49.23zm70.31 -77.95c0,19.61 5.01,29.4 15.02,29.4 9.11,0 13.65,-9.8 13.65,-29.4l0 -95.06c0,-9.11 -1.13,-16.28 -3.4,-21.54 -2.28,-5.23 -5.69,-7.86 -10.25,-7.86 -5,0 -8.76,2.63 -11.26,7.86 -2.5,5.25 -3.76,12.43 -3.76,21.54l0 95.06zm411.66 -155.22c0,10.95 -2.27,20.52 -6.82,28.72 -4.56,8.21 -13.66,15.05 -27.32,20.51 10.03,4.11 18.21,10.83 24.58,20.19 6.37,9.33 9.56,19.02 9.56,29.06l0 36.25c0,11.39 -2.61,21.53 -7.85,30.42 -5.23,8.87 -12.17,16.53 -20.81,22.9 -8.65,6.39 -18.54,11.28 -29.7,14.71 -11.14,3.41 -22.63,5.13 -34.46,5.13l-93.52 0c-3.64,0 -6.93,1.01 -9.9,3.07 -2.95,2.04 -4.65,7.19 -5.11,15.37 0,8.22 1.81,13.35 5.46,15.38 3.64,2.06 6.82,3.09 9.56,3.09l182.24 0 0 49.23 -182.24 0c-24.58,0 -44.93,-5.59 -61.1,-16.76 -16.15,-11.17 -24.22,-28.37 -24.22,-51.63 0,-22.78 8.08,-39.09 24.22,-48.89 16.17,-9.8 36.52,-14.7 61.1,-14.7l93.52 0c5.44,0 10.57,-2.96 15.36,-8.88 4.78,-5.94 7.16,-13.44 7.16,-22.56l0 -28.04c0,-9.12 -1.48,-16.19 -4.44,-21.21 -2.96,-5.02 -9.89,-7.51 -20.81,-7.51l0 -49.91c9.55,0 16.17,-2.52 19.8,-7.53 3.63,-5.02 5.46,-12.08 5.46,-21.19l0 -27.36c0,-9.11 -2.38,-16.29 -7.16,-21.55 -4.79,-5.23 -10.38,-7.85 -16.72,-7.85l-83.98 0c-4.99,0 -9.88,2.39 -14.66,7.17 -4.77,4.79 -7.62,11.06 -8.53,18.82l0 20.5c3.64,-2.28 7.74,-3.88 12.28,-4.78 4.55,-0.92 8.43,-1.37 11.61,-1.37 24.57,0 43.34,6.72 56.3,20.16 12.98,13.46 19.47,31.36 19.47,53.69l0 29.39c0,22.8 -8.08,40.91 -24.23,54.37 -16.16,13.46 -36.53,20.17 -61.09,20.17 -24.57,0 -44.83,-6.7 -60.76,-20.17 -15.92,-13.45 -23.88,-31.56 -23.88,-54.37l0 -118.98c0,-11.39 2.62,-21.65 7.86,-30.76 5.23,-9.11 12.18,-16.86 20.81,-23.25 8.64,-6.39 18.54,-11.4 29.69,-15.06 11.14,-3.63 22.87,-5.47 35.14,-5.47l85.34 0c11.83,0 23.31,1.84 34.46,5.47 11.16,3.66 21.06,8.67 29.7,15.06 8.64,6.39 15.59,14.13 20.81,23.25 5.24,9.11 7.85,19.37 7.85,30.76l0 36.93zm-172 57.44c0,-9.12 -1.25,-16.3 -3.74,-21.54 -2.51,-5.24 -6.26,-7.87 -11.27,-7.87 -5,0 -8.65,3.07 -10.93,9.23 -2.27,6.17 -3.4,12.89 -3.4,20.18l0 21.21c0,9.11 1.13,16.17 3.4,21.19 2.28,5.01 5.93,7.52 10.93,7.52 5,0 8.76,-2.51 11.27,-7.52 2.5,-5.02 3.74,-12.08 3.74,-21.19l0 -21.21zm429.41 90.95c0,5.01 1.25,10.38 3.76,16.07 2.51,5.69 6.02,10.15 10.57,13.32 -3.18,-3.63 -5.11,-7.63 -5.79,-11.96 -0.68,-4.33 -1.03,-7.86 -1.03,-10.6l0 -17.78c0,-18.69 5.45,-33.05 16.38,-43.08 10.91,-10.03 29.12,-15.04 54.61,-15.04 24.57,0 44.03,5.7 58.37,17.09 14.33,11.4 21.48,26.44 21.48,45.13l0 27.35c0,18.24 -7.28,33.05 -21.83,44.46 -14.57,11.39 -34.13,17.09 -58.7,17.09l-57.34 0c-27.31,0 -49.26,-6.27 -65.86,-18.8 -16.61,-12.54 -24.92,-30.21 -24.92,-52.99l0 -198.31c0,-22.8 8.42,-40.45 25.26,-53 16.84,-12.53 38.89,-18.81 66.2,-18.81l56.66 0c24.58,0 44.13,5.71 58.7,17.12 14.55,11.39 21.83,26.2 21.83,44.43l0 27.35c0,18.69 -7.15,33.74 -21.48,45.13 -14.34,11.4 -33.8,17.1 -58.37,17.1 -25.48,0 -43.69,-5.01 -54.61,-15.04 -10.93,-10.04 -16.38,-24.4 -16.38,-43.08l0 -17.78c0,-2.28 0.45,-5.8 1.37,-10.6 0.9,-4.78 2.96,-9 6.15,-12.64 -4.55,3.18 -8.19,7.63 -10.92,13.33 -2.74,5.7 -4.1,11.06 -4.1,16.07l0 178.47zm90.78 0.69c0,-6.39 -0.79,-11.86 -2.39,-16.41 -1.59,-4.57 -4.21,-6.84 -7.85,-6.84 -3.63,0 -6.25,2.15 -7.85,6.5 -1.59,4.33 -2.38,9.91 -2.38,16.76l0 10.94c0,5.93 0.67,11.27 2.03,16.06 1.38,4.79 4.1,7.19 8.2,7.19 6.83,0 10.24,-7.75 10.24,-23.25l0 -10.94zm0 -190.1c0,-15.5 -3.41,-23.26 -10.24,-23.26 -4.1,0 -6.82,2.4 -8.2,7.19 -1.36,4.78 -2.03,10.15 -2.03,16.07l0 10.94c0,6.83 0.79,12.42 2.38,16.76 1.6,4.33 4.22,6.49 7.85,6.49 3.64,0 6.25,-2.28 7.85,-6.84 1.6,-4.57 2.39,-10.03 2.39,-16.41l0 -10.94zm435.57 361.03c9.09,-0.45 15.81,-1.83 20.13,-4.1 4.33,-2.28 6.49,-4.79 6.49,-7.52l0 -21.87c0,-3.66 -3.53,-6.51 -10.58,-8.56 -7.06,-2.04 -16.51,-3.07 -28.33,-3.07 -11.39,0 -20.59,1.03 -27.65,3.07 -7.05,2.05 -10.58,4.9 -10.58,8.56l0 21.87c0,3.19 2.39,5.93 7.17,8.2 4.79,2.28 11.26,3.42 19.45,3.42l0 41.03c-25.03,0 -45.73,-3.76 -62.12,-11.28 -16.37,-7.51 -24.57,-16.53 -24.57,-27l0 -49.23c0,-5.93 2.5,-11.17 7.51,-15.74 5,-4.55 11.94,-8.56 20.81,-11.96 8.88,-3.41 19.35,-6.03 31.41,-7.87 12.05,-1.82 24.9,-2.72 38.56,-2.72 14.1,0 27.19,0.89 39.24,2.72 12.07,1.84 22.52,4.46 31.4,7.87 8.87,3.4 15.81,7.41 20.82,11.96 5,4.57 7.5,9.8 7.5,15.74l0 49.23c0,10.02 -8.19,18.91 -24.57,26.67 -16.37,7.75 -37.08,11.62 -62.11,11.62l0 -41.03zm-212.28 0c9.09,-0.45 15.8,-1.83 20.12,-4.1 4.32,-2.28 6.48,-4.79 6.48,-7.52l0 -21.87c0,-3.66 -3.52,-6.51 -10.58,-8.56 -7.04,-2.04 -16.27,-3.07 -27.64,-3.07 -11.83,0 -21.28,1.03 -28.33,3.07 -7.04,2.05 -10.57,4.9 -10.57,8.56l0 21.87c0,3.19 2.38,5.93 7.17,8.2 4.78,2.28 11.27,3.42 19.46,3.42l0 41.03c-25.48,0 -46.19,-3.76 -62.11,-11.28 -15.93,-7.51 -23.89,-16.53 -23.89,-27l0 -49.23c0,-11.85 9.21,-21.21 27.65,-28.03 18.43,-6.84 41.97,-10.25 70.64,-10.25 13.66,0 26.51,0.89 38.57,2.72 12.06,1.84 22.53,4.46 31.4,7.87 8.87,3.4 15.94,7.41 21.16,11.96 5.24,4.57 7.85,9.8 7.85,15.74l0 49.23c0,5.01 -2.28,9.8 -6.83,14.35 -4.54,4.56 -10.7,8.67 -18.43,12.32 -7.72,3.64 -16.95,6.5 -27.64,8.56 -10.7,2.04 -22.18,3.07 -34.46,3.07l0 -41.03zm197.93 -434.2c32.31,0 58.02,6.85 77.14,20.53 19.11,13.67 28.66,31.67 28.66,54.01l0 198.98c0,10.94 -2.61,21.07 -7.85,30.43 -5.22,9.34 -12.17,17.2 -20.81,23.59 -8.65,6.38 -18.55,11.39 -29.69,15.03 -11.15,3.65 -22.86,5.47 -35.16,5.47 -11.83,0 -23.3,-1.82 -34.46,-5.47 -11.14,-3.64 -21.04,-8.78 -29.68,-15.39 -8.65,-6.61 -15.59,-14.7 -20.82,-24.27 -5.23,-9.57 -7.85,-20.28 -7.85,-32.14l0 -191.45c0,-9.11 -2.28,-16.3 -6.83,-21.53 -4.56,-5.25 -9.78,-7.88 -15.7,-7.88 -5.46,0 -10.45,2.4 -15,7.19 -4.56,4.78 -7.28,11.5 -8.19,20.17l0 267.36 -70.31 0 0 -267.36c-0.91,-8.67 -3.76,-15.38 -8.53,-20.17 -4.78,-4.79 -9.67,-7.19 -14.68,-7.19 -5.9,0 -11.27,2.63 -16.04,7.88 -4.78,5.23 -7.17,12.41 -7.17,21.53l0 190.09c0,19.61 10.02,29.4 30.04,29.4l0 49.23c-33.67,0 -58.7,-6.72 -75.08,-20.17 -16.37,-13.44 -24.57,-31.57 -24.57,-54.36l0 -198.98c0,-11.41 2.62,-21.65 7.85,-30.76 5.23,-9.13 12.17,-16.87 20.81,-23.25 8.65,-6.39 18.54,-11.41 29.69,-15.06 11.16,-3.66 22.64,-5.47 34.46,-5.47 10.48,0 21.05,1.6 31.75,4.79 10.68,3.19 19.23,8.67 25.6,16.4 6.82,-7.73 15.92,-13.21 27.31,-16.4 11.36,-3.19 22.06,-4.79 32.06,-4.79 11.39,0 22.76,1.81 34.14,5.47 11.36,3.64 21.5,8.67 30.37,15.06 8.87,6.38 15.93,14.23 21.15,23.58 5.24,9.35 7.63,19.48 7.17,30.43l0 191.46c0,9.11 1.59,16.86 4.78,23.24 3.19,6.39 9.1,9.57 17.74,9.57 7.74,0 13.55,-3.08 17.42,-9.23 3.85,-6.15 5.8,-13.79 5.8,-22.9l0 -187.36c0,-9.11 -3.41,-16.3 -10.24,-21.53 -6.82,-5.25 -15.24,-7.88 -25.26,-7.88l0 -49.91zm262.18 435.58c9.09,-0.46 15.71,-1.72 19.8,-3.76 4.1,-2.06 6.15,-4.46 6.15,-7.19l0 -23.25c0,-3.65 -3.54,-6.38 -10.59,-8.21 -7.06,-1.82 -16.27,-2.74 -27.65,-2.74 -10.92,0 -19.9,0.92 -26.96,2.74 -7.06,1.83 -10.59,4.56 -10.59,8.21l0 23.25c0,3.19 2.41,5.81 7.18,7.87 4.78,2.06 11.04,3.08 18.76,3.08l0 40.33c-25.02,0 -45.63,-3.63 -61.76,-10.93 -16.15,-7.3 -24.23,-16.17 -24.23,-26.67l0 -49.23c0,-11.85 9.33,-21.09 27.98,-27.69 18.65,-6.61 41.87,-9.92 69.63,-9.92 14.11,0 27.09,0.92 38.9,2.74 11.83,1.81 22.19,4.33 31.06,7.51 8.87,3.2 15.82,7.07 20.81,11.64 5.02,4.56 7.52,9.8 7.52,15.72l0 49.23c0,10.03 -8.19,18.81 -24.56,26.32 -16.39,7.54 -36.87,11.28 -61.44,11.28l0 -40.33zm-2.04 -136.07c9.1,-0.92 15.24,-4.33 18.43,-10.26 3.18,-5.92 4.76,-12.54 4.76,-19.83l0 -190.09c0,-9.11 -2.95,-16.3 -8.87,-21.53 -5.92,-5.25 -14.1,-7.88 -24.57,-7.88 -9.56,0 -17.41,2.63 -23.54,7.88 -6.15,5.23 -9.23,12.41 -9.23,21.53l0 190.09c0,6.83 2.29,13.44 6.83,19.83 4.55,6.39 10.7,9.57 18.43,9.57l0 49.23c-13.64,0 -26.26,-2.05 -37.88,-6.15 -11.59,-4.11 -21.61,-9.57 -30.03,-16.41 -8.43,-6.84 -15.14,-14.71 -20.14,-23.59 -5.02,-8.89 -7.52,-18.36 -7.52,-28.37l0 -198.98c0,-11.41 2.75,-21.65 8.2,-30.76 5.46,-9.13 12.74,-16.87 21.85,-23.25 9.09,-6.39 19.89,-11.41 32.41,-15.06 12.52,-3.66 26.05,-5.47 40.62,-5.47 14.56,0 28.1,1.81 40.61,5.47 12.5,3.64 23.43,8.67 32.76,15.06 9.33,6.38 16.61,14.23 21.85,23.58 5.22,9.35 7.84,19.48 7.84,30.43l0 198.98c0,9.56 -2.27,18.79 -6.82,27.69 -4.55,8.9 -10.93,16.75 -19.11,23.59 -8.19,6.85 -17.97,12.43 -29.35,16.76 -11.37,4.34 -23.88,6.49 -37.54,6.49l0 -48.54zm174.8 -394.54l0 28.72c0,10.94 -2.49,20.63 -7.49,29.05 -5.01,8.43 -11.73,15.51 -20.14,21.19 -8.43,5.7 -18.09,9.93 -29.01,12.67 -10.93,2.74 -22.52,4.1 -34.83,4.1 -11.81,0 -23.2,-1.36 -34.11,-4.1 -10.92,-2.74 -20.6,-6.96 -29.02,-12.67 -8.42,-5.69 -15.12,-12.76 -20.14,-21.19 -5,-8.42 -7.5,-18.34 -7.5,-29.73l0 -28.04 69.62 0 0 23.93c0,9.11 2.17,15.6 6.48,19.48 4.32,3.89 9.22,5.81 14.67,5.81 5.94,0 10.93,-1.82 15.03,-5.48 4.09,-3.64 6.15,-10.02 6.15,-19.14l0 -24.61 70.29 0z"/>
  </g>
 </g>
</svg>
