<?xml version="1.0" encoding="UTF-8"?>
<!DOCTYPE svg PUBLIC "-//W3C//DTD SVG 1.1//EN" "http://www.w3.org/Graphics/SVG/1.1/DTD/svg11.dtd">
<!-- Creator: CorelDRAW 2020 (64-Bit) -->
<svg xmlns="http://www.w3.org/2000/svg" xml:space="preserve" width="150mm" height="30mm" version="1.1" style="shape-rendering:geometricPrecision; text-rendering:geometricPrecision; image-rendering:optimizeQuality; fill-rule:evenodd; clip-rule:evenodd"
viewBox="0 0 15000 3000"
 xmlns:xlink="http://www.w3.org/1999/xlink"
 xmlns:xodm="http://www.corel.com/coreldraw/odm/2003">
 <defs>
  <style type="text/css">
   <![CDATA[
    .fil0 {fill:#FEFEFE}
    .fil1 {fill:#FEFEFE;fill-rule:nonzero}
   ]]>
  </style>
 </defs>
 <g id="Layer_x0020_1">
  <metadata id="CorelCorpID_0Corel-Layer"/>
  <g id="_2031689060672">
   <path class="fil0" d="M1554.77 2069.43c-60.65,-37.8 -244.27,32.7 -370.98,-15.61 53.95,97.26 125.36,115.53 248.13,70.92 1.64,-0.59 -4.8,-19.55 -3.14,-20.17 2.58,-0.95 14.52,15.77 17.21,14.87 6.85,-2.27 -7.81,-18.89 -0.18,-22.18 3.11,-1.32 28.27,11 31.49,9.53 4.69,-2.1 9.5,-4.34 14.39,-6.65 1.06,-1.6 -9.09,-9.61 33.58,-37.69 4.07,-2.67 6,18.86 10.53,16.59 6.22,-3.09 12.54,-6.3 18.97,-9.61zm-63.2 11.31c-41.99,-19.14 -183.59,21.94 -271.38,-2.52 38.76,60.1 113.95,47.75 271.38,2.52z"/>
   <path class="fil0" d="M3569.35 1012.05c188.07,9.22 224.54,218.99 146.25,248.96 -7.76,-15.96 -7.58,-30.09 -5.4,-44.16 3.14,-20.23 -19.11,-32.02 -41.49,-11.63 5.96,-31.72 17.4,-54.43 7.27,-79.44 -7.86,-19.45 -35.95,-39.01 -53.75,-73.81 58.18,56.14 82.92,70.39 65.89,131.15 25.79,-15.87 33.27,9.72 37.32,28.88 32.33,-53.92 -12.6,-163.89 -156.09,-199.95z"/>
   <path class="fil0" d="M3618.08 1055.21c-12.91,-6.12 -35.12,11.05 -38.8,20.83 -3.67,9.8 10.14,45.5 -5.85,49.56 -16,4.08 -52.13,-1.51 -60.95,9.33 -8.81,10.84 8.63,61.5 8.63,61.5 0,0 -8.79,-43.04 6.86,-56.55 15.67,-13.5 67.15,14.33 68.29,-4.57 -3.69,-15.9 -9.99,-36.96 -5.21,-52.94 3.49,-11.63 15.12,-19.15 27.03,-27.16z"/>
   <path class="fil0" d="M3488.37 1151.26c0,0 0.11,19.42 -14.63,40.22 -23.32,32.97 -83.81,38.26 -116.54,21.6 -56.62,-28.81 -47.81,-51.26 -75.21,-72.95 -14.56,-11.52 -34.49,-19.63 -49.97,-24.7 -25.83,-8.45 -24.83,-18.09 -1.76,-38.06 16.39,-14.19 55.64,-32.06 112.99,-3.91 -68.84,-4.35 -106.95,3.59 -114.11,26.06 7.82,-3.56 54.5,3.37 73.28,30.47 32.79,47.36 41.48,67.85 95.82,71.59 56.35,3.89 90.13,-50.32 90.13,-50.32z"/>
   <path class="fil1" d="M3265.52 997.11c-68.12,-31.53 -147.14,-81.12 -159.31,-157.52 -3.99,-25.11 1.52,-14.99 14.85,0.53 18.93,22.05 42.83,38.23 56.01,47.05l-33.23 -37.36c-14.22,-20.3 -26.46,-36.48 -38.96,-68.63 -10.48,-17.36 -13.45,14.26 -13.31,19.37 1.35,48.93 17.72,91.25 46.9,127.91 32.07,40.36 79.66,73.83 139.85,101.68l-12.8 -33.03z"/>
   <path class="fil0" d="M3350.35 954.97c0,0 6.18,-4.85 15.99,-6.9 9.79,-2.06 17.71,9.24 26.21,26.8 8.46,17.55 -13.6,-19.33 -25.49,-20.18 -11.87,-0.84 -16.71,0.28 -16.71,0.28z"/>
   <path class="fil0" d="M3378.33 962.43c0.2,0.77 -2.18,12.6 -12.57,11.09 -6.81,-0.98 -12.6,-10.98 -7.16,-15.97l4.93 -4.51 8.51 0.75c0,0 6.08,7.91 6.29,8.64z"/>
   <path class="fil0" d="M2128.14 1012.05c-188.07,9.22 -224.54,218.99 -146.26,248.96 7.78,-15.96 7.59,-30.09 5.41,-44.16 -3.14,-20.23 19.11,-32.02 41.48,-11.63 -5.95,-31.72 -17.4,-54.43 -7.26,-79.44 7.86,-19.45 35.94,-39.01 53.75,-73.81 -58.18,56.14 -82.92,70.39 -65.89,131.15 -25.79,-15.87 -33.27,9.72 -37.33,28.88 -32.32,-53.92 12.61,-163.89 156.1,-199.95z"/>
   <path class="fil0" d="M2079.41 1055.21c12.91,-6.12 35.12,11.05 38.8,20.83 3.67,9.8 -10.14,45.5 5.84,49.56 16.01,4.08 52.14,-1.51 60.97,9.33 8.8,10.84 -8.64,61.5 -8.64,61.5 0,0 8.79,-43.04 -6.86,-56.55 -15.67,-13.5 -67.15,14.33 -68.29,-4.57 3.69,-15.9 10.01,-36.96 5.21,-52.94 -3.49,-11.63 -15.13,-19.15 -27.03,-27.16z"/>
   <path class="fil0" d="M2209.11 1151.26c0,0 -0.11,19.42 14.64,40.22 23.32,32.97 83.81,38.26 116.53,21.6 56.63,-28.81 47.8,-51.26 75.22,-72.95 14.56,-11.52 34.49,-19.63 49.97,-24.7 25.82,-8.45 24.83,-18.09 1.76,-38.06 -16.39,-14.19 -55.65,-32.06 -113,-3.91 68.85,-4.35 106.95,3.59 114.1,26.06 -7.8,-3.56 -54.48,3.37 -73.26,30.47 -32.8,47.36 -41.49,67.85 -95.82,71.59 -56.35,3.89 -90.14,-50.32 -90.14,-50.32z"/>
   <path class="fil1" d="M2431.97 997.11c68.12,-31.53 147.14,-81.12 159.31,-157.52 3.99,-25.11 -1.52,-14.99 -14.85,0.53 -18.93,22.05 -42.83,38.23 -56.02,47.05l33.24 -37.36c14.23,-20.3 26.46,-36.48 38.96,-68.63 10.48,-17.36 13.45,14.26 13.3,19.37 -1.35,48.93 -17.72,91.25 -46.87,127.91 -32.09,40.36 -79.68,73.83 -139.87,101.68l12.8 -33.03z"/>
   <path class="fil0" d="M2347.14 954.97c0,0 -6.2,-4.85 -16,-6.9 -9.78,-2.06 -17.71,9.24 -26.2,26.8 -8.47,17.55 13.6,-19.33 25.49,-20.18 11.87,-0.84 16.71,0.28 16.71,0.28z"/>
   <path class="fil0" d="M2319.16 962.43c-0.21,0.77 2.18,12.6 12.57,11.09 6.81,-0.98 12.6,-10.98 7.16,-15.97l-4.94 -4.51 -8.5 0.75c0,0 -6.08,7.91 -6.29,8.64z"/>
   <path class="fil0" d="M2661.34 611.69l7.06 0 65.69 79.05c-36.89,5.52 -65.37,37.1 -65.37,74.91l0 0c0,33.44 22.32,62.02 53.03,71.96 0.49,0.17 7.17,0.31 7.65,0.46l-53.82 63.46 -14.24 0 0 -289.84zm68.44 0l235.98 0 -64.89 78.2 -31.71 0 0 -0.51 -1.02 0 -40.74 0 -1.01 0 0 0.51 -31.72 0 -64.89 -78.2zm297.36 0l7.06 0 0 289.84 -14.24 0 -53.83 -63.46c0.5,-0.15 7.17,-0.29 7.66,-0.46 30.71,-9.94 53.04,-38.52 53.04,-71.96l0 0c0,-37.81 -28.49,-69.39 -65.38,-74.91l65.69 -79.05zm-68.56 289.84l-89.42 0 0 -18.48 0 -17.87 0 -131.89 71.24 0c21.1,0 38.38,13.29 38.38,32.36l0 0c0,19.04 -17.28,34.62 -38.38,34.62l-67.5 0 18.31 21.64 67.37 79.62zm-132.19 0l-89.44 0 67.38 -79.62 18.32 -21.64 -67.51 0c-21.11,0 -38.38,-15.58 -38.38,-34.62l0 0c0,-19.07 17.27,-32.36 38.38,-32.36l71.25 0 0 131.89 0 17.87 0 18.48z"/>
   <path class="fil1" d="M2956.47 527.99c1.86,-27.87 33.97,-75.34 68.97,-79.11 13.45,-10.75 70.73,-0.51 88.07,15.39 29.1,22.53 46.49,76.69 61.37,122.25 16.31,49.99 37.72,110.81 75.78,161.79 43.36,33.45 72.97,-24.38 90.84,49.54 4.02,9.84 1.44,27.84 7.36,31.28 5.91,3.43 20.33,-7.68 35.87,-6.28 40.96,-13.6 48.75,15.18 55.44,25.97 4.51,7.29 -1.32,21.49 6.66,26.11 17.6,10.16 48.07,7.27 65.96,6.44 17.08,-0.82 57.98,3.17 76.83,38.31 10.05,18.74 11.77,41.28 5.63,60.03 -5.43,16.52 -43.81,44.23 -63.64,49.6 -14.45,6.08 10.7,8.18 17.21,5.74 8.21,-3.07 19.44,-8.32 28.83,-12.43 29.11,-12.7 62.05,3.6 94.63,1.15 88.94,4.53 211.28,12.13 321.66,52.57 109.16,39.99 222.8,113.41 292.38,253.66 8.77,17.69 28.09,64.08 31.75,116.44 -21.4,-34.75 -47.74,-58.21 -81.46,-80.16 33.23,29.51 69.49,86.19 88.11,130.56 15.28,36.32 22.31,95.8 0.66,138.41 -3.3,57.62 20.23,83.94 30.34,140.51 0,0.05 -10.87,24.67 -7.67,57.83 3.88,40.03 26.26,90.91 23.71,105.12 49.99,-73.26 55.65,-72.72 27.16,-157.15 -4.14,-12.24 -44.79,-54.32 -39.15,-152.86 1.53,-26.67 3.06,-53.36 3.2,-80.8l0 -0.07 0.01 -7.14 0 -0.07c-0.18,-41.83 -5.41,-77.06 -15.26,-111.22 -9.81,-34.06 -24.07,-66.71 -42.4,-103.63 -74.26,-149.73 -186.31,-228.73 -303.07,-271.49 -115.53,-42.32 -234.57,-48.69 -325.82,-53.37 -37.35,-1.88 -45.84,-48.26 -58.94,-72.66 -29.41,-54.74 -67.73,-69.57 -98.37,-68.14 -24.78,1.16 -47.25,0.94 -61.09,-21.44 -8.13,-14.71 -15.38,-29.34 -41.56,-33.7 -20.55,-3.42 -42.11,10.01 -50.46,-12.24 -6.14,-16.39 -13.33,-35.59 -38.97,-47.4 -12.03,-5.54 -22.96,-8.23 -33.2,-10.76 -12.46,-3.05 -23.61,-5.78 -30.42,-13.56 -37.54,-42.82 -54.38,-94.39 -69.65,-141.16 -16.64,-50.98 -31.61,-96.76 -69.13,-125.81 -13.86,-10.72 -30.32,-18.02 -47.66,-21.61 -20.04,-4.13 -41.3,-3.25 -61.15,3.15 -20.07,6.47 -38.68,18.49 -53.14,36.59 -11.41,14.3 -20.16,32.37 -24.83,54.37l-2.51 18.37c-1.65,11.96 0.6,13.9 9.94,6.98 15.7,-11.64 26.14,-3.67 38.95,-14.52 11.93,9.68 11.63,34.23 28.09,25.91 5.36,-2.71 -7.88,-11.26 0.15,-26.64 15.88,-30.39 51.05,-26.03 58.82,-3.17 11.93,35.1 15.62,116.73 25.03,174.18 5.76,35.03 10.94,66.77 16.46,87.91l0 0.07 0.04 0.11c22.35,85.27 84,97.5 129.57,138.75 25.89,23.4 14.96,53.74 21.03,82.95 4.63,22.37 40.04,56.08 94.64,62.19 4.15,-1.62 -44.6,-27.99 -63.21,-49.97 -13.58,-16.02 -15.44,-36.14 -15.13,-42.92l0 -0.07c1.18,-24.94 -1.26,-41.16 -23.14,-60.96 -30.12,-27.25 -91.49,-61.93 -110.55,-93.19 -40.67,-66.63 -35.36,-167.66 -49.02,-243.66 -7.59,-42.24 -18.01,-75.21 -38.32,-84.08 -44.5,-19.45 -74.6,35.55 -102.23,23.21z"/>
   <path class="fil1" d="M4325.1 1631.82c-19.62,44.74 -34.76,123.94 -25.41,160.42 9.19,35.86 23.24,69.5 38.63,106l-0.01 0.01 0.06 0.15 0.07 0.07c6.85,16.35 9.41,34.85 10.03,52.87 0.23,7.06 1.76,17.65 -17.31,20.28 -0.13,4.14 17.62,8.76 18.43,12.8 2.89,14.43 10.52,28.07 13.65,40.06l2.06 7.72c5.73,20.81 -16.88,21.66 -22.38,21.47l-82.81 -6.88c-1.54,6.15 -45.28,12.84 -36.9,-16.88 3.65,-13.01 17.08,-28.18 36.14,-20.9 2.15,-9.96 -48.12,-17.65 -48.96,32.34 -0.16,9.41 -29.37,8.32 -29.36,-1.54 5.4,-35.98 15.14,-45.53 36.37,-36.79 1.7,-3.13 -7.68,-12.39 -6.42,-15.35 2.49,-5.92 15.44,-6.13 17.12,-12.82 -38.13,-33.13 9.19,-38.64 4.96,-49.04 -21.27,-52.02 -39.81,-85.61 -75.45,-120.87 -16.39,-16.18 -37,-35.34 -50.21,-57.55 -9.7,-16.31 -16.97,-36.88 -23.78,-81.89 -16.65,-51.84 -64.97,-206.11 -120.86,-224.03 6.79,7.92 15.28,21.46 23.82,37.36 4.1,7.61 8.19,15.79 12.11,24.15 16.99,36.21 30.63,76.05 25.84,90.63 -3.55,10.86 -9.6,26.11 -8.19,36.24 0.52,3.92 -8.88,16.36 -5.62,13.85 23.88,-18.29 51.05,16 50.78,34.59 5.34,79.04 11.27,57.76 87.15,138.03 16.76,17.71 24.78,38.17 35.97,57.84 11.47,20.14 15.3,49.65 12.08,76.28 -0.67,5.65 -1.66,11.07 -2.93,16.1 -1.23,4.92 -2.77,9.62 -4.6,13.97 -1.01,2.37 -2,4.44 -2.92,6.16l-3.09 5.69 -0.03 -0.02c-9.29,17.03 -15.98,29.33 -16.41,41 -0.81,22.26 12.89,31.8 52.28,33.21l127.43 4.58c32.16,1.13 42.49,-5.42 43.24,-25.93 0.26,-6.94 -1.59,-13.68 -4.09,-22.71 -1.16,-4.22 -1.61,-5.68 -2.04,-7.34 -2.78,-10.56 -11.22,-25.67 -10.72,-42.07 1.41,-45.82 -11.27,-83.56 -26.06,-121.5 -21.59,-55.44 -43.22,-102.84 -21.66,-219.76z"/>
   <path class="fil1" d="M3971.05 1721.97c-14.01,48.15 -37.68,116.13 -19.26,151.46 9.9,20.1 27.25,26.56 19.96,50.14l-0.02 -0.01c-7.37,15.23 -53.62,79.09 -33.35,91.75l-0.01 0.03c3.12,1.95 6.65,2.98 10.63,3.05 62.21,1.15 266.96,46.33 166.33,-76.6 -26.36,-42.24 13.84,-85.53 41.29,-115.31l-19.63 -21.29c-24.85,35.83 -63.99,88.7 -43.41,134.17 1.73,3.83 -12.97,4.87 -10.4,9.02 1.14,1.79 19.11,6.68 20.21,8.71 37.55,68.88 -60.76,47.45 -100.56,47.22 13.81,-13.06 12.43,-26.12 -0.16,-39.18 6.62,31.93 -25.05,44.7 -55.42,40.24 -11.66,-28.24 47.77,-48.33 56.55,-67.07 0,-0.02 -4.14,-30.61 -1.47,-31.39 52.63,-15.46 -4.56,-13.45 -11.89,-16.59 -58.85,-25.09 -5.17,-140.33 16.78,-174.1l-3.38 -2.16c-10.36,3.44 -21.66,9.21 -32.79,7.91z"/>
   <path class="fil1" d="M4066.43 1700.16c-52.57,12.05 -129.13,26.83 -191.82,1.07 -63.33,-26.04 -94.75,-47.91 -177.15,-107.02 -1.98,-1.41 -24.66,-22.68 -26.69,-24.14l-11.55 22.6c93.03,65.16 139.57,91.92 207.17,119.69 69.7,28.66 150.44,23.73 210.75,9.92l-10.71 -22.12z"/>
   <path class="fil0" d="M4026.45 1556.75c-14.99,153.02 -171.39,97.46 -287.75,40.74 63.78,56.31 245.52,118.38 307.98,11.43 0,0 -21.56,-53.49 -20.23,-52.17z"/>
   <path class="fil1" d="M4103.23 1165.32c-93.9,-47.58 -184.66,-77.76 -289.45,-116.99 82.6,12.15 207.99,52.03 302.57,111.17 66.83,41.81 137.16,119.21 164.38,193.4 -45.36,-44.42 -80.6,-138.46 -177.5,-187.58z"/>
   <path class="fil1" d="M3477.96 1253.74c-0.23,11.86 -30.54,119.85 -30.55,131.51 -0.23,112.98 9.44,217.73 39.13,323.85 2.7,9.78 13.15,47.27 20.11,83.71 9.84,51.51 10.38,91.19 -0.15,115.45 -25.52,20.02 -41.41,34.55 -43.38,52.07 -2.07,18.45 -3.96,27.14 5.72,31.84l1.21 -2.11 191.69 0c-1.59,3.67 -3.25,7.32 -4.89,10.96 12.78,-0.92 21.52,-3.51 23.19,-9.47 0.05,-0.15 7.08,-28.23 -8.71,-54.94 -14.34,-43.81 -15.57,-98.42 -9.35,-161.69 4.81,-49.2 5.53,-113.15 -2.06,-152.51 13.52,-8.8 32.88,-57.08 12.87,-146.6 -9.58,-42.85 0.32,-85.32 -1.54,-101.83 -13.78,32.33 -18.87,90.31 -11.25,142.98 3.99,27.43 4.17,46.21 -7.18,73.47 -21.5,31.47 -56.07,8.57 -53.08,-45.04 -19.7,74.5 29.89,80.65 45.04,82 7.54,38.98 2.65,160.13 -3.83,210.8 -1.15,13.72 -3.34,26 -4.36,38.22 -1.68,20.3 -21.59,27.66 -21.38,30.75 0.38,5.52 21.85,3.28 23.33,9.23 9.52,9.29 11.75,19.33 17.53,30.59 8.64,14.62 1.83,28.9 -4.27,35.21 -10.38,10.73 -74.96,4.46 -89.72,2.09 -61.02,-1.4 -38.71,-44.7 -20.58,-58.7 -14.86,4.01 -51.03,27.79 -27.32,55.19 -27.62,6.87 -34.87,2.11 -38.38,-7.26 9.78,-52.38 41.92,-37.7 50.63,-48.61 5.55,-7 8.01,-22.14 8.2,-41.89 0.17,-20.92 18.42,-24.83 13.22,-27.11 -14.56,-6.38 -15.6,-17.7 -16.22,-23.36 -3.36,-30.56 -9.25,-64.14 -16.01,-93.91 -3.05,-13.45 -6.26,-26.18 -9.39,-37.46 -3.23,-11.56 -6.4,-21.54 -9.33,-29.29l-0.07 -0.22 -0.04 -0.06c-18.6,-49.6 -31.81,-217.73 -25.01,-286.54l6.18 -131.32zm18.83 417.86l0 0 0 0z"/>
   <path class="fil1" d="M3407.25 1267.75c-58,84.57 -112.69,180.47 -184.88,249.34 -35.73,34.11 -89.72,84.4 -96.97,116.61l-0.03 0.14 -0.07 0.08c-3.44,15.46 -2.93,38.53 -2.4,61.95 0.6,27.7 1.26,54.42 -0.46,62.77l-3.5 0.32 -0.07 0.13c-2.54,3.49 -4.74,7.12 -6.67,10.8 -1.88,3.6 -3.5,7.25 -4.86,10.81 -22.04,57.6 16.46,50.4 50.58,52.08 19.16,0.96 42.79,2.41 61.8,2.41 37.5,0 69.25,2.02 71.79,-13.05l0.01 -0.18 1.64 -4.03c6.17,-30.32 -12.18,-43.96 -22.21,-60.45 -4.02,-18.85 2.34,-54.06 9.17,-61.85l0.06 -0.07 0.05 -0.02 -0.02 0c1.04,-1.19 -0.22,-7.96 2.5,-10.53 27.58,-26.09 61.69,-59.03 91.86,-84.27 13.67,-11.4 34.9,-28.98 47.63,-31.43 12.56,-2.43 26.64,-3.65 44.18,3.14l11.25 -12.43c-24.09,-9.31 -44.46,-11.84 -63.84,-8.11 -19.24,3.72 -36.51,13.44 -54.71,28.67 -25.93,21.65 -52.71,55.59 -75.34,75.84 -4.24,3.77 -17.12,10.56 -20.65,13.93 -3.46,3.23 -7.82,0.39 -9.66,2.49l-0.08 0.06 -0.02 0.04 0 0c-7.51,8.65 4.31,30.11 2.89,47.78 -1.69,20.98 3.24,21.68 -9.48,46.32 16.53,8.03 32.68,16.73 27.95,40.05 -5.98,29.68 -79.44,14.86 -96.46,14.86 -25.89,9.61 -4.24,-18.78 -17.02,-27.14 -8.44,36.41 -30.61,19.84 -37.3,19.32 -23.11,-11.4 -1.41,-46.1 33.44,-51.54 -21.99,-18.28 -12.73,-35.16 0.84,-41.77 -21.85,-3.3 -21.84,-75.8 -1.69,-101.19 35.35,-44.56 52.64,-65.88 83.35,-95.18 10.13,-9.66 40.46,-50.19 52.38,-52.68 19.89,-4.14 21.19,38.59 25.95,13.66 3.85,-20.16 -4.92,-31.38 2.69,-51.26 19.47,-50.8 63.69,-108.27 90.16,-147.06l-3.78 -19.36z"/>
   <path class="fil0" d="M3346.08 1207.95c0,0 53.56,19.92 59.22,66.22 5.66,46.3 52.83,123.34 52.83,123.34 14.41,-62.7 -41.33,-82.64 -38.2,-124.93 1.45,-19.8 -13.4,-42.64 -23.58,-51.91l-50.27 -12.72z"/>
   <path class="fil0" d="M3472.37 1107.52c4.86,29.91 27.91,60.23 17.75,87.74 -27.73,74.96 -5.58,85.65 -11.84,127.33 -8.61,57.34 -10.41,83.45 38.4,45.24 26.41,-20.69 36.79,-59.91 98.95,-69.72 117.39,-18.5 126.57,-65.18 126.29,-65.43l-20.62 -17.62c-0.25,10.16 -5.07,-6.47 -7.83,0.92 -10.42,27.91 -36.26,38.55 -58.87,50.3 -51.02,26.59 -94.19,27.25 -157.32,89.62 -9.38,-37.89 -4.9,-82.11 6.87,-143.83 6.83,-36 -18.42,-61.51 -31.78,-104.55z"/>
   <path class="fil0" d="M3396.05 1889.3c-176.23,-135.46 -355.74,-62.82 -493.63,106.49 -5.59,6.88 -2.55,11.34 -8.05,18.56 142.71,-168.09 336.13,-258.84 503.04,-106.35 47.08,43 84.21,32.38 126.62,45.43 -59.82,-47.03 -84.57,-30.77 -127.98,-64.13z"/>
   <path class="fil0" d="M3525.27 1937.7c-41.16,-13.46 -74.71,62.7 -132.01,22.02 15.06,36.28 13.99,63.04 -0.04,97.27 -0.59,1.42 -20.08,-147.89 -147.2,-182.39 -127.74,-34.67 -245.58,28.25 -344.73,145.87 -4.82,5.7 -2.19,9.19 -6.92,15.17 105.48,-120.21 229.83,-184.97 361.57,-134.29 86.39,33.24 115.35,104.61 129.13,184.09 3.51,20.26 45.6,-46.58 24.14,-103 73.73,14.4 109.51,-42.57 116.06,-44.74z"/>
   <path class="fil0" d="M2903.3 2058.91c40.15,-53.91 133.73,-123.2 205.52,-136.12 62.58,-11.28 119.11,15.35 126.72,95.03 21,-11.44 32.3,6.69 55.23,-17.17 4.5,19.74 15.13,32.98 29.25,48.2 1.97,1.67 4.04,3.48 6.22,5.44l20.17 19.47c20.97,-36.57 22.77,-75.77 -18.78,-127.53 22.14,44.4 28.58,79.41 11.64,92.6 -21.03,-4.46 -35.89,-29.24 -46.54,-59.17 -13.25,22.9 -31.35,14.31 -48.47,20.99 -11.83,-77.58 -73.8,-99.81 -136.65,-88.44 -67.4,12.18 -175.57,84.76 -202.37,140.97 0,0 0.97,6.68 -1.94,5.73z"/>
   <path class="fil1" d="M2938.66 2057.41c1.61,0.93 75.98,-23.77 136.87,-23.86 47.18,-0.05 43.16,39.26 93.26,49.34 16.09,3.25 36.63,4.21 51.65,-3.26 24.23,-12.01 29.85,-39.82 -0.7,-49.89 -20.49,-6.75 -34.1,7.13 -34.44,28.81 -20.07,-2.63 -16.18,-55.71 33.99,-47.08 27.13,7.43 35.89,31.48 29.22,52.08 -11.71,10.98 -23.87,21.5 -36.46,31.51 -13.68,2.88 -29.63,1.56 -42.89,-1.17 -44.92,-9.28 -47.42,-41.63 -94.18,-45.26 -41.73,-3.25 -89.32,6.16 -115.26,12.29 -9,2.12 9.76,9.65 -10.46,-0.54l-10.6 -2.97z"/>
   <path class="fil0" d="M2924.51 2047.93c44.5,-35.17 92.66,-69.68 154.74,-71.26 30.82,-0.78 75.53,3.06 94.43,57.87 1.96,5.67 5.13,13.07 9.95,20.14 3.68,5.37 9.62,9.76 13.55,8.63 -16.88,9.08 -22.95,-2.1 -26.75,-11.53 -19.71,-48.71 -46.11,-64.61 -91.81,-64.02 -61.71,0.77 -111.79,32.07 -153.45,70.18l-0.66 -10.01z"/>
   <path class="fil0" d="M3112.21 2056.11c22.67,23.13 22.84,54.29 11.7,71.55 -19.43,30.05 -69.85,27.78 -71.64,-6.74 -5.06,-29.84 42.64,-47.46 48.69,-9.27 3.05,-17.17 -8.35,-30.77 -23.07,-33.98 -33.91,-7.39 -52.99,25.69 -40.97,54.51 16.38,39.3 66.53,35.99 87.79,16.15 23.69,-22.07 26.01,-63.45 -12.5,-92.22z"/>
   <path class="fil0" d="M2897.19 2120.14c-4.82,0.95 -10.24,-3.77 -10.42,-5.67 -4.99,-50.69 20.71,-182.32 70.28,-203.72 -26.81,-17.42 -42.68,-3.57 -57.21,13.01 -17.54,20.03 -26.87,102.14 -30.36,104.89 0,-5.94 13.45,-70.95 9.45,-118.27 -1.61,-19 -15.35,-40.79 -30.18,-52.26l0 -11.39c26.36,16.53 42.46,35.39 42.46,62.4 26.04,-17.93 46.04,-26.62 87.43,-3.01 -52.33,28.54 -98.49,163.76 -81.45,214.02z"/>
   <path class="fil0" d="M4230.52 2261.1c-220.89,147.46 -445.87,68.38 -618.7,-115.96 -7.04,-7.49 -3.2,-12.34 -10.1,-20.2 178.88,183.02 418.43,278.94 627.61,112.95 59,-46.83 101.91,-23.15 136.98,14.03 -56.15,-16.57 -81.4,-27.15 -135.79,9.18z"/>
   <path class="fil0" d="M4364.25 2250.83c-11.81,-47.93 -27.76,-98.6 -117.66,-70.8 18.86,-36.24 15.94,-39.63 22.62,-78.25 0.13,-0.84 -25.17,36.04 -76.54,79.4 -37.5,31.65 -88.43,69.77 -155.58,84.39 -134.79,29.33 -284.09,-22.49 -404.82,-126.96 -11.46,-9.91 -22.33,-20.1 -32.97,-30.41 1.05,-1.67 2.12,-3.34 3.18,-5.03 11.15,10.69 22.63,21.22 35.05,31.3 124.59,101.33 269.62,157.6 420.09,111.43 45.65,-14.02 88.76,-43.88 122.61,-76.15 46.37,-44.24 79.76,-90.99 118.33,-89.34 -17.72,42.05 -8.23,44.59 -23.87,77.98 92.42,-14.41 98.71,67.43 89.56,92.44z"/>
   <path class="fil0" d="M4259 2103.78c-9.96,-15.49 -42.42,13.67 -59.71,19.49 17.34,-36.26 -10.51,-44.34 -32.49,-49.47 -1.88,-0.42 -19.25,104.31 -165.6,138.95 -127,30.07 -268.06,-30.29 -380.45,-140.45 0.99,-1.77 1.96,-3.56 2.96,-5.33 116.91,107.38 254.87,170.92 397.3,123.36 99.5,-33.21 129.59,-99.6 142.92,-138.06 20.33,2 59.93,22.58 45.57,55.99 32.77,-27.63 69.52,-29.58 80.97,-25.56l-31.47 21.08z"/>
   <path class="fil0" d="M3642.16 2032.45c41.32,18.78 104.73,31.71 149.53,23.55 59.43,-10.86 97.65,-54.99 86.57,-99.41 15.38,0.19 54.84,7.01 49.14,60.85 -3.32,-21.56 -16.46,-47.14 -36.3,-46.78 10.29,38.72 -31.57,82.75 -102.61,94.34 -44.6,7.27 -105.93,-4.37 -147.16,-25.4 -1.05,-0.44 -1.79,-0.91 -2.3,-1.41 0.97,-1.92 1.97,-3.84 2.94,-5.78 0.07,0.01 0.14,0.03 0.19,0.04z"/>
   <path class="fil0" d="M3673.44 2112.39c21.6,13.19 54.04,31.51 79.57,40.12 64.36,21.66 148.62,6.53 182.94,0.07 13.66,-2.57 30.95,11.07 37.33,23.77 13.27,-2.44 34.19,-39.01 -1.05,-73.09 -10.64,2.79 -15.59,2.96 -16.34,4.93 7.62,2.83 13.76,5.3 18.78,10.77 11.93,12.95 11.42,30.7 -2.57,34.62 -22.89,-26.01 -52.43,-13.96 -81.45,-5.82 -37.66,10.6 -92.92,11.54 -136.82,-1.21 -27.33,-7.94 -56.57,-26.16 -81.17,-38.67 -4.41,2.82 -0.66,3.62 0.78,4.51z"/>
   <path class="fil0" d="M3971.5 2105.88c33.55,-8.24 44.19,-51.05 62.44,-61.97 -41.63,-40.34 -127.43,54.55 -207.74,57.77 -57.07,2.31 -125.87,-13.59 -193.34,-51.54 -1.3,2.44 -2.6,4.87 -3.91,7.29 109.04,63.87 240.11,73.26 341.97,4.94 12.35,-8.28 24.81,-15.41 38.71,-14.41 -21.33,23.18 -15.04,35.84 -55.22,59.84l17.09 -1.92z"/>
   <path class="fil0" d="M3895.4 2046.01c23.04,-16.09 28.62,-24.9 80.53,1.37l14.81 -9.97c-48.67,-23.97 -63.78,-28.17 -95.34,8.6z"/>
   <path class="fil0" d="M4142.55 2067.82c61.34,-38.25 247.11,33.08 375.3,-15.79 -54.58,98.38 -126.82,116.87 -251.02,71.74 -1.66,-0.6 4.86,-19.78 3.18,-20.41 -2.62,-0.96 -14.69,15.96 -17.41,15.05 -6.93,-2.3 7.9,-19.11 0.18,-22.44 -3.15,-1.34 -28.6,11.13 -31.85,9.65 -4.76,-2.14 -9.62,-4.4 -14.56,-6.73 -1.08,-1.63 9.19,-9.73 -33.98,-38.13 -4.12,-2.7 -6.07,19.07 -10.65,16.78 -6.29,-3.13 -12.69,-6.38 -19.19,-9.72zm63.92 11.43c42.5,-19.36 185.75,22.21 274.54,-2.54 -39.19,60.8 -115.26,48.3 -274.54,2.54z"/>
   <path class="fil0" d="M3921.52 2006.58c44.39,-32.78 178.78,28.34 271.54,-13.52 -40.94,102.83 -105.19,90.86 -271.54,13.52zm44.67 10.26c30.75,-16.59 135.97,18.55 200.22,-2.65 -28.36,52.09 -84.97,41.83 -200.22,2.65z"/>
   <path class="fil0" d="M3562.42 2162.21c-6.65,128.49 -33.71,217.37 -119.7,348.6 -14.67,22.39 -12.39,35.18 -15.98,73.06 -41.79,3.29 -86.22,-15.9 -81.05,-58.17 -28.26,14.39 -68.27,37.97 -101.24,17.45 1.57,-42.03 24.31,-67.03 54.59,-92.91 -8.86,-1.7 -16.11,-11.7 -23.29,-32.25 12.33,-3.56 42.38,-6.5 72.59,-20.39 45.5,-20.91 97.23,-59.52 122.79,-130.11 4.03,-4 8.05,-8.03 12.02,-12.1 -6.12,76.22 -73.23,134.66 -124.45,157.25 -27.22,12.01 -59.54,11.19 -66.71,14.45 5.51,13.68 16.93,18.32 30.13,17.86 -28.31,26.32 -57.02,51.09 -57.41,89.26 34.6,6.79 71.75,-15.46 104.48,-43.69 -30.68,71.27 15.95,73.66 41.42,80.82 -0.69,-27.18 6.51,-58.94 18.25,-76.12 83.49,-122.49 112.78,-217.37 119.87,-314.93 4.66,-5.96 9.19,-12 13.69,-18.08z"/>
   <path class="fil0" d="M3336.88 2482.73c90.39,-47.46 167.47,-123.22 187.75,-272.85 -5.34,6.29 -10.76,12.53 -16.3,18.67 -9.49,125.32 -88.14,195.46 -171.45,254.18z"/>
   <path class="fil0" d="M3673.08 2274.77c-5.9,29.58 8.53,54.52 24.83,62.8 28.35,14.44 64.43,-12.12 49.63,-40.51 -10.22,-26.29 -53.62,-16.96 -40.23,16.49 -10.26,-12.2 -8.23,-28.65 1.13,-38.42 21.53,-22.53 51.06,-5.49 55.67,23.37 6.3,39.38 -32.19,61.33 -57.14,55.94 -27.77,-6 -48.84,-37.84 -33.89,-79.67z"/>
   <path class="fil0" d="M3595.58 2114.04c20.83,22.07 54.35,62.89 71.95,112.55 7.77,21.93 9.2,45.66 7.67,70.75 -1.68,27.57 -7.85,51.61 -13.06,78.3 -3.69,18.85 -3.54,39.79 16.31,50.47 -22.21,-4.05 -26.99,-18.58 -27.28,-33.7 -0.51,-27.83 3.35,-56.73 4.63,-84.57 1.15,-25.2 1.37,-49.04 -2.3,-66.85 -11.56,-56.06 -33.14,-89.72 -59.72,-124.11 0.61,-0.94 1.21,-1.9 1.8,-2.84z"/>
   <path class="fil0" d="M3572.89 2147.72c7.6,14.25 15.56,32.94 17.17,51.01 2.26,25.55 -10.08,79.9 -23.79,99.61 -5.77,8.3 -0.75,-15.12 -0.86,-16 1.34,-3.98 2.56,-7.89 3.71,-11.74 14.68,-49.24 14.26,-88.73 2.25,-120.76l1.52 -2.12z"/>
   <path class="fil0" d="M3546.82 2299.45c16.83,13.8 27.46,19.72 44.91,15.89 -11.28,5.41 -22.84,16.13 -28.22,39.66 10.84,2.56 39.98,13.78 52.67,2.97 -1.72,23.74 6.95,48.67 20.43,64.53 13.47,15.84 30.74,25.21 44.09,22.97 -2,-0.87 -3.06,-8.4 -5.33,-8.56 -26.7,-1.94 -34.82,-12.92 -41.08,-33.89 -5.83,-19.51 -0.9,-48.63 6.49,-83.21 -21.98,33.04 -44.6,29.34 -57.55,22.24 7.6,-25.73 20.68,-23.62 33.1,-50.56 -17.19,2.13 -33.76,20.07 -51.55,6.37 6.18,-10.9 13.57,-34.58 9.21,-45.49 -9.06,31.22 -18.73,41.84 -27.17,47.08z"/>
   <path class="fil0" d="M3604.42 2181.05c13.53,30.81 25.93,75.26 10.36,113.18 -3.41,8.29 -19.32,27.59 -19.45,26.7 1.34,-3.95 3.93,-20.06 6.59,-23.92 17.69,-25.77 13.85,-77.89 0.05,-116.81l2.45 0.85z"/>
   <path class="fil0" d="M3662.26 2193.01c20.38,18.36 49.44,42.33 50.69,75.42 0.3,7.27 -9.87,31.59 -10.26,30.96 -0.36,-3.37 -3.86,-16.11 -3.2,-19.84 4.4,-24.84 -16.01,-62.1 -39.32,-86.35l2.09 -0.19z"/>
   <path class="fil0" d="M3631.76 2366.84c-43.71,-44.34 -77.17,43.77 -129.36,21.6 33.47,77.81 101.03,41.14 129.36,-21.6zm-17.01 6.4c-19.98,-15.19 -66.77,39.16 -97.79,27.37 44.55,37.67 84.44,4.27 97.79,-27.37z"/>
   <path class="fil0" d="M3674.73 1978.08c-1.22,3.59 37.68,1.2 34.04,37.12 -3.66,35.9 25.52,46.67 25.52,46.67l-57.13 -13.16 -36.49 -13.75c4.88,-9.64 9.56,-19.41 14.08,-29.27 10.21,-14.71 20.61,-29.46 19.98,-27.61z"/>
   <path class="fil0" d="M2889.4 2081.66c0.9,0.92 3.17,7.52 3.84,6.11 29.17,-61.37 86.9,-18.11 66.71,19.39 -10.95,20.35 -44.92,20.16 -47.74,-1.56 -3.27,-19.33 27.08,-28.15 31,-3.41 1.98,-11.12 -5.41,-19.93 -14.95,-22.01 -21.97,-4.78 -34.33,16.67 -26.55,35.34 10.61,25.45 48.04,25.13 62.19,8.71 28.67,-33.25 8.66,-74.45 -33.05,-76.01 -34.59,-1.3 -39.39,34.97 -41.45,33.44z"/>
   <path class="fil0" d="M2991.62 2174.67c-15.03,-7.03 -29.29,7 -8.68,11.03 32.61,6.35 54.88,-26.07 39.9,-50.93 -10.07,-16.74 -39.66,-18.36 -44.87,5.26 -3.28,19.34 29.48,24.85 33.41,0.11 1.98,11.11 -4.45,21.35 -19.26,23.9 -22.19,3.79 -36.25,-17.62 -28.48,-36.28 10.61,-25.45 48.06,-25.12 62.19,-8.72 28.64,33.23 10.31,76.47 -34.37,75.6 -70.03,-1.38 -16.95,-47.33 0.16,-19.97z"/>
   <path class="fil0" d="M2847.78 2112.89c67.19,0 121.7,35.26 121.7,78.73 0,3.03 -0.27,6.01 -0.77,8.93 -5.24,1.12 -10.5,2.15 -15.79,3.13 0.54,-2.6 0.81,-5.26 0.81,-7.94 0,-36.72 -50.63,-71.51 -105.38,-71.51 -54.76,0 -105.97,34.23 -105.97,70.96 0,2.92 0.33,5.82 0.93,8.65 -5.51,-1.01 -11,-2.1 -16.46,-3.26 -0.52,-2.93 -0.79,-5.93 -0.79,-8.96 0,-43.47 54.51,-78.73 121.72,-78.73z"/>
   <path class="fil1" d="M2741.02 527.99c-1.88,-27.87 -33.97,-75.34 -68.97,-79.11 -13.45,-10.75 -70.74,-0.51 -88.07,15.39 -29.1,22.53 -46.49,76.69 -61.37,122.25 -16.31,49.99 -37.73,110.81 -75.78,161.79 -43.36,33.45 -72.97,-24.38 -90.84,49.54 -4.03,9.84 -1.47,27.84 -7.36,31.28 -5.91,3.43 -20.33,-7.68 -35.88,-6.28 -40.95,-13.6 -48.75,15.18 -55.43,25.97 -4.51,7.29 1.32,21.49 -6.66,26.11 -17.6,10.16 -48.07,7.27 -65.96,6.44 -17.08,-0.82 -57.98,3.17 -76.83,38.31 -10.05,18.74 -11.77,41.28 -5.63,60.03 5.42,16.52 43.78,44.23 63.64,49.6 14.47,6.08 -10.7,8.18 -17.21,5.74 -8.22,-3.07 -19.44,-8.32 -28.83,-12.43 -29.11,-12.7 -62.05,3.6 -94.63,1.15 -88.94,4.53 -211.28,12.13 -321.66,52.57 -109.18,39.99 -222.8,113.41 -292.38,253.66 -8.77,17.69 -28.1,64.08 -31.76,116.44 21.41,-34.75 47.75,-58.21 81.47,-80.16 -33.24,29.51 -69.49,86.19 -88.12,130.56 -15.27,36.32 -22.31,95.8 -0.65,138.41 3.29,57.62 -20.24,83.94 -30.34,140.51 0,0.05 10.87,24.67 7.67,57.83 -3.88,40.03 -26.26,90.91 -23.71,105.12 -50,-73.26 -55.67,-72.72 -27.16,-157.15 4.14,-12.24 44.77,-54.32 39.15,-152.86 -1.53,-26.67 -3.06,-53.36 -3.21,-80.8l0 -0.07 0 -7.14 0 -0.07c0.17,-41.83 5.4,-77.06 15.26,-111.22 9.81,-34.06 24.06,-66.71 42.37,-103.63 74.29,-149.73 186.34,-228.73 303.1,-271.49 115.53,-42.32 234.56,-48.69 325.82,-53.37 37.35,-1.88 45.83,-48.26 58.93,-72.66 29.39,-54.74 67.74,-69.57 98.38,-68.14 24.78,1.16 47.25,0.94 61.09,-21.44 8.13,-14.71 15.38,-29.34 41.56,-33.7 20.54,-3.42 42.11,10.01 50.45,-12.24 6.14,-16.39 13.34,-35.59 38.97,-47.4 12.04,-5.54 22.97,-8.23 33.21,-10.76 12.46,-3.05 23.61,-5.78 30.42,-13.56 37.54,-42.82 54.38,-94.39 69.65,-141.16 16.64,-50.98 31.59,-96.76 69.13,-125.81 13.86,-10.72 30.32,-18.02 47.65,-21.61 20.05,-4.13 41.31,-3.25 61.16,3.15 20.07,6.47 38.68,18.49 53.13,36.59 11.42,14.3 20.17,32.37 24.84,54.37l2.51 18.37c1.65,11.96 -0.6,13.9 -9.95,6.98 -15.69,-11.64 -26.16,-3.67 -38.94,-14.52 -11.95,9.68 -11.63,34.23 -28.09,25.91 -5.35,-2.71 7.86,-11.26 -0.15,-26.64 -15.88,-30.39 -51.05,-26.03 -58.82,-3.17 -11.93,35.1 -15.64,116.73 -25.04,174.18 -5.75,35.03 -10.94,66.77 -16.45,87.91l0 0.07 -0.04 0.11c-22.35,85.27 -84,97.5 -129.58,138.75 -25.88,23.4 -14.95,53.74 -21.02,82.95 -4.63,22.37 -40.06,56.08 -94.64,62.19 -4.15,-1.62 44.6,-27.99 63.21,-49.97 13.59,-16.02 15.44,-36.14 15.12,-42.92l0 -0.07c-1.17,-24.94 1.25,-41.16 23.14,-60.96 30.13,-27.25 91.49,-61.93 110.56,-93.19 40.67,-66.63 35.36,-167.66 49.02,-243.66 7.59,-42.24 18.01,-75.21 38.32,-84.08 44.5,-19.45 74.59,35.55 102.23,23.21z"/>
   <path class="fil1" d="M1372.39 1631.82c19.62,44.74 34.75,123.94 25.41,160.42 -9.2,35.86 -23.27,69.5 -38.63,106l0.02 0.01 -0.07 0.15 -0.07 0.07c-6.86,16.35 -9.43,34.85 -10.03,52.87 -0.25,7.06 -1.76,17.65 17.3,20.28 0.13,4.14 -17.61,8.76 -18.42,12.8 -2.91,14.43 -10.52,28.07 -13.65,40.06l-2.06 7.72c-5.75,20.81 16.87,21.66 22.37,21.47l82.81 -6.88c1.54,6.15 45.27,12.84 36.9,-16.88 -3.67,-13.01 -17.07,-28.18 -36.13,-20.9 -2.15,-9.96 48.11,-17.65 48.96,32.34 0.16,9.41 29.37,8.32 29.36,-1.54 -5.4,-35.98 -15.14,-45.53 -36.38,-36.79 -1.69,-3.13 7.68,-12.39 6.43,-15.35 -2.49,-5.92 -15.44,-6.13 -17.12,-12.82 38.13,-33.13 -9.19,-38.64 -4.96,-49.04 21.25,-52.02 39.8,-85.61 75.43,-120.87 16.38,-16.18 37,-35.34 50.23,-57.55 9.69,-16.31 16.96,-36.88 23.77,-81.89 16.66,-51.84 64.98,-206.11 120.87,-224.03 -6.79,7.92 -15.29,21.46 -23.82,37.36 -4.1,7.61 -8.2,15.79 -12.12,24.15 -16.97,36.21 -30.62,76.05 -25.83,90.63 3.55,10.86 9.6,26.11 8.19,36.24 -0.52,3.92 8.87,16.36 5.62,13.85 -23.88,-18.29 -51.05,16 -50.78,34.59 -5.34,79.04 -11.28,57.76 -87.17,138.03 -16.74,17.71 -24.76,38.17 -35.95,57.84 -11.47,20.14 -15.29,49.65 -12.08,76.28 0.67,5.65 1.66,11.07 2.92,16.1 1.24,4.92 2.78,9.62 4.61,13.97 1.01,2.37 2,4.44 2.91,6.16l3.1 5.69 0.01 -0.02c9.3,17.03 15.99,29.33 16.42,41 0.82,22.26 -12.9,31.8 -52.27,33.21l-127.43 4.58c-32.16,1.13 -42.5,-5.42 -43.26,-25.93 -0.24,-6.94 1.61,-13.68 4.11,-22.71 1.16,-4.22 1.61,-5.68 2.04,-7.34 2.78,-10.56 11.22,-25.67 10.72,-42.07 -1.41,-45.82 11.27,-83.56 26.05,-121.5 21.6,-55.44 43.23,-102.84 21.67,-219.76z"/>
   <path class="fil1" d="M1726.43 1721.97c20.05,47.82 46.31,115.65 19.27,151.46 -9.9,20.1 -27.25,26.56 -19.97,50.14l0.02 -0.01c7.38,15.23 53.63,79.09 33.36,91.75l0.01 0.03c-3.12,1.95 -6.65,2.98 -10.65,3.05 -62.19,1.15 -266.94,46.33 -166.33,-76.6 26.36,-42.24 -13.82,-85.53 -41.28,-115.31l19.64 -21.29c24.85,35.83 63.97,88.7 43.42,134.17 -1.74,3.83 12.95,4.87 10.38,9.02 -1.13,1.79 -19.1,6.68 -20.2,8.71 -37.55,68.88 60.76,47.45 100.56,47.22 -13.81,-13.06 -12.43,-26.12 0.14,-39.18 -6.6,31.93 25.07,44.7 55.42,40.24 11.68,-28.24 -47.76,-48.33 -56.53,-67.07 0,-0.02 4.11,-30.61 1.46,-31.39 -52.62,-15.46 4.57,-13.45 11.9,-16.59 58.84,-25.09 5.17,-140.33 -16.78,-174.1l3.38 -2.16c10.36,3.44 21.66,9.21 32.78,7.91z"/>
   <path class="fil1" d="M1624.94 1710.77c52.57,12.05 135.25,16.22 197.93,-9.54 63.31,-26.04 94.76,-47.91 177.16,-107.02 1.98,-1.41 24.65,-22.68 26.68,-24.14l11.54 22.6c-93.01,65.16 -139.57,91.92 -207.13,119.69 -69.72,28.66 -150.46,23.73 -210.77,9.92l4.59 -11.51z"/>
   <path class="fil0" d="M1671.04 1556.75c12.42,150.93 158.12,86.94 287.74,40.74 -63.77,56.31 -245.52,118.38 -307.97,11.43 0,0 21.56,-53.49 20.23,-52.17z"/>
   <path class="fil1" d="M1594.26 1165.32c93.9,-47.58 184.66,-77.76 289.45,-116.99 -82.6,12.15 -207.99,52.03 -302.57,111.17 -66.84,41.81 -137.17,119.21 -164.38,193.4 45.36,-44.42 80.6,-138.46 177.5,-187.58z"/>
   <path class="fil1" d="M2219.53 1253.74c0.23,11.86 30.52,119.85 30.55,131.51 0.23,112.98 -9.44,217.73 -39.13,323.85 -2.7,9.78 -13.15,47.27 -20.13,83.71 -9.84,51.51 -10.36,91.19 0.17,115.45 25.52,20.02 41.41,34.55 43.37,52.07 2.18,19.37 4.16,27.98 -7.25,32.53 -0.54,-0.95 -1.09,-1.88 -1.63,-2.8l-191.68 0c1.58,3.61 3.2,7.2 4.82,10.79 -11.67,-1.04 -19.58,-3.65 -21.17,-9.3 -0.06,-0.15 -7.1,-28.23 8.71,-54.94 14.33,-43.81 15.57,-98.42 9.35,-161.69 -4.82,-49.2 -5.53,-113.15 2.06,-152.51 -13.52,-8.8 -32.88,-57.08 -12.88,-146.6 9.59,-42.85 -0.31,-85.32 1.55,-101.83 13.78,32.33 18.89,90.31 11.23,142.98 -3.97,27.43 -4.16,46.21 7.18,73.47 21.49,31.47 56.08,8.57 53.08,-45.04 19.72,74.5 -29.87,80.65 -45,82 -7.56,38.98 -2.67,160.13 3.81,210.8 1.15,13.72 3.33,26 4.36,38.22 1.68,20.3 21.58,27.66 21.38,30.75 -0.4,5.52 -21.86,3.28 -23.34,9.23 -9.51,9.29 -11.74,19.33 -17.52,30.59 -8.64,14.62 -1.83,28.9 4.26,35.21 10.36,10.73 74.99,4.46 89.73,2.09 61.02,-1.4 38.7,-44.7 20.57,-58.7 14.86,4.01 51.04,27.79 27.33,55.19 27.62,6.87 34.87,2.11 38.38,-7.26 -9.79,-52.38 -41.92,-37.7 -50.64,-48.61 -5.55,-7 -7.98,-22.14 -8.19,-41.89 -0.18,-20.92 -18.42,-24.83 -13.22,-27.11 14.55,-6.38 15.6,-17.7 16.22,-23.36 3.36,-30.56 9.25,-64.14 16.01,-93.91 3.04,-13.45 6.26,-26.18 9.42,-37.46 3.2,-11.56 6.37,-21.54 9.3,-29.29l0.07 -0.22 0.03 -0.06c18.61,-49.6 31.82,-217.73 25.02,-286.54l-6.18 -131.32zm-18.84 417.86l0.02 0 -0.02 0z"/>
   <path class="fil1" d="M2290.24 1267.75c58,84.57 112.69,180.47 184.88,249.34 35.73,34.11 89.71,84.4 96.97,116.61l0.03 0.14 0.06 0.08c3.45,15.46 2.94,38.53 2.41,61.95 -0.63,27.7 -1.26,54.42 0.47,62.77l3.49 0.32 0.07 0.13c2.52,3.49 4.74,7.12 6.66,10.8 1.89,3.6 3.51,7.25 4.87,10.81 22.04,57.6 -16.46,50.4 -50.58,52.08 -19.17,0.96 -42.82,2.41 -61.81,2.41 -37.52,0 -69.24,2.02 -71.78,-13.05l-0.02 -0.18 -1.63 -4.03c-6.18,-30.32 12.18,-43.96 22.21,-60.45 4.02,-18.85 -2.36,-54.06 -9.17,-61.85l-0.08 -0.07 -0.03 -0.02 0 0c-1.02,-1.19 0.24,-7.96 -2.49,-10.53 -27.58,-26.09 -61.69,-59.03 -91.86,-84.27 -13.66,-11.4 -34.89,-28.98 -47.63,-31.43 -12.55,-2.43 -26.63,-3.65 -44.17,3.14l-11.25 -12.43c24.09,-9.31 44.46,-11.84 63.84,-8.11 19.24,3.72 36.51,13.44 54.71,28.67 25.92,21.65 52.69,55.59 75.33,75.84 4.25,3.77 17.13,10.56 20.65,13.93 3.47,3.23 7.83,0.39 9.66,2.49l0.09 0.06 0.02 0.04 -0.01 0c7.51,8.65 -4.32,30.11 -2.88,47.78 1.69,20.98 -3.24,21.68 9.47,46.32 -16.53,8.03 -32.67,16.73 -27.94,40.05 5.97,29.68 79.44,14.86 96.46,14.86 25.89,9.61 4.24,-18.78 17.02,-27.14 8.43,36.41 30.61,19.84 37.3,19.32 23.1,-11.4 1.41,-46.1 -33.46,-51.54 21.99,-18.28 12.75,-35.16 -0.84,-41.77 21.86,-3.3 21.85,-75.8 1.7,-101.19 -35.34,-44.56 -52.66,-65.88 -83.35,-95.18 -10.12,-9.66 -40.45,-50.19 -52.38,-52.68 -19.89,-4.14 -21.2,38.59 -25.94,13.66 -3.85,-20.16 4.92,-31.38 -2.71,-51.26 -19.46,-50.8 -63.67,-108.27 -90.14,-147.06l3.78 -19.36z"/>
   <path class="fil0" d="M2351.4 1207.95c0,0 -53.57,19.92 -59.21,66.22 -5.66,46.3 -52.83,123.34 -52.83,123.34 -14.42,-62.7 41.33,-82.64 38.19,-124.93 -1.44,-19.8 13.4,-42.64 23.57,-51.91l50.28 -12.72z"/>
   <path class="fil0" d="M2225.11 1107.52c-4.85,29.91 -27.92,60.23 -17.74,87.74 27.71,74.96 5.58,85.65 11.84,127.33 8.61,57.34 10.41,83.45 -38.4,45.24 -26.43,-20.69 -36.77,-59.91 -98.95,-69.72 -117.39,-18.5 -126.57,-65.18 -126.29,-65.43l20.62 -17.62c0.22,10.16 5.07,-6.47 7.84,0.92 10.39,27.91 36.25,38.55 58.86,50.3 51.02,26.59 94.18,27.25 157.3,89.62 9.4,-37.89 4.91,-82.11 -6.85,-143.83 -6.83,-36 18.42,-61.51 31.77,-104.55z"/>
   <path class="fil0" d="M2301.45 1889.3c176.22,-135.46 355.73,-62.82 493.62,106.49 5.6,6.88 2.55,11.34 8.05,18.56 -142.71,-168.09 -336.15,-258.84 -503.05,-106.35 -47.07,43 -84.21,32.38 -126.61,45.43 59.82,-47.03 84.57,-30.77 127.99,-64.13z"/>
   <path class="fil0" d="M2172.22 1937.7c41.15,-13.46 74.71,62.7 132,22.02 -15.05,36.28 -13.98,63.04 0.05,97.27 0.59,1.42 20.08,-147.89 147.2,-182.39 127.74,-34.67 245.58,28.25 344.73,145.87 4.82,5.7 2.18,9.19 6.92,15.17 -105.5,-120.21 -229.83,-184.97 -361.59,-134.29 -86.37,33.24 -115.32,104.61 -129.11,184.09 -3.53,20.26 -45.6,-46.58 -24.14,-103 -73.73,14.4 -109.51,-42.57 -116.06,-44.74z"/>
   <path class="fil0" d="M2794.19 2058.91c-40.15,-53.91 -133.73,-123.2 -205.52,-136.12 -62.6,-11.28 -119.11,15.35 -126.72,95.03 -21,-11.44 -32.31,6.69 -55.26,-17.17 -3.87,17.15 -12.39,29.37 -23.83,42.29 -4.02,3.04 -8.49,6.81 -13.57,11.35l-18.91 18.27c-20.32,-36.26 -21.61,-75.15 19.48,-126.33 -22.14,44.4 -28.61,79.41 -11.64,92.6 21.01,-4.46 35.89,-29.24 46.54,-59.17 13.25,22.9 31.35,14.31 48.47,20.99 11.83,-77.58 73.79,-99.81 136.65,-88.44 67.38,12.18 175.57,84.76 202.37,140.97 0,0 -0.98,6.68 1.94,5.73z"/>
   <path class="fil1" d="M2758.83 2057.41c-1.61,0.93 -75.98,-23.77 -136.87,-23.86 -47.19,-0.05 -43.16,39.26 -93.26,49.34 -16.1,3.25 -36.63,4.21 -51.66,-3.26 -24.22,-12.01 -29.84,-39.82 0.71,-49.89 20.49,-6.75 34.1,7.13 34.44,28.81 20.07,-2.63 16.18,-55.71 -33.99,-47.08 -28.34,7.76 -36.64,33.67 -28.22,54.83 10.54,9.77 21.44,19.14 32.7,28.11 14.23,3.73 31.5,2.4 45.65,-0.52 44.92,-9.28 47.42,-41.63 94.18,-45.26 41.73,-3.25 89.32,6.16 115.26,12.29 9,2.12 -9.76,9.65 10.46,-0.54l10.6 -2.97z"/>
   <path class="fil0" d="M2772.96 2047.93c-44.5,-35.17 -92.64,-69.68 -154.73,-71.26 -30.81,-0.78 -75.52,3.06 -94.42,57.87 -1.96,5.67 -5.13,13.07 -9.97,20.14 -3.66,5.37 -9.61,9.76 -13.53,8.63 16.88,9.08 22.95,-2.1 26.76,-11.53 19.7,-48.71 46.1,-64.61 91.81,-64.02 61.7,0.77 111.78,32.07 153.44,70.18l0.64 -10.01z"/>
   <path class="fil0" d="M2585.27 2056.11c-22.66,23.13 -22.84,54.29 -11.69,71.55 19.41,30.05 69.84,27.78 71.64,-6.74 5.06,-29.84 -42.64,-47.46 -48.7,-9.27 -3.04,-17.17 8.36,-30.77 23.07,-33.98 33.93,-7.39 52.99,25.69 40.98,54.51 -16.38,39.3 -66.53,35.99 -87.79,16.15 -23.69,-22.07 -26.03,-63.45 12.49,-92.22z"/>
   <path class="fil0" d="M2800.28 2120.14c4.83,0.95 10.26,-3.77 10.43,-5.67 5,-50.69 -20.7,-182.32 -70.28,-203.72 26.82,-17.42 42.69,-3.57 57.22,13.01 17.55,20.03 26.86,102.14 30.36,104.89 0,-5.94 -13.46,-70.95 -9.45,-118.27 1.59,-19 15.35,-40.79 30.19,-52.26l0 -11.39c-26.37,16.53 -42.47,35.39 -42.47,62.4 -26.04,-17.93 -46.04,-26.62 -87.43,-3.01 52.33,28.54 98.49,163.76 81.43,214.02z"/>
   <path class="fil0" d="M1466.97 2261.1c220.87,147.46 445.87,68.38 618.7,-115.96 7.04,-7.49 3.2,-12.34 10.1,-20.2 -178.88,183.02 -418.43,278.94 -627.61,112.95 -59.01,-46.83 -101.92,-23.15 -136.99,14.03 56.16,-16.57 81.4,-27.15 135.8,9.18z"/>
   <path class="fil0" d="M1333.24 2250.83c11.8,-47.93 27.76,-98.6 117.66,-70.8 -18.86,-36.24 -15.94,-39.63 -22.63,-78.25 -0.15,-0.84 25.18,36.04 76.55,79.4 37.5,31.65 88.43,69.77 155.58,84.39 134.79,29.33 284.09,-22.49 404.82,-126.96 11.01,-9.54 21.5,-19.32 31.77,-29.24 -1.07,-1.67 -2.14,-3.35 -3.18,-5.03 -10.79,10.28 -21.91,20.41 -33.85,30.13 -124.59,101.33 -269.64,157.6 -420.09,111.43 -45.66,-14.02 -88.76,-43.88 -122.61,-76.15 -46.38,-44.24 -79.76,-90.99 -118.33,-89.34 17.72,42.05 8.23,44.59 23.87,77.98 -92.42,-14.41 -98.71,67.43 -89.56,92.44z"/>
   <path class="fil0" d="M1438.49 2103.78c9.96,-15.49 42.4,13.67 59.71,19.49 -17.34,-36.26 10.51,-44.34 32.49,-49.47 1.88,-0.42 19.24,104.31 165.6,138.95 126.51,29.96 266.99,-29.84 379.2,-139.23 -1.02,-1.78 -2.01,-3.57 -3.01,-5.37 -116.62,106.67 -254.09,169.56 -396,122.18 -99.5,-33.21 -129.59,-99.6 -142.92,-138.06 -20.34,2 -59.95,22.58 -45.57,55.99 -32.77,-27.63 -69.53,-29.58 -80.97,-25.56l31.47 21.08z"/>
   <path class="fil0" d="M2053.91 2033.09c-41.33,18.41 -103.83,30.99 -148.11,22.91 -59.43,-10.86 -97.66,-54.99 -86.57,-99.41 -15.38,0.19 -54.85,7.01 -49.15,60.85 3.33,-21.56 16.47,-47.14 36.29,-46.78 -10.27,38.72 31.59,82.75 102.63,94.34 44.6,7.27 105.93,-4.37 147.16,-25.4 0.32,-0.13 0.6,-0.28 0.86,-0.41 -1.02,-2.02 -2.09,-4.05 -3.11,-6.1z"/>
   <path class="fil0" d="M2024.04 2112.39c-21.56,13.19 -54.03,31.51 -79.56,40.12 -64.39,21.66 -148.62,6.53 -182.94,0.07 -13.66,-2.57 -30.95,11.07 -37.33,23.77 -13.27,-2.44 -34.2,-39.01 1.04,-73.09 10.65,2.79 15.6,2.96 16.35,4.93 -7.62,2.83 -13.76,5.3 -18.78,10.77 -11.93,12.95 -11.42,30.7 2.57,34.62 22.89,-26.01 52.43,-13.96 81.45,-5.82 37.66,10.6 92.92,11.54 136.82,-1.21 27.33,-7.94 56.57,-26.16 81.18,-38.67 4.4,2.82 0.64,3.62 -0.8,4.51z"/>
   <path class="fil0" d="M1725.99 2105.88c-33.56,-8.24 -44.19,-51.05 -62.44,-61.97 41.62,-40.34 127.42,54.55 207.74,57.77 56.63,2.3 124.83,-13.37 191.84,-50.71 1.3,2.45 2.6,4.89 3.92,7.32 -108.75,63.11 -239.08,72.08 -340.49,4.08 -12.35,-8.28 -24.8,-15.41 -38.71,-14.41 21.34,23.18 15.04,35.84 55.23,59.84l-17.09 -1.92z"/>
   <path class="fil0" d="M1802.09 2046.01c-23.04,-16.09 -28.62,-24.9 -80.53,1.37l-14.81 -9.97c48.67,-23.97 63.78,-28.17 95.34,8.6z"/>
   <path class="fil0" d="M1775.97 2006.58c-44.39,-32.78 -178.78,28.34 -271.54,-13.52 40.94,102.83 105.19,90.86 271.54,13.52zm-44.67 10.26c-30.75,-16.59 -135.97,18.55 -200.22,-2.65 28.36,52.09 84.97,41.83 200.22,2.65z"/>
   <path class="fil0" d="M2135.22 2165.06c6.91,126.95 34.2,215.48 119.55,345.75 14.67,22.39 12.39,35.18 15.97,73.06 41.8,3.29 86.23,-15.9 81.06,-58.17 28.26,14.39 68.24,37.97 101.24,17.45 -1.57,-42.03 -24.32,-67.03 -54.59,-92.91 8.86,-1.7 16.08,-11.7 23.26,-32.25 -12.3,-3.56 -42.35,-6.5 -72.57,-20.39 -44.85,-20.6 -95.74,-58.43 -121.65,-127.12 -4.37,-4.25 -8.71,-8.58 -12.98,-12.91 7.22,75.14 73.56,132.7 124.27,155.07 27.23,12.01 59.55,11.19 66.7,14.45 -5.51,13.68 -16.91,18.32 -30.11,17.86 28.31,26.32 57.02,51.09 57.41,89.26 -34.6,6.79 -71.75,-15.46 -104.49,-43.69 30.69,71.27 -15.94,73.66 -41.41,80.82 0.68,-27.18 -6.53,-58.94 -18.25,-76.12 -82.73,-121.35 -112.23,-215.6 -119.69,-312.2 -4.63,-5.92 -9.21,-11.92 -13.72,-17.96z"/>
   <path class="fil0" d="M2360.6 2482.73c-89.83,-47.19 -166.55,-122.3 -187.39,-270.15 5.3,6.19 10.67,12.31 16.12,18.34 10.32,123.83 88.51,193.46 171.27,251.81z"/>
   <path class="fil0" d="M2024.41 2274.77c5.9,29.58 -8.54,54.52 -24.83,62.8 -28.36,14.44 -64.43,-12.12 -49.64,-40.51 10.23,-26.29 53.63,-16.96 40.24,16.49 10.26,-12.2 8.23,-28.65 -1.13,-38.42 -21.53,-22.53 -51.06,-5.49 -55.68,23.37 -6.3,39.38 32.2,61.33 57.14,55.94 27.78,-6 48.86,-37.84 33.9,-79.67z"/>
   <path class="fil0" d="M2100.74 2115.27c-20.89,22.35 -53.5,62.57 -70.78,111.32 -7.77,21.93 -9.2,45.66 -7.67,70.75 1.68,27.57 7.85,51.61 13.06,78.3 3.69,18.85 3.54,39.79 -16.31,50.47 22.21,-4.05 26.97,-18.58 27.27,-33.7 0.52,-27.83 -3.35,-56.73 -4.63,-84.57 -1.14,-25.2 -1.36,-49.04 2.32,-66.85 11.4,-55.32 32.55,-88.83 58.67,-122.74 -0.66,-1 -1.31,-1.97 -1.93,-2.98z"/>
   <path class="fil0" d="M2123.78 2149.3c-7.35,14.02 -14.8,32 -16.35,49.43 -2.26,25.55 10.08,79.9 23.77,99.61 5.79,8.3 0.77,-15.12 0.88,-16 -1.34,-3.98 -2.56,-7.89 -3.71,-11.74 -14.41,-48.3 -14.26,-87.24 -2.91,-118.93l-1.68 -2.37z"/>
   <path class="fil0" d="M2150.67 2299.45c-16.82,13.8 -27.46,19.72 -44.91,15.89 11.27,5.41 22.84,16.13 28.22,39.66 -10.84,2.56 -39.98,13.78 -52.67,2.97 1.72,23.74 -6.95,48.67 -20.43,64.53 -13.48,15.84 -30.74,25.21 -44.09,22.97 2,-0.87 3.06,-8.4 5.32,-8.56 26.71,-1.94 34.83,-12.92 41.09,-33.89 5.83,-19.51 0.9,-48.63 -6.49,-83.21 21.98,33.04 44.59,29.34 57.55,22.24 -7.6,-25.73 -20.68,-23.62 -33.1,-50.56 17.19,2.13 33.75,20.07 51.55,6.37 -6.18,-10.9 -13.57,-34.58 -9.23,-45.49 9.08,31.22 18.75,41.84 27.19,47.08z"/>
   <path class="fil0" d="M2093.07 2181.05c-13.53,30.81 -25.95,75.26 -10.37,113.18 3.4,8.29 19.33,27.59 19.44,26.7 -1.33,-3.95 -3.92,-20.06 -6.57,-23.92 -17.69,-25.77 -13.85,-77.89 -0.06,-116.81l-2.44 0.85z"/>
   <path class="fil0" d="M2035.23 2193.01c-20.39,18.36 -49.44,42.33 -50.72,75.42 -0.27,7.27 9.9,31.59 10.29,30.96 0.36,-3.37 3.86,-16.11 3.2,-19.84 -4.4,-24.84 16.01,-62.1 39.31,-86.35l-2.08 -0.19z"/>
   <path class="fil0" d="M2065.73 2366.84c43.71,-44.34 77.17,43.77 129.36,21.6 -33.47,77.81 -101.04,41.14 -129.36,-21.6zm16.99 6.4c20,-15.19 66.79,39.16 97.81,27.37 -44.55,37.67 -84.44,4.27 -97.81,-27.37z"/>
   <path class="fil0" d="M2022.76 1978.08c1.21,3.59 -37.68,1.2 -34.04,37.12 3.66,35.9 -25.52,46.67 -25.52,46.67l57.11 -13.16 34.87 -13.12c-6.27,-12.41 -12.22,-25.01 -17.92,-37.76 -8.12,-11.62 -15.02,-21.26 -14.5,-19.75z"/>
   <path class="fil0" d="M2808.1 2081.66c-0.93,0.92 -3.19,7.52 -3.85,6.11 -29.17,-61.37 -86.9,-18.11 -66.72,19.39 10.96,20.35 44.93,20.16 47.75,-1.56 3.27,-19.33 -27.08,-28.15 -31,-3.41 -1.98,-11.12 5.41,-19.93 14.95,-22.01 21.97,-4.78 34.32,16.67 26.55,35.34 -10.62,25.45 -48.04,25.13 -62.19,8.71 -28.67,-33.25 -8.66,-74.45 33.05,-76.01 34.59,-1.3 39.39,34.97 41.46,33.44z"/>
   <path class="fil0" d="M2705.87 2174.67c15.03,-7.03 29.28,7 8.68,11.03 -32.61,6.35 -54.88,-26.07 -39.91,-50.93 10.08,-16.74 39.67,-18.36 44.88,5.26 3.28,19.34 -29.49,24.85 -33.41,0.11 -1.98,11.11 4.45,21.35 19.26,23.9 22.17,3.79 36.25,-17.62 28.48,-36.28 -10.61,-25.45 -48.06,-25.12 -62.2,-8.72 -28.63,33.23 -10.3,76.47 34.38,75.6 70.03,-1.38 16.95,-47.33 -0.16,-19.97z"/>
   <path class="fil1" d="M2847.77 2230.67l-0.07 0 0 -0.04c-80.65,0 -157.57,-16.05 -227.68,-45.09 -11.7,-4.84 -22.95,-9.93 -33.69,-15.19l0 -0.02c-56.74,-27.77 -108.39,-64.34 -153.15,-107.88 -13.17,-12.81 -21.11,-20.17 -27.66,-20.7l-0.02 0c-6.56,-0.52 -15.08,5.39 -30.25,18.98l-32.42 31.31 -0.12 0.12 -1.75 1.62c-1.88,1.72 -3.69,3.4 -5.05,4.73 -9.04,8.88 -12.24,17.37 13.48,42.73l0.02 0 0.05 0.05 0 0.02c17.88,17.65 36.73,34.38 56.47,50.07 19.73,15.72 40.31,30.38 61.67,43.94 109.85,69.72 240.29,110.16 380.17,110.16l0 -0.05 0.08 0 0 0.05c97.11,-0.01 189.71,-19.52 274.01,-54.78 13.86,-5.81 27.38,-11.96 40.51,-18.46 68.21,-33.75 130.19,-78.14 183.77,-130.96 25.74,-25.4 22.54,-33.89 13.48,-42.77l-0.02 0c-1.93,-1.91 -3.43,-3.29 -5.02,-4.73l-1.74 -1.62 -0.14 -0.12 -32.4 -31.31c-15.18,-13.59 -23.69,-19.5 -30.26,-18.98l-0.03 0c-6.53,0.53 -14.46,7.88 -27.61,20.66l0.03 0.02 -0.05 0.03 -0.07 0.05c-15.02,14.59 -30.75,28.38 -47.16,41.28 -16.32,12.83 -33.48,24.92 -51.39,36.17 -91.53,57.46 -199.88,90.71 -315.99,90.71zm-0.07 -17.43l0 -0.02 0.07 0c112.7,0 217.79,-32.21 306.51,-87.91 17.12,-10.77 33.79,-22.5 49.87,-35.16 15.97,-12.56 31.24,-25.92 45.7,-40l-0.01 -0.01 0.06 -0.06 0.06 -0.02c16.08,-15.64 26.04,-24.66 38.63,-25.68l0 0c12.58,-1.03 24.47,6.33 43.6,23.46l0.24 0.24 32.52 31.41 0 -0.01 1.75 1.62c2.06,1.91 4.1,3.78 5.42,5.08l-0.02 0.02c16.6,16.32 23.58,30.84 -13.44,67.34 -54.89,54.15 -118.43,99.63 -188.39,134.23 -13.73,6.79 -27.58,13.1 -41.5,18.93 -86.37,36.15 -181.32,56.14 -280.92,56.16l0 0.03 -0.08 0 0 -0.03c-143.44,0 -277.13,-41.43 -389.71,-112.89 -21.88,-13.91 -43,-28.94 -63.2,-45.02 -20.2,-16.07 -39.53,-33.22 -57.91,-51.34l-0.01 0 -0.06 -0.03 0 -0.04c-37.05,-36.51 -30.06,-51.02 -13.43,-67.36 1.91,-1.88 3.63,-3.46 5.38,-5.08l1.75 -1.62 0 0.01 32.53 -31.41 0.24 -0.24c19.13,-17.13 31.03,-24.49 43.59,-23.46l0 0c12.6,1.02 22.55,10.04 38.63,25.68 43.44,42.25 93.55,77.72 148.62,104.69l0.03 0c10.99,5.38 21.89,10.31 32.66,14.79 67.99,28.15 142.58,43.7 220.82,43.7z"/>
   <path class="fil1" d="M2847.77 2531.43l-0.08 0 0 -0.05c-92.11,-0.01 -180.93,-13.85 -264.49,-39.56 -40.75,-12.52 -80.33,-27.94 -118.51,-45.96 -195.91,-92.51 -352.73,-253.76 -439.01,-452.4l-5.28 -12.12 13.4 0 191.68 0 5.22 0 2.51 4.53 0.01 -0.02c17.02,29.9 36.12,58.39 57.09,85.28 21.03,26.89 43.99,52.28 68.67,75.88 126.82,121.32 299.07,195.92 488.79,195.92l0 -0.03 0.07 0 0 0.03c87.78,-0.01 171.87,-16.01 249.5,-45.24 25.38,-9.57 49.97,-20.48 73.58,-32.62 122.27,-62.83 223.74,-160.27 291.42,-279.28l2.53 -4.45 5.18 0 191.69 0 13.4 0 -5.27 12.12 -0.03 0.08c-19.27,44.34 -42.03,86.79 -67.91,126.97 -25.84,40.13 -54.92,78.15 -86.86,113.68 -163.91,182.38 -402.14,297.18 -667.3,297.19l0 0.05zm-0.08 -17.43l0 -0.03 0.08 0 0 0.03c259.9,0 493.39,-112.56 654.08,-291.34 31.19,-34.69 59.68,-71.97 85.15,-111.49 23.06,-35.8 43.54,-73.36 61.21,-112.38l-173 0c-69.3,119.86 -172.29,218.04 -296.12,281.68 -24.52,12.61 -49.72,23.82 -75.45,33.51 -79.49,29.94 -165.71,46.32 -255.8,46.34l0 0.03 -0.07 0 0 -0.03c-194.54,-0.02 -371.13,-76.47 -501.12,-200.84 -25.27,-24.16 -48.77,-50.14 -70.32,-77.73 -20.55,-26.31 -39.3,-54.05 -56.02,-82.96l-172.98 0c85.65,189.18 236.95,342.62 424.99,431.39 37.25,17.59 76.06,32.68 116.14,45.02 81.96,25.21 169.03,38.8 259.23,38.8z"/>
   <path class="fil0" d="M3672.78 1978.08c-1.22,3.59 37.67,1.2 34.04,37.12 -3.66,35.9 25.52,46.67 25.52,46.67l-57.13 -13.16 -41.33 -15.57c0,0 40.11,-58.65 38.9,-55.06z"/>
   <path class="fil1" d="M2122.62 2062.41l56.32 -34.65 26.08 41.11 -9.54 5.87 -18.97 -29.92 -12.49 7.69 17.66 27.83 -9.47 5.84 -17.67 -27.84 -15.33 9.43 19.66 30.97 -9.49 5.84 -26.76 -42.17zm50.84 39.34l8.71 9.65c-3.1,3.16 -4.75,6.3 -4.99,9.4 -0.25,3.1 0.8,6.27 3.21,9.52 2.52,3.43 5.18,5.5 7.95,6.16 2.78,0.71 5.14,0.34 7.12,-1.08 1.28,-0.9 2.08,-2.04 2.42,-3.41 0.37,-1.37 0.19,-3.21 -0.49,-5.5 -0.48,-1.57 -1.82,-5 -3.98,-10.25 -2.78,-6.74 -3.96,-12.03 -3.57,-15.84 0.56,-5.36 2.97,-9.57 7.22,-12.6 2.74,-1.96 5.85,-3.03 9.36,-3.2 3.5,-0.18 6.95,0.73 10.33,2.7 3.36,1.99 6.53,5.01 9.53,9.07 4.92,6.65 7.11,12.69 6.65,18.17 -0.5,5.47 -3.15,10.06 -7.96,13.75l-8.35 -10.33c2.42,-2.43 3.69,-4.83 3.77,-7.2 0.12,-2.38 -0.94,-5.06 -3.17,-8.06 -2.28,-3.1 -4.72,-5.09 -7.31,-5.91 -1.66,-0.55 -3.19,-0.31 -4.59,0.69 -1.26,0.91 -1.97,2.21 -2.09,3.93 -0.15,2.16 1.05,6.29 3.67,12.38 2.58,6.09 4.11,10.85 4.63,14.29 0.49,3.45 0.12,6.69 -1.16,9.76 -1.27,3.05 -3.6,5.8 -6.99,8.23 -3.07,2.19 -6.58,3.42 -10.5,3.66 -3.94,0.22 -7.71,-0.71 -11.27,-2.87 -3.58,-2.13 -7.07,-5.5 -10.47,-10.1 -4.93,-6.69 -7.15,-12.95 -6.65,-18.77 0.48,-5.83 3.48,-11.27 8.97,-16.24zm33.2 77.34l42.26 -34.92 -12.67 -14.85 8.64 -7.11 33.9 39.8 -8.61 7.11 -12.63 -14.83 -42.26 34.93 -8.63 -10.13zm77.54 -11.37l17.03 17.37c3.84,3.9 6.46,7.17 7.86,9.81 1.88,3.53 2.74,7.3 2.55,11.28 -0.17,3.96 -1.28,7.93 -3.33,11.85 -2.05,3.91 -5.31,8.01 -9.8,12.26 -3.92,3.75 -7.78,6.5 -11.57,8.24 -4.62,2.12 -9.08,3.13 -13.36,2.96 -3.25,-0.08 -6.71,-1.1 -10.37,-3.03 -2.72,-1.44 -5.81,-3.92 -9.27,-7.46l-17.5 -17.85 47.76 -45.43zm1.23 17.18l-31.63 30.09 6.95 7.08c2.6,2.66 4.62,4.43 6.09,5.33 1.9,1.15 3.82,1.8 5.74,1.95 1.93,0.11 4.29,-0.53 7.05,-1.91 2.76,-1.4 6.01,-3.85 9.7,-7.36 3.7,-3.52 6.21,-6.53 7.56,-9.04 1.34,-2.53 2.01,-4.9 1.99,-7.1 -0.04,-2.21 -0.73,-4.4 -2.07,-6.54 -1,-1.61 -3.41,-4.34 -7.19,-8.23l-4.19 -4.27zm1.61 77.21l8.51 -9.32 9.45 8.39 -8.51 9.31 -9.45 -8.38zm82.63 -16.18l20.91 16.11c4.15,3.17 7.12,5.72 8.88,7.63 1.76,1.9 3.02,4.01 3.77,6.33 0.74,2.33 0.94,4.76 0.59,7.39 -0.35,2.6 -1.41,5.03 -3.17,7.25 -1.92,2.43 -4.33,4.13 -7.25,5.13 -2.92,0.99 -5.92,1.13 -8.97,0.41 2.45,3.35 3.68,6.81 3.63,10.3 -0.02,3.55 -1.21,6.77 -3.59,9.76 -1.85,2.33 -4.2,4.21 -7.07,5.57 -2.87,1.35 -5.79,1.97 -8.74,1.81 -2.97,-0.14 -5.98,-1.15 -9.05,-3.01 -1.88,-1.17 -6.22,-4.31 -13,-9.45l-17.82 -13.69 40.88 -51.54zm3.76 16.71l-9.45 11.92 6.93 5.32c4.12,3.17 6.72,5.08 7.82,5.73 1.97,1.19 3.88,1.67 5.71,1.44 1.85,-0.23 3.42,-1.18 4.76,-2.83 1.26,-1.6 1.84,-3.24 1.75,-4.92 -0.12,-1.68 -0.97,-3.3 -2.56,-4.86 -0.94,-0.92 -3.91,-3.31 -8.88,-7.12l-6.08 -4.68zm-16.25 20.5l-10.93 13.78 9.77 7.51c3.81,2.92 6.31,4.69 7.5,5.26 1.8,0.93 3.61,1.22 5.48,0.89 1.84,-0.31 3.5,-1.4 4.95,-3.23 1.23,-1.54 1.88,-3.15 1.98,-4.82 0.08,-1.66 -0.39,-3.29 -1.42,-4.89 -1.06,-1.59 -4,-4.25 -8.8,-7.94l-8.53 -6.56zm43.34 64.27l15.23 -23.08 0.56 -44.8 13.16 8.44 -1.18 30.08 27.14 -13.49 12.94 8.29 -41.45 18.73 -15.18 23.01 -11.22 -7.18zm100.98 28.27l4.91 -9.91 25.97 12.48 -11.61 23.42c-3.71,1.17 -8.42,1.54 -14.12,1.07 -5.69,-0.48 -11,-1.89 -15.92,-4.24 -6.22,-3 -11.03,-6.9 -14.4,-11.7 -3.35,-4.83 -5.02,-10.18 -4.98,-16.11 0.06,-5.91 1.47,-11.7 4.26,-17.33 3.03,-6.11 7.02,-10.93 11.99,-14.44 4.96,-3.51 10.56,-5.32 16.87,-5.44 4.77,-0.12 10.02,1.2 15.71,3.92 7.42,3.57 12.46,7.88 15.09,12.94 2.67,5.05 3.25,10.57 1.77,16.55l-13.05 -3.53c0.58,-3.3 0.12,-6.35 -1.38,-9.13 -1.49,-2.79 -3.96,-5 -7.44,-6.67 -5.26,-2.54 -10.27,-2.9 -15,-1.12 -4.75,1.81 -8.7,5.94 -11.91,12.42 -3.45,6.97 -4.47,12.95 -3.05,17.96 1.42,4.99 4.68,8.71 9.78,11.16 2.53,1.22 5.31,1.93 8.33,2.18 3.01,0.25 5.78,0.11 8.28,-0.4l3.7 -7.47 -13.8 -6.61zm39.44 8.6c2.42,-6.23 5.39,-11.09 8.94,-14.59 2.62,-2.56 5.63,-4.63 9.03,-6.19 3.4,-1.54 6.78,-2.37 10.15,-2.45 4.51,-0.17 9.27,0.72 14.32,2.64 9.13,3.44 15.35,8.98 18.66,16.65 3.3,7.64 3.01,16.43 -0.85,26.37 -3.86,9.86 -9.57,16.54 -17.19,20.05 -7.6,3.51 -15.98,3.53 -25.07,0.1 -9.23,-3.49 -15.47,-9.03 -18.76,-16.62 -3.29,-7.58 -3.03,-16.25 0.77,-25.96zm13.06 4.46c-2.7,6.91 -3.11,12.77 -1.28,17.56 1.87,4.79 5.29,8.11 10.28,10.01 4.98,1.88 9.77,1.67 14.34,-0.67 4.58,-2.33 8.26,-7.02 11.01,-14.1 2.74,-6.99 3.2,-12.8 1.45,-17.42 -1.79,-4.65 -5.25,-7.92 -10.4,-9.86 -5.17,-1.95 -10,-1.78 -14.55,0.51 -4.48,2.3 -8.11,6.93 -10.85,13.97zm65.32 55.75l-3.29 -69.38 13.92 4.19 1.68 51.12 29.92 -41.6 13.62 4.1 -42.16 55.68 -13.69 -4.11zm46.81 13.5l11.53 -64.38 48.49 8.41 -1.96 10.9 -35.27 -6.12 -2.55 14.27 32.82 5.7 -1.96 10.84 -32.8 -5.68 -3.16 17.5 36.54 6.35 -1.94 10.85 -49.74 -8.64zm64.78 10.51l6.93 -65.02 28.07 2.9c7.08,0.72 12.12,1.85 15.2,3.34 3.08,1.51 5.42,3.84 7.03,7.03 1.61,3.2 2.19,6.69 1.77,10.53 -0.52,4.9 -2.41,8.78 -5.65,11.65 -3.24,2.88 -7.83,4.43 -13.71,4.65 2.71,1.97 4.9,4.03 6.56,6.2 1.66,2.18 3.81,5.97 6.46,11.35l6.72 13.53 -15.96 -1.66 -8.11 -15.15c-2.9,-5.41 -4.91,-8.84 -6.02,-10.28 -1.12,-1.45 -2.36,-2.48 -3.71,-3.13 -1.37,-0.63 -3.57,-1.1 -6.64,-1.42l-2.71 -0.28 -2.88 27.15 -13.35 -1.39zm17.35 -36.15l9.85 1.03c6.4,0.66 10.43,0.81 12.07,0.44 1.65,-0.37 3,-1.16 4.04,-2.37 1.04,-1.19 1.66,-2.77 1.87,-4.73 0.24,-2.19 -0.17,-4.01 -1.22,-5.48 -1.03,-1.47 -2.62,-2.49 -4.75,-3.08 -1.06,-0.25 -4.3,-0.66 -9.72,-1.22l-10.38 -1.07 -1.76 16.48zm53.48 43l2.32 -65.35 13.04 0.46 25.62 44.57 1.55 -43.65 12.45 0.43 -2.32 65.35 -13.46 -0.47 -25.22 -43.53 -1.52 42.62 -12.46 -0.43zm70.4 1.15l-4.63 -65.25 20.01 -1.36 15.19 43.66 8.7 -45.32 20.07 -1.37 4.64 65.23 -12.43 0.84 -3.62 -51.34 -9.52 52.26 -12.88 0.88 -16.76 -50.45 3.65 51.35 -12.42 0.87zm81.09 -6.2l-11.52 -64.38 48.47 -8.42 1.95 10.88 -35.27 6.15 2.57 14.26 32.82 -5.7 1.94 10.85 -32.82 5.69 3.12 17.54 36.53 -6.35 1.96 10.85 -49.75 8.63zm64.67 -9.72l-17.18 -63.17 12.6 -3.33 37.73 35.26 -11.47 -42.18 12.04 -3.17 17.18 63.16 -13 3.44 -37.07 -34.39 11.21 41.2 -12.04 3.18zm82.72 -22.55l-17.95 -51.38 -18.62 6.32 -3.67 -10.45 49.9 -16.93 3.67 10.48 -18.59 6.28 17.95 51.37 -12.69 4.31zm50.82 -52.32c-2.85,-6.05 -4.34,-11.53 -4.45,-16.47 -0.06,-3.64 0.54,-7.19 1.75,-10.69 1.26,-3.47 3.01,-6.44 5.27,-8.9 3,-3.3 6.95,-6.05 11.86,-8.3 8.87,-4.07 17.23,-4.62 25.13,-1.65 7.88,2.96 14.11,9.28 18.69,18.92 4.53,9.59 5.43,18.26 2.71,26.1 -2.73,7.82 -8.52,13.77 -17.34,17.81 -8.95,4.12 -17.34,4.69 -25.18,1.75 -7.83,-2.95 -13.97,-9.14 -18.44,-18.57zm12.32 -6.15c3.19,6.72 7.18,11.08 11.96,13.09 4.79,2.01 9.6,1.92 14.45,-0.31 4.84,-2.21 8.01,-5.77 9.49,-10.64 1.47,-4.86 0.59,-10.71 -2.67,-17.58 -3.22,-6.8 -7.14,-11.17 -11.74,-13.13 -4.6,-1.95 -9.41,-1.76 -14.43,0.52 -5,2.29 -8.23,5.86 -9.71,10.64 -1.44,4.78 -0.57,10.58 2.65,17.41zm72.26 2.66l-33.19 -56.61 39.43 -22.41 5.62 9.58 -27.82 15.81 7.85 13.38 24.01 -13.63 5.63 9.57 -24.01 13.66 14.11 24.05 -11.63 6.6zm73.87 -44.39l-38.1 -53.54 11 -7.57 16.9 23.77 5.28 -39.08 14.76 -10.17 -5.63 34.98 44.85 17.81 -14.22 9.78 -32.83 -14.82 -2.54 15.09 11.5 16.19 -10.97 7.56zm57.23 -40.55l-42.69 -50.07 37.71 -31.16 7.23 8.47 -27.44 22.67 9.45 11.11 25.55 -21.1 7.18 8.44 -25.53 21.09 11.61 13.63 28.41 -23.48 7.19 8.45 -38.67 31.95zm50.3 -41.62l-47.78 -45.43 19.62 -19.99c4.92,-5.03 8.93,-8.27 12.02,-9.73 3.09,-1.47 6.42,-1.84 9.94,-1.13 3.55,0.73 6.72,2.42 9.55,5.12 3.59,3.4 5.53,7.28 5.84,11.56 0.29,4.27 -1.29,8.78 -4.73,13.49 3.24,-0.9 6.24,-1.33 9,-1.27 2.78,0.04 7.11,0.7 13.06,1.98l14.96 3.1 -11.14 11.37 -17.14 -3.04c-6.1,-1.09 -10.08,-1.63 -11.92,-1.67 -1.85,-0.01 -3.45,0.31 -4.81,0.97 -1.34,0.68 -3.07,2.09 -5.22,4.28l-1.88 1.92 19.94 18.96 -9.31 9.51zm-18.25 -35.73l6.87 -7.02c4.48,-4.55 7.07,-7.58 7.81,-9.08 0.71,-1.5 0.91,-3.04 0.58,-4.6 -0.33,-1.54 -1.21,-2.99 -2.63,-4.37 -1.61,-1.53 -3.33,-2.33 -5.14,-2.43 -1.83,-0.1 -3.62,0.52 -5.38,1.8 -0.87,0.67 -3.19,2.92 -6.97,6.78l-7.25 7.41 12.11 11.51zm105.75 -59.05l-9.4 11 -15.28 -5.16 -17.05 20.01 8.03 13.68 -9.14 10.73 -34.23 -61.54 9.11 -10.69 67.96 21.97zm-35.99 2l-24.77 -8.7 13.12 22.36 11.65 -13.66zm43 -11.29l-53.28 -38.13 7.87 -10.68 44.24 31.65 19.6 -26.55 9.04 6.48 -27.47 37.23zm66.48 -97.49l-7.74 12.2 -15.87 -3.04 -14.06 22.18 9.9 12.44 -7.55 11.87 -42.6 -56.24 7.51 -11.85 70.41 12.44zm-35.35 6.92l-25.77 -5.2 16.16 20.33 9.61 -15.13z"/>
   <path class="fil1" d="M2497.33 2135.57l44.77 26.95c9.72,5.86 11.93,17.08 6.62,33.66l-1.69 4.47c-7.01,11.71 -17.57,16.78 -31.67,15.26l6.05 28.84 -0.81 1.35 -20.43 -12.3 -9.68 -50.93 0.37 -0.61 24.92 15c5.76,3.47 11.56,1.81 17.39,-4.95 3.55,-5.94 2.6,-11.32 -2.89,-16.16l-28.95 -17.44 -32.58 54.34 -2.14 0.55 -11.81 -7.12 -0.52 -2.13 40.91 -68.24 2.14 -0.54zm114.74 150.97l-46.09 -17.74c-4.59,-1.75 -7.76,-4.68 -9.5,-8.74 -1.74,-4.07 -1.75,-8.32 -0.06,-12.74l23.9 -62.37 15.5 5.96 -23.89 62.37 46.09 17.72 23.91 -62.36 15.36 5.91 -23.91 62.37c-1.64,4.33 -4.43,7.47 -8.31,9.43 -3.9,1.95 -8.24,2.01 -13,0.19zm139.97 -32.74l-32.45 -6.31 -12.73 65.58 -16.15 -3.14 12.71 -65.6 -32.31 -6.29 3.17 -16.31 80.93 15.74 -3.17 16.33zm23.88 -11.89l52.16 2.73c11.33,0.61 18.53,9.47 21.62,26.62l0.6 4.73c-0.71,13.63 -7.64,23.08 -20.8,28.37l18.85 22.63 -0.08 1.55 -23.82 -1.25 -32.41 -40.41 0.05 -0.7 29.04 1.52c6.71,0.35 11.05,-3.84 13.03,-12.55 0.35,-6.92 -3.02,-11.23 -10.14,-12.93l-33.72 -1.76 -3.31 63.3 -1.64 1.49 -13.75 -0.73 -1.46 -1.63 4.14 -79.5 1.64 -1.48zm170.03 80.12l-49.34 4.33c-8.76,0.77 -14.35,-2.44 -16.79,-9.65 -0.52,-1.67 -0.87,-3.49 -1.05,-5.48l-4.37 -49.99c-0.37,-4.32 0.84,-8.32 3.67,-11.93 2.81,-3.64 6.58,-5.65 11.28,-6.07l49.33 -4.32c4.62,-0.39 8.66,0.89 12.1,3.87 3.43,2.98 5.36,6.73 5.75,11.26l4.36 49.99c0.97,11.04 -4.02,17.05 -14.94,17.99zm-1.45 -16.56l-4.37 -49.97 -49.33 4.31 4.37 49.99 49.33 -4.33zm129.43 -14.88l-9.95 2.87 -68.41 -36.84 14.94 52.19 -15.83 4.55 -22.95 -80.21 9.83 -2.81 68.53 36.79 -14.93 -52.19 15.81 -4.55 22.96 80.2zm47.66 -19.28l-15.36 5.9 -29.84 -77.88 15.36 -5.91 29.84 77.89zm115.63 -60.25l-19.74 10.95 -38.31 -13.82 -8.59 39.88 -19.86 11.03 14.48 -55.67 -54.85 -17.32 19.84 -11.02 38.33 13.82 8.6 -39.86 19.72 -10.97 -14.27 55.71 54.65 17.27z"/>
   <path class="fil1" d="M2848.67 950.1c103,0 196.24,41.81 263.74,109.4 67.56,67.66 109.34,161.1 109.34,264.21 0,103.25 -41.74,196.71 -109.24,264.33 -67.49,67.61 -160.77,109.43 -263.84,109.43 -103,-0.08 -196.26,-41.9 -263.74,-109.54 -67.46,-67.62 -109.2,-161.02 -109.2,-264.22 0,-103.18 41.75,-196.59 109.23,-264.19 67.47,-67.6 160.72,-109.42 263.71,-109.42zm236.73 136.61c-60.54,-60.62 -144.24,-98.14 -236.73,-98.14 -92.38,0 -176.02,37.52 -236.55,98.16 -60.54,60.64 -97.98,144.43 -97.98,236.98 0,92.66 37.43,176.51 97.95,237.16 60.54,60.68 144.2,98.2 236.58,98.2 92.46,-0.07 176.13,-37.58 236.68,-98.24 60.55,-60.66 97.99,-144.49 97.99,-237.12 0,-92.6 -37.42,-176.4 -97.94,-237z"/>
   <path class="fil0" d="M2502.92 1279.96l220.29 -1.38c9.38,-6.82 10.83,-13.24 8.14,-23.03l-154.3 -147.86 -8.49 7.79 149.52 147.59 -217.42 4.72 2.26 12.17zm692.37 77.28l-221.03 0.64c-9.38,6.8 -10.82,13.23 -8.13,23.02l162.54 151.62 8.48 -7.77 -157.77 -151.38 218.16 -3.95 -2.25 -12.18zm-125.04 238.09l-160.74 -160.16c-11.42,-1.81 -17,1.7 -22,10.54l3.96 225.87 11.5 0.54 -0.77 -222.37 161.07 155.78 6.98 -10.2zm46.82 -490.75l-151.59 152.75c-1.83,11.47 1.68,17.06 10.5,22.05l217.22 -4.74 0.5 -11.5 -213.67 1.55 147.22 -153.11 -10.18 -7zm-484.37 -56.23l155.27 152.93c11.44,1.82 17.01,-1.7 21.98,-10.53l-5.38 -216.29 -10.84 1.93 1.55 210.31 -152.82 -147.49 -9.76 9.14zm255.78 -73.28l-0.18 217.42c6.81,9.38 13.22,10.85 22.98,8.11l150.79 -158.94 -8.54 -6.5 -149.76 152.19 -3.94 -212.54 -11.35 0.26zm-312.6 561.32l156.12 -157.27c1.81,-11.47 -1.69,-17.06 -10.51,-22.05l-217.22 4.73 -0.51 11.51 213.68 -1.54 -151.75 157.62 10.19 7zm232.41 133.53l0.88 -225.95c-6.8,-9.38 -13.23,-10.85 -22.99,-8.13l-154.35 161.31 7.76 8.52 154.11 -156.56 2.45 223.07 12.14 -2.26z"/>
   <g>
    <path class="fil0" d="M2802.52 1676.13l0 -328.08 0 328.08zm91.36 -333.3l0 333.3 0 -333.3zm-47.03 -73.46c28.57,0 51.75,23.22 51.75,51.87 0,7.7 -1.71,15.03 -4.72,21.59 -8.16,17.88 -26.13,30.27 -47.03,30.27 -18.81,0 -35.28,-10.02 -44.33,-25.05 -4.73,-7.82 -7.44,-17.02 -7.44,-26.81 0,-28.65 23.17,-51.87 51.77,-51.87z"/>
   </g>
   <path class="fil1" d="M2783.32 1676.13l0 -323.33c-1.98,-3.99 -3.6,-8.17 -4.8,-12.5 -1.71,-6.21 -2.64,-12.62 -2.64,-19.06 0,-19.58 7.94,-37.34 20.78,-50.21 12.83,-12.93 30.59,-20.9 50.19,-20.9 19.59,0 37.34,7.97 50.17,20.83 12.83,12.94 20.78,30.71 20.78,50.28 0,5.14 -0.58,10.2 -1.64,15.09 -0.76,3.44 -1.79,6.86 -3.08,10.19l0 329.61 -38.4 0 0 -289.5c-8.56,3.68 -17.97,5.71 -27.83,5.71 -8.79,0 -17.27,-1.65 -25.13,-4.66l0 288.45 -38.4 0zm86.58 -378c-5.93,-5.87 -14.07,-9.53 -23.05,-9.53 -9,0 -17.15,3.66 -23.03,9.56 -5.91,5.87 -9.54,14.05 -9.54,23.08 0,3.2 0.4,6.18 1.14,8.84 0.8,2.91 1.98,5.62 3.45,8.06 2.97,4.8 7.08,8.8 11.94,11.54 4.62,2.69 10.09,4.19 16.04,4.19 6.5,0 12.53,-1.88 17.55,-5.11 5.25,-3.38 9.49,-8.22 12.07,-13.9 0.91,-1.98 1.66,-4.22 2.19,-6.64 0.47,-2.19 0.73,-4.54 0.73,-6.98 0,-9.03 -3.63,-17.21 -9.49,-23.11z"/>
  </g>
  <g>
   <path class="fil1" d="M9127.09 1802.38c13.98,-1.39 23.42,-6.66 28.32,-15.75 4.9,-9.12 7.33,-19.28 7.33,-30.49l0 -292.1c0,-14.02 -4.53,-25.05 -13.63,-33.1 -9.08,-8.08 -21.67,-12.09 -37.77,-12.09 -14.68,0 -26.74,4.01 -36.18,12.09 -9.44,8.05 -14.16,19.08 -14.16,33.1l0 292.1c0,10.51 3.52,20.68 10.48,30.49 7,9.8 16.46,14.71 28.33,14.71l0 75.65c-20.99,0 -40.37,-3.15 -58.22,-9.44 -17.83,-6.32 -33.2,-14.73 -46.14,-25.24 -12.95,-10.5 -23.26,-22.59 -30.94,-36.25 -7.71,-13.65 -11.53,-28.2 -11.53,-43.6l0 -305.77c0,-17.53 4.18,-33.28 12.57,-47.3 8.39,-14.01 19.58,-25.9 33.57,-35.71 13.98,-9.82 30.61,-17.54 49.81,-23.14 19.24,-5.61 40.05,-8.4 62.41,-8.4 22.38,0 43.2,2.79 62.4,8.4 19.25,5.6 36.04,13.32 50.37,23.14 14.33,9.81 25.51,21.89 33.57,36.24 8.03,14.38 12.04,29.96 12.04,46.77l0 305.77c0,14.71 -3.49,28.9 -10.47,42.55 -7.01,13.67 -16.79,25.74 -29.38,36.24 -12.59,10.53 -27.6,19.1 -45.1,25.75 -17.5,6.68 -36.71,9.99 -57.68,9.99l0 -74.61zm492.05 110.32c0,34.34 -12.95,62.01 -38.82,83.02 -25.87,21.02 -60.83,31.53 -104.89,31.53 -41.26,0 -75.35,-10.33 -102.26,-30.99 -26.94,-20.67 -40.39,-48.51 -40.39,-83.56l0 -99.81c0,-17.51 3.84,-33.09 11.54,-46.76 7.7,-13.65 18.01,-25.38 30.94,-35.2 12.93,-9.79 27.62,-17.5 44.05,-23.13 16.45,-5.58 33.04,-8.74 49.83,-9.44l-1.06 0c9.79,-1.39 18.7,-6.82 26.77,-16.3 8.03,-9.45 12.05,-20.82 12.05,-34.15l0 -182.8c0,-14.03 -3.14,-25.07 -9.45,-33.12 -6.28,-8.06 -13.62,-12.08 -22.02,-12.08 -7.69,0 -14.51,4.02 -20.46,12.08 -5.93,8.05 -8.9,19.09 -8.9,33.12l0 80.9 -108.03 0 0 -88.28c0,-17.5 3.83,-33.27 11.53,-47.29 7.69,-14 17.83,-25.92 30.43,-35.73 12.57,-9.79 27.08,-17.51 43.5,-23.11 16.44,-5.61 33.75,-8.4 51.93,-8.4 18.17,0 35.68,2.79 52.47,8.4 16.76,5.6 31.44,13.32 44.02,23.11 12.6,9.81 22.74,21.9 30.44,36.27 7.67,14.35 11.51,29.93 11.51,46.75l0 196.51c0,12.6 -3.48,25.04 -10.46,37.3 -7.01,12.24 -19.58,23.97 -37.77,35.19 11.88,6.99 21.51,15.07 28.86,24.16 7.33,9.12 12.73,17.51 16.25,25.23 3.5,6.99 5.76,13.47 6.8,19.43 1.06,5.96 1.59,11.74 1.59,17.34l0 99.81zm-108.03 -16.78c-10.5,6.3 -23.44,9.44 -38.83,9.44 -12.57,0 -23.07,-2.8 -31.47,-8.41l0 9.45c0,14.03 3.16,24.9 9.46,32.58 6.28,7.71 14.68,11.57 25.16,11.57 23.77,0 35.68,-14.72 35.68,-44.15l0 -10.48zm-34.62 -65.17c6.98,0 13.45,-2.09 19.4,-6.3 5.93,-4.2 8.91,-11.21 8.91,-20.99 0,-7.74 -2.44,-14.22 -7.35,-19.47 -4.88,-5.25 -12.23,-7.87 -22.02,-7.87 -17.48,0 -26.56,8.76 -27.27,26.26 0,11.9 2.97,19.64 8.91,23.11 5.95,3.51 12.41,5.26 19.42,5.26zm313.55 -85.1c0,7.7 1.94,15.94 5.78,24.69 3.85,8.75 9.27,15.58 16.26,20.48 -4.9,-5.6 -7.87,-11.73 -8.91,-18.38 -1.04,-6.66 -1.58,-12.08 -1.58,-16.3l0 -27.3c0,-28.75 8.39,-50.79 25.18,-66.21 16.78,-15.42 44.76,-23.12 83.9,-23.12 37.77,0 67.67,8.76 89.7,26.28 22.02,17.51 33.03,40.64 33.03,69.35l0 42.03c0,28.03 -11.19,50.79 -33.57,68.31 -22.37,17.51 -52.43,26.26 -90.2,26.26l-88.11 0c-41.94,0 -75.7,-9.63 -101.22,-28.9 -25.52,-19.26 -38.28,-46.41 -38.28,-81.42l0 -304.73c0,-35.04 12.94,-62.17 38.8,-81.46 25.88,-19.25 59.8,-28.89 101.74,-28.89l87.07 0c37.77,0 67.83,8.76 90.2,26.29 22.38,17.5 33.57,40.26 33.57,68.28l0 42.03c0,28.74 -11.01,51.85 -33.03,69.35 -22.03,17.52 -51.93,26.29 -89.7,26.29 -39.14,0 -67.12,-7.72 -83.9,-23.12 -16.79,-15.42 -25.18,-37.49 -25.18,-66.2l0 -27.33c0,-3.49 0.71,-8.93 2.1,-16.28 1.4,-7.36 4.56,-13.84 9.44,-19.45 -6.99,4.9 -12.59,11.74 -16.79,20.5 -4.19,8.75 -6.3,16.99 -6.3,24.7l0 274.25zm139.51 1.06c0,-9.82 -1.22,-18.24 -3.68,-25.24 -2.44,-7 -6.47,-10.5 -12.05,-10.5 -5.6,0 -9.61,3.31 -12.05,9.98 -2.46,6.65 -3.68,15.24 -3.68,25.76l0 16.8c0,9.11 1.04,17.32 3.15,24.69 2.09,7.35 6.3,11.04 12.58,11.04 10.51,0 15.73,-11.91 15.73,-35.73l0 -16.8zm0 -292.13c0,-23.82 -5.22,-35.73 -15.73,-35.73 -6.28,0 -10.49,3.69 -12.58,11.04 -2.11,7.35 -3.15,15.59 -3.15,24.69l0 16.82c0,10.5 1.22,19.08 3.68,25.74 2.44,6.66 6.45,9.97 12.05,9.97 5.58,0 9.61,-3.49 12.05,-10.5 2.46,-7 3.68,-15.41 3.68,-25.21l0 -16.82zm507.8 545.35l-166.77 0c-25.19,0 -48.27,-3.15 -69.24,-9.46 -20.99,-6.29 -39.33,-16.28 -55.06,-29.92 -15.74,-13.69 -27.97,-30.68 -36.72,-50.97 -8.74,-20.34 -13.11,-44.85 -13.11,-73.56l0 -377.23c0,-17.52 4.73,-33.28 14.17,-47.3 9.44,-14 21.86,-25.92 37.23,-35.74 15.38,-9.79 32.88,-17.51 52.44,-23.1 19.58,-5.62 39.87,-8.4 60.85,-8.4l0 75.66c-13.99,0 -27.1,4.02 -39.34,12.08 -12.24,8.05 -18.35,19.09 -18.35,33.12l0 365.64c0,31.53 6.11,55.18 18.35,70.94 12.24,15.76 28.5,23.63 48.78,23.63l166.77 0 0 74.61zm180.36 -238.51c0,17.48 -4.37,33.44 -13.12,47.78 -8.73,14.38 -20.63,26.46 -35.65,36.28 -15.04,9.79 -32.35,17.51 -51.93,23.11 -19.58,5.61 -40.21,8.4 -61.89,8.4 -21.66,0 -42.31,-2.79 -61.87,-8.4 -19.59,-5.6 -36.74,-13.49 -51.41,-23.65 -14.67,-10.15 -26.39,-22.24 -35.13,-36.26 -8.75,-14 -13.12,-29.78 -13.12,-47.26l0 -71.47 123.78 0 0 65.13c0,13.32 3.5,24.01 10.5,32.07 6.97,8.05 16.06,12.09 27.25,12.09 11.18,0 20.47,-4.04 27.8,-12.09 7.35,-8.06 11.02,-18.75 11.02,-32.07l0 -64.07c0,-13.31 -3.84,-24.17 -11.55,-32.59 -7.68,-8.39 -17.83,-13.32 -30.41,-14.71 -21.68,0 -42.15,-2.8 -61.37,-8.4 -19.22,-5.61 -36,-13.31 -50.34,-23.11 -14.33,-9.81 -25.7,-21.89 -34.08,-36.26 -8.4,-14.35 -12.6,-29.93 -12.6,-46.75l0 -75.67c0,-17.5 4.37,-33.26 13.12,-47.26 8.74,-14.02 20.46,-26.11 35.13,-36.26 14.67,-10.17 31.82,-18.05 51.41,-23.66 19.56,-5.6 40.21,-8.39 61.87,-8.39 21.68,0 42.31,2.79 61.89,8.39 19.58,5.61 36.89,13.49 51.93,23.66 15.02,10.15 26.92,22.4 35.65,36.78 8.75,14.34 13.12,29.94 13.12,46.74l0 71.45 -123.77 0 0 -64.09c0,-14 -3.67,-25.21 -11.02,-33.62 -7.33,-8.41 -16.62,-12.6 -27.8,-12.6 -11.19,0 -20.28,4.19 -27.25,12.6 -7,8.41 -10.5,19.62 -10.5,33.62l0 60.97c0,14 3.3,25.02 9.97,33.07 6.65,8.06 15.89,12.79 27.78,14.21 21.68,0 42.31,2.77 61.89,8.39 19.58,5.59 36.89,13.49 51.93,23.64 15.02,10.16 26.92,22.25 35.65,36.26 8.75,14 13.12,29.77 13.12,47.28l0 76.72z"/>
   <path class="fil1" d="M10788.79 1754.05c0,18.91 3.5,31.17 10.49,36.77 7,5.61 15.03,8.42 24.13,8.42 9.08,0 17.31,-3.16 24.64,-9.46 7.34,-6.31 11.02,-18.21 11.02,-35.73l0 -288.94c0,-17.55 -3.68,-29.44 -11.02,-35.76 -7.33,-6.29 -15.56,-9.44 -24.64,-9.44 -9.1,0 -17.13,2.95 -24.13,8.92 -6.99,5.96 -10.49,18.05 -10.49,36.28l0 80.9 -108.03 0 0 -88.28c0,-17.5 4.03,-33.27 12.06,-47.29 8.03,-14 18.7,-25.92 31.98,-35.73 13.29,-9.79 28.5,-17.51 45.62,-23.11 17.14,-5.61 34.8,-8.4 52.99,-8.4 18.87,0 36.88,2.79 54.02,8.4 17.12,5.6 32.34,13.32 45.62,23.11 13.29,9.81 23.94,21.9 31.98,36.27 8.06,14.35 12.09,29.93 12.09,46.75l0 302.63c0,16.81 -4.03,32.4 -12.09,46.76 -8.04,14.36 -18.69,26.44 -31.98,36.25 -13.28,9.8 -28.5,17.5 -45.62,23.11 -17.14,5.61 -35.15,8.41 -54.02,8.41 -18.19,0 -35.85,-2.64 -52.99,-7.89 -17.12,-5.24 -32.33,-12.95 -45.62,-23.11 -13.28,-10.16 -23.95,-22.25 -31.98,-36.25 -8.03,-14 -12.06,-29.78 -12.06,-47.28l0 -84.07 108.03 0 0 77.76zm478.43 -411.91c24.46,0 43.86,2.11 58.21,6.32 14.34,4.19 26.75,11.56 37.25,22.04 11.88,-11.91 26.03,-19.96 42.46,-24.16 16.44,-4.2 33.75,-6.3 51.93,-6.3 16.08,0 31.63,2.46 46.66,7.38 15.05,4.89 28.5,11.9 40.4,20.99 11.19,-9.82 25.34,-16.98 42.46,-21.54 17.15,-4.54 34.09,-6.83 50.86,-6.83 18.21,0 36.03,2.64 53.51,7.9 17.48,5.25 32.87,12.77 46.16,22.56 13.29,9.82 23.95,21.74 31.99,35.76 8.04,14 12.07,29.76 12.07,47.26l0 307.9c0,17.48 -4.55,33.26 -13.64,47.26 -9.1,14.02 -20.98,25.93 -35.68,35.74 -14.66,9.81 -31.81,17.34 -51.37,22.58 -19.59,5.25 -39.86,7.89 -60.85,7.89l0 -76.72c15.39,0 27.96,-3.66 37.77,-11.02 9.77,-7.35 14.68,-17.69 14.68,-31.01l0 -295.26c0,-14 -3.5,-24.86 -10.51,-32.57 -6.97,-7.71 -15.02,-11.55 -24.13,-11.55 -8.37,0 -16.05,3.5 -23.07,10.5 -6.97,7.01 -11.19,16.82 -12.56,29.43l0 415.05 -109.09 0 0 -414.01c-1.41,-13.31 -5.61,-23.46 -12.6,-30.47 -6.98,-7 -14.68,-10.5 -23.06,-10.5 -8.4,0 -16.08,3.5 -23.08,10.5 -6.99,7.01 -11.19,17.16 -12.59,30.47l0 414.01 -109.09 0 0 -404.56c0,-14 -4.02,-25.91 -12.06,-35.71 -8.04,-9.82 -20.11,-14.38 -36.19,-13.67l-95.44 0c-7.7,0 -14.69,4.02 -20.97,12.09 -6.31,8.05 -9.47,19.09 -9.47,33.1l0 24.17c7.01,-1.43 13.65,-2.11 19.94,-2.11 37.78,0 68.88,10.5 93.36,31.52 24.49,21.01 36.73,49.04 36.73,84.06l0 160.79c0,35.71 -12.24,63.91 -36.73,84.58 -24.48,20.65 -55.58,30.99 -93.36,30.99 -37.05,0 -67.65,-10.34 -91.77,-30.99 -24.13,-20.67 -36.19,-48.87 -36.19,-84.58l0 -303.69c0,-17.5 3.85,-33.27 11.54,-47.29 7.69,-14 17.82,-26.08 30.41,-36.25 12.59,-10.17 27.27,-18.05 44.06,-23.65 16.78,-5.61 34.29,-8.4 52.45,-8.4l98.6 0zm-88.11 265.85c0,-14.01 -1.58,-25.04 -4.72,-33.11 -3.15,-8.05 -8.58,-12.06 -16.27,-12.06 -6.99,0 -12.06,4.01 -15.21,12.06 -3.13,8.07 -4.73,19.1 -4.73,33.11l0 148.15c0,13.32 1.6,24.01 4.73,32.06 3.15,8.04 8.22,12.08 15.21,12.08 7.69,0 13.12,-4.04 16.27,-12.08 3.14,-8.05 4.72,-18.74 4.72,-32.06l0 -148.15zm660.92 -295.27c0,-14 -1.23,-24.86 -3.67,-32.57 -2.44,-7.69 -8.57,-11.56 -18.35,-11.56 -9.09,0 -14.87,3.87 -17.31,11.56 -2.45,7.71 -3.68,18.57 -3.68,32.57l0 14.71 -106.98 0 0 -22.07c0,-35.03 11.9,-62.87 35.66,-83.53 23.78,-20.68 54.54,-30.98 92.31,-30.98 37.05,0 67.83,10.3 92.3,30.98 24.47,20.66 36.72,48.5 36.72,83.53l0 566.38 -107 0 0 -559.02zm642.05 448.7c0,17.48 -4.53,33.44 -13.63,47.78 -9.09,14.38 -20.99,26.46 -35.67,36.28 -14.68,9.79 -31.82,17.51 -51.38,23.11 -19.57,5.61 -39.87,8.06 -60.84,7.35 -22.38,-0.7 -44.23,-3.33 -65.56,-7.87 -21.34,-4.56 -38.29,-13.84 -50.87,-27.86 -7,9.81 -16.45,18.23 -28.32,25.23 -11.89,7 -30.42,10.5 -55.59,10.5 -33.58,0 -60.32,-10.16 -80.24,-30.46 -19.94,-20.32 -29.91,-48.35 -29.91,-84.06l0 -109.3c0,-35.02 12.25,-62.87 36.71,-83.53 24.5,-20.67 58.05,-31.01 100.71,-31.01l13.63 0 0 -84.06c0,-19.61 4.36,-36.58 13.1,-50.95 8.76,-14.38 20.47,-26.29 35.14,-35.74 14.7,-9.45 31.66,-16.62 50.88,-21.52 19.23,-4.92 39.34,-7.36 60.32,-7.36 20.97,0 41.27,2.44 60.84,7.36 19.56,4.9 36.7,12.07 51.38,21.52 14.68,9.45 26.58,21.56 35.67,36.26 9.1,14.71 13.63,31.53 13.63,50.43l0 84.06 13.63 0c42.67,0 76.41,10.34 101.22,31.01 24.85,20.66 37.25,48.51 37.25,83.53l0 109.3c0,35.71 -10.15,63.91 -30.43,84.58 -20.27,20.65 -54.19,30.99 -101.73,30.99l-16.79 0 0 -76.71 16.79 0c7.68,0 13.62,-4.04 17.83,-12.08 4.18,-8.05 6.3,-18.74 6.3,-32.06l0 -96.66c0,-14.02 -2.12,-25.05 -6.3,-33.11 -4.21,-8.04 -12.24,-12.06 -24.14,-12.06l-13.63 0 0 147.11zm-110.15 -147.11l-102.78 0 0 131.34c0,36.42 17.12,54.63 51.41,54.63 17.45,0 30.42,-4.9 38.81,-14.71 8.37,-9.81 12.56,-22.76 12.56,-38.86l0 -132.4zm0 -76.73l0 -76.7c0,-16.8 -4.54,-28.72 -13.62,-35.73 -9.11,-6.98 -21.68,-10.49 -37.75,-10.49 -13.98,0 -26.05,3.33 -36.2,9.96 -10.15,6.66 -15.21,18.75 -15.21,36.26l0 76.7 102.78 0zm-232.82 260.59c9.06,0 15.01,-4.02 17.8,-12.05 2.8,-8.08 4.21,-20.16 4.21,-36.27l0 -135.54 -14.68 0c-11.89,0 -19.58,5.08 -23.08,15.23 -3.51,10.15 -5.25,20.13 -5.25,29.94l0 96.66c0,11.94 1.22,21.9 3.69,29.98 2.44,8.03 8.2,12.05 17.31,12.05zm620.89 -602.07l0 44.13c0,16.81 -3.86,31.68 -11.54,44.65 -7.68,12.95 -18.02,23.82 -30.94,32.56 -12.95,8.78 -27.81,15.26 -44.58,19.45 -16.79,4.21 -34.62,6.31 -53.49,6.31 -18.21,0 -35.68,-2.1 -52.44,-6.31 -16.79,-4.19 -31.65,-10.67 -44.6,-19.45 -12.93,-8.74 -23.24,-19.61 -30.95,-32.56 -7.7,-12.97 -11.52,-28.19 -11.52,-45.7l0 -43.08 106.99 0 0 36.78c0,14 3.32,23.97 9.95,29.93 6.64,5.97 14.18,8.92 22.57,8.92 9.08,0 16.76,-2.79 23.07,-8.4 6.29,-5.6 9.44,-15.4 9.44,-29.42l0 -37.81 108.04 0zm437.33 146.04c49.63,0 89.13,10.51 118.53,31.54 29.36,21.02 44.03,48.66 44.03,83.01l0 305.77c0,16.82 -4,32.4 -12.05,46.74 -8.03,14.38 -18.7,26.46 -31.98,36.28 -13.3,9.79 -28.52,17.51 -45.64,23.11 -17.11,5.61 -35.15,8.4 -54.02,8.4 -18.18,0 -35.84,-2.79 -52.97,-8.4 -17.13,-5.6 -32.34,-13.49 -45.63,-23.65 -13.27,-10.15 -23.94,-22.59 -31.99,-37.3 -8.04,-14.71 -12.04,-31.17 -12.04,-49.39l0 -294.21c0,-14.02 -3.51,-25.05 -10.51,-33.1 -6.99,-8.08 -15.04,-12.09 -24.11,-12.09 -8.41,0 -16.09,3.69 -23.07,11.04 -7.02,7.35 -11.19,17.67 -12.61,30.99l0 410.86 -108.02 0 0 -410.86c-1.41,-13.32 -5.77,-23.64 -13.12,-30.99 -7.35,-7.35 -14.86,-11.04 -22.54,-11.04 -9.1,0 -17.31,4.01 -24.66,12.09 -7.33,8.05 -11.01,19.08 -11.01,33.1l0 292.1c0,30.13 15.39,45.2 46.15,45.2l0 75.65c-51.74,0 -90.23,-10.34 -115.38,-30.99 -25.17,-20.67 -37.76,-48.53 -37.76,-83.54l0 -305.77c0,-17.53 4.02,-33.28 12.06,-47.3 8.04,-14.01 18.7,-25.9 31.99,-35.71 13.28,-9.82 28.5,-17.54 45.62,-23.14 17.14,-5.61 34.79,-8.4 52.99,-8.4 16.07,0 32.33,2.46 48.77,7.36 16.43,4.91 29.54,13.31 39.33,25.21 10.49,-11.9 24.47,-20.3 41.95,-25.21 17.49,-4.9 33.92,-7.36 49.31,-7.36 17.48,0 34.96,2.79 52.43,8.4 17.49,5.6 33.04,13.32 46.68,23.14 13.63,9.81 24.49,21.89 32.5,36.24 8.07,14.38 11.72,29.96 11.03,46.77l0 294.2c0,14.01 2.44,25.93 7.35,35.74 4.88,9.8 13.99,14.71 27.26,14.71 11.89,0 20.81,-4.75 26.75,-14.19 5.95,-9.45 8.91,-21.19 8.91,-35.19l0 -287.92c0,-14.02 -5.26,-25.05 -15.73,-33.1 -10.48,-8.08 -23.41,-12.09 -38.8,-12.09l0 -76.71zm288.56 -146.04l0 44.13c0,16.81 -3.84,31.68 -11.55,44.65 -7.68,12.95 -18,23.82 -30.92,32.56 -12.94,8.78 -27.81,15.26 -44.57,19.45 -16.81,4.21 -34.64,6.31 -53.51,6.31 -18.17,0 -35.67,-2.1 -52.45,-6.31 -16.77,-4.19 -31.64,-10.67 -44.58,-19.45 -12.94,-8.74 -23.24,-19.61 -30.94,-32.56 -7.69,-12.97 -11.54,-28.19 -11.54,-45.7l0 -43.08 107 0 0 36.78c0,14 3.31,23.97 9.95,29.93 6.64,5.97 14.18,8.92 22.56,8.92 9.1,0 16.78,-2.79 23.08,-8.4 6.28,-5.6 9.45,-15.4 9.45,-29.42l0 -37.81 108.02 0z"/>
   <path class="fil1" d="M5144.44 1742.79c0,7.52 1.89,15.59 5.66,24.14 3.75,8.55 9.04,15.24 15.88,20.01 -4.78,-5.46 -7.69,-11.46 -8.71,-17.97 -1.02,-6.5 -1.54,-11.81 -1.54,-15.92l0 -26.71c0,-28.08 8.2,-49.66 24.62,-64.73 16.4,-15.05 43.75,-22.59 82.03,-22.59 36.91,0 66.16,8.57 87.68,25.68 21.53,17.13 32.3,39.73 32.3,67.8l0 41.1c0,27.4 -10.93,49.66 -32.82,66.78 -21.87,17.12 -51.28,25.68 -88.19,25.68l-86.14 0c-41.02,0 -74.01,-9.42 -98.97,-28.24 -24.93,-18.84 -37.42,-45.39 -37.42,-79.61l0 -297.94c0,-34.26 12.65,-60.78 37.96,-79.63 25.28,-18.84 58.42,-28.27 99.46,-28.27l85.11 0c36.91,0 66.32,8.59 88.19,25.72 21.89,17.11 32.82,39.37 32.82,66.76l0 41.09c0,28.09 -10.77,50.69 -32.3,67.81 -21.52,17.12 -50.77,25.69 -87.68,25.69 -38.28,0 -65.63,-7.54 -82.03,-22.59 -16.42,-15.09 -24.62,-36.66 -24.62,-64.73l0 -26.72c0,-3.42 0.68,-8.73 2.04,-15.93 1.37,-7.19 4.45,-13.52 9.24,-19 -6.84,4.79 -12.31,11.48 -16.4,20.03 -4.12,8.56 -6.17,16.61 -6.17,24.16l0 268.13zm136.41 1.03c0,-9.59 -1.22,-17.82 -3.6,-24.66 -2.39,-6.86 -6.33,-10.28 -11.81,-10.28 -5.46,0 -9.37,3.24 -11.77,9.77 -2.39,6.5 -3.6,14.88 -3.6,25.17l0 16.43c0,8.9 1.02,16.94 3.08,24.14 2.05,7.19 6.15,10.78 12.29,10.78 10.27,0 15.41,-11.63 15.41,-34.92l0 -16.43zm0 -285.61c0,-23.29 -5.14,-34.94 -15.41,-34.94 -6.14,0 -10.24,3.61 -12.29,10.8 -2.06,7.19 -3.08,15.26 -3.08,24.14l0 16.45c0,10.26 1.21,18.65 3.6,25.17 2.4,6.5 6.31,9.75 11.77,9.75 5.48,0 9.42,-3.44 11.81,-10.28 2.38,-6.85 3.6,-15.07 3.6,-24.64l0 -16.45zm609.26 300c0,17.1 -4.43,32.68 -13.34,46.73 -8.88,14.04 -20.51,25.85 -34.86,35.44 -14.36,9.6 -31.11,17.12 -50.24,22.6 -19.15,5.47 -38.98,7.88 -59.49,7.18 -21.88,-0.68 -43.25,-3.23 -64.11,-7.69 -20.83,-4.45 -37.42,-13.54 -49.71,-27.23 -6.84,9.59 -16.07,17.81 -27.7,24.65 -11.62,6.87 -29.74,10.27 -54.35,10.27 -32.82,0 -58.97,-9.91 -78.44,-29.78 -19.5,-19.86 -29.25,-47.26 -29.25,-82.17l0 -106.87c0,-34.23 11.98,-61.47 35.89,-81.67 23.93,-20.2 56.75,-30.3 98.46,-30.3l13.34 0 0 -82.19c0,-19.17 4.25,-35.78 12.8,-49.83 8.55,-14.04 20,-25.68 34.37,-34.92 14.35,-9.25 30.95,-16.26 49.73,-21.06 18.8,-4.8 38.46,-7.19 58.97,-7.19 20.51,0 40.34,2.39 59.49,7.19 19.13,4.8 35.88,11.81 50.24,21.06 14.35,9.24 25.98,21.06 34.86,35.44 8.91,14.37 13.34,30.82 13.34,49.31l0 82.19 13.33 0c41.69,0 74.67,10.1 98.96,30.3 24.28,20.2 36.4,47.44 36.4,81.67l0 106.87c0,34.91 -9.92,62.48 -29.74,82.68 -19.81,20.2 -52.98,30.3 -99.46,30.3l-16.41 0 0 -74.99 16.41 0c7.51,0 13.31,-3.94 17.42,-11.81 4.11,-7.88 6.15,-18.33 6.15,-31.34l0 -94.51c0,-13.69 -2.04,-24.49 -6.15,-32.37 -4.11,-7.87 -11.96,-11.8 -23.58,-11.8l-13.33 0 0 143.84zm-107.68 -143.84l-100.51 0 0 128.42c0,35.6 16.76,53.41 50.26,53.41 17.07,0 29.74,-4.79 37.96,-14.39 8.18,-9.59 12.29,-22.25 12.29,-37.99l0 -129.45zm0 -75l0 -75c0,-16.43 -4.45,-28.07 -13.32,-34.92 -8.91,-6.84 -21.21,-10.28 -36.93,-10.28 -13.67,0 -25.47,3.27 -35.37,9.75 -9.93,6.51 -14.89,18.33 -14.89,35.45l0 75 100.51 0zm-227.66 254.78c8.88,0 14.7,-3.93 17.43,-11.82 2.73,-7.88 4.11,-19.69 4.11,-35.44l0 -132.52 -14.36 0c-11.63,0 -19.14,4.96 -22.57,14.9 -3.41,9.93 -5.12,19.68 -5.12,29.27l0 94.51c0,11.66 1.19,21.4 3.59,29.28 2.38,7.89 8.03,11.82 16.92,11.82zm678.82 76.01c-33.51,-2.74 -59.29,-8.72 -77.41,-17.95 -18.12,-9.26 -31.28,-19.72 -39.49,-31.36 -8.2,-11.63 -12.99,-23.27 -14.34,-34.92 -1.39,-11.65 -2.07,-20.54 -2.07,-26.71l0 -294.85c0,-34.24 12.82,-61.47 38.47,-81.66 25.63,-20.21 61.01,-30.34 106.12,-30.34l108.72 0c17.1,0 33.83,2.77 50.24,8.23 16.41,5.49 30.78,13.03 43.07,22.62 12.3,9.59 22.22,21.23 29.76,34.92 7.5,13.7 11.26,29.11 11.26,46.23l0 294.85c0,17.14 -3.24,32.53 -9.73,46.24 -6.51,13.69 -15.56,25.49 -27.19,35.43 -11.62,9.93 -25.12,17.46 -40.51,22.61 -15.38,5.13 -31.6,7.69 -48.71,7.69 -36.9,0 -67.35,-10.1 -91.23,-30.3 -23.97,-20.2 -35.94,-47.43 -35.94,-81.67l0 -156.16c0,-17.12 1.72,-32.51 5.14,-46.21 3.43,-13.7 9.23,-25.52 17.43,-35.47 8.2,-9.92 19.33,-17.45 33.33,-22.58 14.02,-5.15 31.62,-7.73 52.82,-7.73 4.77,0 10.94,1.05 18.45,3.09 7.53,2.06 14.36,5.48 20.51,10.27l0 -34.92c0,-13.69 -4.27,-24.14 -12.82,-31.34 -8.53,-7.17 -19.64,-11.13 -33.31,-11.8l-82.04 0c-17.09,-0.69 -29.4,3.24 -36.93,11.8 -7.51,8.58 -11.27,19.71 -11.27,33.4l0 281.48c0,10.27 1.03,19.88 3.07,28.76 2.05,8.91 10.25,13.71 24.6,14.39l0 73.96zm105.64 -117.11c0,29.46 7.52,44.18 22.55,44.18 13.68,0 20.51,-14.72 20.51,-44.18l0 -142.8c0,-13.7 -1.69,-24.48 -5.11,-32.36 -3.43,-7.86 -8.55,-11.81 -15.4,-11.81 -7.51,0 -13.16,3.95 -16.91,11.81 -3.76,7.88 -5.64,18.66 -5.64,32.36l0 142.8zm618.49 -233.21c0,16.46 -3.42,30.83 -10.26,43.15 -6.84,12.33 -20.51,22.62 -41.04,30.82 15.07,6.18 27.37,16.28 36.93,30.32 9.58,14.02 14.37,28.59 14.37,43.66l0 54.45c0,17.12 -3.93,32.36 -11.79,45.72 -7.86,13.33 -18.29,24.82 -31.28,34.4 -12.99,9.59 -27.86,16.96 -44.62,22.1 -16.74,5.13 -34.01,7.71 -51.77,7.71l-140.5 0c-5.46,0 -10.42,1.52 -14.88,4.62 -4.43,3.07 -6.99,10.79 -7.68,23.1 0,12.34 2.73,20.04 8.2,23.11 5.47,3.1 10.24,4.64 14.36,4.64l273.81 0 0 73.97 -273.81 0c-36.92,0 -67.5,-8.4 -91.79,-25.18 -24.27,-16.78 -36.41,-42.63 -36.41,-77.57 0,-34.23 12.14,-58.73 36.41,-73.45 24.29,-14.71 54.87,-22.09 91.79,-22.09l140.5 0c8.17,0 15.88,-4.45 23.07,-13.34 7.18,-8.93 10.76,-20.2 10.76,-33.9l0 -42.12c0,-13.71 -2.22,-24.32 -6.66,-31.86 -4.45,-7.54 -14.87,-11.29 -31.28,-11.29l0 -74.99c14.35,0 24.29,-3.78 29.74,-11.31 5.46,-7.54 8.2,-18.15 8.2,-31.85l0 -41.09c0,-13.69 -3.58,-24.48 -10.76,-32.37 -7.19,-7.87 -15.59,-11.8 -25.12,-11.8l-126.16 0c-7.5,0 -14.85,3.6 -22.03,10.77 -7.18,7.2 -11.45,16.62 -12.82,28.27l0 30.81c5.47,-3.42 11.63,-5.83 18.44,-7.19 6.84,-1.38 12.66,-2.06 17.46,-2.06 36.91,0 65.11,10.1 84.58,30.29 19.5,20.23 29.24,47.11 29.24,80.67l0 44.16c0,34.26 -12.13,61.47 -36.4,81.69 -24.28,20.21 -54.88,30.3 -91.78,30.3 -36.92,0 -67.35,-10.09 -91.29,-30.3 -23.92,-20.22 -35.89,-47.43 -35.89,-81.69l0 -178.75c0,-17.12 3.95,-32.53 11.81,-46.23 7.86,-13.69 18.29,-25.33 31.27,-34.92 12.99,-9.59 27.86,-17.13 44.61,-22.62 16.75,-5.46 34.37,-8.23 52.8,-8.23l128.21 0c17.76,0 35.03,2.77 51.77,8.23 16.76,5.49 31.63,13.03 44.62,22.62 12.99,9.59 23.42,21.23 31.28,34.92 7.86,13.7 11.79,29.11 11.79,46.23l0 55.47zm-258.43 86.3c0,-13.7 -1.87,-24.48 -5.63,-32.35 -3.76,-7.89 -9.4,-11.83 -16.92,-11.83 -7.52,0 -13.01,4.63 -16.42,13.87 -3.41,9.26 -5.12,19.37 -5.12,30.31l0 31.87c0,13.69 1.71,24.3 5.12,31.83 3.41,7.54 8.9,11.31 16.42,11.31 7.52,0 13.16,-3.77 16.92,-11.31 3.76,-7.53 5.63,-18.14 5.63,-31.83l0 -31.87zm645.16 136.65c0,7.52 1.88,15.59 5.64,24.14 3.76,8.55 9.06,15.24 15.88,20.01 -4.78,-5.46 -7.68,-11.46 -8.69,-17.97 -1.03,-6.5 -1.55,-11.81 -1.55,-15.92l0 -26.71c0,-28.08 8.19,-49.66 24.61,-64.73 16.4,-15.05 43.75,-22.59 82.04,-22.59 36.91,0 66.15,8.57 87.7,25.68 21.52,17.13 32.27,39.73 32.27,67.8l0 41.1c0,27.4 -10.93,49.66 -32.79,66.78 -21.89,17.12 -51.28,25.68 -88.21,25.68l-86.15 0c-41.02,0 -74,-9.42 -98.94,-28.24 -24.95,-18.84 -37.45,-45.39 -37.45,-79.61l0 -297.94c0,-34.26 12.66,-60.78 37.96,-79.63 25.3,-18.84 58.44,-28.27 99.46,-28.27l85.12 0c36.93,0 66.32,8.59 88.21,25.72 21.86,17.11 32.79,39.37 32.79,66.76l0 41.09c0,28.09 -10.75,50.69 -32.27,67.81 -21.55,17.12 -50.79,25.69 -87.7,25.69 -38.29,0 -65.64,-7.54 -82.04,-22.59 -16.42,-15.09 -24.61,-36.66 -24.61,-64.73l0 -26.72c0,-3.42 0.68,-8.73 2.06,-15.93 1.36,-7.19 4.45,-13.52 9.22,-19 -6.84,4.79 -12.31,11.48 -16.4,20.03 -4.11,8.56 -6.16,16.61 -6.16,24.16l0 268.13zm136.39 1.03c0,-9.59 -1.19,-17.82 -3.59,-24.66 -2.4,-6.86 -6.32,-10.28 -11.79,-10.28 -5.47,0 -9.39,3.24 -11.8,9.77 -2.39,6.5 -3.58,14.88 -3.58,25.17l0 16.43c0,8.9 1.02,16.94 3.06,24.14 2.07,7.19 6.16,10.78 12.32,10.78 10.26,0 15.38,-11.63 15.38,-34.92l0 -16.43zm0 -285.61c0,-23.29 -5.12,-34.94 -15.38,-34.94 -6.16,0 -10.25,3.61 -12.32,10.8 -2.04,7.19 -3.06,15.26 -3.06,24.14l0 16.45c0,10.26 1.19,18.65 3.58,25.17 2.41,6.5 6.33,9.75 11.8,9.75 5.47,0 9.39,-3.44 11.79,-10.28 2.4,-6.85 3.59,-15.07 3.59,-24.64l0 -16.45zm654.4 542.43c13.66,-0.69 23.75,-2.74 30.23,-6.16 6.51,-3.42 9.77,-7.2 9.77,-11.31l0 -32.86c0,-5.49 -5.3,-9.78 -15.9,-12.85 -10.6,-3.08 -24.81,-4.63 -42.56,-4.63 -17.11,0 -30.94,1.55 -41.54,4.63 -10.59,3.07 -15.9,7.36 -15.9,12.85l0 32.86c0,4.8 3.61,8.9 10.78,12.32 7.19,3.44 16.91,5.15 29.22,5.15l0 61.64c-37.61,0 -68.71,-5.64 -93.33,-16.95 -24.6,-11.29 -36.91,-24.83 -36.91,-40.58l0 -73.96c0,-8.91 3.76,-16.78 11.28,-23.65 7.52,-6.84 17.94,-12.85 31.27,-17.95 13.34,-5.13 29.06,-9.07 47.19,-11.84 18.11,-2.74 37.42,-4.09 57.94,-4.09 21.19,0 40.85,1.35 58.96,4.09 18.14,2.77 33.84,6.71 47.17,11.84 13.34,5.1 23.75,11.11 31.29,17.95 7.52,6.87 11.27,14.74 11.27,23.65l0 73.96c0,15.07 -12.3,28.42 -36.92,40.07 -24.6,11.65 -55.72,17.46 -93.31,17.46l0 -61.64zm-318.93 0c13.67,-0.69 23.75,-2.74 30.24,-6.16 6.5,-3.42 9.74,-7.2 9.74,-11.31l0 -32.86c0,-5.49 -5.3,-9.78 -15.9,-12.85 -10.59,-3.08 -24.44,-4.63 -41.53,-4.63 -17.77,0 -31.96,1.55 -42.57,4.63 -10.57,3.07 -15.88,7.36 -15.88,12.85l0 32.86c0,4.8 3.58,8.9 10.76,12.32 7.19,3.44 16.93,5.15 29.24,5.15l0 61.64c-38.28,0 -69.39,-5.64 -93.32,-16.95 -23.93,-11.29 -35.9,-24.83 -35.9,-40.58l0 -73.96c0,-17.81 13.85,-31.86 41.55,-42.11 27.68,-10.29 63.05,-15.42 106.12,-15.42 20.53,0 39.84,1.35 57.95,4.09 18.11,2.77 33.85,6.71 47.17,11.84 13.32,5.1 23.94,11.11 31.79,17.95 7.87,6.87 11.8,14.74 11.8,23.65l0 73.96c0,7.54 -3.42,14.72 -10.25,21.56 -6.83,6.86 -16.07,13.03 -27.7,18.51 -11.6,5.48 -25.46,9.76 -41.53,12.85 -16.07,3.06 -33.33,4.61 -51.78,4.61l0 -61.64zm297.38 -652.36c48.54,0 87.18,10.28 115.89,30.84 28.71,20.55 43.06,47.59 43.06,81.15l0 298.95c0,16.45 -3.92,31.67 -11.79,45.72 -7.84,14.04 -18.28,25.85 -31.27,35.44 -12.99,9.6 -27.86,17.12 -44.61,22.6 -16.75,5.47 -34.34,8.21 -52.82,8.21 -17.77,0 -35.01,-2.74 -51.79,-8.21 -16.73,-5.48 -31.6,-13.19 -44.59,-23.12 -13.01,-9.92 -23.42,-22.09 -31.29,-36.47 -7.86,-14.38 -11.79,-30.46 -11.79,-48.28l0 -287.66c0,-13.69 -3.43,-24.47 -10.25,-32.34 -6.85,-7.9 -14.7,-11.84 -23.6,-11.84 -8.2,0 -15.71,3.61 -22.55,10.8 -6.84,7.19 -10.93,17.27 -12.31,30.3l0 401.69 -105.63 0 0 -401.69c-1.38,-13.03 -5.64,-23.11 -12.82,-30.3 -7.19,-7.19 -14.52,-10.8 -22.06,-10.8 -8.86,0 -16.92,3.94 -24.08,11.84 -7.19,7.87 -10.78,18.65 -10.78,32.34l0 285.6c0,29.46 15.06,44.18 45.13,44.18l0 73.96c-50.59,0 -88.19,-10.1 -112.81,-30.3 -24.59,-20.2 -36.91,-47.43 -36.91,-81.67l0 -298.95c0,-17.13 3.93,-32.53 11.8,-46.23 7.86,-13.71 18.28,-25.34 31.27,-34.92 12.99,-9.59 27.86,-17.16 44.6,-22.62 16.76,-5.49 34.02,-8.22 51.78,-8.22 15.74,0 31.64,2.41 47.71,7.19 16.05,4.8 28.88,13.03 38.46,24.65 10.24,-11.62 23.91,-19.85 41.02,-24.65 17.08,-4.78 33.15,-7.19 48.18,-7.19 17.11,0 34.2,2.73 51.28,8.22 17.08,5.46 32.3,13.03 45.64,22.62 13.33,9.58 23.92,21.39 31.78,35.43 7.88,14.05 11.47,29.27 10.77,45.72l0 287.65c0,13.69 2.39,25.33 7.18,34.92 4.79,9.59 13.68,14.39 26.66,14.39 11.63,0 20.35,-4.63 26.16,-13.87 5.8,-9.24 8.71,-20.72 8.71,-34.41l0 -281.5c0,-13.69 -5.12,-24.47 -15.38,-32.34 -10.25,-7.9 -22.89,-11.84 -37.95,-11.84l0 -74.99zm393.91 654.43c13.67,-0.7 23.6,-2.58 29.75,-5.65 6.16,-3.09 9.24,-6.7 9.24,-10.8l0 -34.92c0,-5.49 -5.32,-9.59 -15.91,-12.35 -10.6,-2.74 -24.44,-4.11 -41.53,-4.11 -16.41,0 -29.91,1.37 -40.51,4.11 -10.6,2.76 -15.91,6.86 -15.91,12.35l0 34.92c0,4.8 3.61,8.72 10.79,11.81 7.19,3.09 16.57,4.64 28.19,4.64l0 60.58c-37.59,0 -68.56,-5.46 -92.81,-16.42 -24.27,-10.96 -36.4,-24.3 -36.4,-40.06l0 -73.98c0,-17.79 14.03,-31.67 42.05,-41.6 28.01,-9.92 62.89,-14.89 104.6,-14.89 21.2,0 40.69,1.37 58.44,4.11 17.78,2.73 33.34,6.51 46.67,11.29 13.33,4.8 23.76,10.63 31.26,17.47 7.54,6.86 11.29,14.74 11.29,23.62l0 73.98c0,15.06 -12.29,28.25 -36.9,39.54 -24.62,11.32 -55.4,16.94 -92.31,16.94l0 -60.58zm-3.07 -204.45c13.67,-1.38 22.9,-6.51 27.7,-15.42 4.77,-8.9 7.16,-18.83 7.16,-29.79l0 -285.6c0,-13.69 -4.44,-24.47 -13.32,-32.34 -8.9,-7.9 -21.19,-11.84 -36.92,-11.84 -14.36,0 -26.16,3.94 -35.38,11.84 -9.23,7.87 -13.85,18.65 -13.85,32.34l0 285.6c0,10.27 3.42,20.2 10.25,29.79 6.84,9.59 16.07,14.39 27.69,14.39l0 73.96c-20.5,0 -39.46,-3.07 -56.91,-9.23 -17.43,-6.17 -32.47,-14.38 -45.11,-24.66 -12.67,-10.28 -22.75,-22.1 -30.26,-35.45 -7.54,-13.36 -11.3,-27.57 -11.3,-42.63l0 -298.95c0,-17.13 4.14,-32.53 12.32,-46.23 8.21,-13.71 19.14,-25.34 32.82,-34.92 13.67,-9.59 29.9,-17.16 48.71,-22.62 18.8,-5.49 39.13,-8.22 61.02,-8.22 21.88,0 42.21,2.73 61.02,8.22 18.79,5.46 35.2,13.03 49.22,22.62 14.02,9.58 24.95,21.39 32.83,35.43 7.85,14.05 11.78,29.27 11.78,45.72l0 298.95c0,14.38 -3.41,28.25 -10.26,41.61 -6.82,13.35 -16.41,25.17 -28.71,35.44 -12.31,10.29 -27,18.66 -44.1,25.17 -17.08,6.52 -35.88,9.75 -56.4,9.75l0 -72.93zm262.63 -592.77l0 43.16c0,16.43 -3.74,30.98 -11.26,43.64 -7.53,12.67 -17.61,23.29 -30.26,31.84 -12.67,8.56 -27.18,14.91 -43.58,19.02 -16.42,4.12 -33.85,6.16 -52.32,6.16 -17.75,0 -34.86,-2.04 -51.25,-6.16 -16.41,-4.11 -30.95,-10.46 -43.59,-19.02 -12.65,-8.55 -22.73,-19.17 -30.26,-31.84 -7.52,-12.66 -11.28,-27.56 -11.28,-44.67l0 -42.13 104.6 0 0 35.95c0,13.7 3.26,23.45 9.74,29.28 6.49,5.83 13.86,8.73 22.04,8.73 8.93,0 16.42,-2.74 22.58,-8.23 6.15,-5.46 9.23,-15.05 9.23,-28.75l0 -36.98 105.61 0z"/>
  </g>
 </g>
</svg>
